<?xml version="1.0" encoding="utf-8"?>
<!-- Generator: Adobe Illustrator 19.1.0, SVG Export Plug-In . SVG Version: 6.00 Build 0)  -->
<svg version="1.1" id="Layer_1" xmlns="http://www.w3.org/2000/svg" xmlns:xlink="http://www.w3.org/1999/xlink" x="0px" y="0px"
	 viewBox="-11.5 17.3 83 83" style="enable-background:new -11.5 17.3 83 83;" xml:space="preserve">
<g>
	<g>
		<path d="M70,57.2H60V44c2.3-0.7,4-2.8,4-5.3c0-2.6-3.4-6.1-4.5-7.1c-0.6-0.5-1.5-0.5-2.1,0c-1,1-4.5,4.4-4.5,7.1
			c0,2.5,1.7,4.6,4,5.3v13.2H45.5V30.1c2.5-0.5,4.4-2.7,4.4-5.4c0-2.6-3.4-6.1-4.5-7.1c-0.6-0.5-1.5-0.5-2.1,0c-1,1-4.5,4.4-4.5,7.1
			c0,2.4,1.5,4.4,3.6,5.2v27.3h-11V44.1c2.4-0.6,4.2-2.7,4.2-5.4c0-2.6-3.4-6.1-4.5-7.1c-0.6-0.5-1.5-0.5-2.1,0
			c-1,1-4.5,4.4-4.5,7.1c0,2.4,1.6,4.5,3.8,5.2v13.3h-11V30c2.4-0.6,4.1-2.8,4.1-5.3c0-2.6-3.4-6.1-4.5-7.1c-0.6-0.5-1.5-0.5-2.1,0
			c-1,1-4.5,4.4-4.5,7.1c0,2.5,1.6,4.6,3.9,5.3v27.2h-11V44c2.3-0.7,4-2.8,4-5.3c0-2.6-3.4-6.1-4.5-7.1c-0.6-0.5-1.5-0.5-2.1,0
			c-1,1-4.5,4.4-4.5,7.1c0,2.5,1.7,4.6,4,5.3v13.2H-10c-0.8,0-1.5,0.7-1.5,1.5v40c0,0.8,0.7,1.5,1.5,1.5h80c0.8,0,1.5-0.7,1.5-1.5
			v-40C71.5,57.9,70.8,57.2,70,57.2z M56,38.7c0-0.7,1.2-2.4,2.5-3.9c1.3,1.4,2.5,3.1,2.5,3.9c0,1.4-1.1,2.5-2.5,2.5
			S56,40.1,56,38.7z M44.4,20.8c1.3,1.4,2.5,3.1,2.5,3.9c0,1.4-1.1,2.5-2.5,2.5s-2.5-1.1-2.5-2.5C41.9,24,43.1,22.3,44.4,20.8z
			 M27.8,38.7c0-0.7,1.2-2.4,2.5-3.9c1.3,1.4,2.5,3.1,2.5,3.9c0,1.4-1.1,2.5-2.5,2.5S27.8,40.1,27.8,38.7z M13.6,24.7
			c0-0.7,1.2-2.4,2.5-3.9c1.3,1.4,2.5,3.1,2.5,3.9c0,1.4-1.1,2.5-2.5,2.5S13.6,26.1,13.6,24.7z M-0.5,38.7c0-0.7,1.2-2.4,2.5-3.9
			c1.3,1.4,2.5,3.1,2.5,3.9c0,1.4-1.1,2.5-2.5,2.5S-0.5,40.1-0.5,38.7z M-8.5,60.2h77v6.5c0,3.6-2.9,6.5-6.5,6.5s-6.5-2.9-6.5-6.5
			c0-0.8-0.7-1.5-1.5-1.5s-1.5,0.7-1.5,1.5c0,3.6-2.9,6.5-6.5,6.5s-6.5-2.9-6.5-6.5c0-0.8-0.7-1.5-1.5-1.5s-1.5,0.7-1.5,1.5
			c0,3.6-2.9,6.5-6.5,6.5s-6.5-2.9-6.5-6.5c0-0.8-0.7-1.5-1.5-1.5s-1.5,0.7-1.5,1.5c0,3.6-2.9,6.5-6.5,6.5s-6.5-2.9-6.5-6.5l0,0
			c0-0.8-0.7-1.5-1.5-1.5l0,0l0,0c-0.8,0-1.5,0.7-1.5,1.5l0,0c0,3.6-2.9,6.5-6.5,6.5s-6.5-2.9-6.5-6.5V60.2z M68.5,84.6v4.6h-77
			v-4.6c0.9-0.2,1.5-1,1.5-1.9c0-0.9-0.6-1.7-1.5-1.9v-7.2c1.7,1.6,4,2.6,6.5,2.6c3.4,0,6.3-1.8,8-4.4c1.7,2.6,4.6,4.4,8,4.4
			s6.3-1.8,8-4.4c1.7,2.6,4.6,4.4,8,4.4s6.3-1.8,8-4.4c1.7,2.6,4.6,4.4,8,4.4s6.3-1.8,8-4.4c1.7,2.6,4.6,4.4,8,4.4
			c2.5,0,4.8-1,6.5-2.6v7.2c-0.9,0.2-1.5,1-1.5,1.9C67,83.6,67.6,84.4,68.5,84.6z M-8.5,97.2v-5h77v5H-8.5z"/>
		<circle cx="22" cy="82.7" r="2"/>
		<circle cx="6" cy="82.7" r="2"/>
		<circle cx="54" cy="82.7" r="2"/>
		<circle cx="38" cy="82.7" r="2"/>
	</g>
</g>
</svg>
