<?xml version="1.0" encoding="utf-8"?>
<!-- Generator: Adobe Illustrator 19.1.0, SVG Export Plug-In . SVG Version: 6.00 Build 0)  -->
<svg version="1.1" id="Layer_1" xmlns="http://www.w3.org/2000/svg" xmlns:xlink="http://www.w3.org/1999/xlink" x="0px" y="0px"
	 viewBox="-265 345.3 79.1 102.7" style="enable-background:new -265 345.3 79.1 102.7;" xml:space="preserve">
<path d="M-188.5,373.5c0-0.2,0-0.5,0-0.7c0.1-2.1,2-7,2-11.8c0-0.9-0.1-1.7-0.2-2.6c-1-5.7-6.1-9.2-6.2-9.3h-0.1h-0.1
	c0,0-2.6-1.3-5.4-1.8c-0.5-0.1-1-0.1-1.5-0.1c-4.4,0-9.9,2.9-14.9,5.9c-3.6,2.2-6.6,2.3-9.1,2.5c-1.3,0.1-2.4,0.2-3.5,0.7
	c-1.1,0.5-1.9,1.5-2.4,3c-0.2,0.6-0.3,1.2-0.3,1.9c0,2.9,1.8,5.8,4.4,8.6c0,0.1,0,0.3-0.2,0.4c-0.2,0.1-0.5,0-0.7,0
	c-0.4-0.1-0.2-0.3-0.5-0.5c-0.4-0.3-1.2-0.4-1.4,0.1c-0.3,0.9,2.2,2,1.3,3c-0.2,0.2-0.8,0.3-1,0.2c0-0.3-0.1-0.7-0.3-0.9
	c-0.3-0.4-1-1.3-1.5-1c-0.4,0.2-0.3,0.6-0.2,0.9c-0.9,0-1.6-0.5-2.8-0.9c-0.9-0.3-1.8-0.4-2.7-0.4c-1.2,0-2.4,0.2-3.5,0.5
	c-4.5,1.2-7.4,5-7.4,9.6c0,0.1,0,0.2,0,0.3c0.1,4.1,1.3,8.3,2.9,11.9c0.2,0.4,0.3,0.8,0.5,1.2c0,0.1-0.1,0.1-0.1,0.2
	c-0.1,0.2,0,0.5-0.2,0.7c-0.3,0.3-0.9,0-1.2,0.1c-0.5,0.1-1,0.4-1.4,0.7c-0.4,0.4-0.7,0.9-1.1,1.3c-0.6,0.6-1.2,1.2-1.7,1.9
	c-0.3,0.4-0.7,0.8-0.9,1.3c-0.1,0.2,0,0.5-0.1,0.7c-0.1,0.2-0.4,0.5-0.5,0.7c-0.7,1-0.8,2.3-0.5,3.5c0.1,0.5,0.4,0.9,0.7,1.3
	c-0.6-0.1-1.2-0.1-1.8-0.1c-4.5,0-9.3,1.4-12.1,5.6c-0.9,1.3-1.4,3.3-1.4,5.3c0,2.9,1,6.2,3.7,7.2c0.3,0.1,0.7,0.2,1.2,0.2
	c0.7,0,1.7-0.2,2.2-1.2c0.1-0.3,0.2-0.5,0.2-0.8c0-0.4-0.2-0.8-0.4-1c-0.3-0.3-0.6-0.4-1-0.4c-0.5,0-0.9,0.2-1.3,0.6l0.9,0.9
	c0.1-0.1,0.3-0.2,0.3-0.2c0.1,0,0.1,0,0.1,0.1c0,0,0,0.1-0.1,0.2c0,0.2-0.4,0.4-1,0.4c-0.3,0-0.6,0-0.7-0.1
	c-1.9-0.6-2.9-3.2-2.9-5.9c0-1.8,0.4-3.6,1.1-4.6c2.5-3.7,6.7-5,11-5c0.7,0,1.4,0,2.1,0.1c0.5,0,0.9,0.1,1.4,0.1
	c0.9,0.9,1.1,2.5,1,3.8c-0.1,0.9-0.6,2-1.1,2.7c-0.3,0.4-1,1.4-1.5,1.6c-0.3,0.1-1,0.1-1.4,0.1c-0.6,0-1-0.5-1.7-0.5
	c0,0.6,0.8,1.4,1.3,1.8c0.4,0.4,1.1,0.6,1.7,0.6c1.2-0.1,2.6-1.5,3-2.6c0.6-1.6,0.6-3.5,0.1-5.2c-0.2-0.8-0.7-1.5-1.1-2.2
	c0.6,0.1,1.1,0.1,1.7,0.1c1.8,0,3.7-0.5,5.2-2.5c1-1.3,1.4-2.9,1.4-4.4c0-2-0.6-4.1-1.3-5.9c0.1,0,0.1-0.1,0.2-0.1
	c0.6-0.6,1.6-0.6,2.2-0.6c0.6,0.1,1.5,0.4,2.1,0.1c0.7-0.4,0.6-0.9,0.8-1.5c0.2-0.5,0.1-0.5,0.6-0.7c0.3-0.2,0.6-0.2,0.9-0.4
	c0.6-0.5,0.8-1.4,0.3-2c-0.3-0.4-0.8-0.7-0.2-1.1c0.3-0.2,0.7-0.1,1-0.4c0.3-0.3,0.2-0.4,0-0.7c0-0.3-0.1-0.6-0.4-0.7
	c-0.2-0.1-0.5-0.1-0.7-0.3c-0.5-0.6,0.7-1.4,1.1-1.6c0.3-0.1,0.6-0.1,0.8-0.3c0.3-0.2,0.6-0.6,0.8-0.9c0.3-0.4,0.4-0.2,0.2-0.7
	c-0.2-0.3-0.4-0.5-0.7-0.7c-0.7-0.6-0.4-0.9,0.3-1.4c0.2-0.1,0.7-0.2,0.8-0.4c0.3-0.4,0-0.4-0.2-0.8c-0.5-0.7-0.7-1.3,0-2
	c0.8-0.5,1.5-1,2.3-0.5c0.3,0.2,0.6,0.4,0.8,0.6c0.2,0.2,0.4,0.6,0.6,0.7c0.2,0.1,0.7,0,0.9-0.1c0.4-0.4,0-1,0-1.5s0.6-0.8,1-0.9
	c0.4-0.1,0.6,0.1,0.9,0.3c0.2,0.1,0.4,0.3,0.6,0.4c-2,1.8-4.1,4.5-5.3,6.4c-2.5,4.1-3.5,8.2-3.5,12.7c0,1,0.1,2.1,0.2,3.1
	c0.1,0.7,0.1,1.5,0.1,2.2c0,4.2-1.2,8-4.1,11.1c-1.9,2.1-4.3,3.6-6.6,5.4c-2.2,1.8-4.1,4.4-4.6,7.4c-0.1,0.6-0.2,1.3-0.2,1.9
	c0,0.7,0.1,1.3,0.2,1.9c0.4,2,0.9,3.6,0.9,5.3c0,0.8-0.1,1.6-0.5,2.6c-0.7,2.1-3.1,4.9-5.4,4.9c-0.1,0-0.1,0-0.2,0
	c-0.5,0-0.9-0.2-1.3-0.5c0.3-0.3,0.5-0.7,0.5-1c0-0.6-0.5-1.1-1.1-1.3l-0.3-0.1l-0.2,0.2c-0.3,0.4-0.4,0.8-0.4,1.2
	c0.1,1.4,1.5,2.3,2.8,2.4c0.1,0,0.1,0,0.2,0c3-0.1,5.4-3.2,6.3-5.5c0.4-1,0.5-2,0.5-2.9c0-1.9-0.6-3.5-0.9-5.5
	c-0.1-0.6-0.2-1.2-0.2-1.8s0-1.2,0.1-1.7c0.5-2.7,2.2-5.1,4.3-6.8c2.2-1.8,4.6-3.3,6.7-5.5c1.7-1.6,2.8-3.6,3.5-5.7
	c0,0.6,0.1,1.1,0.4,1.6c0.2,0.4,0.4,0.9,0.8,1.2c-0.2,0.3-0.4,0.7-0.5,1.1c-1.1,2.7-0.8,5.4-1,7.8c-0.3,2.4-0.8,4.3-3.2,5.9
	c-2.1,1.4-4.1,3.6-5,6.1c-0.3,0.8-0.4,1.5-0.4,2.2c0,1.2,0.3,2.2,0.6,3.5c0.3,1.2,0.5,2.5,0.5,3.7c-0.1,2.4-0.6,4.1-3.2,4.4l0.1,1.3
	l0,0c3.3-0.3,4.4-3.1,4.3-5.7c0-1.4-0.2-2.8-0.5-4c-0.3-1.4-0.6-2.3-0.6-3.3c0-0.5,0.1-1.1,0.3-1.8c0.7-2.2,2.5-4.2,4.4-5.4
	c2.8-1.9,3.5-4.4,3.7-6.9s0-5,0.9-7.4c0.2-0.5,0.4-0.8,0.6-1.2c0.4,0,0.8-0.2,1-0.6c0.1-0.2,0.2-0.4,0.2-0.7c0.9-0.7,2-1.1,3.4-1.7
	c1.2-0.5,2.5-0.9,3.8-1.7c0.2,0.8,0.3,1.5,0.3,2.2c0,1.1-0.3,2.1-1.1,3.1c-1.6,2-4.4,2.6-6.6,4.4c-1.8,1.5-2.6,3.9-2.6,6.2
	c0,0.8,0.1,1.6,0.3,2.4c0.1,0.3,0.2,0.8,0.4,1.3c0.2,0.5,0.6,1.1,1.3,1.1l0,0c0.3,0,0.6-0.1,0.8-0.3s0.2-0.5,0.2-0.7
	c0-0.6-0.4-1.3-1.2-1.3c0.1,0.3,0,0.3-0.2,0.3c0-0.2-0.1-0.3-0.1-0.4c-0.2-0.7-0.2-1.5-0.2-2.2c0-2.1,0.7-4.2,2.2-5.5
	c1.9-1.6,4.8-2.2,6.8-4.5c1-1.2,1.3-2.5,1.3-3.7c0-1-0.2-1.9-0.4-2.8c0.6-0.4,1.1-0.9,1.5-1.5c1.7-2.6,1.3-5.9,2.8-7.8
	c1.9-2.4,5-3.5,8-4.2c0.1,0.5,0.5,0.9,0.6,1.3s0,0.7-0.4,0.9c-0.6,0.2-0.8,0-1.2-0.3c-0.3-0.2-0.9-0.7-1.3-0.5
	c-0.6,0.3-0.3,1.3-0.6,1.8c-0.4,0.6-0.7,0-1.3-0.1c-0.7-0.1-1.1,0.3-1.1,1c0,0.4,0.3,0.6,0.1,1c-0.2,0.3-0.7,0.3-0.9,0.4
	c-0.6,0.3-0.7,0.5-0.5,1.2c0.1,0.4,0.2,0.4,0,0.8s-0.6,0.5-0.9,0.8c-0.6,0.8,0.1,2.6,0.2,3.5c0.1,0.7,0.4,1.1,0.8,1.7
	c0.5,0.6,1.2,1.1,1.4,1.9c0.3,1.3-0.8,3-1.6,4c-0.3,0.3-0.6,0.7-1,0.9c0.5-0.1,1,0,1.5-0.2c0.5-0.2,0.8-0.6,1.1-1.1
	c0.7-1.4,1-3,0.7-4.5s-1.9-2.2-2.2-3.7c-0.1-0.4-0.1-1.1,0.1-1.5c0.2-0.2,0.5-0.2,0.7-0.3c0.3-0.1,0.5-0.2,0.8-0.5
	c0.5-0.6-0.1-1.3,0.5-1.8c0.3-0.2,0.5-0.5,0.9-0.4c0.4,0.1,0.5,0.6,0.9,0.6c1.4,0.2,1-2.9,2.7-2.1c0.8,0.4,0.8,1.2,1.8,1.1
	c0.6-0.1,0.5-0.2,0.7-0.7c0.1-0.5,0.2-0.6,0.2-1.1c0-0.2-0.2-0.2-0.1-0.5c0-0.1,0.3-0.4,0.4-0.4c0.3-0.1,0.6,0.1,0.9,0
	c0.3-0.1,0.4-0.6,0.4-0.9c0.1-0.6-0.4-0.6-0.5-1c-0.1-0.4,0.4-0.8,0.8-0.9c0.4,0,1.8,0.3,1.3-0.7c-0.3-0.7-1.3-0.4-1.7-0.9
	c-0.1-0.2-0.1-0.5,0.1-0.7c0.3-0.3,0.8,0,1.2,0c0.7-0.1,1.1-0.7,0.9-1.4c-0.1-0.2-0.2-0.3-0.3-0.4c0.5-0.6,1-1.2,1.4-1.9
	c0.3-0.5,0.6-1.2,0.9-1.9c1.7,0.4,3.2,0.6,4.5,0.6l0,0c6.6,0,8.4-4.8,8.4-5l0.1-0.2l-0.1-0.2C-187.7,380-188.5,376.4-188.5,373.5z
	 M-241.4,401c0,1.3-0.3,2.5-1.1,3.6c-1.3,1.7-2.5,2-4.1,2c-0.7,0-1.6-0.1-2.4-0.2c-0.6-1.3-0.8-2.8-0.2-4.1c0.3-0.6,0.7-1.1,1.1-1.6
	c0.6-0.7,0.7-1.6,1-2.4c0.4-1.1,0.8-2.1,2-2.2c0.9-0.1,1,0.8,1.8,0.8c0.3,0,0.7-0.3,1.1-0.7C-241.9,397.8-241.4,399.5-241.4,401z
	 M-231,374c-0.6-0.1-1.2-1.7-1.9-0.7c-0.6,0.8-0.5,1.5,0.1,2.3c0.5,0.6,0.4,1.5-0.5,1.6c-0.4,0.1-0.4,0-0.8-0.3
	c-0.2-0.2-0.5-0.6-0.8-0.6c-0.8-0.1-0.9,0.9-1,1.4c0,0.5-0.1,0.9,0.3,1.3c0.2,0.2,0.6,0.5,0.8,0.6c0,0.6-0.5,0.8-0.7,1.3
	c-1-0.2-2.9,0.3-2.8,1.6c0,0.5,0.6,1,1.1,1.1c0.3,0.1,0.9-0.3,1,0.2c0.1,0.3-0.7,0.8-0.9,1c-0.5,0.3-1,0.4-1,1.1
	c0,1.3,1.4,0.8,2.1,1.4c-0.1,0.7-0.5,1.6-1.3,1.6c-0.2,0.4-0.4,0.8-0.3,1.3c0.2,0.6,0.8,0.5,1.1,0.9c0.5,0.6-0.1,1.1-0.5,1.4
	c-0.3,0.2-0.7,0.3-1.1,0.4c-0.4,0.1-1,0.1-1.4,0.2c-0.5,0.2-0.7,0.8-1.2,1c-0.5,0.2-0.9-0.3-1.5-0.4c-0.2-0.4-0.4-0.8-0.5-1.2
	c-1.5-3.5-2.7-7.6-2.8-11.4c0-0.1,0-0.1,0-0.2c0-4.1,2.4-7.3,6.4-8.3c1-0.3,2.1-0.5,3.2-0.5c0.8,0,1.5,0.1,2.2,0.3
	c1.1,0.3,1.9,1,3.4,1h0.1C-230.2,373.7-230.6,374.1-231,374z M-255.2,440.7c0-0.1,0-0.1,0-0.2C-255.2,440.5-255.2,440.5-255.2,440.7
	C-255.2,440.6-255.2,440.6-255.2,440.7z M-255.2,441.1l0.4,0.5C-254.9,441.4-255.1,441.3-255.2,441.1z M-230.3,425.7
	c0.1,0,0.2,0.2,0.2,0.3l0,0l0,0l0,0c-0.1,0-0.2-0.1-0.3-0.3H-230.3z M-195.3,350c0.8,0.3,1.3,0.5,1.4,0.6c0,0,0.1,0.1,0.2,0.1
	c0.1,0.5,0.2,1.1,0.2,1.7c0,1.8-0.5,3.8-2.1,5c-4,3.1-8.5,5.4-9.7,9.7c-0.2,0.7-0.3,1.4-0.3,2.1c0,1.2,0.2,2.3,0.5,3.2
	c-1.2-1-2.4-2-3.6-3.1c-1.9-1.6-3.8-3.2-5.6-4.7c1.1-0.1,2.7-0.5,4.2-1.7c2.6-2.2,4.9-6.8,6.8-10c0.7-1.4,4.9-3,7.3-3.2
	C-195.8,349.8-195.5,349.9-195.3,350z M-210.9,382.8c-0.2,1.8-0.8,3.4-2,5c0-0.3,0-0.5-0.1-0.8c-0.3-0.7-0.9-0.8-0.4-1.6
	c0.3-0.4,0.5-0.5,0.5-1s-0.1-0.6-0.6-0.7c-0.4-0.1-0.6,0.1-0.5-0.5c0.1-0.4,0.4-0.3,0.7-0.6c0.2-0.2,0.5-0.6,0.4-0.9
	c-0.1-0.3-0.5-0.5-0.7-0.8c-0.4-0.8,0.2-1.2,0.8-1.5c0.6,0.4,1.3,0.7,1.9,1.1c0,0.1,0,0.2,0,0.3v0.1c-0.4,0.2-0.7,0.3-0.9,0.6
	C-212.1,382.2-211.4,382.5-210.9,382.8z M-211,376.9c0,0.5,0,1,0,1.5c-1.2-0.7-2.3-1.4-3.5-2.1c0.1-0.3,0.4-0.5,0.9-0.5
	c0.4,0,0.9,0.4,1.3,0.1c0.3-0.2,0.5-0.7,0.5-1.1c0-1.2-2-1-2.6-1.9c-0.7-0.9,0.4-1.5,1.2-1.6c0.8-0.1,1.3,0.3,2.1-0.3
	c0.3-0.3,0.9-0.8,1-1.2c0,0,0,0,0-0.1c0.2,0.2,0.4,0.4,0.6,0.5c0.2,0.2,0.5,0.4,0.7,0.6C-210.7,371.9-210.9,374.7-211,376.9z
	 M-201.5,349c0.5-0.1,1-0.1,1.5-0.1h0.1c0.4,0,0.8,0,1.2,0.1c0.2,0,0.5,0.1,0.7,0.2c-2.4,0.6-5.1,1.8-6.1,3.3
	c-1.9,3.3-4.2,7.8-6.5,9.7c-1.7,1.4-3.5,1.6-4.4,1.6c-0.2,0-0.3,0-0.4,0c-1.4-1.1-2.7-2.1-3.7-2.8c1.1,0.2,2.2,0.3,3.3,0.3
	c0.8,0,1.5-0.1,2.2-0.2c3.2-0.9,6.7-5.6,9-9.6C-204,350.1-202.8,349.4-201.5,349z M-226.6,357.8c1.9-1.1,6.8,0.3,12.7-3.3
	c2.9-1.8,6.1-3.5,8.9-4.6c-0.3,0.3-0.5,0.6-0.7,1c-2.2,3.9-5.8,8.4-8.4,9.1c-0.5,0.1-1.2,0.2-1.9,0.2c-1.4,0-3-0.2-4.3-0.5
	c-0.9-0.2-1.5-0.3-1.9-0.4c-1.2-0.5-2.2-0.6-3.2-0.6s-1.9,0.2-2.5,0.5C-227.5,358.4-227.1,358.1-226.6,357.8z M-224.5,367.3
	c-0.1,0.1-0.3,0.2-0.4,0.3c-2-2.3-3.3-4.7-3.2-6.6c0-0.2,0-0.4,0-0.6c0.1,0,0.2-0.1,0.3-0.2c0.6-0.3,1.5-0.6,2.6-0.6
	c0.8,0,1.6,0.1,2.7,0.5l0,0c0,0,0.1,0,0.2,0c0.3,0.1,0.7,0.3,1,0.5c0.2,0.1,0.5,0.3,0.7,0.4c-0.1,0.1-0.2,0.2-0.3,0.3
	c-0.5,0.5-0.5,1.1-0.4,1.7c0,0.5,0,1.1,0.1,1.6c0.1,0.6,0.3,1.2,0.2,1.8c-0.1,0.7-0.6,1.3-0.9,1.9c-0.2,0.4-0.5,1.1-1,1
	s-0.5-0.9-0.6-1.2C-223.7,367.8-224,367.1-224.5,367.3z M-232.2,399.3c-0.1-1-0.2-2-0.2-3c0-4.4,1-8.2,3.4-12.2
	c1.1-1.9,3.5-4.7,5.4-6.5c0.1,0,0.2,0,0.3,0c0.3,0,0.9-0.1,1-0.5c0.1-0.2-0.1-0.6-0.1-0.8c0-0.2,0.1-0.4,0.1-0.6
	c0-0.5-0.1-0.5,0.3-0.8c0.8-0.4,0.8,0.2,1,0.7c0.1,0.2,0.6,0,1.1-0.4c0,0.5,0.4,0.9,1,0.9c0.3,0,0.8-0.1,1.1-0.1
	c0.2,0.1,0.3,0.2,0.5,0.3l0,0c0.2,1.1-2.6,2.7-1.3,3.5c0.6,0.4,1.2-0.1,1.7,0.1c0.6,0.2,0.6,0.9,0.6,1.4c-0.6,0.2-1.6,0.3-1.9,1
	c-0.5,0.8,0.6,0.5,0.7,1.2c0,0.5-1,0.9-1.3,0.9c-0.3,0-0.7-0.1-1-0.2c-0.2-0.1-0.4-0.3-0.5-0.4c-0.6-0.1-1,0.7-1.3,1.1
	c-0.2,0.4-0.3,1.4-0.9,1.5c-0.7,0.1-0.8-0.7-1.3-0.8c-0.6-0.1-1.1,0.1-1.3,0.7c-0.2,0.7,0.4,1.4-0.4,1.9c-0.6,0.3-1.3,0.1-1.8,0.5
	c-0.4,0.3-0.6,0.6-0.4,1c0.2,0.5,0.7,0.7,0.6,1.4c-0.2,1-0.8,0.2-1.4,0.5c-0.4,0.2-0.5,0.9-0.5,1.3c0.1,0.3,0.3,0.6,0.5,0.8
	c0.4,0.4,1,0.6,1.3,1.1c0.4,0.5,0.4,1.3,0.6,1.9c0.2,0.6,0.4,1.2,0.4,1.8c0,0.8-0.5,1.5-0.7,2.1c-0.3,0.7-0.7,1.5-1.5,1.9
	c-0.8,0.5-1.8,0.5-2.6,0.9c-0.5,0.3-1,0.8-1.3,1.3c0.2-1.1,0.3-2.2,0.3-3.3C-232.1,400.8-232.1,400.1-232.2,399.3z M-226.4,406.7
	c-1.9,0.8-3.6,1.4-4.9,3c-1.2-1-1.1-3-0.1-4.2c0.6-0.8,1.6-0.8,2.3-1.4c0.6-0.5,1.2-1.2,1.7-1.8c1-1.3,1.8-3.1,1.6-4.7
	c-0.1-0.5-0.1-0.9-0.4-1.4c-0.1-0.2-0.5-0.8-0.5-1c0-0.4,0.4-0.4,0.5-0.7c0.2-0.3,0.1-0.5,0.1-0.8c-0.1-0.5-0.5-1.1-0.5-1.6
	c0-0.4,0.5-1.4,0.9-1.5c0.5-0.2,0.4,0.2,0.6,0.5c0.2,0.3,0.5,0.4,0.8,0.7c0.2,0.2,0.1,0.5,0.5,0.6c0.3,0.1,0.9-0.2,1-0.5
	s-0.2-0.7-0.2-1.1c0-0.5,0.4-0.9,0.8-1.2c0.5-0.3,1.2-0.4,1.6,0c0.3,0.4,0.5,0.9,0.9,1.3c0.5,0.6,1.2,0.5,1.8-0.1
	c0.5-0.5,0.5-1.2,1.1-1.6c0.3-0.2,0.7-0.2,1-0.1c0.2,0,0.4,0.2,0.5,0.2c0.4,0.1,0.6-0.1,0.9-0.2c0.1,0,0.3-0.1,0.4-0.2
	c-2,2.2-4.5,3.8-6.8,5.7c-1.8,1.4-2.5,3.5-2.5,5.6c0,0.7,0.1,1.4,0.2,2.1c0.2,0.8,0.4,1.6,0.6,2.4
	C-223.6,405.6-225.1,406.1-226.4,406.7z M-207.3,391.8c-0.1,0-0.2,0-0.3,0c0.1,0,0.3-0.1,0.4-0.2
	C-207.3,391.7-207.3,391.7-207.3,391.8z M-209.1,390.8c-3.2,0.7-6.7,1.8-8.9,4.7c-1.9,2.5-1.5,5.9-2.9,7.9c-0.2,0.3-0.5,0.6-0.8,0.9
	c-0.2-0.7-0.4-1.3-0.5-2c-0.1-0.6-0.2-1.3-0.2-1.9c0-1.9,0.6-3.6,2.1-4.8c2.5-2,5.2-3.8,7.4-6.3c0.9-1,1.5-2,2-3.1
	c0.1,0,0.2,0.1,0.3,0.1c0.7,0.2,1.4,0,2,0.1c1.1,0.3,0,1.2-0.3,1.6c-0.5,0.7,0.7,0.9,1.2,1.3c0.3,0.2,0.4,0.5,0.5,0.8
	C-207.7,390.4-208.4,390.7-209.1,390.8z M-207.3,373.4c-0.4,1.1,0.1,1.9,0,3s-1.8,0.9-2.6,1.3c0-0.3,0-0.6,0-0.8
	c0-2.4,0.4-4.8,2.2-5.4c0.5,0.4,0.9,0.8,1.4,1.2C-206.8,372.8-207.2,373-207.3,373.4z M-202.6,386.1c-0.6,0.9-1.3,1.7-2,2.4
	c-0.5,0-0.9-0.1-0.8-0.8c0.2-0.9,1.2-1,1.5-1.7c0.4-0.8-0.4-0.9-1-1.1c-0.5-0.2-1.5-0.5-1.9-0.9c-0.3-0.4-0.2-0.9,0.1-1.3
	c1.7,0.8,3.3,1.4,4.7,1.9C-202.1,385.1-202.4,385.7-202.6,386.1z M-201.4,382.8c-1-0.3-2-0.7-3.1-1.1c0.4-0.8-0.8-0.9-1.1-1.4
	c-0.3-0.4-0.1-0.4,0.3-0.8c0.4-0.3,0.7-0.3,1.1-0.5c0.4-0.1,0.7-0.4,1.1-0.6c0.2-0.1,0.4-0.1,0.6-0.3c0.6-0.4,0.9-0.5,1.2-1.1
	c0-0.1,0-0.1,0.1-0.2l0,0c0.2,0.6,0.3,1.4,0.3,2.3C-200.9,380.3-201.1,381.6-201.4,382.8z M-203.6,373.7c-0.3-0.8-0.9-2.5-0.9-4.4
	c0-0.6,0.1-1.3,0.2-1.9c1-3.6,5.2-6,9.3-9.1c1.9-1.5,2.4-3.9,2.5-5.8c0-0.3,0-0.5,0-0.7c1,1,2.4,2.5,3.3,4.5
	c-0.5,2.4-1.8,6.5-3.9,8.7c-3.1,3.4-3.8,6.1-3.8,8c0,0.8,0.1,1.5,0.2,2.1c0.2,1.7,1,3.1,1.7,4.1c-0.7-0.2-1.5-0.6-2.4-1
	c-0.6-0.3-1.5-0.9-2.6-1.7v-0.1h-0.1C-201.1,375.7-202.3,374.7-203.6,373.7z M-196.1,383.7c-1.1,0-2.5-0.2-4-0.6
	c0.3-1.3,0.5-2.7,0.5-4c0-0.4,0-0.8-0.1-1.2c0.7,0.5,1.4,0.9,1.9,1.1c3.4,1.6,5.8,1.9,7.4,1.9c0.2,0,0.3,0,0.5,0
	C-190.8,382.1-192.5,383.7-196.1,383.7z M-189.5,380c-0.3,0-0.6,0.1-1,0.1c-0.7,0-1.6-0.1-2.7-0.3c-0.2-0.2-0.6-0.6-1.1-1.2
	c-0.6-0.8-1.3-2-1.5-3.5c-0.1-0.6-0.2-1.3-0.2-2c0-1.8,0.5-4.1,3.5-7.4c1.8-2,3.1-5.1,3.8-7.6c0.1,0.2,0.1,0.4,0.2,0.7
	c0.1,0.7,0.2,1.5,0.2,2.3c0,4.4-1.8,9.1-2,11.7c0,0.2,0,0.5,0,0.8C-190.3,376-189.8,378.9-189.5,380z M-220.3,416.8
	c0.5,0.6,0.8,0.2,0.8-0.4c0-0.3,0-0.7-0.1-1c-0.1-0.2-0.3-0.5-0.3-0.7c0-0.7,0.7-1.2,1.2-1.4c0.3-0.1,0.5-0.3,0.8-0.4
	c-0.5,0.1-0.9,0.1-1.4,0.4C-220.2,413.9-221.1,415.7-220.3,416.8z M-217.8,412.9c0.2,0,0.4-0.1,0.6-0.1c0.2-0.1,0.4-0.2,0.6-0.3
	c-0.1,0-0.1,0-0.2,0C-217.2,412.6-217.5,412.7-217.8,412.9z"/>
</svg>
