<?xml version="1.0" encoding="utf-8"?>
<!-- Generator: Adobe Illustrator 19.1.0, SVG Export Plug-In . SVG Version: 6.00 Build 0)  -->
<svg version="1.1" id="Layer_1" xmlns="http://www.w3.org/2000/svg" xmlns:xlink="http://www.w3.org/1999/xlink" x="0px" y="0px"
	 viewBox="-20 8.7 100 85.7" style="enable-background:new -20 8.7 100 85.7;" xml:space="preserve">
<polygon points="7.7,28.9 10.8,35.2 17.8,36.2 12.8,41.1 13.9,48.1 7.7,44.8 1.5,48.1 2.7,41.1 -2.4,36.2 4.6,35.2 "/>
<polygon points="38.8,51.2 38.6,56.7 42.9,60 37.7,61.5 35.9,66.6 32.9,62.1 27.4,62 30.8,57.7 29.2,52.5 34.3,54.4 "/>
<polygon points="-0.6,58.3 5.1,61.9 11.2,59.2 9.6,65.7 14.1,70.7 7.4,71.2 4,77 1.5,70.8 -5.1,69.4 0,65 "/>
<polygon points="26.1,70.9 28.1,74.9 32.5,75.5 29.3,78.7 30.1,83.1 26.1,81 22.2,83.1 22.9,78.7 19.7,75.5 24.2,74.9 "/>
<polygon points="39,28 38.7,35.4 44.7,39.9 37.5,41.9 35.1,48.9 31,42.7 23.6,42.6 28.2,36.8 26,29.7 33,32.3 "/>
<polygon points="46,65.2 50.1,73.4 59.1,74.7 52.6,81.1 54.1,90.1 46,85.8 37.9,90.1 39.5,81.1 32.9,74.7 42,73.4 "/>
<polygon points="60.1,38.5 59.9,43.9 64.3,47.2 59,48.7 57.2,53.9 54.2,49.3 48.7,49.2 52.1,44.9 50.5,39.7 55.6,41.6 "/>
</svg>
