<?xml version="1.0" encoding="utf-8"?>
<!-- Generator: Adobe Illustrator 19.1.0, SVG Export Plug-In . SVG Version: 6.00 Build 0)  -->
<svg version="1.1" id="EL:_Ellustrator_File" xmlns="http://www.w3.org/2000/svg" xmlns:xlink="http://www.w3.org/1999/xlink"
	 x="0px" y="0px" viewBox="-658 363.4 100 125" style="enable-background:new -658 363.4 100 125;" xml:space="preserve">
<g id="ART:_Bird">
	<path id="birdpaths" d="M-571.8,414.5L-571.8,414.5l-4.8,2l0,0l-2.9,1.2c0.2-12.4-7.2-24.3-19.6-29.4l-18.5,44.6
		c-3.5-7.6-12.5-11.2-20.3-8c-6.7,2.8-10.4,9.6-9.6,16.4l-5.3,7.1l8.2,0.8c8.2,13.3,27.4,18.3,45.1,10.9c15.9-6.6,25.6-21,24.8-34.8
		l6.2-2.6l0,0c4.5-1.9,6.6-7,4.7-11.5L-571.8,414.5z M-591.8,395.7l-13.4,32.4l2.3,1l13-31.5c1.9,2,3.4,4.2,4.6,6.6l-11.4,27.5
		l2.3,1l10.5-25.3c1.1,3,1.7,6.1,1.8,9.3c0.1,3.8-0.6,7.5-2.1,11c-2.8,6.8-8.2,12.2-15.1,15.1c-3.5,1.4-7.2,2.2-11,2.2
		c-3.1,0-6.1-0.4-9.1-1.4l21.5-52C-595.7,392.7-593.7,394.1-591.8,395.7z M-579.5,419v0.1C-579.5,419.1-579.5,419.1-579.5,419z
		 M-579.7,419.7c0,0.2,0,0.4-0.1,0.7C-579.7,420.2-579.7,420-579.7,419.7z M-648.2,446.2l0.9-1.2l0.5,1.3L-648.2,446.2z
		 M-582.8,443.9c-2.1,2.9-4.6,5.6-7.5,7.9c-3,2.4-6.4,4.4-10.1,5.9c-4.4,1.8-9,2.9-13.6,3.1c-4.4,0.3-8.7-0.2-12.7-1.5
		c-8.1-2.5-14.2-7.6-17.2-14.6l0,0l0,0c-0.1-0.1-0.1-0.3-0.2-0.4c-2.8-6.7,0.4-14.5,7.2-17.3c6.7-2.8,14.5,0.4,17.3,7.2l0.7,1.8
		l-2.4,5.7l0,0l-2.2-5.4c-1.9-4.5-7-6.6-11.5-4.8c-4.2,1.8-6.4,6.4-5.1,10.7c0.1,0.2,0.1,0.4,0.2,0.6c0.9,2.2,3.5,3.3,5.8,2.4
		c2.2-0.9,3.3-3.5,2.4-5.8c-0.9-2.2-3.4-3.3-5.6-2.4c0.6-1.4,1.8-2.6,3.3-3.2c3.2-1.3,6.9,0.2,8.2,3.4l2.3,5.6l0,0l0.9,2.1l0,0l0,0
		c8.2,3.4,16.9,3.1,24.4,0c7.2-3,13.3-8.7,16.5-16.4c0.1-0.2,0.2-0.4,0.3-0.7l4.4-1.8c0.1,2.8-0.4,5.7-1.2,8.6
		C-579.3,437.9-580.8,441-582.8,443.9z M-637.7,442c0-0.1-0.1-0.2-0.1-0.3c-0.2-0.9,0.2-1.8,1.1-2.2c1-0.4,2.1,0.1,2.5,1
		c0.4,1-0.1,2.1-1,2.5C-636.2,443.4-637.2,442.9-637.7,442L-637.7,442z M-566,416.9c-0.6,1.5-1.8,2.8-3.4,3.4l-0.2,0.1l-2,0.8l0,0
		l-8.9,3.7c0.4-1.5,0.7-2.9,0.8-4.4l1.7-0.7l0,0l2.3-1l4.7-1.9h0.1l5.3-2.2C-565.7,415.4-565.8,416.1-566,416.9z"/>
</g>
</svg>
