<?xml version="1.0" encoding="utf-8"?>
<!-- Generator: Adobe Illustrator 19.1.0, SVG Export Plug-In . SVG Version: 6.00 Build 0)  -->
<svg version="1.1" id="Layer_1" xmlns="http://www.w3.org/2000/svg" xmlns:xlink="http://www.w3.org/1999/xlink" x="0px" y="0px"
	 viewBox="-264 355 83 83" style="enable-background:new -264 355 83 83;" xml:space="preserve">
<g>
	<g>
		<path d="M-182.5,395h-10v-13.2c2.3-0.7,4-2.8,4-5.3c0-2.6-3.4-6.1-4.5-7.1c-0.6-0.5-1.5-0.5-2.1,0c-1,1-4.5,4.4-4.5,7.1
			c0,2.5,1.7,4.6,4,5.3V395H-207v-27.1c2.5-0.5,4.4-2.7,4.4-5.4c0-2.6-3.4-6.1-4.5-7.1c-0.6-0.5-1.5-0.5-2.1,0c-1,1-4.5,4.4-4.5,7.1
			c0,2.4,1.5,4.4,3.6,5.2V395h-11v-13.1c2.4-0.6,4.2-2.7,4.2-5.4c0-2.6-3.4-6.1-4.5-7.1c-0.6-0.5-1.5-0.5-2.1,0
			c-1,1-4.5,4.4-4.5,7.1c0,2.4,1.6,4.5,3.8,5.2V395h-11v-27.2c2.4-0.6,4.1-2.8,4.1-5.3c0-2.6-3.4-6.1-4.5-7.1
			c-0.6-0.5-1.5-0.5-2.1,0c-1,1-4.5,4.4-4.5,7.1c0,2.5,1.6,4.6,3.9,5.3V395h-11v-13.2c2.3-0.7,4-2.8,4-5.3c0-2.6-3.4-6.1-4.5-7.1
			c-0.6-0.5-1.5-0.5-2.1,0c-1,1-4.5,4.4-4.5,7.1c0,2.5,1.7,4.6,4,5.3V395h-10.1c-0.8,0-1.5,0.7-1.5,1.5v40c0,0.8,0.7,1.5,1.5,1.5h80
			c0.8,0,1.5-0.7,1.5-1.5v-40C-181,395.7-181.7,395-182.5,395z M-196.5,376.5c0-0.7,1.2-2.4,2.5-3.9c1.3,1.4,2.5,3.1,2.5,3.9
			c0,1.4-1.1,2.5-2.5,2.5S-196.5,377.9-196.5,376.5z M-208.1,358.6c1.3,1.4,2.5,3.1,2.5,3.9c0,1.4-1.1,2.5-2.5,2.5
			c-1.4,0-2.5-1.1-2.5-2.5C-210.6,361.8-209.4,360.1-208.1,358.6z M-224.7,376.5c0-0.7,1.2-2.4,2.5-3.9c1.3,1.4,2.5,3.1,2.5,3.9
			c0,1.4-1.1,2.5-2.5,2.5C-223.6,379-224.7,377.9-224.7,376.5z M-238.9,362.5c0-0.7,1.2-2.4,2.5-3.9c1.3,1.4,2.5,3.1,2.5,3.9
			c0,1.4-1.1,2.5-2.5,2.5C-237.8,365-238.9,363.9-238.9,362.5z M-253,376.5c0-0.7,1.2-2.4,2.5-3.9c1.3,1.4,2.5,3.1,2.5,3.9
			c0,1.4-1.1,2.5-2.5,2.5S-253,377.9-253,376.5z M-261,398h77v6.5c0,3.6-2.9,6.5-6.5,6.5s-6.5-2.9-6.5-6.5c0-0.8-0.7-1.5-1.5-1.5
			s-1.5,0.7-1.5,1.5c0,3.6-2.9,6.5-6.5,6.5s-6.5-2.9-6.5-6.5c0-0.8-0.7-1.5-1.5-1.5s-1.5,0.7-1.5,1.5c0,3.6-2.9,6.5-6.5,6.5
			s-6.5-2.9-6.5-6.5c0-0.8-0.7-1.5-1.5-1.5s-1.5,0.7-1.5,1.5c0,3.6-2.9,6.5-6.5,6.5s-6.5-2.9-6.5-6.5l0,0c0-0.8-0.7-1.5-1.5-1.5l0,0
			l0,0c-0.8,0-1.5,0.7-1.5,1.5l0,0c0,3.6-2.9,6.5-6.5,6.5s-6.5-2.9-6.5-6.5V398z M-184,422.4v4.6h-77v-4.6c0.9-0.2,1.5-1,1.5-1.9
			c0-0.9-0.6-1.7-1.5-1.9v-7.2c1.7,1.6,4,2.6,6.5,2.6c3.4,0,6.3-1.8,8-4.4c1.7,2.6,4.6,4.4,8,4.4s6.3-1.8,8-4.4
			c1.7,2.6,4.6,4.4,8,4.4s6.3-1.8,8-4.4c1.7,2.6,4.6,4.4,8,4.4s6.3-1.8,8-4.4c1.7,2.6,4.6,4.4,8,4.4c2.5,0,4.8-1,6.5-2.6v7.2
			c-0.9,0.2-1.5,1-1.5,1.9C-185.5,421.4-184.9,422.2-184,422.4z M-261,435v-5h77v5H-261z"/>
		<circle cx="-230.5" cy="420.5" r="2"/>
		<circle cx="-246.5" cy="420.5" r="2"/>
		<circle cx="-198.5" cy="420.5" r="2"/>
		<circle cx="-214.5" cy="420.5" r="2"/>
	</g>
</g>
</svg>
