<?xml version="1.0" encoding="utf-8"?>
<!-- Generator: Adobe Illustrator 19.1.0, SVG Export Plug-In . SVG Version: 6.00 Build 0)  -->
<svg version="1.1" id="Layer_1" xmlns="http://www.w3.org/2000/svg" xmlns:xlink="http://www.w3.org/1999/xlink" x="0px" y="0px"
	 viewBox="-20 8.7 100 125" style="enable-background:new -20 8.7 100 125;" xml:space="preserve">
<path d="M10.6,78.1c0,0,0-0.1,0-0.2c0-0.1,0.1-0.3,0.1-0.5c0.1-0.5,0.4-1.1,0.7-1.9c0.2-0.4,0.3-0.8,0.5-1.2
	c0.2-0.4,0.4-0.9,0.7-1.3c0.2-0.4,0.5-0.9,0.8-1.3c0.3-0.4,0.6-0.9,0.9-1.3c0.3-0.4,0.7-0.8,1-1.2c0.3-0.4,0.7-0.8,1.1-1.1
	c0.2-0.2,0.4-0.3,0.5-0.5c0.2-0.1,0.4-0.3,0.5-0.4c0.2-0.1,0.4-0.2,0.5-0.4c0.2-0.1,0.4-0.2,0.5-0.3c0.3-0.2,0.7-0.3,0.9-0.4
	c0.3-0.1,0.5-0.2,0.8-0.2c0.2-0.1,0.4-0.1,0.5-0.1c0.1,0,0.2,0,0.2,0s-0.1,0-0.2,0.1c-0.1,0.1-0.2,0.2-0.4,0.3
	c-0.2,0.1-0.4,0.3-0.6,0.5c-0.2,0.2-0.5,0.4-0.8,0.6c-0.1,0.1-0.3,0.3-0.4,0.4c-0.1,0.1-0.3,0.3-0.4,0.4c-0.1,0.2-0.3,0.3-0.5,0.5
	c-0.1,0.2-0.3,0.3-0.5,0.5c-0.3,0.4-0.6,0.7-0.9,1.1c-0.3,0.4-0.6,0.8-0.9,1.2c-0.3,0.4-0.6,0.8-0.9,1.2c-0.3,0.4-0.6,0.8-0.9,1.2
	c-0.5,0.8-1.1,1.6-1.5,2.2c-0.4,0.7-0.8,1.2-1.1,1.6c-0.1,0.2-0.2,0.3-0.3,0.4C10.6,78,10.6,78.1,10.6,78.1z"/>
<path d="M15.8,74.8C15.8,74.8,15.8,74.7,15.8,74.8c0-0.1,0-0.2,0.1-0.2c0,0,0-0.1,0-0.1c0,0,0-0.1,0-0.1c0-0.1,0-0.1,0-0.2
	c0-0.1,0-0.2,0-0.3c0-0.1,0-0.2,0-0.3c0-0.1,0-0.3,0.1-0.4c0-0.1,0.1-0.3,0.2-0.4c0.1-0.1,0.1-0.3,0.2-0.4c0.1-0.1,0.2-0.2,0.3-0.3
	c0.1,0,0.1-0.1,0.2-0.1c0.1,0,0.1-0.1,0.2-0.1c0.1,0,0.1,0,0.2-0.1c0.1,0,0.1,0,0.1,0c0.1,0,0.2,0,0.3,0s0.2,0,0.2,0
	c0.1,0,0.1,0,0.1,0c0,0,0,0,0,0s0,0,0,0.1c0,0,0,0.1-0.1,0.2c0,0.1,0,0.1-0.1,0.2c0,0.1-0.1,0.2-0.1,0.2c0,0.1-0.1,0.2-0.1,0.3
	c0,0.1-0.1,0.2-0.1,0.2c0,0,0,0.1-0.1,0.1c0,0,0,0.1-0.1,0.1c0,0.1-0.1,0.2-0.1,0.2c0,0.1-0.1,0.2-0.1,0.2c0,0.1-0.1,0.2-0.2,0.3
	c-0.1,0.1-0.1,0.2-0.2,0.3c-0.1,0.1-0.1,0.2-0.2,0.2c0,0-0.1,0.1-0.1,0.1c0,0-0.1,0.1-0.1,0.1c0,0-0.1,0-0.1,0.1c0,0-0.1,0-0.1,0
	C15.9,74.8,15.9,74.8,15.8,74.8C15.8,74.8,15.8,74.8,15.8,74.8z"/>
<path d="M33.6,32.2c0,0-0.2,0-0.7,0.1c-0.4,0-1,0.1-1.7,0.1c-0.7,0-1.5,0.1-2.4,0.2c-0.2,0-0.4,0-0.7,0c-0.2,0-0.4,0-0.7,0.1
	c-0.4,0-0.9,0.1-1.4,0.1c-0.5,0-0.9,0.1-1.3,0.2c-0.2,0-0.4,0.1-0.6,0.1c-0.2,0-0.4,0.1-0.6,0.1c-0.2,0.1-0.4,0.1-0.6,0.2
	c-0.2,0.1-0.4,0.1-0.6,0.2c-0.2,0.1-0.4,0.1-0.5,0.2c-0.2,0.1-0.3,0.1-0.5,0.2C21.2,34,21,34,20.9,34.1c-0.1,0.1-0.3,0.1-0.4,0.2
	c-0.1,0-0.1,0.1-0.2,0.1c-0.1,0-0.1,0.1-0.2,0.1c-0.1,0.1-0.2,0.1-0.3,0.2c-0.2,0.1-0.3,0.2-0.4,0.3C19.3,35,19.2,35,19.2,35
	s0-0.1,0.1-0.2c0.1-0.1,0.2-0.3,0.3-0.5c0.1-0.1,0.1-0.2,0.2-0.3c0.1-0.1,0.2-0.2,0.3-0.4s0.2-0.3,0.4-0.4c0.1-0.1,0.3-0.3,0.4-0.4
	c0.2-0.1,0.3-0.2,0.5-0.4c0.2-0.1,0.4-0.2,0.5-0.4c0.2-0.1,0.4-0.2,0.6-0.3c0.2-0.1,0.4-0.2,0.6-0.3c0.4-0.2,0.9-0.3,1.4-0.5
	c0.5-0.1,1-0.2,1.5-0.3c1-0.1,2-0.1,2.9,0c0.5,0,0.9,0.1,1.3,0.2c0.4,0.1,0.8,0.2,1.2,0.3c0.7,0.2,1.3,0.4,1.7,0.6
	C33.4,32,33.6,32.2,33.6,32.2z"/>
<path d="M30,29.1c0,0-0.1,0-0.3,0.1c-0.1,0-0.2,0-0.3,0.1c-0.1,0-0.2,0-0.4,0.1c-0.3,0-0.6,0.1-0.9,0.1c-0.3,0-0.7,0.1-1.1,0.1
	c-0.2,0-0.4,0.1-0.5,0.1c-0.2,0-0.3,0.1-0.5,0.1c-0.2,0-0.3,0.1-0.5,0.1c-0.1,0-0.3,0.1-0.4,0.1C25,30,24.9,30,24.8,30
	c-0.1,0-0.2,0.1-0.3,0.1c-0.2,0.1-0.3,0.1-0.3,0.1s0-0.1,0.2-0.3c0.1-0.1,0.1-0.2,0.2-0.3c0.1-0.1,0.2-0.2,0.3-0.3
	c0.1-0.1,0.3-0.2,0.4-0.3c0.2-0.1,0.3-0.2,0.5-0.3c0.2-0.1,0.4-0.1,0.5-0.2c0.2,0,0.4-0.1,0.6-0.1c0.2,0,0.4,0,0.6,0
	c0.2,0,0.4,0,0.6,0c0.2,0,0.4,0,0.5,0.1c0.2,0,0.3,0.1,0.5,0.1c0.3,0.1,0.5,0.2,0.7,0.3C29.9,29,30,29.1,30,29.1z"/>
<path d="M52.1,57c0,0-0.1,0-0.2,0c-0.1,0-0.2,0-0.4,0c-0.2,0-0.4,0-0.6,0c-0.1,0-0.2,0-0.4,0c-0.1,0-0.3,0-0.4,0c-0.1,0-0.3,0-0.4,0
	c-0.2,0-0.3,0-0.5,0c-0.2,0-0.3,0-0.5,0c-0.1,0-0.2,0-0.2,0c-0.1,0-0.2,0-0.3,0c-0.2,0-0.3,0-0.5,0c-0.2,0-0.3,0.1-0.5,0.1
	c-0.4,0-0.7,0.1-1.1,0.2c-0.2,0-0.4,0.1-0.5,0.1c-0.2,0-0.4,0.1-0.5,0.1c-0.3,0.1-0.7,0.2-1,0.3c-0.3,0.1-0.7,0.2-1,0.3
	c-0.2,0-0.3,0.1-0.5,0.2c-0.1,0.1-0.3,0.1-0.4,0.2c-0.3,0.1-0.5,0.2-0.8,0.3C41.2,58.9,41,59,40.8,59c-0.2,0.1-0.3,0.1-0.4,0.1
	c-0.1,0-0.2,0-0.2,0s0-0.1,0.1-0.1c0.1-0.1,0.1-0.2,0.3-0.4c0.1-0.2,0.3-0.4,0.4-0.6c0.2-0.2,0.4-0.4,0.6-0.7
	c0.1-0.1,0.2-0.2,0.4-0.4c0.1-0.1,0.3-0.2,0.4-0.4c0.3-0.2,0.6-0.4,1-0.7c0.2-0.1,0.4-0.2,0.6-0.3c0.2-0.1,0.4-0.2,0.6-0.3
	c0.2-0.1,0.4-0.1,0.6-0.2c0.2-0.1,0.4-0.1,0.6-0.2c0.4-0.1,0.8-0.2,1.3-0.1c0.2,0,0.4,0,0.6,0c0.2,0,0.4,0,0.6,0.1
	c0.1,0,0.2,0,0.3,0c0.1,0,0.2,0,0.3,0.1c0.2,0,0.4,0.1,0.5,0.1c0.3,0.1,0.7,0.2,1,0.4c0.1,0.1,0.3,0.1,0.4,0.2
	c0.1,0.1,0.2,0.2,0.4,0.2c0.2,0.1,0.4,0.3,0.6,0.4C51.9,56.8,52.1,57,52.1,57z"/>
<path d="M49.7,58.2c0,0,0,0.1-0.1,0.2c0,0.1-0.1,0.3-0.2,0.5c-0.1,0.2-0.3,0.4-0.5,0.6c-0.1,0.1-0.2,0.2-0.3,0.2
	c-0.1,0.1-0.2,0.1-0.4,0.2L48,60c-0.1,0-0.1,0-0.2,0c-0.1,0-0.3,0-0.4,0c-0.1,0-0.3,0-0.4,0c-0.1,0-0.1,0-0.2,0
	c-0.1,0-0.1,0-0.2-0.1c-0.1,0-0.2-0.1-0.3-0.1c-0.1,0-0.1-0.1-0.2-0.1c-0.1-0.1-0.1-0.1-0.1-0.1s0.1,0,0.2-0.1c0.1,0,0.1,0,0.2,0
	c0.1,0,0.2,0,0.2-0.1c0,0,0.1,0,0.1,0c0,0,0.1,0,0.1,0c0.1,0,0.2-0.1,0.3-0.1c0.1,0,0.1,0,0.2,0c0.1,0,0.1,0,0.2-0.1l0.2-0.1L48,59
	c0.1,0,0.2-0.1,0.3-0.1c0.1,0,0.2-0.1,0.3-0.1c0.1,0,0.2-0.1,0.3-0.1c0.1,0,0.2-0.1,0.3-0.1c0.2-0.1,0.3-0.1,0.4-0.2
	C49.7,58.2,49.7,58.2,49.7,58.2z"/>
<path d="M54.6,76.5c0,0-0.1,0-0.2,0c-0.1,0-0.3,0-0.5,0c-0.2,0-0.4,0-0.7,0.1c-0.3,0.1-0.6,0.2-0.7,0.5c-0.1,0.1-0.2,0.3-0.2,0.5
	c0,0.2,0,0.4,0,0.6c0,0.1,0.1,0.2,0.1,0.3c0,0.1,0.1,0.2,0.1,0.3c0.1,0.1,0.1,0.2,0.2,0.3c0.1,0.1,0.1,0.2,0.2,0.3
	c0.3,0.3,0.6,0.6,1,0.8c0.4,0.2,0.7,0.4,1.2,0.6c0.2,0.1,0.4,0.2,0.6,0.2c0.1,0,0.2,0.1,0.3,0.1l0,0l0,0c0,0,0,0,0,0l0,0l0,0l0.1,0
	l0,0c0,0,0,0,0,0c0,0,0,0,0,0c0,0,0,0,0,0c0,0,0,0,0,0c0,0,0,0,0,0c0,0,0,0,0,0c0,0,0,0,0,0c0,0,0-0.1,0-0.1
	c0.1-0.2,0.1-0.4,0.1-0.7c0-0.2,0.1-0.5,0.1-0.7c0-0.1,0-0.2,0.1-0.4l0-0.2l0-0.2c0.1-0.4,0-0.8-0.1-1.2c-0.1-0.3-0.3-0.6-0.6-0.8
	c-0.2-0.2-0.5-0.2-0.7-0.3c-0.2,0-0.3,0-0.5,0C54.7,76.5,54.6,76.5,54.6,76.5z M54.6,76.5c0,0,0.1,0,0.2,0c0.1,0,0.3,0,0.5,0
	c0.2,0,0.4,0.1,0.7,0.2c0.3,0.1,0.5,0.4,0.7,0.7c0.2,0.4,0.3,0.8,0.3,1.3l0,0.2v0.2c0,0.1,0,0.2,0,0.3c0,0.2,0,0.5,0,0.7
	c0,0.3,0,0.5,0,0.8c0,0.1,0,0.2-0.1,0.3c0,0,0,0.1-0.1,0.1c0,0,0,0.1-0.1,0.1c0,0-0.1,0.1-0.1,0.1c0,0-0.1,0.1-0.1,0.1
	c-0.1,0.1-0.2,0.1-0.3,0.1c0,0-0.1,0-0.1,0l-0.1,0l0,0l-0.1,0l0,0h0l0,0l0,0l0,0c-0.1,0-0.2,0-0.4-0.1c-0.2-0.1-0.5-0.1-0.7-0.2
	c-0.5-0.2-0.9-0.4-1.3-0.7c-0.4-0.3-0.8-0.7-1-1.2c-0.1-0.1-0.1-0.2-0.2-0.4c0-0.1-0.1-0.2-0.1-0.4c0-0.1-0.1-0.3-0.1-0.4
	c0-0.1,0-0.2,0-0.3c0-0.3,0-0.5,0.1-0.7c0.1-0.2,0.2-0.4,0.3-0.6c0.3-0.3,0.6-0.4,0.9-0.4c0.3-0.1,0.5-0.1,0.7,0
	C54.4,76.5,54.6,76.5,54.6,76.5z"/>
<path d="M7.5,40.9c0,0.4,0.1,0.7,0.1,1.1c0,0.4,0.1,0.7,0.1,1.1l-0.1-0.2c0.3,0.2,0.6,0.4,0.9,0.6c0.3,0.2,0.6,0.3,0.9,0.5
	c0.6,0.2,1.3,0.3,1.8,0.1c0.3-0.1,0.5-0.3,0.7-0.5c0-0.1,0.1-0.1,0.1-0.2l0.1-0.1l0,0l0,0c0,0,0,0,0,0l0,0l0,0l0,0l0.1-0.3
	c0-0.1,0.1-0.2,0.1-0.3c0-0.1,0.1-0.2,0.1-0.2l0.1-0.1l0-0.1l0.1-0.2l0-0.2c0.1-0.3,0.1-0.6,0-1c-0.1-0.3-0.2-0.6-0.4-0.9
	c-0.2-0.3-0.4-0.6-0.6-0.9l-0.4-0.4l-0.1-0.1l0-0.1l0,0c0.1,0.1,0,0,0,0l0,0l0,0l0,0l-0.1-0.1l0-0.1l0,0l0,0c0,0-0.1-0.1-0.1-0.1
	c-0.1,0-0.1-0.1-0.2-0.1c-0.1,0-0.1,0-0.2,0c-0.1,0-0.1,0-0.2,0c-0.3,0-0.6,0.2-0.8,0.4c-0.1,0-0.1,0.1-0.2,0.2
	c-0.1,0.1-0.1,0.1-0.2,0.2C9,38.7,8.9,38.8,8.8,39c-0.3,0.3-0.5,0.6-0.7,0.9c-0.1,0.2-0.2,0.3-0.3,0.5L7.5,40.9z M7.5,40.9
	c0.1-0.2,0.1-0.4,0.2-0.6c0.1-0.2,0.1-0.4,0.2-0.6C8,39.4,8.2,39,8.4,38.6c0.2-0.4,0.5-0.7,0.8-1c0.3-0.3,0.7-0.5,1.1-0.7
	c0.1,0,0.2,0,0.3,0c0.1,0,0.2,0,0.3,0c0.1,0,0.2,0.1,0.3,0.1c0.1,0.1,0.2,0.1,0.3,0.2l0,0l0,0l0.1,0l0.1,0.1l0,0l0,0l0,0l0,0.1
	l0.1,0.1c0.1,0.1,0.3,0.3,0.4,0.4c0.3,0.3,0.5,0.6,0.8,1c0.2,0.4,0.5,0.8,0.6,1.3c0.1,0.5,0.1,1,0,1.5c0,0.1,0,0.2-0.1,0.4l-0.1,0.3
	l-0.1,0.2L13.6,43l-0.2,0.3c-0.1,0.1-0.1,0.2-0.2,0.3l-0.2,0.3l-0.1,0.1L13,44l-0.1,0.1c-0.1,0.1-0.2,0.2-0.2,0.3
	c-0.3,0.3-0.7,0.6-1.1,0.7c-0.4,0.1-0.9,0.1-1.2,0c-0.4-0.1-0.8-0.2-1.1-0.4c-0.3-0.2-0.7-0.4-1-0.7c-0.3-0.2-0.6-0.5-0.9-0.8
	l-0.1-0.1l0-0.1c0-0.4,0.1-0.7,0.1-1.1C7.4,41.7,7.4,41.3,7.5,40.9z"/>
<path d="M23,91.7c0,0-0.1,0.1-0.2,0.2c-0.1,0.1-0.3,0.3-0.5,0.5c-0.2,0.2-0.5,0.6-0.7,1c-0.2,0.4-0.4,1-0.3,1.5
	c0,0.3,0.2,0.5,0.3,0.7c0.2,0.3,0.4,0.5,0.6,0.7c0.4,0.4,0.9,0.8,1.5,1.1c0.5,0.3,1.1,0.4,1.6,0.4c0.3,0,0.5-0.1,0.8-0.2l0.2-0.1
	c0.1,0,0.1-0.1,0.2-0.1l0.2-0.1l0,0l0,0l0,0c0,0,0,0,0,0l0,0l0.1-0.1l0.2-0.2c0,0,0-0.1,0.1-0.1l0.1-0.1c0.1-0.1,0.1-0.2,0.2-0.3
	c0.1-0.2,0.2-0.5,0.3-0.8c0.1-0.6,0-1.3,0-2.1c0-0.4-0.1-0.8-0.1-1.1c0-0.2,0-0.4,0-0.6c0-0.1,0-0.2,0-0.3c0,0.1,0,0,0,0v0l0,0l0,0
	l0-0.1l0-0.1c0,0,0,0,0,0c0-0.2-0.2-0.4-0.4-0.5C26.8,91,26.6,91,26.3,91c-0.5,0-1,0-1.4,0.1c-0.4,0.1-0.8,0.2-1.1,0.3
	c-0.3,0.1-0.5,0.2-0.7,0.2C23,91.7,23,91.7,23,91.7z M23,91.7c0,0,0.1,0,0.2-0.1c0.2-0.1,0.4-0.2,0.7-0.3c0.3-0.1,0.6-0.2,1-0.4
	c0.4-0.1,0.9-0.3,1.4-0.4c0.3,0,0.6-0.1,0.9,0c0.2,0,0.3,0.1,0.5,0.2c0.2,0.1,0.3,0.3,0.4,0.6c0.1,0.2,0,0.2,0.1,0.3
	c0,0.1,0,0.2,0,0.2c0,0.2,0.1,0.3,0.1,0.5c0.1,0.3,0.2,0.7,0.3,1.1c0.2,0.7,0.4,1.6,0.4,2.5c0,0.5-0.2,1-0.4,1.5
	c-0.1,0.2-0.2,0.4-0.4,0.6L28,98.3c0,0-0.1,0.1-0.1,0.1l-0.2,0.2l-0.1,0.1l0,0c-0.1,0.1,0,0,0,0l0,0l0,0l-0.1,0L27.2,99
	c-0.2,0.1-0.4,0.2-0.6,0.3l-0.3,0.1c-0.1,0-0.2,0.1-0.3,0.1c-0.2,0-0.4,0-0.6,0c-0.8-0.1-1.6-0.5-2.1-1c-0.6-0.5-1-1.1-1.4-1.6
	c-0.2-0.3-0.4-0.6-0.5-0.9c-0.2-0.3-0.3-0.7-0.3-1c0-0.3,0-0.6,0.1-0.9c0.1-0.3,0.2-0.5,0.3-0.7c0.3-0.4,0.5-0.7,0.8-0.9
	C22.7,92,23,91.7,23,91.7z"/>
<path d="M66.7,61.6c-1.4-4.6-2.9-8.6-4.4-12.2c-0.1-0.4-0.3-0.9-0.5-1.3c-0.1-0.2-0.2-0.5-0.3-0.7c-1.1-2.5-2.2-4.9-3.3-7.2
	c-1.2-2.6-2.5-5.3-3.8-8.1c-0.6-1.3-1.1-2.6-1.6-3.9C49.5,20,46.1,11.5,32.3,9.8c-6-0.7-9.2-1.1-11.6-1.1c-4.2,0-5.4,1.2-8,3.5
	c-0.2,0.2-0.4,0.4-0.7,0.6c-2.4,2.3-6,7.1-9,12.3c-2,3.5-5.4,10-5.6,14.3c-0.2,3.5-0.1,8.4,0,12.7c0.1,3.6,0.1,7.1,0,8.2
	C-2.6,61-2.8,62-3.1,63c-0.7,2.6-1.6,6.3-1.3,10.3c0.3,4.2,3.3,11.5,6.1,18c0.5,1.2,1,2.2,1.1,2.7L3,94.3l0.2,0.2
	c0.1,0.1,3.2,3.6,7.7,7.1c6.2,4.8,11.9,7.2,17,7.2c0,0,0,0,0,0c0.5,0,1,0,1.5-0.1c12.3-1.2,27.4-13,30-16.6c0.6-0.8,3.8-5.4,6-11.5
	C67.9,73.6,68.4,67.2,66.7,61.6z M46.6,20.5c1.2,1.9,2.2,3.9,3.1,6.1c-0.1,0-0.2,0-0.4,0c-0.1,0-0.2,0-0.3,0c-0.1,0-0.2,0-0.3-0.1
	c-0.2-0.1-0.3-0.2-0.5-0.4c0,0-0.1-0.1-0.1-0.1L48,25.9c-0.1-0.1-0.1-0.3-0.2-0.4c-0.1-0.3-0.3-0.6-0.4-0.9
	c-0.1-0.2-0.2-0.3-0.2-0.5l0-0.1l0,0l0-0.1c0-0.1-0.1-0.1-0.1-0.2c-0.1-0.3-0.2-0.6-0.2-0.9c-0.1-0.3-0.1-0.6-0.1-0.9
	c0-0.3,0-0.6,0-0.8C46.6,20.9,46.6,20.7,46.6,20.5z M3.7,90.2c-0.4-0.9-0.8-1.9-1.3-3c0.4,0.2,0.9,0.4,1.3,0.7
	c0.5,0.3,0.9,0.8,1.2,1.3c0.1,0.3,0.2,0.6,0.3,0.9l0,0.2l0,0l0,0c0,0,0,0,0,0v0l0,0l0,0.1l0,0.1c0,0.2,0,0.4,0,0.5c0,0.4,0,0.7,0,1
	c0,0.3,0,0.6,0,0.9c0,0.1,0,0.1,0,0.2c0,0,0,0,0,0c-0.2-0.2-0.3-0.3-0.4-0.4C4.6,92.3,4.2,91.4,3.7,90.2z M57.7,90.6
	c-2.1,3-16.7,14.5-28.5,15.7c-0.4,0-0.9,0.1-1.3,0.1c0,0,0,0,0,0c-9.4,0-19.4-9.5-22.4-12.7c0.1-0.2,0.1-0.3,0.1-0.5
	c0.1-0.3,0.2-0.6,0.2-0.9c0-0.3,0.1-0.7,0.1-1.1c0-0.2,0-0.4,0-0.5l0-0.1l0-0.1l0,0v0v0c0-0.1,0-0.2,0-0.3c0-0.4-0.2-0.9-0.4-1.3
	c-0.2-0.4-0.4-0.7-0.7-1c-0.3-0.3-0.6-0.5-0.9-0.6c-0.6-0.3-1.2-0.5-1.7-0.6c-0.1,0-0.2,0-0.3,0c-1.3-3.1-2.8-6.9-3.6-9.9
	c0-0.1,0-0.2,0-0.2c0.1-0.5,0.2-1.1,0.3-1.7c0.1-0.6,0.3-1.2,0.4-1.9c0.2-0.7,0.4-1.4,0.6-2.1c0.1-0.4,0.2-0.7,0.3-1.1
	c0.1-0.4,0.2-0.7,0.4-1.1c0.1-0.2,0.1-0.4,0.2-0.5c0.1-0.2,0.2-0.4,0.2-0.5c0.1-0.4,0.3-0.7,0.5-1c0.1-0.2,0.2-0.3,0.3-0.5
	c0.1-0.2,0.2-0.3,0.3-0.5l0.3-0.5l0.2-0.2c0.1-0.1,0.1-0.1,0.2-0.2c0.2-0.3,0.5-0.6,0.7-0.8c0.1-0.1,0.2-0.3,0.4-0.4
	c0.1-0.1,0.3-0.2,0.4-0.4c0.1-0.1,0.3-0.2,0.4-0.3c0.1-0.1,0.3-0.2,0.4-0.3c0.1-0.1,0.3-0.2,0.4-0.3C5.5,62,5.7,62,5.8,61.9
	c0.5-0.4,1-0.6,1.5-0.9c0.2-0.1,0.5-0.2,0.7-0.3c0.1,0,0.2-0.1,0.3-0.1c0.1,0,0.2-0.1,0.3-0.1c0.4-0.1,0.8-0.3,1.1-0.4
	c0.6-0.2,1-0.3,1-0.3l0-0.2c0,0-0.4,0-1,0.1c-0.3,0-0.7,0.1-1.1,0.2c-0.1,0-0.2,0-0.3,0.1c-0.1,0-0.2,0.1-0.4,0.1
	c-0.2,0.1-0.5,0.1-0.8,0.2C6.6,60.5,6,60.7,5.5,61c-0.1,0.1-0.3,0.1-0.5,0.2c-0.1,0.1-0.3,0.2-0.4,0.3c-0.1,0.1-0.3,0.2-0.5,0.3
	C4,61.9,3.8,62,3.7,62.1c-0.1,0.1-0.3,0.2-0.5,0.3c-0.1,0.1-0.3,0.2-0.4,0.4c-0.3,0.2-0.6,0.5-0.9,0.8c-0.1,0.1-0.1,0.1-0.2,0.2
	l-0.2,0.2l-0.4,0.5c-0.1,0.2-0.2,0.3-0.4,0.5c-0.1,0.2-0.3,0.3-0.4,0.5c-0.2,0.4-0.5,0.7-0.7,1.1c-0.1,0.2-0.2,0.4-0.3,0.6
	c-0.1,0.2-0.2,0.4-0.3,0.6C-1,68-1.1,68.2-1.2,68.4c-0.1,0.2-0.2,0.4-0.3,0.6c-0.1,0.4-0.3,0.8-0.4,1.2C-2,70.8-2.2,71.4-2.3,72
	c0-3.1,0.7-5.9,1.3-8.2c0.3-1.2,0.6-2.2,0.7-3.1c0.1-1.3,0.1-4.5,0-8.6c-0.1-4.3-0.2-9.1,0-12.5c0.1-2.7,2.1-7.5,5.2-13
	c2.9-4.9,6.3-9.7,8.5-11.7c0.2-0.2,0.5-0.4,0.7-0.6c2.4-2.2,3.2-3,6.6-3c2.2,0,5.3,0.3,11.1,1c-0.6,0.1-1.2,0.2-1.9,0.4
	c-0.7,0.2-1.5,0.5-2.2,0.8c-0.8,0.3-1.5,0.6-2.3,1c-0.4,0.2-0.7,0.4-1.1,0.5c-0.4,0.2-0.7,0.4-1.1,0.6c-0.7,0.4-1.4,0.8-2,1.3
	c-0.3,0.2-0.6,0.5-0.9,0.7c-0.2,0.1-0.3,0.2-0.4,0.4c-0.1,0.1-0.3,0.2-0.4,0.4c-0.3,0.2-0.5,0.5-0.8,0.7c-0.2,0.2-0.5,0.5-0.7,0.7
	c-0.2,0.2-0.4,0.5-0.6,0.7c-0.2,0.2-0.4,0.4-0.5,0.7c-0.3,0.4-0.6,0.8-0.8,1.1c-0.4,0.7-0.7,1-0.7,1l0.1,0.1c0,0,0.3-0.3,0.7-0.9
	c0.1-0.1,0.3-0.3,0.4-0.5c0.2-0.2,0.3-0.4,0.5-0.5c0.2-0.2,0.4-0.4,0.6-0.6c0.2-0.2,0.4-0.4,0.7-0.6c0.2-0.2,0.5-0.4,0.8-0.6
	c0.3-0.2,0.5-0.4,0.8-0.6c0.3-0.2,0.6-0.4,0.9-0.6c0.3-0.2,0.6-0.4,1-0.6c0.6-0.4,1.3-0.7,2-1.1c0.4-0.2,0.7-0.3,1.1-0.5
	c0.4-0.1,0.7-0.3,1.1-0.4c0.7-0.3,1.5-0.5,2.2-0.7c0.7-0.2,1.5-0.4,2.2-0.6c0.7-0.2,1.4-0.4,2-0.6c0.7-0.2,1.3-0.4,1.8-0.5
	c0.6-0.2,1.1-0.3,1.6-0.4c0.1,0,0.2-0.1,0.3-0.1c4.9,1.3,8,3.8,10.1,7c-0.1,0.3-0.2,0.6-0.3,0.9c-0.1,0.3-0.1,0.6-0.2,0.9
	c0,0.3-0.1,0.7,0,1.1c0,0.1,0,0.2,0,0.3c0,0.1,0,0.2,0,0.3c0,0.2,0.1,0.4,0.1,0.6c0,0.1,0.1,0.2,0.1,0.3l0.1,0.1l0,0.1c0,0,0,0,0,0
	c0.1,0.2,0.2,0.3,0.2,0.5c0.1,0.3,0.3,0.6,0.5,1c0.2,0.3,0.4,0.7,0.7,0.9c0.3,0.3,0.7,0.4,1,0.5c0.1,0,0.2,0,0.2,0
	c0.1,0,0.2,0,0.2,0c0.1,0,0.3-0.1,0.4-0.1c0.2-0.1,0.4-0.1,0.5-0.2c0.3,0.7,0.6,1.4,0.8,2.1c0.5,1.3,1.1,2.7,1.6,4
	c1.2,2.9,2.5,5.6,3.8,8.2c0.1,0.2,0.2,0.3,0.2,0.5c-0.1-0.1-0.2-0.1-0.3-0.2l-0.3-0.2l-0.3-0.2c-0.2-0.1-0.4-0.2-0.6-0.4
	c-0.4-0.2-0.9-0.5-1.3-0.7c-0.4-0.2-0.9-0.4-1.3-0.6c-0.4-0.2-0.9-0.4-1.3-0.5c-0.5-0.2-0.9-0.3-1.3-0.5c-0.4-0.1-0.9-0.3-1.3-0.4
	c-0.4-0.1-0.9-0.2-1.3-0.3c-0.2,0-0.4-0.1-0.6-0.1c-0.2,0-0.4-0.1-0.6-0.1c-0.4-0.1-0.8-0.1-1.2-0.2c-0.4-0.1-0.7-0.1-1.1-0.1
	c-0.7-0.1-1.3-0.1-1.9-0.2c-0.3,0-0.5,0-0.8-0.1c-0.2,0-0.5,0-0.7,0c-0.8,0-1.3,0-1.3,0l0,0.3c0,0,0.5,0.1,1.2,0.3
	c0.4,0.1,0.9,0.2,1.4,0.3c0.5,0.1,1.2,0.3,1.8,0.5c0.3,0.1,0.7,0.2,1,0.3c0.4,0.1,0.7,0.2,1.1,0.4c0.2,0.1,0.4,0.1,0.6,0.2
	c0.2,0.1,0.4,0.1,0.6,0.2c0.4,0.2,0.8,0.3,1.2,0.5c0.4,0.2,0.8,0.3,1.2,0.5c0.4,0.2,0.8,0.4,1.2,0.6c0.4,0.2,0.8,0.4,1.2,0.6
	c0.4,0.2,0.8,0.5,1.2,0.7c0.4,0.3,0.8,0.5,1.1,0.8c0.2,0.1,0.4,0.3,0.5,0.4l0.3,0.2l0.3,0.2c0.2,0.2,0.3,0.3,0.5,0.5
	c0.2,0.2,0.3,0.3,0.5,0.5c0.3,0.3,0.6,0.6,1,0.9c0.6,0.6,1.2,1.2,1.8,1.8c0.4,0.4,0.8,0.9,1.1,1.3c1.7,3.9,3.4,8.2,5,13.4
	C68.5,75.3,58.1,90,57.7,90.6z"/>
<path d="M50.8,90.9c-0.1,0-0.1-0.1-0.3-0.2c-0.2-0.2-0.6-0.3-1-0.5c-0.5-0.1-1-0.2-1.6-0.2c-0.3,0-0.6,0.1-0.9,0.2
	c-0.3,0.1-0.6,0.2-0.9,0.4c-0.3,0.2-0.6,0.3-0.8,0.5c-0.3,0.2-0.5,0.4-0.7,0.7c-0.1,0.1-0.2,0.2-0.3,0.4c-0.1,0.1-0.2,0.3-0.3,0.4
	c-0.2,0.3-0.3,0.5-0.4,0.7c-0.1,0.2-0.2,0.5-0.3,0.7c-0.1,0.2-0.1,0.4-0.2,0.5c0,0.1-0.1,0.3-0.1,0.4c0,0.1,0,0.1,0,0.1s0,0,0.1-0.1
	c0-0.1,0.1-0.1,0.2-0.2c0.1-0.1,0.2-0.2,0.3-0.4c0.1-0.1,0.3-0.3,0.4-0.5c0.1-0.1,0.2-0.2,0.2-0.2c0.1-0.1,0.2-0.2,0.3-0.3
	c0.1-0.1,0.2-0.2,0.3-0.3c0.1-0.1,0.2-0.2,0.3-0.3c0.1-0.1,0.2-0.2,0.3-0.2c0.1-0.1,0.2-0.2,0.3-0.2c0.2-0.1,0.4-0.3,0.7-0.4
	c0.2-0.1,0.5-0.2,0.7-0.3c0.2-0.1,0.5-0.2,0.7-0.2c0.2-0.1,0.5-0.1,0.7-0.2c0.2,0,0.5-0.1,0.7-0.1c0.4,0,0.8-0.1,1-0.1
	C50.6,90.9,50.7,90.9,50.8,90.9C50.9,90.9,50.9,90.9,50.8,90.9C50.9,90.9,50.9,90.9,50.8,90.9z"/>
</svg>
