<?xml version="1.0" encoding="utf-8"?>
<!-- Generator: Adobe Illustrator 19.1.0, SVG Export Plug-In . SVG Version: 6.00 Build 0)  -->
<svg version="1.1" id="Layer_1" xmlns="http://www.w3.org/2000/svg" xmlns:xlink="http://www.w3.org/1999/xlink" x="0px" y="0px"
	 viewBox="-255 334 100 125" style="enable-background:new -255 334 100 125;" xml:space="preserve">
<path d="M-212.8,351.9c5.1-1.2,10.5-1.2,15.5,0c0.1,0,0.2,0,0.2,0c0,0,0,0,0,0c0.6,0,1-0.4,1-1c0-0.4-0.2-0.7-0.5-0.8
	c-3-2.6-7.5-7.5-7.5-10.1c0-0.3-0.2-0.7-0.5-0.9c-0.3-0.2-0.7-0.2-1,0c-0.3,0.2-8.6,4.4-8.6,11.8c0,0.3,0.1,0.6,0.4,0.8
	C-213.4,351.9-213.1,352-212.8,351.9z M-205.7,341.6c0.9,2.6,3.5,5.7,5.6,7.7c-3.9-0.5-7.9-0.4-11.7,0.3
	C-211.2,345.7-207.6,342.8-205.7,341.6z"/>
<path d="M-234,367.3c0,0,0.1,0,0.1,0c0.3,0,0.6-0.2,0.7-0.5c1.4-2.2,3-4.3,4.8-6.1c1.9-1.9,3.9-3.5,6.1-4.8c0.4-0.2,0.6-0.7,0.4-1.2
	c-0.1-0.4-0.6-0.7-1-0.7c0,0-1.2,0.1-2.9,0.1l0,0c-5,0-8.5-0.7-9.7-1.9c-0.2-0.2-0.6-0.3-0.9-0.3c-0.3,0.1-0.6,0.3-0.7,0.7
	c-0.1,0.4-3,9.1,2.3,14.4C-234.5,367.2-234.3,367.3-234,367.3z M-235.5,354.5c1.9,1,5.1,1.5,9.4,1.5c-1.3,1-2.5,2-3.7,3.2
	c-1.6,1.6-3.1,3.4-4.4,5.4C-236.5,361.3-236,356.7-235.5,354.5z"/>
<path d="M-237.1,391.6c-0.6-2.5-0.9-5-0.9-7.6c0-2.6,0.3-5.2,0.9-7.8c0.1-0.4-0.1-0.9-0.5-1.1c-0.4-0.2-0.9-0.1-1.2,0.2
	c-2.6,3-7.6,7.7-10.2,7.7c-0.3,0-0.7,0.2-0.9,0.5c-0.2,0.3-0.2,0.7,0,1c0.2,0.4,4.4,8.6,11.8,8.6c0,0,0,0,0,0c0.6,0,1-0.4,1-1
	C-237,391.9-237.1,391.7-237.1,391.6z M-247.4,384.7c2.6-0.9,5.7-3.5,7.7-5.6c-0.2,1.6-0.3,3.2-0.3,4.8c0,2.3,0.2,4.6,0.7,6.9
	C-243.3,390.2-246.2,386.6-247.4,384.7z"/>
<path d="M-222.2,412.2c-2.2-1.4-4.3-3-6.1-4.8c-1.9-1.9-3.5-3.9-4.8-6.1c-0.2-0.4-0.7-0.6-1.2-0.4c-0.4,0.1-0.7,0.6-0.7,1
	c0.3,3.9,0,10.8-1.8,12.6c-0.2,0.2-0.3,0.6-0.3,0.9c0.1,0.3,0.3,0.6,0.7,0.7c0.1,0,2.6,0.9,5.8,0.9c3.6,0,6.6-1.1,8.7-3.2
	c0.2-0.2,0.3-0.5,0.3-0.8S-221.9,412.3-222.2,412.2z M-230.7,414.9c-1.5,0-2.9-0.2-3.8-0.4c1.3-2.5,1.5-6.5,1.6-9.4
	c1,1.3,2,2.5,3.2,3.6c1.6,1.6,3.4,3.1,5.4,4.4C-226,414.3-228.1,414.9-230.7,414.9z"/>
<path d="M-197.2,416.1c-5.1,1.2-10.5,1.2-15.5,0c-0.4-0.1-0.9,0.1-1.1,0.5s-0.1,0.9,0.2,1.2c3,2.6,7.7,7.6,7.7,10.2
	c0,0.3,0.2,0.7,0.5,0.9c0.2,0.1,0.3,0.1,0.5,0.1c0.2,0,0.3,0,0.4-0.1c0.3-0.2,8.6-4.4,8.6-11.8c0-0.3-0.1-0.6-0.4-0.8
	C-196.6,416.1-196.9,416-197.2,416.1z M-204.3,426.4c-0.9-2.6-3.5-5.7-5.6-7.7c3.9,0.5,7.9,0.4,11.7-0.3
	C-198.8,422.3-202.4,425.2-204.3,426.4z"/>
<path d="M-176.1,400.7c-0.3,0-0.6,0.2-0.7,0.5c-1.4,2.2-3,4.3-4.8,6.1c-1.9,1.9-3.9,3.5-6.1,4.8c-0.4,0.2-0.6,0.7-0.4,1.2
	c0.1,0.4,0.6,0.7,1,0.7c0,0,1.2-0.1,2.9-0.1c5,0,8.5,0.7,9.7,1.9c0.2,0.2,0.4,0.3,0.7,0.3c0.1,0,0.2,0,0.2,0
	c0.3-0.1,0.6-0.3,0.7-0.7c0.1-0.4,3-9.1-2.3-14.4C-175.5,400.8-175.8,400.7-176.1,400.7z M-174.5,413.5c-1.9-1-5.1-1.5-9.4-1.5
	c1.3-1,2.5-2,3.7-3.2c1.6-1.6,3.1-3.4,4.4-5.4C-173.5,406.7-174,411.3-174.5,413.5z"/>
<path d="M-160.1,383.6c-0.2-0.3-4.4-8.6-11.8-8.6c-0.3,0-0.6,0.1-0.8,0.4c-0.2,0.2-0.3,0.6-0.2,0.9c0.6,2.5,0.9,5.1,0.9,7.8
	c0,2.6-0.3,5.2-0.9,7.8c-0.1,0.4,0.1,0.9,0.5,1.1c0.1,0.1,0.3,0.1,0.5,0.1c0.3,0,0.6-0.1,0.8-0.3c2.6-3,7.6-7.7,10.2-7.7
	c0.3,0,0.7-0.2,0.9-0.5C-160,384.2-160,383.9-160.1,383.6z M-170.3,388.8c0.2-1.6,0.3-3.2,0.3-4.8c0-2.3-0.2-4.6-0.7-6.9
	c4,0.7,6.9,4.3,8.1,6.2C-165.2,384.1-168.3,386.8-170.3,388.8z"/>
<path d="M-187.8,355.8c2.2,1.4,4.3,3,6.1,4.8c1.9,1.9,3.5,3.9,4.8,6.1c0.2,0.3,0.5,0.5,0.9,0.5c0,0,0,0,0,0c0.6,0,1-0.4,1-1
	c0-0.1,0-0.2,0-0.3c-0.3-3.9,0-10.6,1.8-12.4c0.2-0.2,0.3-0.6,0.3-0.9c-0.1-0.3-0.3-0.6-0.7-0.7c-0.1,0-2.6-0.9-5.8-0.9
	c-3.6,0-6.6,1.1-8.7,3.2c-0.2,0.2-0.3,0.5-0.3,0.8C-188.2,355.4-188.1,355.7-187.8,355.8z M-179.3,353.1c1.5,0,2.9,0.2,3.8,0.4
	c-1.3,2.5-1.5,6.5-1.6,9.4c-1-1.3-2-2.5-3.2-3.7c-1.6-1.6-3.4-3.1-5.4-4.4C-184,353.7-181.9,353.1-179.3,353.1z"/>
<path d="M-234.9,386.4c1.2,14.6,12.9,26.3,27.5,27.5c0.1,0.1,0.3,0.1,0.4,0.1c0.1,0,0.2,0,0.3-0.1c0.6,0,1.1,0.1,1.7,0.1
	c16.5,0,30-13.5,30-30s-13.5-30-30-30s-30,13.5-30,30c0,0.6,0,1.2,0.1,1.7C-235,386-235,386.2-234.9,386.4z M-205,356
	c15.4,0,28,12.6,28,28c0,12.9-8.7,23.7-20.6,27l4.3-4.3c0.4-0.4,0.4-1,0-1.4c-0.4-0.4-1-0.4-1.4,0l-6,6c-0.1,0.1-0.2,0.3-0.2,0.4
	c-1.2,0.2-2.4,0.3-3.6,0.3l4.3-4.3c0.4-0.4,0.4-1,0-1.4c-0.4-0.4-1-0.4-1.4,0l-5.6,5.6c-0.9-0.1-1.9-0.2-2.8-0.4l3.8-3.8
	c0.4-0.4,0.4-1,0-1.4c-0.4-0.4-1-0.4-1.4,0l-4.7,4.7c-0.8-0.2-1.6-0.5-2.4-0.8l3.5-3.5c0.4-0.4,0.4-1,0-1.4s-1-0.4-1.4,0l-4,4
	c0,0,0,0.1-0.1,0.1c-0.7-0.3-1.4-0.7-2.1-1.1l3.6-3.6c0.4-0.4,0.4-1,0-1.4c-0.4-0.4-1-0.4-1.4,0l-3.9,3.9c-0.6-0.4-1.3-0.9-1.9-1.4
	c0.1,0,0.1-0.1,0.2-0.1l4-4c0.4-0.4,0.4-1,0-1.4c-0.4-0.4-1-0.4-1.4,0l-4,4c-0.1,0.1-0.2,0.2-0.2,0.3c-0.6-0.5-1.2-1.1-1.7-1.7
	c0.1,0,0.2-0.1,0.3-0.2l4-4c0.4-0.4,0.4-1,0-1.4c-0.4-0.4-1-0.4-1.4,0l-4,4c-0.1,0.1-0.1,0.1-0.1,0.2c-0.5-0.6-0.9-1.2-1.4-1.9
	l3.9-3.9c0.4-0.4,0.4-1,0-1.4c-0.4-0.4-1-0.4-1.4,0l-3.6,3.6c-0.4-0.7-0.8-1.4-1.1-2.1c0,0,0.1,0,0.1-0.1l4-4c0.4-0.4,0.4-1,0-1.4
	c-0.4-0.4-1-0.4-1.4,0l-3.5,3.5c-0.3-0.8-0.6-1.6-0.8-2.4l4.7-4.7c0.4-0.4,0.4-1,0-1.4c-0.4-0.4-1-0.4-1.4,0l-3.8,3.8
	c-0.2-0.9-0.3-1.9-0.4-2.8l5.6-5.6c0.4-0.4,0.4-1,0-1.4c-0.4-0.4-1-0.4-1.4,0l-4.3,4.3c0-1.2,0.1-2.4,0.3-3.6c0.1,0,0.3-0.1,0.4-0.2
	l6-6c0.4-0.4,0.4-1,0-1.4c-0.4-0.4-1-0.4-1.4,0l-4.3,4.3C-228.7,364.7-217.9,356-205,356z"/>
</svg>
