<?xml version="1.0" encoding="utf-8"?>
<!-- Generator: Adobe Illustrator 19.1.0, SVG Export Plug-In . SVG Version: 6.00 Build 0)  -->
<svg version="1.1" id="Layer_1" xmlns="http://www.w3.org/2000/svg" xmlns:xlink="http://www.w3.org/1999/xlink" x="0px" y="0px"
	 viewBox="-255 334 100 125" style="enable-background:new -255 334 100 125;" xml:space="preserve">
<path d="M-168.9,372.7L-168.9,372.7l-4.8,2c0,0,0,0,0,0l-2.9,1.2c0.2-12.4-7.2-24.3-19.6-29.4l-18.5,44.6c-3.5-7.6-12.5-11.2-20.3-8
	c-6.7,2.8-10.4,9.6-9.6,16.4l-5.3,7.1l8.2,0.8c8.2,13.3,27.4,18.3,45.1,10.9c15.9-6.6,25.6-21,24.8-34.8l6.2-2.6v0
	c4.5-1.9,6.6-7,4.7-11.5L-168.9,372.7z M-188.8,353.9l-13.4,32.4l2.3,1l13-31.5c1.9,2,3.4,4.2,4.6,6.6l-11.4,27.5l2.3,1l10.5-25.3
	c1.1,3,1.7,6.1,1.8,9.3c0.1,3.8-0.6,7.5-2.1,11c-2.8,6.8-8.2,12.2-15.1,15.1c-3.5,1.4-7.2,2.2-11,2.2c-3.1,0-6.1-0.4-9.1-1.4
	l21.5-52C-192.7,350.9-190.7,352.3-188.8,353.9z M-176.6,377.2c0,0,0,0.1,0,0.1C-176.6,377.3-176.6,377.3-176.6,377.2z
	 M-176.7,377.9c0,0.2,0,0.4-0.1,0.7C-176.7,378.4-176.7,378.2-176.7,377.9z M-245.2,404.4l0.9-1.2l0.5,1.3L-245.2,404.4z
	 M-179.9,402.1c-2.1,2.9-4.6,5.6-7.5,7.9c-3,2.4-6.4,4.4-10.1,5.9c-4.4,1.8-9,2.9-13.6,3.1c-4.4,0.3-8.7-0.2-12.7-1.5
	c-8.1-2.5-14.2-7.6-17.2-14.6l0,0l0,0c-0.1-0.1-0.1-0.3-0.2-0.4c-2.8-6.7,0.4-14.5,7.2-17.3c6.7-2.8,14.5,0.4,17.3,7.2l0.7,1.8
	l-2.4,5.7l0,0l-2.2-5.4c-1.9-4.5-7-6.6-11.5-4.8c-4.2,1.8-6.4,6.4-5.1,10.7c0.1,0.2,0.1,0.4,0.2,0.6c0.9,2.2,3.5,3.3,5.8,2.4
	c2.2-0.9,3.3-3.5,2.4-5.8c-0.9-2.2-3.4-3.3-5.6-2.4c0.6-1.4,1.8-2.6,3.3-3.2c3.2-1.3,6.9,0.2,8.2,3.4l2.3,5.6h0l0.9,2.1l0,0l0,0
	c8.2,3.4,16.9,3.1,24.4,0c7.2-3,13.3-8.7,16.5-16.4c0.1-0.2,0.2-0.4,0.3-0.7l4.4-1.8c0.1,2.8-0.4,5.7-1.2,8.6
	C-176.4,396.1-177.9,399.2-179.9,402.1z M-234.7,400.2c0-0.1-0.1-0.2-0.1-0.3c-0.2-0.9,0.2-1.8,1.1-2.2c1-0.4,2.1,0.1,2.5,1
	c0.4,1-0.1,2.1-1,2.5C-233.2,401.6-234.3,401.1-234.7,400.2L-234.7,400.2z M-163.1,375.1c-0.6,1.5-1.8,2.8-3.4,3.4l-0.2,0.1l-2,0.8
	l0,0l-8.9,3.7c0.4-1.5,0.7-2.9,0.8-4.4l1.7-0.7l0,0l2.3-1l4.7-1.9l0.1,0l5.3-2.2C-162.7,373.6-162.8,374.3-163.1,375.1z"/>
</svg>
