<?xml version="1.0" encoding="utf-8"?>
<!-- Generator: Adobe Illustrator 19.2.1, SVG Export Plug-In . SVG Version: 6.00 Build 0)  -->
<svg version="1.1" id="EL:_Ellustrator" xmlns="http://www.w3.org/2000/svg" xmlns:xlink="http://www.w3.org/1999/xlink" x="0px"
	 y="0px" viewBox="0 0 90.3 90.1" style="enable-background:new 0 0 90.3 90.1;" xml:space="preserve">
<g id="ART:_Cloudy_Day">
	<path d="M77.1,62.1c-0.2-3.2-1.4-6.2-3.2-8.6c0.8-2.7,1.2-5.5,1.2-8.4c0-16.5-13.5-30-30-30s-30,13.5-30,30c0,3.1,0.5,6.2,1.4,9.1
		C7.3,54.9,0.1,62.7,0.1,72.1c0,6.9,3.9,12.9,9.6,15.9c0,0,0,0,0.1,0c2.5,1.3,5.3,2.1,8.4,2.1h58c7.7,0,14-6.3,14-14
		C90.1,68.7,84.3,62.6,77.1,62.1z M45.1,17.1c15.4,0,28,12.6,28,28c0,2.2-0.3,4.5-0.8,6.6c-2.9-2.8-6.8-4.6-11.2-4.6
		c-1.8,0-3.6,0.3-5.3,0.9l0,0c-0.3,0.1-0.6,0.2-0.8,0.3c0,0,0,0-0.1,0c-0.3,0.1-0.6,0.3-0.9,0.4c-0.1,0-0.2,0.1-0.3,0.1
		c-0.2,0.1-0.4,0.2-0.6,0.3c0,0,0,0-0.1,0c-4-4.6-9.7-7.2-15.8-7.2c-7.9,0-15.1,4.5-18.7,11.4c-0.9-2.7-1.3-5.5-1.3-8.4
		C17.1,29.7,29.8,17.1,45.1,17.1z M76.5,88.1l2.3-2.3c0.4-0.4,0.4-1,0-1.4s-1-0.4-1.4,0l-3.7,3.7h-3.2l2.3-2.3c0.4-0.4,0.4-1,0-1.4
		s-1-0.4-1.4,0l-3.7,3.7h-3.2l2.3-2.3c0.4-0.4,0.4-1,0-1.4s-1-0.4-1.4,0l-3.7,3.7h-3.2l2.3-2.3c0.4-0.4,0.4-1,0-1.4s-1-0.4-1.4,0
		l-3.7,3.7h-3.2l2.3-2.3c0.4-0.4,0.4-1,0-1.4s-1-0.4-1.4,0l-3.7,3.7h-3.2l2.3-2.3c0.4-0.4,0.4-1,0-1.4s-1-0.4-1.4,0l-3.7,3.7h-3.2
		l2.3-2.3c0.4-0.4,0.4-1,0-1.4s-1-0.4-1.4,0l-3.7,3.7h-3.2l2.3-2.3c0.4-0.4,0.4-1,0-1.4s-1-0.4-1.4,0l-3.7,3.7h-3.2l2.3-2.3
		c0.4-0.4,0.4-1,0-1.4s-1-0.4-1.4,0l-3.7,3.7h-3.2l2.3-2.3c0.4-0.4,0.4-1,0-1.4s-1-0.4-1.4,0l-3.7,3.7h-1.6c-0.5,0-1,0-1.5-0.1
		l3.2-3.2c0.4-0.4,0.4-1,0-1.4s-1-0.4-1.4,0l-4,4c-0.1,0.1-0.1,0.1-0.1,0.2c-0.8-0.2-1.7-0.5-2.4-0.8l3-3c0.4-0.4,0.4-1,0-1.4
		s-1-0.4-1.4,0l-3.4,3.4c-0.7-0.4-1.3-0.8-1.9-1.3l3.7-3.7c0.4-0.4,0.4-1,0-1.4s-1-0.4-1.4,0l-3.8,3.8c-0.5-0.5-1-1.1-1.4-1.7
		l3.7-3.7c0.4-0.4,0.4-1,0-1.4s-1-0.4-1.4,0l-3.3,3.3c-0.4-0.7-0.7-1.4-1-2.2l3.7-3.7c0.4-0.4,0.4-1,0-1.4s-1-0.4-1.4,0l-3,3
		c-0.2-0.9-0.3-1.9-0.3-2.9l3.7-3.7c0.4-0.4,0.4-1,0-1.4s-1-0.4-1.4,0l-2.1,2.1c1.3-7.6,7.8-13.3,15.8-13.3c0.1,0,0.2,0,0.4,0h0.3
		l0,0c0.3,0,0.6,0,1,0c0.3,0,0.5,0.1,0.8,0.1c0.2,0,0.5,0.1,0.7,0.1c0.3,0.1,0.6,0.1,0.9,0.2c0.2,0.1,0.4,0.1,0.6,0.1
		c0.3,0.1,0.6,0.2,0.9,0.3c0.2,0.1,0.4,0.1,0.6,0.2c0.3,0.1,0.6,0.3,0.8,0.4s0.4,0.2,0.6,0.3c0.3,0.1,0.5,0.3,0.7,0.4
		s0.4,0.2,0.6,0.4c0.2,0.1,0.4,0.3,0.6,0.5c0.2,0.2,0.4,0.3,0.6,0.5c0.2,0.1,0.3,0.3,0.5,0.5s0.5,0.4,0.7,0.6s0.5,0.3,0.7,0.3
		c0.3,0,0.5-0.1,0.7-0.3c0.4-0.4,0.4-1,0-1.4l0,0l0,0c-0.3-0.3-0.6-0.5-0.9-0.8c-0.1-0.1-0.3-0.3-0.4-0.4c-0.2-0.2-0.4-0.3-0.6-0.5
		l1.9-1.9c0.4-0.4,0.4-1,0-1.4s-1-0.4-1.4,0l-2,2c-0.1,0.1-0.1,0.1-0.1,0.2c-0.2-0.1-0.4-0.3-0.7-0.4s-0.5-0.2-0.8-0.4
		c-0.2-0.1-0.4-0.2-0.7-0.3l2.7-2.7c0.4-0.4,0.4-1,0-1.4s-1-0.4-1.4,0l-3,3c-0.1,0.1-0.2,0.3-0.2,0.4c-0.2-0.1-0.4-0.1-0.6-0.2
		c-0.3-0.1-0.6-0.2-0.9-0.2c-0.3-0.1-0.6-0.1-0.9-0.1c-0.1,0-0.3,0-0.4-0.1C24,48,30.4,44.1,37.5,44.1c5.5,0,10.6,2.3,14.2,6.4
		c-0.8,0.6-1.5,1.2-2.1,2c-0.4,0.4-0.3,1,0.1,1.4c0.2,0.2,0.4,0.3,0.7,0.3s0.5-0.1,0.7-0.3c0.8-0.9,1.7-1.6,2.6-2.3l0,0
		c0.4-0.3,0.9-0.5,1.3-0.8c0.1,0,0.2-0.1,0.2-0.1c0.5-0.2,0.9-0.4,1.4-0.6c1.5-0.6,3.1-0.9,4.8-0.9c4.2,0,8,1.9,10.6,4.9
		c-0.1,0.5,0.2,0.9,0.7,1.1c0.1,0,0.1,0,0.2,0c1.4,2,2.3,4.5,2.5,7.1c-2.8,0.2-5.4,1.2-7.6,2.9c-0.4,0.3-0.5,1-0.2,1.4
		c0.2,0.3,0.5,0.4,0.8,0.4c0.2,0,0.4-0.1,0.6-0.2c2.1-1.7,4.7-2.5,7.4-2.5c6.6,0,12,5.4,12,12C88.1,82.6,83,87.8,76.5,88.1z"/>
	<path d="M37.3,12.9c5.1-1.2,10.5-1.2,15.5,0c0.1,0,0.2,0,0.2,0l0,0c0.6,0,1-0.4,1-1c0-0.4-0.2-0.7-0.5-0.8C50.5,8.6,46,3.7,46,1.1
		c0-0.3-0.2-0.7-0.5-0.9c-0.3-0.2-0.7-0.2-1,0s-8.6,4.4-8.6,11.8c0,0.3,0.1,0.6,0.4,0.8C36.8,12.9,37,13.1,37.3,12.9z M44.5,2.7
		c0.9,2.6,3.5,5.7,5.6,7.7c-3.9-0.5-7.9-0.4-11.7,0.3C39,6.8,42.5,3.8,44.5,2.7z"/>
	<path d="M16.1,28.3h0.1c0.3,0,0.6-0.2,0.7-0.5c1.4-2.2,3-4.3,4.8-6.1c1.9-1.9,3.9-3.5,6.1-4.8c0.4-0.2,0.6-0.7,0.4-1.2
		c-0.1-0.4-0.6-0.7-1-0.7c0,0-1.2,0.1-2.9,0.1c-5,0-8.5-0.7-9.7-1.9c-0.2-0.2-0.6-0.3-0.9-0.3c-0.3,0.1-0.6,0.3-0.7,0.7
		c-0.1,0.4-3,9.1,2.3,14.4C15.6,28.3,15.8,28.3,16.1,28.3z M14.6,15.6c1.9,1,5.1,1.5,9.4,1.5c-1.3,1-2.5,2-3.7,3.2
		c-1.6,1.6-3.1,3.4-4.4,5.4C13.6,22.3,14.1,17.8,14.6,15.6z"/>
	<path d="M12,54.1C12.1,54.1,12.1,54.1,12,54.1c0.6,0,1-0.4,1-1c0-0.1,0-0.3-0.1-0.4c-0.6-2.5-0.9-5-0.9-7.6s0.3-5.2,0.9-7.8
		c0.1-0.4-0.1-0.9-0.5-1.1s-0.9-0.1-1.2,0.2c-2.6,3-7.6,7.7-10.2,7.7c-0.3,0-0.7,0.2-0.9,0.5s-0.2,0.7,0,1
		C0.5,45.8,4.6,54.1,12,54.1z M10.5,40.3c-0.2,1.6-0.3,3.2-0.3,4.8c0,2.3,0.2,4.6,0.7,6.9c-4-0.7-6.9-4.3-8.1-6.2
		C5.3,44.9,8.5,42.3,10.5,40.3z"/>
	<path d="M77.2,37.3c0.6,2.5,0.9,5.1,0.9,7.8c0,2.6-0.3,5.2-0.9,7.8c-0.1,0.4,0.1,0.9,0.5,1.1c0.1,0.1,0.3,0.1,0.5,0.1
		c0.3,0,0.6-0.1,0.8-0.3c2.6-3,7.6-7.7,10.2-7.7c0.3,0,0.7-0.2,0.9-0.5s0.2-0.7,0-1s-4.4-8.6-11.8-8.6c-0.3,0-0.6,0.1-0.8,0.4
		C77.2,36.7,77.1,36.9,77.2,37.3z M87.5,44.3c-2.6,0.9-5.7,3.5-7.7,5.6c0.2-1.6,0.3-3.2,0.3-4.8c0-2.3-0.2-4.6-0.7-6.9
		C83.4,38.8,86.3,42.4,87.5,44.3z"/>
	<path d="M62.3,16.8c2.2,1.4,4.3,3,6.1,4.8c1.9,1.9,3.5,3.9,4.8,6.1c0.2,0.3,0.5,0.5,0.9,0.5l0,0c0.6,0,1-0.4,1-1c0-0.1,0-0.2,0-0.3
		c-0.3-3.9,0-10.6,1.8-12.4c0.2-0.2,0.3-0.6,0.3-0.9c-0.1-0.3-0.3-0.6-0.7-0.7c-0.1,0-2.6-0.9-5.8-0.9c-3.6,0-6.6,1.1-8.7,3.2
		c-0.2,0.2-0.3,0.5-0.3,0.8C62,16.4,62,16.8,62.3,16.8z M70.8,14.2c1.5,0,2.9,0.2,3.8,0.4c-1.3,2.5-1.5,6.5-1.6,9.4
		c-1-1.3-2-2.5-3.2-3.7c-1.6-1.6-3.4-3.1-5.4-4.4C66.1,14.8,68.2,14.2,70.8,14.2z"/>
</g>
</svg>
