<?xml version="1.0" encoding="utf-8"?>
<!-- Generator: Adobe Illustrator 19.2.1, SVG Export Plug-In . SVG Version: 6.00 Build 0)  -->
<svg version="1.1" id="EL:_Ellustrator" xmlns="http://www.w3.org/2000/svg" xmlns:xlink="http://www.w3.org/1999/xlink" x="0px"
	 y="0px" viewBox="0 0 83 83" style="enable-background:new 0 0 83 83;" xml:space="preserve">
<g id="ART:_BirthdayCake">
	<g>
		<path d="M81.5,40h-10V26.8c2.3-0.7,4-2.8,4-5.3c0-2.6-3.4-6.1-4.5-7.1c-0.6-0.5-1.5-0.5-2.1,0c-1,1-4.5,4.4-4.5,7.1
			c0,2.5,1.7,4.6,4,5.3V40H57V12.9c2.5-0.5,4.4-2.7,4.4-5.4c0-2.6-3.4-6.1-4.5-7.1c-0.6-0.5-1.5-0.5-2.1,0c-1,1-4.5,4.4-4.5,7.1
			c0,2.4,1.5,4.4,3.6,5.2V40h-11V26.9c2.4-0.6,4.2-2.7,4.2-5.4c0-2.6-3.4-6.1-4.5-7.1c-0.6-0.5-1.5-0.5-2.1,0c-1,1-4.5,4.4-4.5,7.1
			c0,2.4,1.6,4.5,3.8,5.2V40h-11V12.8c2.4-0.6,4.1-2.8,4.1-5.3c0-2.6-3.4-6.1-4.5-7.1c-0.6-0.5-1.5-0.5-2.1,0c-1,1-4.5,4.4-4.5,7.1
			c0,2.5,1.6,4.6,3.9,5.3V40h-11V26.8c2.3-0.7,4-2.8,4-5.3c0-2.6-3.4-6.1-4.5-7.1c-0.6-0.5-1.5-0.5-2.1,0c-1,1-4.5,4.4-4.5,7.1
			c0,2.5,1.7,4.6,4,5.3V40H1.5C0.7,40,0,40.7,0,41.5v40C0,82.3,0.7,83,1.5,83h80c0.8,0,1.5-0.7,1.5-1.5v-40C83,40.7,82.3,40,81.5,40
			z M67.5,21.5c0-0.7,1.2-2.4,2.5-3.9c1.3,1.4,2.5,3.1,2.5,3.9c0,1.4-1.1,2.5-2.5,2.5S67.5,22.9,67.5,21.5z M55.9,3.6
			c1.3,1.4,2.5,3.1,2.5,3.9c0,1.4-1.1,2.5-2.5,2.5s-2.5-1.1-2.5-2.5C53.4,6.8,54.6,5.1,55.9,3.6z M39.3,21.5c0-0.7,1.2-2.4,2.5-3.9
			c1.3,1.4,2.5,3.1,2.5,3.9c0,1.4-1.1,2.5-2.5,2.5C40.4,24,39.3,22.9,39.3,21.5z M25.1,7.5c0-0.7,1.2-2.4,2.5-3.9
			c1.3,1.4,2.5,3.1,2.5,3.9c0,1.4-1.1,2.5-2.5,2.5C26.2,10,25.1,8.9,25.1,7.5z M11,21.5c0-0.7,1.2-2.4,2.5-3.9
			c1.3,1.4,2.5,3.1,2.5,3.9c0,1.4-1.1,2.5-2.5,2.5S11,22.9,11,21.5z M3,43h77v6.5c0,3.6-2.9,6.5-6.5,6.5S67,53.1,67,49.5
			c0-0.8-0.7-1.5-1.5-1.5S64,48.7,64,49.5c0,3.6-2.9,6.5-6.5,6.5S51,53.1,51,49.5c0-0.8-0.7-1.5-1.5-1.5S48,48.7,48,49.5
			c0,3.6-2.9,6.5-6.5,6.5S35,53.1,35,49.5c0-0.8-0.7-1.5-1.5-1.5S32,48.7,32,49.5c0,3.6-2.9,6.5-6.5,6.5S19,53.1,19,49.5l0,0
			c0-0.8-0.7-1.5-1.5-1.5l0,0l0,0c-0.8,0-1.5,0.7-1.5,1.5l0,0c0,3.6-2.9,6.5-6.5,6.5S3,53.1,3,49.5V43z M80,67.4V72H3v-4.6
			c0.9-0.2,1.5-1,1.5-1.9S3.9,63.8,3,63.6v-7.2C4.7,58,7,59,9.5,59c3.4,0,6.3-1.8,8-4.4c1.7,2.6,4.6,4.4,8,4.4s6.3-1.8,8-4.4
			c1.7,2.6,4.6,4.4,8,4.4s6.3-1.8,8-4.4c1.7,2.6,4.6,4.4,8,4.4s6.3-1.8,8-4.4c1.7,2.6,4.6,4.4,8,4.4c2.5,0,4.8-1,6.5-2.6v7.2
			c-0.9,0.2-1.5,1-1.5,1.9S79.1,67.2,80,67.4z M3,80v-5h77v5H3z"/>
		<circle cx="33.5" cy="65.5" r="2"/>
		<circle cx="17.5" cy="65.5" r="2"/>
		<circle cx="65.5" cy="65.5" r="2"/>
		<circle cx="49.5" cy="65.5" r="2"/>
	</g>
</g>
</svg>
