<?xml version="1.0" encoding="utf-8"?>
<!-- Generator: Adobe Illustrator 19.1.0, SVG Export Plug-In . SVG Version: 6.00 Build 0)  -->
<svg version="1.1" id="Layer_1" xmlns="http://www.w3.org/2000/svg" xmlns:xlink="http://www.w3.org/1999/xlink" x="0px" y="0px"
	 viewBox="-289 377 32 40" style="enable-background:new -289 377 32 40;" xml:space="preserve">
<path d="M-263.4,383h-7.1l1.6-4c0.4-1.1,1.4-2,2-2s1.5,0.8,2,2L-263.4,383z M-262.6,385h-8.7l-1.6,4h11.8L-262.6,385z M-260.3,391
	h-13.3l-1.6,4h16.4L-260.3,391z M-257.2,399l-0.8-2h-18l-0.8,2c-0.5,1,0.2,2,1.3,2h17C-257.4,401-256.7,400.1-257.2,399z M-269,409
	h4v-6h-4V409z M-281.5,385c-0.4-1.1-0.7-2-1.5-2s-1.1,0.8-1.5,2l-1.3,4h5.6L-281.5,385z M-286.4,391l-1.3,4h9.4l-1.3-4H-286.4z
	 M-288.3,397l-0.6,1.7c-0.3,1.1,0.6,2.3,1.4,2.3h8.5c0,0-0.7-0.2-0.7-1.7c0-1.1,0.7-2.3,0.7-2.3H-288.3z M-285,409h4v-6h-4V409z"/>
</svg>
