<?xml version="1.0" encoding="utf-8"?>
<!-- Generator: Adobe Illustrator 19.1.0, SVG Export Plug-In . SVG Version: 6.00 Build 0)  -->
<svg version="1.1" id="Layer_1" xmlns="http://www.w3.org/2000/svg" xmlns:xlink="http://www.w3.org/1999/xlink" x="0px" y="0px"
	 viewBox="-255 334 100 125" style="enable-background:new -255 334 100 125;" xml:space="preserve">
<path d="M-223.1,409.2c3,0,5.7-1.3,7.6-3.4c1.8,2.1,4.6,3.4,7.6,3.4c5.6,0,10.1-4.5,10.1-10.1h-5c0,2.8-2.3,5.1-5.1,5.1
	c-2.7,0-5-2.2-5.1-4.9c0-0.1,0-0.1,0-0.2h-5c0,0.1,0,0.1,0,0.2c-0.1,2.7-2.3,4.9-5.1,4.9c-2.8,0-5.1-2.3-5.1-5.1h-5
	C-233.2,404.7-228.7,409.2-223.1,409.2z M-230.3,393l10.1-10.1l-10.1-10.1l-3.5,3.5l6.6,6.6l-6.6,6.6L-230.3,393z M-200.9,372.8
	l-10.1,10.1l10.1,10.1l3.5-3.5l-6.6-6.6l6.6-6.6L-200.9,372.8z M-198.9,361.4l16.4,16.4l12.7-12.7l3.6-3.6l0,0l2.9-2.9
	c4.5-4.5,4.5-11.9,0-16.4s-11.9-4.5-16.4,0l-2.8,2.8l0,0l0,0l-2.9-2.9c-3.4-3.4-8.3-4.2-12.5-2.6l0,0l0,0c-0.7,0.3-1.4,0.6-2,1l0,0
	c-0.3,0.2-0.6,0.4-0.8,0.6l-0.1,0.1c-0.3,0.2-0.6,0.5-0.9,0.8s-0.6,0.6-0.8,0.9l0,0c-0.3,0.3-0.5,0.6-0.7,1l0,0
	c-2.9,4.5-2.4,10.6,1.5,14.5L-198.9,361.4z M-167.6,369.9c1.7,4.4,2.6,9.1,2.6,14.1c0,22.1-17.9,40-40,40s-40-17.9-40-40
	c0-20.7,15.8-37.8,36-39.8c0.8-1.9,1.9-3.7,3.3-5.2c-24.6,0.4-44.3,20.4-44.3,45c0,24.9,20.1,45,45,45s45-20.1,45-45
	c0-6.4-1.3-12.4-3.7-17.9L-167.6,369.9z"/>
</svg>
