<?xml version="1.0" encoding="utf-8"?>
<!-- Generator: Adobe Illustrator 19.1.0, SVG Export Plug-In . SVG Version: 6.00 Build 0)  -->
<svg version="1.1" id="Layer_1" xmlns="http://www.w3.org/2000/svg" xmlns:xlink="http://www.w3.org/1999/xlink" x="0px" y="0px"
	 viewBox="-255 354.3 100 85.7" style="enable-background:new -255 354.3 100 85.7;" xml:space="preserve">
<polygon points="-226.3,370.2 -223.2,376.5 -216.2,377.5 -221.2,382.4 -220.1,389.4 -226.3,386.1 -232.5,389.4 -231.3,382.4 
	-236.4,377.5 -229.4,376.5 "/>
<polygon points="-195.2,392.5 -195.4,398 -191.1,401.3 -196.3,402.8 -198.1,407.9 -201.1,403.4 -206.6,403.3 -203.2,399 
	-204.8,393.8 -199.7,395.7 "/>
<polygon points="-234.6,399.6 -228.9,403.2 -222.8,400.5 -224.4,407 -219.9,412 -226.6,412.5 -230,418.3 -232.5,412.1 -239.1,410.7 
	-234,406.3 "/>
<polygon points="-207.9,412.2 -205.9,416.2 -201.5,416.8 -204.7,420 -203.9,424.4 -207.9,422.3 -211.8,424.4 -211.1,420 
	-214.3,416.8 -209.8,416.2 "/>
<polygon points="-195,369.3 -195.3,376.7 -189.3,381.2 -196.5,383.2 -198.9,390.2 -203,384 -210.4,383.9 -205.8,378.1 -208,371 
	-201,373.6 "/>
<polygon points="-188,406.5 -183.9,414.7 -174.9,416 -181.4,422.4 -179.9,431.4 -188,427.1 -196.1,431.4 -194.5,422.4 -201.1,416 
	-192,414.7 "/>
<polygon points="-173.9,379.8 -174.1,385.2 -169.7,388.5 -175,390 -176.8,395.2 -179.8,390.6 -185.3,390.5 -181.9,386.2 -183.5,381 
	-178.4,382.9 "/>
</svg>
