<?xml version="1.0" encoding="utf-8"?>
<!-- Generator: Adobe Illustrator 19.1.0, SVG Export Plug-In . SVG Version: 6.00 Build 0)  -->
<svg version="1.1" id="Layer_1" xmlns="http://www.w3.org/2000/svg" xmlns:xlink="http://www.w3.org/1999/xlink" x="0px" y="0px"
	 viewBox="-255 334 100 125" style="enable-background:new -255 334 100 125;" xml:space="preserve">
<path d="M-249.3,376.1c0.1-0.4,0.1-0.8,0.2-1.2C-249.2,375.4-249.2,375.7-249.3,376.1z"/>
<path d="M-249.6,378.4c0.1-0.4,0.1-0.8,0.2-1.2C-249.5,377.6-249.6,378-249.6,378.4z"/>
<path d="M-249.9,380.9c0-0.5,0.1-1,0.1-1.5C-249.8,379.9-249.8,380.4-249.9,380.9z"/>
<path d="M-250,384c0-0.8,0-1.5,0.1-2.3C-250,382.5-250,383.2-250,384z"/>
<path d="M-249.9,381.7c0-0.3,0-0.5,0.1-0.8C-249.9,381.2-249.9,381.4-249.9,381.7z"/>
<path d="M-249.8,379.4c0-0.3,0.1-0.7,0.1-1C-249.7,378.8-249.7,379.1-249.8,379.4z"/>
<path d="M-249.5,377.2c0.1-0.4,0.1-0.7,0.2-1.1C-249.4,376.5-249.4,376.8-249.5,377.2z"/>
<path d="M-200.5,373.2c-5.9,0-10.8,4.8-10.8,10.8s4.8,10.8,10.8,10.8s10.7-4.9,10.7-10.8S-194.6,373.2-200.5,373.2z M-229.9,373.2
	c-5.9,0-10.8,4.8-10.8,10.8s4.8,10.8,10.8,10.8s10.8-4.9,10.8-10.8S-223.9,373.2-229.9,373.2z M-222.1,401.3h12.5l-6.3-6.3
	L-222.1,401.3z M-167.2,408.4c0.2-0.4,0.5-0.7,0.7-1.1c0.3-0.4,0.5-0.8,0.7-1.3c0.2-0.3,0.3-0.5,0.4-0.8c0.3-0.5,0.6-1.1,0.8-1.6
	c0.2-0.3,0.3-0.6,0.5-1c0.2-0.3,0.3-0.7,0.5-1c0.2-0.6,0.5-1.1,0.7-1.7c0.2-0.4,0.3-0.8,0.4-1.2c0-0.1,0.1-0.2,0.1-0.3
	c0.1-0.4,0.3-0.8,0.4-1.2c0-0.2,0.1-0.3,0.1-0.5c0.1-0.4,0.2-0.8,0.3-1.2c0-0.2,0.1-0.4,0.1-0.5c0.1-0.6,0.3-1.2,0.4-1.8
	c0.1-0.3,0.1-0.6,0.2-0.9c0-0.3,0.1-0.5,0.1-0.8c0.1-0.3,0.1-0.7,0.2-1c0-0.3,0.1-0.5,0.1-0.8c0-0.4,0.1-0.7,0.1-1.1
	c0-0.2,0-0.5,0.1-0.7c0-0.4,0.1-0.8,0.1-1.2c0-0.2,0-0.4,0-0.6c0-0.6,0-1.2,0-1.9c0-0.8,0-1.6-0.1-2.4c0-0.2,0-0.3,0-0.5
	c0-0.6-0.1-1.2-0.1-1.9c0-0.1,0-0.3-0.1-0.4c-0.1-0.6-0.1-1.3-0.2-1.9c0-0.1,0-0.2-0.1-0.3c-0.1-0.7-0.2-1.3-0.4-2
	c0-0.1,0-0.1,0-0.2c-0.1-0.7-0.3-1.4-0.5-2.1c0,0,0,0,0-0.1c-0.6-2.2-1.3-4.3-2.2-6.4l0,0c-6.8-15.9-22.6-27-41.1-27
	c-9,0-17.4,2.6-24.4,7.2l-0.1,0.1c-0.4,0.3-0.9,0.6-1.3,0.9c-0.5,0.3-0.9,0.7-1.4,1l0,0c-0.6,0.4-1.1,0.9-1.6,1.3c0,0-0.1,0-0.1,0.1
	c-0.5,0.4-1,0.9-1.5,1.3l-0.1,0.1c-0.5,0.4-1,0.9-1.4,1.4c-0.1,0.1-0.1,0.1-0.2,0.2c-0.4,0.5-0.9,0.9-1.3,1.4
	c-0.1,0.1-0.1,0.1-0.2,0.2c-0.4,0.5-0.8,0.9-1.2,1.4c-0.1,0.1-0.1,0.2-0.2,0.3c-0.4,0.5-0.7,0.9-1.1,1.4c-0.1,0.1-0.2,0.2-0.3,0.4
	c-0.3,0.5-0.7,0.9-1,1.4c-0.1,0.1-0.2,0.3-0.3,0.4c-0.3,0.5-0.6,0.9-0.9,1.4c-0.1,0.2-0.2,0.4-0.3,0.5c-0.3,0.4-0.5,0.9-0.8,1.3
	c-0.1,0.2-0.2,0.4-0.3,0.6c-0.2,0.4-0.5,0.9-0.7,1.3c-0.1,0.2-0.2,0.5-0.3,0.7c-0.2,0.4-0.4,0.9-0.6,1.3c-0.1,0.3-0.2,0.5-0.3,0.8
	c-0.2,0.4-0.3,0.8-0.5,1.3c-0.1,0.3-0.2,0.6-0.3,0.9c-0.1,0.4-0.3,0.8-0.4,1.2c-0.1,0.3-0.2,0.6-0.3,1c-0.1,0.4-0.2,0.8-0.3,1.2
	c-0.1,0.3-0.2,0.7-0.2,1.1c0,0.1-0.1,0.5-0.2,0.9c-0.1,0.4-0.1,0.8-0.2,1.2c-0.1,0.4-0.1,0.7-0.2,1.1c-0.1,0.4-0.1,0.8-0.2,1.2
	c0,0.3-0.1,0.7-0.1,1c0,0.5-0.1,1-0.1,1.5c0,0.3,0,0.5-0.1,0.8c0,0.7,0,1.4,0,2.2c0,24.9,20.1,45,45,45c0.6,0,1.1,0,1.7,0
	c0.3,0,0.6,0,1-0.1c0.2,0,0.4,0,0.7,0c0.4,0,0.9-0.1,1.3-0.1c0.1,0,0.2,0,0.2,0c0.8-0.1,1.6-0.2,2.4-0.3c0.3-0.1,0.6-0.1,0.9-0.2
	c0.5-0.1,0.9-0.2,1.4-0.3c0.3-0.1,0.7-0.1,1-0.2c0.6-0.2,1.3-0.3,1.9-0.5l0,0c0.6-0.2,1.3-0.4,1.9-0.6c0.2-0.1,0.4-0.1,0.5-0.2
	c0.6-0.2,1.3-0.5,1.9-0.7c0.2-0.1,0.3-0.1,0.5-0.2c0.6-0.3,1.3-0.6,1.9-0.9c0.1-0.1,0.2-0.1,0.3-0.2c0.7-0.3,1.3-0.7,2-1l0.1-0.1
	c1.1-0.6,2.2-1.3,3.3-2l20.1,7.6L-167.2,408.4L-167.2,408.4z M-167.6,398.2c0,0.1-0.1,0.2-0.1,0.4l0,0c-0.5,0-1-0.1-1.5-0.1
	c-13.2,0-23.8,10.6-23.8,23.6c-0.2,0.1-0.5,0.1-0.7,0.2c-0.5,0.2-1,0.3-1.5,0.4c-0.3,0.1-0.6,0.1-0.9,0.2c-0.5,0.1-1,0.2-1.6,0.3
	c-0.3,0.1-0.7,0.1-1,0.2c-0.5,0.1-1,0.2-1.6,0.2c-0.3,0-0.7,0.1-1,0.1c-0.5,0-1,0.1-1.6,0.1c-0.1,0-0.3,0-0.4,0v-15.6h-5v15.7h-0.1
	c-0.7-0.1-1.5-0.1-2.2-0.2c-0.1,0-0.2,0-0.4,0c-0.8-0.1-1.6-0.3-2.4-0.4l0,0v-15.1h-5v13.5l0,0c-0.9-0.3-1.7-0.7-2.6-1
	c-0.4-0.2-0.8-0.4-1.3-0.6c-0.4-0.2-0.8-0.4-1.2-0.6v-11.3h-5v8.2l0,0c-1.9-1.4-3.6-2.9-5.3-4.5l0,0c-0.5-0.5-1-1.1-1.5-1.6
	c0-0.1-0.1-0.1-0.1-0.2c-0.5-0.5-0.9-1.1-1.3-1.6l-0.1-0.1c-1.4-1.8-2.6-3.7-3.7-5.7c-0.1-0.1-0.1-0.3-0.2-0.4
	c-0.3-0.5-0.5-1.1-0.8-1.6c-0.1-0.2-0.2-0.3-0.2-0.5c-0.2-0.5-0.5-1.1-0.7-1.6c-0.1-0.2-0.1-0.3-0.2-0.5c-0.5-1.4-1-2.8-1.3-4.3
	c0-0.2-0.1-0.4-0.1-0.5c-0.1-0.5-0.2-1.1-0.4-1.6c0-0.2-0.1-0.5-0.1-0.7c-0.1-0.5-0.2-1-0.2-1.5c0-0.3-0.1-0.5-0.1-0.8
	c-0.1-0.5-0.1-1-0.1-1.6c0-0.2,0-0.5-0.1-0.7c0-0.8-0.1-1.5-0.1-2.3c0-0.7,0-1.3,0.1-2c0-0.2,0-0.4,0-0.7c0-0.4,0.1-0.9,0.1-1.3
	c0-0.3,0.1-0.5,0.1-0.8c0-0.4,0.1-0.8,0.1-1.2c0-0.3,0.1-0.5,0.1-0.8c0.1-0.4,0.1-0.7,0.2-1.1c0.1-0.3,0.1-0.6,0.2-0.8
	c0.1-0.4,0.2-0.7,0.2-1c0.1-0.3,0.1-0.6,0.2-0.8c0.1-0.3,0.2-0.7,0.3-1c0.1-0.3,0.2-0.6,0.3-0.8c0.1-0.3,0.2-0.7,0.3-1
	c0.1-0.3,0.2-0.5,0.3-0.8c0.1-0.3,0.2-0.6,0.4-1c0.1-0.3,0.2-0.5,0.3-0.8c0.1-0.3,0.3-0.6,0.4-0.9c0.1-0.3,0.2-0.5,0.4-0.8
	c0.2-0.3,0.3-0.6,0.5-0.9c0.1-0.3,0.3-0.5,0.4-0.8c0.2-0.3,0.3-0.6,0.5-0.9c0.1-0.2,0.3-0.5,0.4-0.7c0.2-0.3,0.4-0.6,0.6-0.9
	c0.2-0.2,0.3-0.5,0.5-0.7c0.2-0.3,0.4-0.6,0.6-0.9c0.2-0.2,0.3-0.4,0.5-0.7c0.2-0.3,0.5-0.6,0.7-0.9c0.2-0.2,0.3-0.4,0.5-0.6
	c0.3-0.3,0.6-0.7,0.8-1c0.1-0.2,0.3-0.3,0.4-0.5c0.4-0.4,0.8-0.9,1.2-1.3c0.2-0.2,0.4-0.4,0.6-0.5c0.3-0.3,0.5-0.5,0.8-0.7
	c0.2-0.2,0.4-0.4,0.6-0.6c0.3-0.2,0.5-0.4,0.8-0.7c0.2-0.2,0.5-0.4,0.7-0.6c0.3-0.2,0.5-0.4,0.8-0.6c0.2-0.2,0.5-0.4,0.7-0.5
	c0.3-0.2,0.5-0.4,0.8-0.6c0.3-0.2,0.5-0.3,0.8-0.5c0.3-0.2,0.5-0.3,0.8-0.5c0.3-0.2,0.5-0.3,0.8-0.5c0.3-0.2,0.5-0.3,0.8-0.5
	c0.3-0.2,0.6-0.3,0.8-0.4c0.3-0.1,0.6-0.3,0.8-0.4c0.3-0.1,0.6-0.3,0.9-0.4c0.3-0.1,0.6-0.3,0.8-0.4c0.3-0.1,0.6-0.3,0.9-0.4
	c0.3-0.1,0.6-0.2,0.9-0.3c0.3-0.1,0.6-0.2,0.9-0.3s0.6-0.2,0.9-0.3c0.3-0.1,0.6-0.2,0.9-0.3s0.6-0.2,0.9-0.3
	c0.3-0.1,0.6-0.2,0.9-0.3s0.6-0.1,0.9-0.2c0.3-0.1,0.6-0.1,1-0.2c0.3-0.1,0.6-0.1,0.9-0.2c0.3-0.1,0.6-0.1,1-0.2
	c0.3,0,0.7-0.1,1-0.1s0.6-0.1,1-0.1c1.3-0.1,2.7-0.2,4-0.2c17.1,0,31.7,10.8,37.4,25.9c0.2,0.5,0.3,1,0.5,1.4c0,0.1,0.1,0.2,0.1,0.3
	c0.1,0.4,0.3,0.9,0.4,1.3c0,0.2,0.1,0.3,0.1,0.5c0.1,0.4,0.2,0.8,0.3,1.2c0.1,0.2,0.1,0.4,0.1,0.6c0.1,0.4,0.2,0.7,0.2,1.1
	c0.1,0.3,0.1,0.5,0.1,0.8c0.1,0.3,0.1,0.7,0.2,1c0,0.3,0.1,0.6,0.1,0.9c0,0.3,0.1,0.6,0.1,0.9c0,0.4,0.1,0.8,0.1,1.2
	c0,0.2,0,0.5,0.1,0.7c0,0.6,0,1.3,0,2s0,1.5-0.1,2.2c0,0.2,0,0.5-0.1,0.7c0,0.5-0.1,1-0.1,1.5c0,0.3-0.1,0.5-0.1,0.8
	c-0.1,0.5-0.1,0.9-0.2,1.4c0,0.3-0.1,0.5-0.1,0.7c-0.1,0.7-0.3,1.3-0.4,2c-0.1,0.2-0.1,0.4-0.2,0.6c-0.1,0.5-0.2,0.9-0.4,1.4
	c-0.1,0.3-0.2,0.6-0.3,0.8c-0.1,0.4-0.3,0.8-0.4,1.2C-167.4,397.7-167.5,398-167.6,398.2z"/>
</svg>
