<?xml version="1.0" encoding="utf-8"?>
<!-- Generator: Adobe Illustrator 19.1.0, SVG Export Plug-In . SVG Version: 6.00 Build 0)  -->
<svg version="1.1" id="Layer_1" xmlns="http://www.w3.org/2000/svg" xmlns:xlink="http://www.w3.org/1999/xlink" x="0px" y="0px"
	 viewBox="-255 334 100 125" style="enable-background:new -255 334 100 125;" xml:space="preserve">
<path d="M-173,401c-0.2-3.2-1.4-6.2-3.2-8.6c0.8-2.7,1.2-5.5,1.2-8.4c0-16.5-13.5-30-30-30s-30,13.5-30,30c0,3.1,0.5,6.2,1.4,9.1
	c-9.2,0.8-16.4,8.5-16.4,17.9c0,6.9,3.9,12.9,9.6,15.9c0,0,0,0,0.1,0c2.5,1.3,5.3,2.1,8.4,2.1h58c7.7,0,14-6.3,14-14
	C-160,407.6-165.8,401.5-173,401z M-205,356c15.4,0,28,12.6,28,28c0,2.2-0.3,4.5-0.8,6.6c-2.9-2.8-6.8-4.6-11.2-4.6
	c-1.8,0-3.6,0.3-5.3,0.9c0,0,0,0,0,0c-0.3,0.1-0.6,0.2-0.8,0.3c0,0,0,0-0.1,0c-0.3,0.1-0.6,0.3-0.9,0.4c-0.1,0-0.2,0.1-0.3,0.1
	c-0.2,0.1-0.4,0.2-0.6,0.3c0,0,0,0-0.1,0c-4-4.6-9.7-7.2-15.8-7.2c-7.9,0-15.1,4.5-18.7,11.4c-0.9-2.7-1.3-5.5-1.3-8.4
	C-233,368.6-220.4,356-205,356z M-173.6,427l2.3-2.3c0.4-0.4,0.4-1,0-1.4c-0.4-0.4-1-0.4-1.4,0l-3.7,3.7h-3.2l2.3-2.3
	c0.4-0.4,0.4-1,0-1.4s-1-0.4-1.4,0l-3.7,3.7h-3.2l2.3-2.3c0.4-0.4,0.4-1,0-1.4s-1-0.4-1.4,0l-3.7,3.7h-3.2l2.3-2.3
	c0.4-0.4,0.4-1,0-1.4s-1-0.4-1.4,0l-3.7,3.7h-3.2l2.3-2.3c0.4-0.4,0.4-1,0-1.4c-0.4-0.4-1-0.4-1.4,0l-3.7,3.7h-3.2l2.3-2.3
	c0.4-0.4,0.4-1,0-1.4c-0.4-0.4-1-0.4-1.4,0l-3.7,3.7h-3.2l2.3-2.3c0.4-0.4,0.4-1,0-1.4c-0.4-0.4-1-0.4-1.4,0l-3.7,3.7h-3.2l2.3-2.3
	c0.4-0.4,0.4-1,0-1.4c-0.4-0.4-1-0.4-1.4,0l-3.7,3.7h-3.2l2.3-2.3c0.4-0.4,0.4-1,0-1.4c-0.4-0.4-1-0.4-1.4,0l-3.7,3.7h-3.2l2.3-2.3
	c0.4-0.4,0.4-1,0-1.4s-1-0.4-1.4,0l-3.7,3.7h-1.6c-0.5,0-1,0-1.5-0.1l3.2-3.2c0.4-0.4,0.4-1,0-1.4s-1-0.4-1.4,0l-4,4
	c-0.1,0.1-0.1,0.1-0.1,0.2c-0.8-0.2-1.7-0.5-2.4-0.8l3-3c0.4-0.4,0.4-1,0-1.4s-1-0.4-1.4,0l-3.4,3.4c-0.7-0.4-1.3-0.8-1.9-1.3
	l3.7-3.7c0.4-0.4,0.4-1,0-1.4s-1-0.4-1.4,0l-3.8,3.8c-0.5-0.5-1-1.1-1.4-1.7l3.7-3.7c0.4-0.4,0.4-1,0-1.4c-0.4-0.4-1-0.4-1.4,0
	l-3.3,3.3c-0.4-0.7-0.7-1.4-1-2.2l3.7-3.7c0.4-0.4,0.4-1,0-1.4c-0.4-0.4-1-0.4-1.4,0l-3,3c-0.2-0.9-0.3-1.9-0.3-2.9l3.7-3.7
	c0.4-0.4,0.4-1,0-1.4c-0.4-0.4-1-0.4-1.4,0l-2.1,2.1c1.3-7.6,7.8-13.3,15.8-13.3c0.1,0,0.2,0,0.4,0l0.3,0c0,0,0,0,0,0
	c0.3,0,0.6,0,1,0c0.3,0,0.5,0.1,0.8,0.1c0.2,0,0.5,0.1,0.7,0.1c0.3,0.1,0.6,0.1,0.9,0.2c0.2,0.1,0.4,0.1,0.6,0.1
	c0.3,0.1,0.6,0.2,0.9,0.3c0.2,0.1,0.4,0.1,0.6,0.2c0.3,0.1,0.6,0.3,0.8,0.4c0.2,0.1,0.4,0.2,0.6,0.3c0.3,0.1,0.5,0.3,0.7,0.4
	c0.2,0.1,0.4,0.2,0.6,0.4c0.2,0.1,0.4,0.3,0.6,0.5c0.2,0.2,0.4,0.3,0.6,0.5c0.2,0.1,0.3,0.3,0.5,0.5c0.2,0.2,0.5,0.4,0.7,0.6
	c0.2,0.2,0.5,0.3,0.7,0.3c0.3,0,0.5-0.1,0.7-0.3c0.4-0.4,0.4-1,0-1.4c0,0,0,0,0,0c0,0,0,0,0,0c-0.3-0.3-0.6-0.5-0.9-0.8
	c-0.1-0.1-0.3-0.3-0.4-0.4c-0.2-0.2-0.4-0.3-0.6-0.5l1.9-1.9c0.4-0.4,0.4-1,0-1.4c-0.4-0.4-1-0.4-1.4,0l-2,2
	c-0.1,0.1-0.1,0.1-0.1,0.2c-0.2-0.1-0.4-0.3-0.7-0.4c-0.3-0.1-0.5-0.2-0.8-0.4c-0.2-0.1-0.4-0.2-0.7-0.3l2.7-2.7
	c0.4-0.4,0.4-1,0-1.4c-0.4-0.4-1-0.4-1.4,0l-3,3c-0.1,0.1-0.2,0.3-0.2,0.4c-0.2-0.1-0.4-0.1-0.6-0.2c-0.3-0.1-0.6-0.2-0.9-0.2
	c-0.3-0.1-0.6-0.1-0.9-0.1c-0.1,0-0.3,0-0.4-0.1c3.3-6.2,9.7-10.1,16.8-10.1c5.5,0,10.6,2.3,14.2,6.4c-0.8,0.6-1.5,1.2-2.1,2
	c-0.4,0.4-0.3,1,0.1,1.4c0.2,0.2,0.4,0.3,0.7,0.3c0.3,0,0.5-0.1,0.7-0.3c0.8-0.9,1.7-1.6,2.6-2.3c0,0,0,0,0,0
	c0.4-0.3,0.9-0.5,1.3-0.8c0.1,0,0.2-0.1,0.2-0.1c0.5-0.2,0.9-0.4,1.4-0.6c1.5-0.6,3.1-0.9,4.8-0.9c4.2,0,8,1.9,10.6,4.9
	c-0.1,0.5,0.2,0.9,0.7,1.1c0.1,0,0.1,0,0.2,0c1.4,2,2.3,4.5,2.5,7.1c-2.8,0.2-5.4,1.2-7.6,2.9c-0.4,0.3-0.5,1-0.2,1.4
	c0.2,0.3,0.5,0.4,0.8,0.4c0.2,0,0.4-0.1,0.6-0.2c2.1-1.7,4.7-2.5,7.4-2.5c6.6,0,12,5.4,12,12C-162,421.5-167.1,426.7-173.6,427z"/>
<path d="M-212.8,351.9c5.1-1.2,10.5-1.2,15.5,0c0.1,0,0.2,0,0.2,0c0,0,0,0,0,0c0.6,0,1-0.4,1-1c0-0.4-0.2-0.7-0.5-0.8
	c-3-2.6-7.5-7.5-7.5-10.1c0-0.3-0.2-0.7-0.5-0.9c-0.3-0.2-0.7-0.2-1,0c-0.3,0.2-8.6,4.4-8.6,11.8c0,0.3,0.1,0.6,0.4,0.8
	C-213.4,351.9-213.1,352-212.8,351.9z M-205.7,341.6c0.9,2.6,3.5,5.7,5.6,7.7c-3.9-0.5-7.9-0.4-11.7,0.3
	C-211.2,345.7-207.6,342.8-205.7,341.6z"/>
<path d="M-234,367.3c0,0,0.1,0,0.1,0c0.3,0,0.6-0.2,0.7-0.5c1.4-2.2,3-4.3,4.8-6.1c1.9-1.9,3.9-3.5,6.1-4.8c0.4-0.2,0.6-0.7,0.4-1.2
	c-0.1-0.4-0.6-0.7-1-0.7c0,0-1.2,0.1-2.9,0.1c-5,0-8.5-0.7-9.7-1.9c-0.2-0.2-0.6-0.3-0.9-0.3c-0.3,0.1-0.6,0.3-0.7,0.7
	c-0.1,0.4-3,9.1,2.3,14.4C-234.5,367.2-234.3,367.3-234,367.3z M-235.5,354.5c1.9,1,5.1,1.5,9.4,1.5c-1.3,1-2.5,2-3.7,3.2
	c-1.6,1.6-3.1,3.4-4.4,5.4C-236.5,361.3-236,356.7-235.5,354.5z"/>
<path d="M-238.1,393C-238,393-238,393-238.1,393c0.6,0,1-0.4,1-1c0-0.1,0-0.3-0.1-0.4c-0.6-2.5-0.9-5-0.9-7.6c0-2.6,0.3-5.2,0.9-7.8
	c0.1-0.4-0.1-0.9-0.5-1.1c-0.4-0.2-0.9-0.1-1.2,0.2c-2.6,3-7.6,7.7-10.2,7.7c-0.3,0-0.7,0.2-0.9,0.5c-0.2,0.3-0.2,0.7,0,1
	C-249.7,384.8-245.5,393-238.1,393z M-239.7,379.2c-0.2,1.6-0.3,3.2-0.3,4.8c0,2.3,0.2,4.6,0.7,6.9c-4-0.7-6.9-4.3-8.1-6.2
	C-244.8,383.9-241.7,381.2-239.7,379.2z"/>
<path d="M-172.9,376.2c0.6,2.5,0.9,5.1,0.9,7.8c0,2.6-0.3,5.2-0.9,7.8c-0.1,0.4,0.1,0.9,0.5,1.1c0.1,0.1,0.3,0.1,0.5,0.1
	c0.3,0,0.6-0.1,0.8-0.3c2.6-3,7.6-7.7,10.2-7.7c0.3,0,0.7-0.2,0.9-0.5c0.2-0.3,0.2-0.7,0-1c-0.2-0.3-4.4-8.6-11.8-8.6
	c-0.3,0-0.6,0.1-0.8,0.4C-172.9,375.6-173,375.9-172.9,376.2z M-162.6,383.3c-2.6,0.9-5.7,3.5-7.7,5.6c0.2-1.6,0.3-3.2,0.3-4.8
	c0-2.3-0.2-4.6-0.7-6.9C-166.7,377.8-163.8,381.4-162.6,383.3z"/>
<path d="M-187.8,355.8c2.2,1.4,4.3,3,6.1,4.8c1.9,1.9,3.5,3.9,4.8,6.1c0.2,0.3,0.5,0.5,0.9,0.5c0,0,0,0,0,0c0.6,0,1-0.4,1-1
	c0-0.1,0-0.2,0-0.3c-0.3-3.9,0-10.6,1.8-12.4c0.2-0.2,0.3-0.6,0.3-0.9c-0.1-0.3-0.3-0.6-0.7-0.7c-0.1,0-2.6-0.9-5.8-0.9
	c-3.6,0-6.6,1.1-8.7,3.2c-0.2,0.2-0.3,0.5-0.3,0.8C-188.2,355.4-188.1,355.7-187.8,355.8z M-179.3,353.1c1.5,0,2.9,0.2,3.8,0.4
	c-1.3,2.5-1.5,6.5-1.6,9.4c-1-1.3-2-2.5-3.2-3.7c-1.6-1.6-3.4-3.1-5.4-4.4C-184,353.7-181.9,353.1-179.3,353.1z"/>
</svg>
