<?xml version="1.0" encoding="utf-8"?>
<!-- Generator: Adobe Illustrator 16.0.0, SVG Export Plug-In . SVG Version: 6.00 Build 0)  -->
<!DOCTYPE svg PUBLIC "-//W3C//DTD SVG 1.1//EN" "http://www.w3.org/Graphics/SVG/1.1/DTD/svg11.dtd">
<svg version="1.1" id="Layer_1" xmlns="http://www.w3.org/2000/svg" xmlns:xlink="http://www.w3.org/1999/xlink" x="0px" y="0px"
	 width="72px" height="72px" viewBox="0 0 72 72" enable-background="new 0 0 72 72" xml:space="preserve">
<g>
	<path fill="#D1D3D4" d="M2.7,38.338v5.723h4.523v5.668l8.066,8.949h41.093l8.284-8.84v-5.777H69.3v-5.723h-4.633v-4.005H69.3V28.61
		h-4.633v-7.548l-11.663-7.739c0,0-1.185,0-1.58,0c-0.135,0-0.274,0-0.417,0c-1.424,1.866-7.626,3.27-15.062,3.27
		c-7.435,0-13.637-1.403-15.062-3.27c-1.723,0-2.76,0-2.76,0l-10.9,7.63v7.657H2.7v5.723h4.523v4.005H2.7z"/>
	<g>
		<path fill="#333333" d="M53.225,52.832l5.931-6.326V25.907l-8.349-5.54c0,0-0.849,0-1.132,0c-0.097,0-0.195,0-0.299,0
			c-1.02,1.335-5.459,2.341-10.78,2.341c-0.393,0-0.779-0.007-1.161-0.017v30.141H53.225z"/>
		<path fill="#ED462F" d="M18.619,52.832h13.624V22.691c-4.796-0.134-8.676-1.087-9.62-2.324c-1.232,0-1.976,0-1.976,0l-7.803,5.462
			v20.599L18.619,52.832z"/>
	</g>
</g>
</svg>
