<?xml version="1.0" encoding="utf-8"?>
<!-- Generator: Adobe Illustrator 19.1.0, SVG Export Plug-In . SVG Version: 6.00 Build 0)  -->
<svg version="1.1" id="EL:_Battery" xmlns="http://www.w3.org/2000/svg" xmlns:xlink="http://www.w3.org/1999/xlink" x="0px"
	 y="0px" viewBox="-672 390.4 72 72" style="enable-background:new -672 390.4 72 72;" xml:space="preserve">
<style type="text/css">
	.st0{fill:#D1D3D4;}
	.st1{fill:#333333;}
	.st2{fill:#ED462F;}
</style>
<g id="CP:_Battery_1_">
	<path id="NC:_footprint" class="st0" d="M-669.3,429.7v5.7h4.5v5.7l8.1,8.9h41.1l8.3-8.8v-5.8h4.6v-5.7h-4.6v-4h4.6V420h-4.6v-7.5
		l-11.7-7.7c0,0-1.2,0-1.6,0c-0.1,0-0.3,0-0.4,0c-1.4,1.9-7.6,3.3-15.1,3.3c-7.4,0-13.6-1.4-15.1-3.3c-1.7,0-2.8,0-2.8,0l-10.9,7.6
		v7.7h-4.5v5.7h4.5v4H-669.3z"/>
	<path id="CGT:_negative_terminal" class="st1" d="M-618.8,443.2l5.9-6.3v-20.6l-8.3-5.5c0,0-0.8,0-1.1,0c-0.1,0-0.2,0-0.3,0
		c-1,1.3-5.5,2.3-10.8,2.3c-0.4,0-0.8,0-1.2,0v30.1H-618.8z"/>
	<path id="CVT:_positive_terminal" class="st2" d="M-653.4,443.2h13.6v-30.1c-4.8-0.1-8.7-1.1-9.6-2.3c-1.2,0-2,0-2,0l-7.8,5.5v20.6
		L-653.4,443.2z"/>
</g>
</svg>
