<?xml version="1.0" encoding="utf-8"?>
<!-- Generator: Adobe Illustrator 16.0.0, SVG Export Plug-In . SVG Version: 6.00 Build 0)  -->
<!DOCTYPE svg PUBLIC "-//W3C//DTD SVG 1.1//EN" "http://www.w3.org/Graphics/SVG/1.1/DTD/svg11.dtd">
<svg version="1.1" id="Layer_1" xmlns="http://www.w3.org/2000/svg" xmlns:xlink="http://www.w3.org/1999/xlink" x="0px" y="0px"
	 width="90px" height="54px" viewBox="0 0 90 54" enable-background="new 0 0 90 54" xml:space="preserve">
<g>
	<path fill="#D1D3D4" d="M82.499,22.868h-3.663V12.63c0-2.727-2.166-4.936-4.838-4.936H16.293c-2.672,0-4.838,2.209-4.838,4.936
		v9.867H7.5c-0.775,0-1.404,0.434-1.404,0.968v6.329c0,0.534,0.629,0.967,1.404,0.967h3.955v10.611c0,2.725,2.166,4.934,4.838,4.934
		h57.705c2.672,0,4.838-2.209,4.838-4.934V31.133h3.663c0.776,0,1.405-0.434,1.405-0.968v-6.329
		C83.904,23.302,83.275,22.868,82.499,22.868z"/>
	<path fill="#ED462F" d="M41.367,40.41H20.126c-1.774,0-3.213-1.675-3.213-3.742V17.333c0-2.066,1.438-3.742,3.213-3.742h21.241"/>
	<path fill="#333333" d="M48.764,13.591h21.241c1.774,0,3.213,1.675,3.213,3.742v19.335c0,2.067-1.438,3.742-3.213,3.742H48.764"/>
</g>
</svg>
