<?xml version="1.0" encoding="utf-8"?>
<!-- Generator: Adobe Illustrator 19.2.1, SVG Export Plug-In . SVG Version: 6.00 Build 0)  -->
<svg version="1.1" id="EL:_Ellustrate" xmlns="http://www.w3.org/2000/svg" xmlns:xlink="http://www.w3.org/1999/xlink" x="0px"
	 y="0px" viewBox="0 0 82.2 79.4" style="enable-background:new 0 0 82.2 79.4;" xml:space="preserve">
<style type="text/css">
	.st0{fill:#D1D3D4;}
	.st1{fill:#333333;}
	.st2{fill:#ED462F;}
	.st3{fill:none;}
	.st4{fill:#FFFFFF;}
</style>
<g id="CP:_Battery">
	<path id="NC:_Base" class="st0" d="M77.3,79.2H60.6l15-39.1l-2-29L60.6,0h0c0,2.6-8.7,4.8-19.5,4.8S21.7,2.6,21.6,0h0L5.4,16
		l0.8,23.7l15.4,39.5H4.9c-2.7,0-4.9-2.1-4.9-4.8v0.1c0,2.6,2.2,4.8,4.9,4.8h72.3c2.7,0,4.9-2.1,4.9-4.8v-0.1
		C82.2,77.1,80,79.2,77.3,79.2z"/>
	<path id="CGTB:_Ground_pad" class="st1" d="M5,79.4h16.7V46.1c0,0-9.8-6.1-10.1-21.2c-0.2-7.7,4.9-14.7,10.7-9.6L21.7,0.1H5
		C2.2,0.1,0,2.3,0,4.9v69.7C0,77.2,2.2,79.4,5,79.4z"/>
	<path id="CVTB:_Power_pad" class="st2" d="M77,0.1H60.3v14.4c0,0,10.8,10.2,10.8,14.8c0,4.7-10.8,15.3-10.8,15.3v34.6H77
		c2.7,0,4.9-2.1,4.9-4.8V4.9C82,2.3,79.7,0.1,77,0.1z"/>
	<g id="NC:_Battery_Mechanism">
		<path class="st3" d="M21.1,31.3c2.5,0,5,0.2,7.5,0.3c1.1,0.1,2.1,0.1,3.4,0.2c-0.3-1.3-1.1-2.6-2.3-3.8c-0.4-0.4-0.7-1.1-0.7-1.7
			c0-2.4,0.1-4.8,0-7.2c0-0.7-0.7-1.5-0.4-2.1c0.5-1.4-0.3-1.6-1.4-1.7c-1.6-0.1-3.2-0.1-4.8-0.1c-3,0-3,0-2.9,2.6
			c0,0.3,0,0.5,0,0.8c-0.1,1.9-0.2,3.8-0.3,5.8c0,1,0,2,0,3c-2.9,0.4-4.6,3.2-4.6,6.5C14.3,37.5,17.1,41,21,42
			c3.5,0.9,7.7-0.3,9.2-2.6c-0.8-1-1.6-1.9-2.4-2.9c-0.7,0.5-1.3,1-2,1.4c-3.3,1.7-7.2-0.4-7.4-4C18.2,31.3,18.2,31.2,21.1,31.3z"/>
		<polygon class="st3" points="10.1,18 10.1,18 10.1,18 		"/>
		<path class="st3" d="M35.9,39.8c0,0.1,0,0.3,0,0.4c1,0,2,0,3.1,0c0-0.1,0-0.3,0-0.4C37.9,39.8,36.9,39.8,35.9,39.8z"/>
		<path class="st3" d="M41.1,39.8c0,0.1,0,0.3,0,0.4c1.2,0,2.4,0,3.7,0c0-0.1,0-0.3,0-0.4C43.5,39.8,42.3,39.8,41.1,39.8z"/>
		<path class="st3" d="M9.6,10.2c-1.4-1.1-3.4-1.1-4.8-0.1C3.6,11,3.2,12.6,3.9,14c0.8,1.6,2.5,2.3,4.4,1.9c0.3-0.1,0.6-0.1,0.9-0.2
			c0.1,0.1,0.5,0.1,0.9,0.1c0-0.4,0.1-0.9,0.3-1.3C11.2,13,10.9,11.2,9.6,10.2z"/>
		<path class="st3" d="M62.1,26.2c0.2-2.2,0.3-4.5,0.3-6.7c0-1-0.4-2-0.6-3.3c-2.9,0-6.1,0-9.2,0c0,3.9,0,7.7,0,11.4
			c-2.4,0.3-3.2,1.9-4.1,3.5c1.1,0.4,2.1,0.7,3,1.1l0.6,0.4c0.6,0,1.1,0,1.5,0c2.2,0,4.3-0.1,6.5,0c0.4,0,1.1,0.4,1.2,0.7
			c0.7,2.8-1.7,5.5-4.9,5.3c-1.2-0.1-2.3-0.5-3.5-0.8c-0.7,0.8-1.4,1.7-2.1,2.5c2.7,2.5,7.1,3,10.5,1.2c5.3-2.7,6.2-9.1,1.7-13.1
			C62.3,27.8,62,27.2,62.1,26.2z"/>
		<path class="st3" d="M74.6,9.6c-2.1,0-3.5,1.4-3.4,3.4c0,1.7,1.9,3.3,3.9,3.2c1.9-0.1,3.4-1.5,3.3-3.3C78.4,11,76.7,9.6,74.6,9.6z
			"/>
		<path class="st4" d="M77.3,7.6c-1.4-0.4-3.1-0.6-4.5-0.2c-2.6,0.7-3.9,2.6-4.3,5c-1.4-1.2-2.7-2.3-3.9-3.4
			c-2.4-2.2-4.6-2.7-7.7-1.4c-4.7,1.9-9.6,3.2-14.8,3.3C36.3,11,30.7,10.4,25.5,8c-1-0.5-2-0.8-3-1.2l-2.9,0.1
			c-1.3,0.3-2.6,0.6-3.8,1.1c-0.5,0.2-0.9,0.9-1.2,1.4c-0.3,0.5-0.6,1.1-1,2c-0.5-0.9-0.7-1.3-1-1.7c-1.7-2.5-5.7-3.4-8.5-1.9
			c-2.8,1.5-3.9,4.9-2.3,7.6c1.5,2.5,3.8,3.2,6.5,2.9c0-0.1,1.3,0,1.9,0c0-0.1,0-0.2,0-0.2l0,0l0,0c0-0.7,0-1.4,0-2c0,0,0-0.1,0-0.1
			c-0.3,0-0.8-0.1-0.9-0.1c-0.3,0.1-0.6,0.1-0.9,0.2c-2,0.4-3.6-0.4-4.4-1.9c-0.7-1.4-0.3-3,0.9-3.9c1.4-1,3.4-1,4.8,0.1
			c1.3,1,1.6,2.8,0.8,4.3c-0.2,0.4-0.3,0.9-0.3,1.3c0.2,0,0.4,0.1,0.4,0.1c-0.7,0.6,0.3,1.5-0.4,2c0,0,0,0,0,0
			c0.2,0-0.2,0.2,0.2,0.2c0,0-0.1,0-0.2,0c0,1.2,0.1,2.3,0.1,3.5c0,5.4,0.1,10.8-0.1,16.1c-0.1,1.8,0.5,2.9,2.1,3.9
			c2.6,1.8,5.6,3.3,7.6,5.7c0.1,0.1,0.4,0.2,0.6,0.2c1.7,0.2,3.4,0.4,5.1,0.6c0.5,0.1,1.1,0,1.7,0c11,0.1,21.9,0.1,32.9,0.2
			c0.4,0,0.8-0.1,1.1-0.3c3.3-2.8,6.5-5.6,10-8.5c0.3,0,0.6-1.3,0.6-2.9l0.5-14.2c0-1.4,0-2.8,0-4.1c5.3,0.4,8-0.9,8.9-4.2
			C81.7,11.4,80.2,8.4,77.3,7.6z M18.4,33.9c0.2,3.6,4.1,5.7,7.4,4c0.7-0.4,1.3-0.9,2-1.4c0.8,1,1.6,2,2.4,2.9
			c-1.5,2.3-5.7,3.5-9.2,2.6c-3.9-1-6.6-4.5-6.6-8.1c0.1-3.3,1.7-6.1,4.6-6.5c0-1,0-2,0-3c0.1-1.9,0.2-3.8,0.3-5.8
			c0-0.3,0-0.5,0-0.8c-0.1-2.6-0.1-2.6,2.9-2.6c1.6,0,3.2,0,4.8,0.1c1.1,0.1,2,0.3,1.4,1.7c-0.2,0.6,0.4,1.4,0.4,2.1
			c0,2.4-0.1,4.8,0,7.2c0,0.6,0.3,1.2,0.7,1.7c1.2,1.2,2,2.5,2.3,3.8c-1.2-0.1-2.3-0.2-3.4-0.2c-2.5-0.1-5-0.3-7.5-0.3
			C18.2,31.2,18.2,31.3,18.4,33.9z M35.9,40.2c0-0.1,0-0.3,0-0.4c1,0,2,0,3.1,0c0,0.1,0,0.3,0,0.4C37.9,40.2,36.9,40.2,35.9,40.2z
			 M41.1,40.1c0-0.1,0-0.3,0-0.4c1.2,0,2.4,0,3.7,0c0,0.1,0,0.3,0,0.4C43.5,40.1,42.3,40.1,41.1,40.1z M61.4,41.5
			c-3.5,1.7-7.8,1.3-10.5-1.2c0.7-0.9,1.5-1.7,2.1-2.5c1.2,0.3,2.3,0.7,3.5,0.8c3.2,0.2,5.6-2.5,4.9-5.3c-0.1-0.3-0.7-0.7-1.2-0.7
			c-2.2-0.1-4.3,0-6.5,0c-0.5,0-1,0-1.5,0l-0.6-0.4c-1-0.3-1.9-0.7-3-1.1c0.9-1.6,1.6-3.2,4.1-3.5c0-3.8,0-7.6,0-11.4
			c3.1,0,6.3,0,9.2,0c0.3,1.3,0.6,2.3,0.6,3.3c0,2.2-0.1,4.5-0.3,6.7c-0.1,1,0.2,1.6,1,2.2C67.5,32.4,66.7,38.8,61.4,41.5z
			 M75.1,16.2c-2,0.1-3.9-1.5-3.9-3.2c0-2,1.3-3.3,3.4-3.4c2.1,0,3.8,1.4,3.8,3.3C78.4,14.7,77,16.1,75.1,16.2z"/>
		<path class="st4" d="M10.5,15.9c0,0-0.2-0.1-0.4-0.1c0,0,0,0.1,0,0.1c0,0.7,0,1.4,0,2C10.8,17.5,9.8,16.5,10.5,15.9z"/>
		<path class="st4" d="M10.1,18c0,0.1,0,0.2,0,0.2c0.1,0,0.2,0,0.2,0C10,18.1,10.3,18,10.1,18z"/>
	</g>
</g>
</svg>
