<?xml version="1.0" encoding="utf-8"?>
<!-- Generator: Adobe Illustrator 16.0.0, SVG Export Plug-In . SVG Version: 6.00 Build 0)  -->
<!DOCTYPE svg PUBLIC "-//W3C//DTD SVG 1.1//EN" "http://www.w3.org/Graphics/SVG/1.1/DTD/svg11.dtd">
<svg version="1.1" id="Layer_1" xmlns="http://www.w3.org/2000/svg" xmlns:xlink="http://www.w3.org/1999/xlink" x="0px" y="0px"
	 width="72px" height="72px" viewBox="0 0 72 72" enable-background="new 0 0 72 72" xml:space="preserve">
<g>
	<g>
		<path fill="#D1D3D4" d="M69.582,39.796C69.582,21.249,54.545,6.214,36,6.214S2.418,21.249,2.418,39.796
			c0,7.514,2.468,14.451,6.638,20.046c0,0,2.646,5.839,6.626,5.942c4.295,0.111,6.304-5.473,6.304-5.473
			c1.432-2.937,7.194-5.404,13.719-5.404c6.804,0,12.455,2.377,13.583,5.504c0,0,1.729,5.377,5.886,5.375
			c3.951-0.002,7.191-5.189,7.191-5.189C66.884,54.876,69.582,47.65,69.582,39.796z"/>
	</g>
	<path fill="#ED462F" d="M9.787,32.845c0-9.303,11.736-20.91,26.213-20.91c14.478,0,26.214,11.607,26.214,20.91"/>
	<g>
		<path fill="#333333" d="M8.822,36.407c0,6.174,2.021,11.874,5.438,16.471c0,0,2.167,4.797,5.428,4.883
			c3.52,0.091,5.165-4.498,5.165-4.498c1.175-2.412,5.896-4.439,11.239-4.439c5.575,0,10.205,1.953,11.128,4.521
			c0,0,1.417,4.418,4.824,4.416c3.236-0.002,5.891-4.264,5.891-4.264c3.702-4.699,5.911-10.636,5.911-17.09"/>
	</g>
</g>
</svg>
