<?xml version="1.0" encoding="utf-8"?>
<!-- Generator: Adobe Illustrator 19.2.1, SVG Export Plug-In . SVG Version: 6.00 Build 0)  -->
<svg version="1.1" id="EL:_Battery" xmlns="http://www.w3.org/2000/svg" xmlns:xlink="http://www.w3.org/1999/xlink" x="0px"
	 y="0px" viewBox="0 0 525.9 356.4" style="enable-background:new 0 0 525.9 356.4;" xml:space="preserve">
<style type="text/css">
	.st0{fill:#D1D3D4;}
	.st1{fill:#333333;}
	.st2{fill:#ED462F;}
</style>
<g id="CP:_Battery_1_">
	<path id="NC:_footprint" class="st0" d="M0.8,196.3v44.9h35.5v44.9l63.9,70.2h324.1l65.4-69.4v-45.7h36.3v-44.9h-36.3v-31.5h36.3
		v-44.9h-36.3V60.7L397.4,0c0,0-9.5,0-12.6,0c-0.8,0-2.4,0-3.2,0c-11,15-59.9,26-119.1,26c-58.3,0-107.2-11-119.1-26
		c-13.4,0-22.1,0-22.1,0L35.5,59.9v60.7H0v44.9h35.5v31.5H0.8V196.3z"/>
	<path id="CGTB:_negative_terminal" class="st1" d="M399,302.8l46.5-49.7V90.7l-65.4-43.4c0,0-6.3,0-8.7,0c-0.8,0-1.6,0-2.4,0
		c-7.9,10.3-43.4,18.1-85.2,18.1c-3.2,0-6.3,0-9.5,0v237.3H399z"/>
	<path id="CVTB:_positive_terminal" class="st2" d="M126.2,302.8h107.2V65.4c-37.8-0.8-68.6-8.7-75.7-18.1c-9.5,0-15.8,0-15.8,0
		L80.4,90.7v162.4L126.2,302.8z"/>
</g>
</svg>
