<?xml version="1.0" encoding="utf-8"?>
<!-- Generator: Adobe Illustrator 18.1.1, SVG Export Plug-In . SVG Version: 6.00 Build 0)  -->
<!DOCTYPE svg PUBLIC "-//W3C//DTD SVG 1.1//EN" "http://www.w3.org/Graphics/SVG/1.1/DTD/svg11.dtd">
<svg version="1.1" id="Layer_1" xmlns="http://www.w3.org/2000/svg" xmlns:xlink="http://www.w3.org/1999/xlink" x="0px" y="0px"
	 viewBox="0 0 222 216" enable-background="new 0 0 222 216" xml:space="preserve">
<path fill="none" stroke="#EC008C" stroke-width="5.6693" stroke-miterlimit="10" d="M81.6,105.8c-9.7,3.4-13.1,9.8-14.4,12.4
	c-1.7,3.6-2.4,7.2-2.2,15.8c0.3,10.7,3,13.3,5.1,20c0.7,2.3,4.9,9.7,13.2,24.2c3.9,6.7,5.5,9.5,8.4,13.2c5.1,6.3,8.4,10.5,14.1,11.8
	c6.9,1.5,13-2.2,16.3-4.2c2.6-1.6,6.1-4.2,13.8-15.2c6.2-8.9,9.4-13.4,12.7-20.5c3.9-8.5,7.9-17.3,7.9-29c0-5.9,0.5-21.9-8.9-25.7
	C130.4,101.7,89.5,103,81.6,105.8z"/>
<path fill="none" stroke="#EC008C" stroke-width="5.6693" stroke-miterlimit="10" d="M152,104.2c-22.3-13-21.4-27.2-15.4-49.4
	c1.7-0.5,4.9-2.8,8.3-3.8c31.8-9.1,34-10.1,38.5-9.3c11.4,2,20.3,12.1,24.2,21.7c4.9,11.9,1.8,22.6,0.8,25.6
	c-0.3,1.1-6.2,18.3-22.5,23.6c-9.8,3.2-18.2,0.3-35.2-5.6c-7.2-2.5-17.5-6.2-29.3-14.3c0,0-20-13.9-27.6-30.4
	c-2.4-5.3-3.1-10.4-3.1-10.4c-0.4-3,0-3.3-0.3-5.3c-0.8-5.6-4.3-7.1-9.8-15.5c-5.3-7.9-5-10.9-4.8-12.1c0.4-2.4,2-5.7,4.8-6.5
	c3.1-0.9,6.2,1.6,7.6,2.8c5.6,4.6,4.1,9,8.4,14.6c0.3,0.4,7.1,8.8,16.3,8.2c5.5-0.4,10.5-4,13.2-7.9c2.1-3,1.9-2.7,2.9-4.6
	c0.2-0.5,0.6-1.3,1.1-2.5c0.5-1.2,1.8-4.8,2.5-5.6c1.9-2.1,3.8-4,6.2-3.9c3.4,0.1,6.3,4,7,7.6c0.7,3.4-0.8,6-3.7,11.3
	c-4.2,7.5-6.9,8.7-8.4,14.3c-0.9,3.3-0.8,5.7-0.8,7.3c-0.1,3-1.3,11.2-23.9,29.8c-15.3,12.6-22.9,18.9-35.7,22.2
	c-4,1-11.3,2.9-20.8,2c-5.3-0.5-31.4-3-38.8-22.8c-6.7-17.7,4.9-40.1,21.9-46.4c7.2-2.7,18.8-3.8,27.6,1.4c4.5,2.6,6.4,5.8,13.5,9.6
	c5.4,2.9,8.9,4.2,12.1,5.1l0.1,0.4c0,39.1-4.6,41-16.6,48.2"/>
</svg>
