<?xml version="1.0" encoding="utf-8"?>
<!-- Generator: Adobe Illustrator 18.1.1, SVG Export Plug-In . SVG Version: 6.00 Build 0)  -->
<!DOCTYPE svg PUBLIC "-//W3C//DTD SVG 1.1//EN" "http://www.w3.org/Graphics/SVG/1.1/DTD/svg11.dtd">
<svg version="1.1" id="Layer_1" xmlns="http://www.w3.org/2000/svg" xmlns:xlink="http://www.w3.org/1999/xlink" x="0px" y="0px"
	 viewBox="0 0 216 208" enable-background="new 0 0 216 208" xml:space="preserve">
<path fill="none" stroke="#EC008C" stroke-width="5.6693" stroke-miterlimit="10" d="M78.9,102.1c-9.7,3.4-13.1,9.8-14.4,12.4
	c-1.7,3.6-2.4,7.2-2.2,15.8c0.3,10.7,3,13.3,5.1,20c0.7,2.3,4.9,9.7,13.2,24.2c3.9,6.7,5.5,9.5,8.4,13.2c5.1,6.3,8.4,10.5,14.1,11.8
	c6.9,1.5,13-2.2,16.3-4.2c2.6-1.6,6.1-4.2,13.8-15.2c6.2-8.9,9.4-13.4,12.7-20.5c3.9-8.5,7.9-17.3,7.9-29c0-5.9,0.5-21.9-8.9-25.7
	C127.8,98.1,86.8,99.4,78.9,102.1z"/>
<path fill="none" stroke="#EC008C" stroke-width="5.6693" stroke-miterlimit="10" d="M173.7,68.2c-1.5,3.1-5.8,4.7-9.8,3.5
	c-4.9-1.4-7.5-5.8-5.6-9.6c2.3-4.9,9.1-7.3,15.3-5.5c7.7,2.2,11.7,9,8.8,15.1c-3.6,7.6-14.3,11.5-23.9,8.7
	c-12.1-3.5-17.3-13.7-13.8-23.5c3.5-9.7,20.5-15,37.4-13.5c17,1.5,25.3,22.6,21.5,36.8c-5.3,19.8-33,32.9-54.2,20.6
	c-22.3-13-21.4-27.2-15.4-49.4c1.7-0.5,4.9-2.8,8.3-3.8c31.8-9.1,34-10.1,38.5-9.3c11.4,2,20.3,12.1,24.2,21.7
	c4.9,11.9,1.8,22.6,0.8,25.6c-0.3,1.1-6.2,18.3-22.5,23.6c-9.8,3.2-18.2,0.3-35.2-5.6c-7.2-2.5-17.5-6.2-29.3-14.3
	c0,0-20-13.9-27.6-30.4c-2.4-5.3-3.1-10.4-3.1-10.4c-0.4-3,0-3.3-0.3-5.3c-0.8-5.6-4.3-7.1-9.8-15.5c-5.3-7.9-5-10.9-4.8-12.1
	c0.4-2.4,2-5.7,4.8-6.5c3.1-0.9,6.2,1.6,7.6,2.8c5.6,4.6,4.1,9,8.4,14.6c0.3,0.4,7.1,8.8,16.3,8.2c5.5-0.4,10.5-4,13.2-7.9
	c2.1-3,1.9-2.7,2.9-4.6c0.2-0.5,0.6-1.3,1.1-2.5c0.5-1.2,1.8-4.8,2.5-5.6c1.9-2.1,3.8-4,6.2-3.9c3.4,0.1,6.3,4,7,7.6
	c0.7,3.4-0.8,6-3.7,11.3c-4.2,7.5-6.9,8.7-8.4,14.3c-0.9,3.3-0.8,5.7-0.8,7.3c-0.1,3-1.3,11.2-23.9,29.8
	c-15.3,12.6-22.9,18.9-35.7,22.2c-4,1-11.3,2.9-20.8,2c-5.3-0.5-31.4-3-38.8-22.8C4.4,64,16,41.6,33.1,35.2
	c7.2-2.7,18.8-3.8,27.6,1.4c4.5,2.6,6.4,5.8,13.5,9.6c5.4,2.9,8.9,4.2,12.1,5.1l0.1,0.4c0,39.1-4.3,37.8-16.3,45.1
	C48.6,109.1,20.5,96,15,76.2c-3.1-11.3,1.5-27.1,12.1-33.7c2.7-1.7,5.8-2.8,9.2-3.1C53.2,38,70.5,43.3,74,53
	c3.6,9.9-1.5,20-13.4,23.5c-1,0.3-2,0.5-3.1,0.7c-8.6,1.3-17.4-2.6-20.5-9.4c-2.8-6.1,1.2-12.8,9-15.1c6.2-1.8,13.1,0.7,15.5,5.5
	c1.9,3.9-0.6,8.2-5.6,9.6c-3.9,1.1-8.3-0.4-9.8-3.5"/>
</svg>
