<?xml version="1.0" encoding="utf-8"?>
<!-- Generator: Adobe Illustrator 18.1.1, SVG Export Plug-In . SVG Version: 6.00 Build 0)  -->
<!DOCTYPE svg PUBLIC "-//W3C//DTD SVG 1.1//EN" "http://www.w3.org/Graphics/SVG/1.1/DTD/svg11.dtd">
<svg version="1.1" id="Layer_1" xmlns="http://www.w3.org/2000/svg" xmlns:xlink="http://www.w3.org/1999/xlink" x="0px" y="0px"
	 viewBox="790.4 372.4 147.5 153.2" enable-background="new 790.4 372.4 147.5 153.2" xml:space="preserve">
<path fill="none" stroke="#EC008C" stroke-width="5.6693" stroke-miterlimit="10" d="M832.8,456c-1.2,2.6-1.7,5.1-1.6,11.3
	c0.2,7.6,2.1,9.5,3.6,14.3c0.5,1.6,3.5,6.9,9.4,17.3c2.8,4.8,3.9,6.8,6,9.4c3.6,4.5,6,7.5,10.1,8.4c4.9,1.1,9.3-1.6,11.6-3
	c1.9-1.1,4.4-3,9.9-10.9c4.4-6.4,6.7-9.6,9.1-14.6c2.8-6.1,5.6-12.4,5.6-20.7c0-2.7-0.5-11-6.4-18.4c-0.6-0.8-2.6-3.2-5.7-5.4
	c-11.8-8.5-32.4-9.5-44.2,1.3c-1.6,1.4-3.3,3.1-4.6,5.9c-4.4,10.2,2.4,27.2,15.8,32.7c12.3,5,28.6,0,33.5-11.3
	c2.5-5.7,2.3-13.8-2.4-19c-7.7-8.4-24.3-5.6-28.7,1.9c-1.3,2.3-1.9,5.6-0.5,8.6c1.7,3.6,6.1,5.9,11.3,5.6"/>
<path fill="none" stroke="#EC008C" stroke-width="5.6693" stroke-miterlimit="10" d="M893.4,440.8c-15.9-9.3-15.3-19.4-11-35.3
	c1.2-0.4,3.5-2,5.9-2.7c22.7-6.5,24.3-7.2,27.5-6.6c8.1,1.4,14.5,8.6,17.3,15.5c3.5,8.5,1.3,16.1,0.6,18.3
	c-0.2,0.8-4.4,13.1-16.1,16.9c-7,2.3-13,0.2-25.1-4c-5.1-1.8-12.5-4.4-20.9-10.2c0,0-14.3-9.9-19.7-21.7c-1.7-3.8-2.2-7.4-2.2-7.4
	c-0.3-2.1,0-2.4-0.2-3.8c-0.6-4-3.1-5.1-7-11.1c-3.8-5.6-3.6-7.8-3.4-8.6c0.3-1.7,1.4-4.1,3.4-4.6c2.2-0.6,4.4,1.1,5.4,2
	c4,3.3,2.9,6.4,6,10.4c0.2,0.3,5.1,6.3,11.6,5.9c3.9-0.3,7.5-2.9,9.4-5.6c1.5-2.1,1.4-1.9,2.1-3.3c0.1-0.4,0.4-0.9,0.8-1.8
	c0.4-0.9,1.3-3.4,1.8-4c1.4-1.5,2.7-2.9,4.4-2.8c2.4,0.1,4.5,2.9,5,5.4c0.5,2.4-0.6,4.3-2.6,8.1c-3,5.4-4.9,6.2-6,10.2
	c-0.6,2.4-0.6,4.1-0.6,5.2c-0.1,2.1-0.9,8-17.1,21.3c-10.9,9-16.4,13.5-25.5,15.9c-2.9,0.7-8.1,2.1-14.9,1.4
	c-3.8-0.4-22.4-2.1-27.7-16.3c-4.8-12.6,3.5-28.6,15.6-33.1c5.1-1.9,13.4-2.7,19.7,1c3.2,1.9,4.6,4.1,9.6,6.9c3.9,2.1,6.4,3,8.6,3.6
	l0.1,0.3c0,27.9-3.3,29.3-11.9,34.4"/>
</svg>
