<?xml version="1.0" encoding="utf-8"?>
<!-- Generator: Adobe Illustrator 19.1.0, SVG Export Plug-In . SVG Version: 6.00 Build 0)  -->
<svg version="1.1" id="Layer_1" xmlns="http://www.w3.org/2000/svg" xmlns:xlink="http://www.w3.org/1999/xlink" x="0px" y="0px"
	 viewBox="0 0 239.2 182" style="enable-background:new 0 0 239.2 182;" xml:space="preserve">
<style type="text/css">
	.st0{fill:#BE1E2D;}
	.st1{fill:#58595B;}
	.st2{fill:none;stroke:#000000;stroke-width:3;stroke-miterlimit:10;}
</style>
<g>
	<path class="st0" d="M95.6,137.8C95.6,137.8,95.6,137.8,95.6,137.8c0-3.5-2.9-6.4-6.4-6.4c-3.6,0-6.4,2.9-6.4,6.4v0v12.8h12.9
		V137.8z M91.4,136.6c-0.7,0.1-1.3-0.4-2-0.2c-1,0.3-0.6,0.9-1.1,1.7c-0.4,0.7-1.5,0.9-2.2,0.5c-2.3-1.4,0-4.3,1.5-4.8
		c1.2-0.9,3.5-0.3,4.4,1.2C92.5,135.6,92.3,136.4,91.4,136.6z"/>
	<polygon class="st0" points="80.7,151.4 80.7,154.4 85.7,154.4 85.7,163.7 87.8,163.7 87.8,154.4 90.6,154.4 90.6,159.7 
		92.7,159.7 92.7,154.4 97.7,154.4 97.7,151.4 	"/>
</g>
<g>
	<path class="st0" d="M151.8,137.8C151.8,137.8,151.8,137.8,151.8,137.8c0-3.5-2.9-6.4-6.4-6.4c-3.6,0-6.4,2.9-6.4,6.4v0v12.8h12.9
		V137.8z M147.5,136.6c-0.7,0.1-1.3-0.4-2-0.2c-1,0.3-0.6,0.9-1.1,1.7c-0.4,0.7-1.5,0.9-2.2,0.5c-2.3-1.4,0-4.3,1.5-4.8
		c1.2-0.9,3.5-0.3,4.4,1.2C148.6,135.6,148.4,136.4,147.5,136.6z"/>
	<polygon class="st0" points="136.8,151.4 136.8,154.4 141.8,154.4 141.8,163.7 143.9,163.7 143.9,154.4 146.7,154.4 146.7,159.7 
		148.8,159.7 148.8,154.4 153.9,154.4 153.9,151.4 	"/>
</g>
<path name="defaul_trace" class="st1" d="M160.8,48.4V37c0-4.7-3.8-8.4-8.4-8.4H89.9c-4.7,0-8.4,3.8-8.4,8.4v11.4h-5.7v5.7h5.7v11.4
	c0,4.7,3.8,8.4,8.4,8.4h62.5c4.7,0,8.4-3.8,8.4-8.4V54.1h5.7v-5.7H160.8z"/>
<line name="defaul_trace" class="st2" x1="91.1" y1="159.6" x2="144" y2="162.2"/>
<path name="defaul_trace" class="st2" d="M85,163.7c-4.2-0.9-76.7-26.6-75.5-64.2s63.2-46.1,68.2-48.9"/>
<path name="defaul_trace" class="st2" d="M148.8,159.7c4.2-0.9,86-22.5,84.8-60.1c-1.2-37.6-63.2-46.1-68.2-48.9"/>
</svg>
