<?xml version="1.0" encoding="utf-8"?>
<!-- Generator: Adobe Illustrator 19.1.0, SVG Export Plug-In . SVG Version: 6.00 Build 0)  -->
<svg version="1.1" id="Layer_1" xmlns="http://www.w3.org/2000/svg" xmlns:xlink="http://www.w3.org/1999/xlink" x="0px" y="0px"
	 viewBox="0 0 248.7 429.3" style="enable-background:new 0 0 248.7 429.3;" xml:space="preserve">
<style type="text/css">
	.st0{fill:#BE1E2D;}
	.st1{fill:#58595B;}
	.st2{fill:none;stroke:#000000;stroke-width:3;stroke-miterlimit:10;}
</style>
<g>
	<path class="st0" d="M131.7,211.5C131.7,211.5,131.7,211.5,131.7,211.5c0-3.5-2.9-6.4-6.4-6.4c-3.6,0-6.4,2.9-6.4,6.4v0v12.8h12.9
		V211.5z M127.4,210.3c-0.7,0.1-1.3-0.4-2-0.2c-1,0.3-0.6,0.9-1.1,1.7c-0.4,0.7-1.5,0.9-2.2,0.5c-2.3-1.4,0-4.3,1.5-4.8
		c1.2-0.9,3.5-0.3,4.4,1.2C128.5,209.3,128.3,210.1,127.4,210.3z"/>
	<polygon class="st0" points="116.7,225.1 116.7,228.1 121.7,228.1 121.7,237.4 123.8,237.4 123.8,228.1 126.6,228.1 126.6,233.3 
		128.7,233.3 128.7,228.1 133.7,228.1 133.7,225.1 	"/>
</g>
<g>
	<path class="st0" d="M132.1,130.6C132.1,130.6,132.1,130.6,132.1,130.6c0-3.5-2.9-6.4-6.4-6.4c-3.6,0-6.4,2.9-6.4,6.4v0v12.8h12.9
		V130.6z M127.9,129.4c-0.7,0.1-1.3-0.4-2-0.2c-1,0.3-0.6,0.9-1.1,1.7c-0.4,0.7-1.5,0.9-2.2,0.5c-2.3-1.4,0-4.3,1.5-4.8
		c1.2-0.9,3.5-0.3,4.4,1.2C129,128.4,128.8,129.2,127.9,129.4z"/>
	<polygon class="st0" points="117.2,144.2 117.2,147.2 122.2,147.2 122.2,156.5 124.3,156.5 124.3,147.2 127.1,147.2 127.1,152.5 
		129.2,152.5 129.2,147.2 134.2,147.2 134.2,144.2 	"/>
</g>
<path class="st1" d="M165.4,34.7V23.3c0-4.7-3.8-8.4-8.4-8.4H94.5c-4.7,0-8.4,3.8-8.4,8.4v11.4h-5.7v5.7H86v11.4
	c0,4.7,3.8,8.4,8.4,8.4h62.5c4.7,0,8.4-3.8,8.4-8.4V40.3h5.7v-5.7H165.4z"/>
<g>
	<path class="st0" d="M134.6,388.1C134.6,388.1,134.6,388.1,134.6,388.1c0-3.5-2.9-6.4-6.4-6.4c-3.6,0-6.4,2.9-6.4,6.4v0v12.8h12.9
		V388.1z M130.4,386.8c-0.7,0.1-1.3-0.4-2-0.2c-1,0.3-0.6,0.9-1.1,1.7c-0.4,0.7-1.5,0.9-2.2,0.5c-2.3-1.4,0-4.3,1.5-4.8
		c1.2-0.9,3.5-0.3,4.4,1.2C131.4,385.9,131.2,386.7,130.4,386.8z"/>
	<polygon class="st0" points="119.6,401.7 119.6,404.6 124.7,404.6 124.7,414 126.8,414 126.8,404.6 129.5,404.6 129.5,409.9 
		131.6,409.9 131.6,404.6 136.7,404.6 136.7,401.7 	"/>
</g>
<g>
	<path class="st0" d="M131.7,302.7C131.7,302.6,131.7,302.6,131.7,302.7c0-3.5-2.9-6.4-6.4-6.4c-3.6,0-6.4,2.9-6.4,6.4v0v12.8h12.9
		V302.7z M127.4,301.4c-0.7,0.1-1.3-0.4-2-0.2c-1,0.3-0.6,0.9-1.1,1.7c-0.4,0.7-1.5,0.9-2.2,0.5c-2.3-1.4,0-4.3,1.5-4.8
		c1.2-0.9,3.5-0.3,4.4,1.2C128.5,300.4,128.3,301.3,127.4,301.4z"/>
	<polygon class="st0" points="116.7,316.3 116.7,319.2 121.7,319.2 121.7,328.5 123.8,328.5 123.8,319.2 126.6,319.2 126.6,324.5 
		128.7,324.5 128.7,319.2 133.7,319.2 133.7,316.3 	"/>
</g>
<path class="st2" d="M208.5,123.5 M127,153.1h79.9 M208.2,234H127 M130.9,409.9c2.2-1.4,48.7-10.5,67.1-65.1
	c15.3-45.5,9.1-129.5,8.6-175.4c-1.2-100.9-30.8-124.6-35.6-132 M204.2,325H127"/>
<path class="st2" d="M41.1,125.9 M81.7,37.5c-5.4,7.4-34.2,31.7-35.5,132.4c-0.6,45.8-4.5,121.2,12.5,166.5
	C79,390.9,124.6,413.6,127,415 M123.2,155.5H45.3 M122.7,236.4H45.3 M55.3,327.3h68.6"/>
</svg>
