<?xml version="1.0" encoding="utf-8"?>
<!-- Generator: Adobe Illustrator 19.1.0, SVG Export Plug-In . SVG Version: 6.00 Build 0)  -->
<svg version="1.1" id="Layer_1" xmlns="http://www.w3.org/2000/svg" xmlns:xlink="http://www.w3.org/1999/xlink" x="0px" y="0px"
	 viewBox="0 0 250 205.8" style="enable-background:new 0 0 250 205.8;" xml:space="preserve">
<style type="text/css">
	.st0{fill:#BE1E2D;}
	.st1{fill:#58595B;}
	.st2{fill:none;stroke:#000000;stroke-width:3;stroke-miterlimit:10;}
</style>
<g>
	<path class="st0" d="M98.7,139.7C98.7,139.7,98.7,139.7,98.7,139.7c0-3.5-2.9-6.4-6.4-6.4c-3.6,0-6.4,2.9-6.4,6.4v0v12.8h12.9
		V139.7z M94.5,138.4c-0.7,0.1-1.3-0.4-2-0.2c-1,0.3-0.6,0.9-1.1,1.7c-0.4,0.7-1.5,0.9-2.2,0.5c-2.3-1.4,0-4.3,1.5-4.8
		c1.2-0.9,3.5-0.3,4.4,1.2C95.6,137.5,95.4,138.3,94.5,138.4z"/>
	<polygon class="st0" points="83.8,153.3 83.8,156.2 88.8,156.2 88.8,165.6 90.9,165.6 90.9,156.2 93.7,156.2 93.7,161.5 
		95.8,161.5 95.8,156.2 100.8,156.2 100.8,153.3 	"/>
</g>
<g>
	<path class="st0" d="M138.6,139.7C138.6,139.7,138.6,139.7,138.6,139.7c0-3.5-2.9-6.4-6.4-6.4c-3.6,0-6.4,2.9-6.4,6.4v0v12.8h12.9
		V139.7z M134.3,138.4c-0.7,0.1-1.3-0.4-2-0.2c-1,0.3-0.6,0.9-1.1,1.7c-0.4,0.7-1.5,0.9-2.2,0.5c-2.3-1.4,0-4.3,1.5-4.8
		c1.2-0.9,3.5-0.3,4.4,1.2C135.4,137.5,135.2,138.3,134.3,138.4z"/>
	<polygon class="st0" points="123.6,153.3 123.6,156.2 128.7,156.2 128.7,165.6 130.7,165.6 130.7,156.2 133.5,156.2 133.5,161.5 
		135.6,161.5 135.6,156.2 140.7,156.2 140.7,153.3 	"/>
</g>
<path class="st1" d="M168.3,50.3V38.9c0-4.7-3.8-8.4-8.4-8.4H97.4c-4.7,0-8.4,3.8-8.4,8.4v11.4h-5.7v5.7H89v11.4
	c0,4.7,3.8,8.4,8.4,8.4h62.5c4.7,0,8.4-3.8,8.4-8.4V55.9h5.7v-5.7H168.3z"/>
<line class="st2" x1="94.2" y1="160.4" x2="130.7" y2="164.3"/>
<g>
	<path class="st0" d="M178.4,140.7C178.4,140.7,178.4,140.7,178.4,140.7c0-3.5-2.9-6.4-6.4-6.4c-3.6,0-6.4,2.9-6.4,6.4v0v12.8h12.9
		V140.7z M174.2,139.5c-0.7,0.1-1.3-0.4-2-0.2c-1,0.3-0.6,0.9-1.1,1.7c-0.4,0.7-1.5,0.9-2.2,0.5c-2.3-1.4,0-4.3,1.5-4.8
		c1.2-0.9,3.5-0.3,4.4,1.2C175.3,138.5,175,139.3,174.2,139.5z"/>
	<polygon class="st0" points="163.4,154.3 163.4,157.3 168.5,157.3 168.5,166.6 170.6,166.6 170.6,157.3 173.4,157.3 173.4,162.5 
		175.5,162.5 175.5,157.3 180.5,157.3 180.5,154.3 	"/>
</g>
<line name="defaul_trace" class="st2" x1="133.5" y1="160.4" x2="170.6" y2="164.3"/>
<path name="defaul_trace" class="st2" d="M90.9,165.6c-4.2-0.9-81-30.2-79.7-67.8s67.2-42.6,72.3-45.4"/>
<path name="defaul_trace" class="st2" d="M173.4,162.5c4.2-0.9,72.8-27.2,71.6-64.7c-1.2-37.6-67.2-42.6-72.3-45.4"/>
</svg>
