<?xml version="1.0" encoding="utf-8"?>
<!-- Generator: Adobe Illustrator 19.1.0, SVG Export Plug-In . SVG Version: 6.00 Build 0)  -->
<svg version="1.1" id="Layer_1" xmlns="http://www.w3.org/2000/svg" xmlns:xlink="http://www.w3.org/1999/xlink" x="0px" y="0px"
	 viewBox="0 0 250 354" style="enable-background:new 0 0 250 354;" xml:space="preserve">
<style type="text/css">
	.st0{fill:#BE1E2D;}
	.st1{fill:#58595B;}
	.st2{fill:none;stroke:#000000;stroke-width:3;stroke-miterlimit:10;}
</style>
<g>
	<path class="st0" d="M131.1,223.6C131.1,223.6,131.1,223.6,131.1,223.6c0-3.5-2.9-6.4-6.4-6.4c-3.6,0-6.4,2.9-6.4,6.4v0v12.8h12.9
		V223.6z M126.9,222.4c-0.7,0.1-1.3-0.4-2-0.2c-1,0.3-0.6,0.9-1.1,1.7c-0.4,0.7-1.5,0.9-2.2,0.5c-2.3-1.4,0-4.3,1.5-4.8
		c1.2-0.9,3.5-0.3,4.4,1.2C128,221.4,127.8,222.2,126.9,222.4z"/>
	<polygon class="st0" points="115.7,237.2 115.7,240.2 120.7,240.2 120.7,249.5 122.8,249.5 122.8,240.2 125.6,240.2 125.6,245.5 
		127.7,245.5 127.7,240.2 132.8,240.2 132.8,237.2 	"/>
</g>
<g>
	<path class="st0" d="M131.1,142.8C131.1,142.8,131.1,142.8,131.1,142.8c0-3.5-2.9-6.4-6.4-6.4c-3.6,0-6.4,2.9-6.4,6.4v0v12.8h12.9
		V142.8z M126.9,141.5c-0.7,0.1-1.3-0.4-2-0.2c-1,0.3-0.6,0.9-1.1,1.7c-0.4,0.7-1.5,0.9-2.2,0.5c-2.3-1.4,0-4.3,1.5-4.8
		c1.2-0.9,3.5-0.3,4.4,1.2C128,140.5,127.8,141.4,126.9,141.5z"/>
	<polygon class="st0" points="116.2,156.4 116.2,159.3 121.2,159.3 121.2,168.6 123.3,168.6 123.3,159.3 126.1,159.3 126.1,164.6 
		128.2,164.6 128.2,159.3 133.2,159.3 133.2,156.4 	"/>
</g>
<path class="st1" d="M164.4,46.8V35.4c0-4.7-3.8-8.4-8.4-8.4H93.5c-4.7,0-8.4,3.8-8.4,8.4v11.4h-5.7v5.7H85v11.4
	c0,4.7,3.8,8.4,8.4,8.4h62.5c4.7,0,8.4-3.8,8.4-8.4V52.5h5.7v-5.7H164.4z"/>
<g>
	<path class="st0" d="M131.2,311.4C131.2,311.4,131.2,311.4,131.2,311.4c0-3.5-2.9-6.4-6.4-6.4c-3.6,0-6.4,2.9-6.4,6.4v0v12.8h12.9
		V311.4z M127,310.1c-0.7,0.1-1.3-0.4-2-0.2c-1,0.3-0.6,0.9-1.1,1.7c-0.4,0.7-1.5,0.9-2.2,0.5c-2.3-1.4,0-4.3,1.5-4.8
		c1.2-0.9,3.5-0.3,4.4,1.2C128.1,309.2,127.9,310,127,310.1z"/>
	<polygon class="st0" points="116.3,325 116.3,327.9 121.3,327.9 121.3,337.2 123.4,337.2 123.4,327.9 126.2,327.9 126.2,333.2 
		128.3,333.2 128.3,327.9 133.3,327.9 133.3,325 	"/>
</g>
<path name="defaul_trace" class="st2" d="M43.1,136.2 M81.7,47.8C76.7,53.5,49.3,72.3,48,149.9c-0.6,35.3-4.2,93.4,11.8,128.4c19.3,42,59.1,57.9,61.4,59
	 M47.3,165.8h76.2 M122.8,246.7H50.6"/>
<path name="defaul_trace" class="st2" d="M168.1,49.6c5.1,5.7,32.5,24.4,33.7,102.1c0.6,35.3,4.2,93.4-11.8,128.4c-19.3,42-59.8,50-62.1,51 M202.1,162.5
	h-76 M125.6,244.6H200"/>
</svg>
