<?xml version="1.0" encoding="utf-8"?>
<!-- Generator: Adobe Illustrator 19.1.0, SVG Export Plug-In . SVG Version: 6.00 Build 0)  -->
<svg version="1.1" id="Layer_1" xmlns="http://www.w3.org/2000/svg" xmlns:xlink="http://www.w3.org/1999/xlink" x="0px" y="0px"
	 viewBox="0 0 235.6 267.9" style="enable-background:new 0 0 235.6 267.9;" xml:space="preserve">
<style type="text/css">
	.st0{fill:#BE1E2D;}
	.st1{fill:#58595B;}
	.st2{fill:none;stroke:#000000;stroke-width:3;stroke-miterlimit:10;}
</style>
<g>
	<path class="st0" d="M130.4,227.5C130.4,227.5,130.4,227.5,130.4,227.5c0-3.5-2.9-6.4-6.4-6.4c-3.6,0-6.4,2.9-6.4,6.4v0v12.8h12.9
		V227.5z M126.1,226.3c-0.7,0.1-1.3-0.4-2-0.2c-1,0.3-0.6,0.9-1.1,1.7c-0.4,0.7-1.5,0.9-2.2,0.5c-2.3-1.4,0-4.3,1.5-4.8
		c1.2-0.9,3.5-0.3,4.4,1.2C127.2,225.3,127,226.1,126.1,226.3z"/>
	<polygon class="st0" points="115.4,241.1 115.4,244.1 120.4,244.1 120.4,253.4 122.5,253.4 122.5,244.1 125.3,244.1 125.3,249.3 
		127.4,249.3 127.4,244.1 132.5,244.1 132.5,241.1 	"/>
</g>
<g>
	<path class="st0" d="M130.8,146.6C130.8,146.6,130.8,146.6,130.8,146.6c0-3.5-2.9-6.4-6.4-6.4c-3.6,0-6.4,2.9-6.4,6.4v0v12.8h12.9
		V146.6z M126.6,145.4c-0.7,0.1-1.3-0.4-2-0.2c-1,0.3-0.6,0.9-1.1,1.7c-0.4,0.7-1.5,0.9-2.2,0.5c-2.3-1.4,0-4.3,1.5-4.8
		c1.2-0.9,3.5-0.3,4.4,1.2C127.7,144.4,127.5,145.2,126.6,145.4z"/>
	<polygon class="st0" points="115.9,160.2 115.9,163.2 120.9,163.2 120.9,172.5 123,172.5 123,163.2 125.8,163.2 125.8,168.5 
		127.9,168.5 127.9,163.2 132.9,163.2 132.9,160.2 	"/>
</g>
<path class="st1" d="M164.1,50.7V39.3c0-4.7-3.8-8.4-8.4-8.4H93.2c-4.7,0-8.4,3.8-8.4,8.4v11.4h-5.7v5.7h5.7v11.4
	c0,4.7,3.8,8.4,8.4,8.4h62.5c4.7,0,8.4-3.8,8.4-8.4V56.3h5.7v-5.7H164.1z"/>
<path class="st2" d="M42.1,141.9 M80.7,53.5c-5.1,5.7-32.5,24.4-33.7,102.1s71.3,95.4,75.5,97.3 M47.3,171.4h75.5"/>
<g>
	<path class="st2" d="M126.1,248.7c4.2-1.9,78.7-15.5,77.4-93.1c-1.2-77.6-29.8-96.4-34.9-102.1"/>
	<line class="st2" x1="203" y1="167.4" x2="127" y2="167.4"/>
</g>
</svg>
