<?xml version="1.0" encoding="utf-8"?>
<!-- Generator: Adobe Illustrator 19.0.1, SVG Export Plug-In . SVG Version: 6.00 Build 0)  -->
<svg version="1.1" id="Layer_1" xmlns="http://www.w3.org/2000/svg" xmlns:xlink="http://www.w3.org/1999/xlink" x="0px" y="0px"
	 viewBox="0 0 66.8 152" enable-background="new 0 0 66.8 152" xml:space="preserve">
<path fill="none" stroke="#EC008C" stroke-width="5.6693" stroke-miterlimit="10" d="M16.8,102c4.9,4.4,11.9,5.4,17.5,2.5
	c5.1-2.6,8.9-8.5,8-14.5c-1.1-7.6-9-10.7-11-11.5c-0.7-0.3-9-3.4-16.5,1C3.6,86,6.1,103,6.3,104c1.9,12.1,12.3,25,26.5,25.5
	c8.3,0.3,18-3.7,22.5-12c6.2-11.4-1-24.3-3-28c-1.7-3.1-3.8-5.7-21.5-21.5c-6.8-6.1-11.2-6.4-12.5-11c-1.8-6.3,1.7-15.7,8.5-17.5
	c5.5-1.5,10.6,2.7,11.5,3.5c0.8,0.6,8.2,6.8,6,14c-1.3,4.4-5.4,6.5-6.5,7"/>
</svg>
