<?xml version="1.0" encoding="utf-8"?>
<!-- Generator: Adobe Illustrator 19.0.1, SVG Export Plug-In . SVG Version: 6.00 Build 0)  -->
<svg version="1.1" id="Layer_1" xmlns="http://www.w3.org/2000/svg" xmlns:xlink="http://www.w3.org/1999/xlink" x="0px" y="0px"
	 viewBox="0 0 250.6 112.5" enable-background="new 0 0 250.6 112.5" xml:space="preserve">
<path fill="none" stroke="#EC008C" stroke-width="5.6693" stroke-miterlimit="10" d="M102.1,46c2.3,9.6-2.1,19.3-10.3,23.4
	c-7.5,3.8-16.5,1.8-22.2-3.4c-6.1-5.4-7.9-13.7-6.3-20.5C65.9,35,76.3,28.9,85.6,28.9c6.4,0,62.7,20.9,63.4,41.9
	c0.1,3.7,1,7-2.4,12.5c-3.2,5.2-8.2,7.1-10.5,8c-1.8,0.7-8.4,3.1-16.2,0.4c-7.6-2.7-11.3-8.5-12.4-10.5c-3.8-6.8-4.2-15.3-0.8-21.9
	c1.8-3.5,4.4-5.5,9.7-9.7c5.7-4.5,10.4-6.9,17.5-10.6c2.4-1.3,14.4-5.6,24.2-8.6c1.2-0.4,2.4-0.7,4-1c2.8-0.5,9-1.5,14.8,1.5
	c7.4,3.8,9.6,11.8,10.1,13.9c0.4,1.8,2.3,9.6-2.7,16.7c-0.6,0.9-5.9,8.3-14.8,8.4c-7.1,0.1-11.9-4.5-14.1-6.7
	c-7-6.8-7.8-15.7-8-18.4"/>
</svg>
