<?xml version="1.0" encoding="utf-8"?>
<!-- Generator: Adobe Illustrator 19.0.1, SVG Export Plug-In . SVG Version: 6.00 Build 0)  -->
<svg version="1.1" id="Layer_1" xmlns="http://www.w3.org/2000/svg" xmlns:xlink="http://www.w3.org/1999/xlink" x="0px" y="0px"
	 viewBox="0 0 202 142" enable-background="new 0 0 202 142" xml:space="preserve">
<path fill="none" stroke="#EC008C" stroke-width="5.6693" stroke-miterlimit="10" d="M81.9,74.6c0.6-1.7,1.2-4.3,1.3-7.6
	c0.1-3,0.1-5.5-1.3-8.1c-1.9-3.5-5.5-4.9-8.2-6c-1.5-0.6-4.7-1.8-8.9-1.4c-1.9,0.2-6.1,0.5-9.5,3.5c-4.2,3.8-4.4,9.4-4.5,12.2
	c-0.1,2.2-0.3,8.5,4.3,13.7c3.4,3.7,7.4,4.8,8.7,5.2c1.9,0.5,4.6,1.2,7.4,0.2c1.3-0.5,8-3.5,8.7-3.7c7.1-2.2,15.7-9.8,23.5-10.5
	c1-0.1,4.6,1.4,9.8,5.5c3.9,3,4.8,7.5,5.5,9.5c0.9,2.7,1.7,8-1.3,13.7c-3.7,7-11.8,7.9-12.7,8.1c-7.1,0.8-12.2-3.3-13.7-4.7
	c-0.5-0.4-6.8-6.3-6.1-15c0.1-1.4,0.5-3.8,1.8-6.4c3.2-6.4,10.2-10.6,16.7-10.6c6.4,0,6.1,1.2,13.4,3.9c9.1,3.3,9.7,4.3,14.3,5.3
	c5.9,1.3,11.6,2.6,15.6-0.5c3.9-3,4.1-8.7,4.3-13c0.2-3.8,0.3-7.3-1.9-10.6c-3.4-4.9-9.6-5.6-11.8-5.8c-2.3-0.2-6.6-0.7-10.5,1.9
	c-5.8,3.9-6.2,11.4-6.3,13.2c-0.1,2.8,0.4,5.1,0.8,6.6"/>
</svg>
