<?xml version="1.0" encoding="utf-8"?>
<!-- Generator: Adobe Illustrator 19.0.1, SVG Export Plug-In . SVG Version: 6.00 Build 0)  -->
<svg version="1.1" id="Layer_1" xmlns="http://www.w3.org/2000/svg" xmlns:xlink="http://www.w3.org/1999/xlink" x="0px" y="0px"
	 viewBox="0 0 16.5 35" enable-background="new 0 0 16.5 35" xml:space="preserve">
<path fill="none" stroke="#EC008C" stroke-width="2.2394" stroke-miterlimit="10" d="M12.6,24.9c-1.1,0.3-2.5,0.5-4.1,0.3
	c-1.4-0.1-3.8-0.4-3.8-0.9c0-0.4,1.4-0.7,4-1.4c2.3-0.6,3.5-0.7,3.5-0.9c0-0.3-7.5,0.7-7.5,0.1c0-0.4,7.3-1.6,7.3-2.3
	c0-0.7-7.3-0.5-7.3-0.9c0-0.4,7.6-1.1,7.6-1.5c0-0.2-2.5-0.3-3.5-0.3c-2.4,0-4.2,0.1-4.2,0c0-0.1,2.2,0,4.6-1.1
	c1.2-0.5,4.1-1.8,4.5-4.5c0.4-2.4-1.4-5.6-4.4-6.1C5.9,5.3,3,8.4,3.2,11.3C3.4,14.2,6.8,16,7.5,16c0,0,0.2,0,0.4,0.1
	c0.3,0.3,0.2,0.9,0.2,1.1C8,18.1,8.2,24,8.5,33.1"/>
</svg>
