<?xml version="1.0" encoding="utf-8"?>
<!-- Generator: Adobe Illustrator 19.0.1, SVG Export Plug-In . SVG Version: 6.00 Build 0)  -->
<svg version="1.1" id="Layer_1" xmlns="http://www.w3.org/2000/svg" xmlns:xlink="http://www.w3.org/1999/xlink" x="0px" y="0px"
	 viewBox="0 0 85 166" enable-background="new 0 0 85 166" xml:space="preserve">
<path fill="none" stroke="#EC008C" stroke-width="5.6693" stroke-miterlimit="10" d="M43.6,32.4c0.5,0.3,5.7,3,10.5,0.5
	c5.1-2.6,6-9.2,5-13.5c-1.1-4.8-5.1-9.7-10-10c-6.7-0.4-11.3,7.9-12.5,10c-3.6,6.5-4.5,14.6-0.5,32c3.5,15.5,6.6,19.7,15.5,47
	c4.1,12.5,6,19.4,5,28.5c-1.5,14.6-4.8,18.7-6.5,20c-4.7,3.5-10.2,2.6-10.5,2.5c-4.2-0.8-8.2-3.6-10-8c-0.4-0.9-2.7-6.8,1-12
	c3.3-4.7,9.1-4.9,10.5-5c2.6-0.1,4.7,0.5,6,1"/>
</svg>
