<?xml version="1.0" encoding="utf-8"?>
<!-- Generator: Adobe Illustrator 19.0.1, SVG Export Plug-In . SVG Version: 6.00 Build 0)  -->
<svg version="1.1" id="Layer_1" xmlns="http://www.w3.org/2000/svg" xmlns:xlink="http://www.w3.org/1999/xlink" x="0px" y="0px"
	 viewBox="0 0 88 159.5" enable-background="new 0 0 88 159.5" xml:space="preserve">
<path fill="none" stroke="#EC008C" stroke-width="5.6693" stroke-miterlimit="10" d="M25.3,49.8c-3.2-1.9-7.1-1.9-10,0
	c-4.3,2.8-4.1,8.2-4,9.3c0.4,5.5,5.4,9.3,10.2,9c5.3-0.3,9.8-5.3,10.2-6.3c3.8-9.3-2.4-13.7-0.2-24.5c0.1-0.7,2.1-12,12.5-15.7
	c6.6-2.4,11.5-2.2,14-1.2c0.9,0.4,12.7,6.7,13,16c0.2,6.4-3.6,11.5-10.5,17c-10.6,8.5-16.2,10.1-25.3,16.7
	c-3.7,2.7-9.3,8.1-9.7,16.8c-0.4,8.9,4.1,16.4,10.5,20.8c10,6.8,25,6.4,32-1.3c0.6-0.7,5.2-5.9,4-12c-1.4-7-9.3-9.9-11.3-10.7
	C52.3,80.7,44.6,84,42,85.1c-15.8,6.7-19.8,24.2-20,25.3c-0.5,2.6-2.2,11.3,2,20.7c1.4,3.2,6.6,14.8,17.3,16c1,0.1,8.5,1.1,13.3-4
	c0.5-0.6,4.4-4.6,3.3-9.3c-1-4.2-5.4-6.2-8-7.3c-3.1-1.4-7.7-3.6-12-1.3c-3.8,2-5,6.2-5.3,7.3"/>
</svg>
