<?xml version="1.0" encoding="utf-8"?>
<!-- Generator: Adobe Illustrator 19.0.1, SVG Export Plug-In . SVG Version: 6.00 Build 0)  -->
<svg version="1.1" id="Layer_1" xmlns="http://www.w3.org/2000/svg" xmlns:xlink="http://www.w3.org/1999/xlink" x="0px" y="0px"
	 viewBox="0 0 111.5 77.5" enable-background="new 0 0 111.5 77.5" xml:space="preserve">
<path fill="none" stroke="#EC008C" stroke-width="5.6693" stroke-miterlimit="10" d="M16,42.8c5.8,4.8,15.5,1.7,16.1-6.2
	c0.5-6.9-5.4-11.8-12-11.1c-9.3,1-13.4,12.3-12.8,20.5c1.2,15.6,14.2,23.2,28.6,20.8c13.6-2.2,32.8-5.2,34.5-22.1
	c0.8-8.2-3.4-20.5-12-23.3C48.1,18.1,40,30.2,38.1,38.7C32,67.3,86,81.7,97.3,56.5c4.4-9.7,2.9-23.6-8-28.1
	c-6.7-2.8-16.7,2.2-13.5,10.7c2.6,7.1,12.9,7.1,17.7,2.7"/>
</svg>
