<?xml version="1.0" encoding="utf-8"?>
<!-- Generator: Adobe Illustrator 19.0.1, SVG Export Plug-In . SVG Version: 6.00 Build 0)  -->
<svg version="1.1" id="Layer_1" xmlns="http://www.w3.org/2000/svg" xmlns:xlink="http://www.w3.org/1999/xlink" x="0px" y="0px"
	 viewBox="0 0 156 94" enable-background="new 0 0 156 94" xml:space="preserve">
<path fill="none" stroke="#EC008C" stroke-width="5.6693" stroke-miterlimit="10" d="M23.5,41.3c4.8,3.5,11.3,3.6,16,0.1
	c7-5.1,4.3-15.8-3.7-18.3c-8.5-2.7-18.5,4.2-22.1,11.6c-3.6,7.4-2.9,16.5,2.2,23c17.6,22.1,57.4,15.6,69.8-8.4
	c5.4-10.5,7.2-31.9-7.8-35.6c-8.2-2-13.7,6.7-16,13.3c-2.9,8.1-1.6,16.6,2.2,24.2c12.8,25.5,53.3,33.5,74.7,13.2
	c14.3-13.7,1.5-42.2-18.2-41c-7.9,0.5-15.6,6.2-10.2,14.4c3.8,5.8,11.4,7.3,17.7,5.1"/>
</svg>
