<?xml version="1.0" encoding="utf-8"?>
<!-- Generator: Adobe Illustrator 19.0.1, SVG Export Plug-In . SVG Version: 6.00 Build 0)  -->
<svg version="1.1" id="Layer_1" xmlns="http://www.w3.org/2000/svg" xmlns:xlink="http://www.w3.org/1999/xlink" x="0px" y="0px"
	 viewBox="0 0 12.8 14" enable-background="new 0 0 12.8 14" xml:space="preserve">
<path fill="none" stroke="#EC008C" stroke-width="2.2394" stroke-miterlimit="10" d="M10.4,11.8c-1.1,0.3-2.5,0.5-4.1,0.3
	c-1.4-0.1-3.8-0.4-3.8-0.9c0-0.4,1.4-0.7,4-1.4C8.9,9.3,10,9.2,10,9c0-0.3-7.5,0.7-7.5,0.1c0-0.4,7.3-1.6,7.3-2.3
	c0-0.7-7.3-0.5-7.3-0.9c0-0.4,7.6-0.9,7.6-1.5c0-0.6-7.5-0.8-7.5-1.2C2.6,3.1,6,3,10,2.9"/>
</svg>
