<?xml version="1.0" encoding="utf-8"?>
<!-- Generator: Adobe Illustrator 19.0.1, SVG Export Plug-In . SVG Version: 6.00 Build 0)  -->
<svg version="1.1" id="Layer_1" xmlns="http://www.w3.org/2000/svg" xmlns:xlink="http://www.w3.org/1999/xlink" x="0px" y="0px"
	 viewBox="0 0 161 80" enable-background="new 0 0 161 80" xml:space="preserve">
<path fill="none" stroke="#EC008C" stroke-width="5.6693" stroke-miterlimit="10" d="M68.9,26c-3.6,1-6.2,3.9-6.7,7.3
	c-0.5,4.3,2.5,8.8,6.7,9.3c4.3,0.5,7.8-3.6,8.7-7c1.4-5.6-3.9-11.1-8.3-13.3c-5-2.5-11.5-2.1-16,1.3c-6.5,4.8-6.6,13.8-5,19
	c1.3,4.3,5.6,7.9,14.3,15c3.4,2.8,7.3,5.5,12.7,7.3c0.7,0.2,2,0.8,3.7,1c1.6,0.2,3.4,0.1,5.7-0.7c7-2.2,15-9,15-9
	c6.8-5.7,10.2-8.6,11.7-11.7c0.9-1.9,4.3-9.2,0.7-16.3c-0.4-0.8-3.4-6.4-10-8c-9-2.1-15.7,5.6-16.7,6.7c-1.6,1.9-5.3,6.3-3.7,10.7
	c1.1,2.8,4.1,5.2,7.7,5c3.6-0.2,7.3-3,7.3-7c0-3.1-2.3-6.1-5.7-7"/>
</svg>
