<?xml version="1.0" encoding="utf-8"?>
<!-- Generator: Adobe Illustrator 19.2.1, SVG Export Plug-In . SVG Version: 6.00 Build 0)  -->
<svg version="1.1" id="EL:_Bender" xmlns="http://www.w3.org/2000/svg" xmlns:xlink="http://www.w3.org/1999/xlink" x="0px" y="0px"
	 viewBox="0 0 39.8 46.4" style="enable-background:new 0 0 39.8 46.4;" xml:space="preserve">
<style type="text/css">
	.st0{fill:#FFF424;stroke:#AF7B12;stroke-width:0.5;stroke-miterlimit:10;}
	.st1{fill:#FF0000;}
	.st2{fill:#020202;}
</style>
<g id="CP:_LED">
	<path id="NC:_Casing" class="st0" d="M13.6,20c1.2-2.3,3.6-3.9,6.3-3.9c3.9,0,7.1,3.2,7.1,7.1s-3.2,7.1-7.1,7.1
		c-2.8,0-5.2-1.6-6.4-4"/>
	<path id="CVT:_pos" class="st1" d="M26.7,23.2c0,1.4-1.1,2.6-2.6,2.6s-2.4-1.1-2.4-2.6c0-1.4,1-2.6,2.4-2.6S26.7,21.8,26.7,23.2z"
		/>
	<path id="CGT:_neg" class="st2" d="M18.6,23.2c0,1.4-1,2.6-2.4,2.6s-2.6-1.1-2.6-2.6s1.1-2.6,2.6-2.6S18.6,21.8,18.6,23.2z"/>
</g>
</svg>
