<?xml version="1.0" encoding="utf-8"?>
<!-- Generator: Adobe Illustrator 19.2.1, SVG Export Plug-In . SVG Version: 6.00 Build 0)  -->
<svg version="1.1" id="EL:_Bender" xmlns="http://www.w3.org/2000/svg" xmlns:xlink="http://www.w3.org/1999/xlink" x="0px" y="0px"
	 viewBox="0 0 39.8 46.4" style="enable-background:new 0 0 39.8 46.4;" xml:space="preserve">
<style type="text/css">
	.st0{fill:#666666;}
	.st1{fill:#333333;}
	.st2{fill:#FCEE21;stroke:#000000;stroke-width:5.000000e-02;stroke-miterlimit:10;}
	.st3{fill:#FF0000;}
	.st4{fill:#020202;}
</style>
<g id="CP:_circuit_x5F_smd_x5F_led">
	<rect id="NC:_Main_Base" x="16.1" y="21.4" class="st0" width="5.7" height="3.6"/>
	<path id="NC:_Base" class="st1" d="M20.5,24.8h-3.1c-0.1,0-0.2-0.1-0.2-0.2v-2.8c0-0.1,0.1-0.2,0.2-0.2h3.1c0.1,0,0.2,0.1,0.2,0.2
		v2.8C20.7,24.7,20.6,24.8,20.5,24.8z"/>
	<path id="NC:_yellow_led" class="st2" d="M20.3,24.6h-2.7c-0.1,0-0.2-0.1-0.2-0.2V22c0-0.1,0.1-0.2,0.2-0.2h2.7
		c0.1,0,0.2,0.1,0.2,0.2v2.3C20.5,24.5,20.4,24.6,20.3,24.6z"/>
	<polygon id="CVT:_Positive_Pad" class="st3" points="16.2,21.6 17.6,21.6 17.5,23.2 17.6,24.8 16.2,24.8 	"/>
	<polygon id="CGT:_Ground_Pad" class="st4" points="20.3,21.6 21.7,21.6 21.7,24.8 20.3,24.8 20.5,23.2 	"/>
</g>
</svg>
