<?xml version="1.0" encoding="utf-8"?>
<!-- Generator: Adobe Illustrator 19.1.0, SVG Export Plug-In . SVG Version: 6.00 Build 0)  -->
<svg version="1.1" id="CP:_circuit_x5F_led" xmlns="http://www.w3.org/2000/svg" xmlns:xlink="http://www.w3.org/1999/xlink"
	 x="0px" y="0px" viewBox="-690 403.4 36.3 45" style="enable-background:new -690 403.4 36.3 45;" xml:space="preserve">
<style type="text/css">
	.st0{fill:#F7941E;stroke:#F7941E;stroke-miterlimit:10;}
	.st1{fill:#FF0000;}
</style>
<path id="NC:_base" class="st0" d="M-671.5,411.5c0,0-22.9,22-15.1,26.2c6.7,3.5,24.9,3.1,30.3,0
	C-650.8,433.9-671.5,411.5-671.5,411.5z"/>
<polygon id="CVT:_positive_x5F_terminal" class="st1" points="-671.6,414.5 -677.7,422.3 -665.6,422.5 "/>
<path id="CGT:_negative_x5F_terminal" d="M-680.8,428.5c-0.7,0-1.3,0.3-1.7,0.8c-1.1,1.4-3.5,3.4-3.5,6.1c0,1,2.9,1.6,2.9,1.6
	c6.4,2,23.7,0.4,24.4-0.2c0.5-0.4,0.8-1.1,0.8-1.8c0-0.8-2.3-4.3-3.5-6c-0.4-0.6-1.1-1-1.8-0.9L-680.8,428.5z"/>
</svg>
