<?xml version="1.0" encoding="utf-8"?>
<!-- Generator: Adobe Illustrator 19.2.1, SVG Export Plug-In . SVG Version: 6.00 Build 0)  -->
<svg version="1.1" id="EL:_Ellustrate" xmlns="http://www.w3.org/2000/svg" xmlns:xlink="http://www.w3.org/1999/xlink" x="0px"
	 y="0px" viewBox="0 0 39.8 46.4" style="enable-background:new 0 0 39.8 46.4;" xml:space="preserve">
<style type="text/css">
	.st0{fill:#666666;}
	.st1{fill:#FF0000;}
	.st2{fill:#020202;}
	.st3{fill:#333333;}
	.st4{fill:#FCEE21;stroke:#000000;stroke-width:5.000000e-02;stroke-miterlimit:10;}
</style>
<g id="CP:_circuit_x5F_smd_x5F_led">
	<rect id="NC:_Main_Base" x="16.1" y="21.4" class="st0" width="5.7" height="3.6"/>
	<rect id="CVT:_Positive_Pad" x="16.2" y="21.6" class="st1" width="0.8" height="3.2"/>
	<rect id="CGT:_Ground_Pad" x="20.9" y="21.6" class="st2" width="0.8" height="3.2"/>
	<path id="NC:_Base" class="st3" d="M20.5,24.8h-3.1c-0.1,0-0.2-0.1-0.2-0.2v-2.8c0-0.1,0.1-0.2,0.2-0.2h3.1c0.1,0,0.2,0.1,0.2,0.2
		v2.8C20.7,24.7,20.6,24.8,20.5,24.8z"/>
	<path id="NC:_yellow_led" class="st4" d="M20.3,24.6h-2.7c-0.1,0-0.2-0.1-0.2-0.2V22c0-0.1,0.1-0.2,0.2-0.2h2.7
		c0.1,0,0.2,0.1,0.2,0.2v2.3C20.5,24.5,20.4,24.6,20.3,24.6z"/>
</g>
</svg>
