<?xml version="1.0" encoding="utf-8"?>
<!-- Generator: Adobe Illustrator 19.1.0, SVG Export Plug-In . SVG Version: 6.00 Build 0)  -->
<svg version="1.1" id="Layer_1" xmlns="http://www.w3.org/2000/svg" xmlns:xlink="http://www.w3.org/1999/xlink" x="0px" y="0px"
	 viewBox="0 0 39.8 46.2" style="enable-background:new 0 0 39.8 46.2;" xml:space="preserve">
<style type="text/css">
	.st0{fill:#BE1E2D;}
	.st1{fill:#58595B;}
	.st2{fill:none;stroke:#000000;stroke-width:3;stroke-miterlimit:10;}
	.st3{fill:#020202;}
	.st4{fill:#F7941E;stroke:#F7941E;stroke-miterlimit:10;}
</style>
<g>
	<path class="st3" d="M27.1,13.4C27.1,13.3,27.1,13.3,27.1,13.4c0-3.5-2.9-6.4-6.4-6.4c-3.6,0-6.4,2.9-6.4,6.4v0v12.8h12.9V13.4z
		 M22.9,12.1c-0.7,0.1-1.3-0.4-2-0.2c-1,0.3-0.6,0.9-1.1,1.7c-0.4,0.7-1.5,0.9-2.2,0.5c-2.3-1.4,0-4.3,1.5-4.8
		c1.2-0.9,3.5-0.3,4.4,1.2C23.9,11.1,23.7,12,22.9,12.1z"/>
	<polygon class="st3" points="12.1,27 12.1,29.9 17.2,29.9 17.2,39.2 19.3,39.2 19.3,29.9 22.1,29.9 22.1,35.2 24.1,35.2 24.1,29.9 
		29.2,29.9 29.2,27 	"/>
</g>
</svg>
