<?xml version="1.0" encoding="utf-8"?>
<!-- Generator: Adobe Illustrator 19.1.0, SVG Export Plug-In . SVG Version: 6.00 Build 0)  -->
<svg version="1.1" id="EL:_Ellustrave_SVG_for_circuit_stickerLED"
	 xmlns="http://www.w3.org/2000/svg" xmlns:xlink="http://www.w3.org/1999/xlink" x="0px" y="0px" viewBox="-1390 803.8 59 53"
	 style="enable-background:new -1390 803.8 59 53;" xml:space="preserve">
<style type="text/css">
	.st0{fill:#F7941E;stroke:#F7941E;stroke-miterlimit:10;}
	.st1{fill:none;stroke:#2A7CF4;stroke-miterlimit:10;}
	.st2{fill:#FF0000;}
	.st3{fill:#FFF200;}
</style>
<g id="CP:_circuit_x5F_led_1_">
	<path id="NC:_base" class="st0" d="M-1361.5,814.9c0,0-22.9,22-15.1,26.2c6.7,3.5,24.9,3.1,30.3,0
		C-1340.8,837.3-1361.5,814.9-1361.5,814.9z"/>
	<line id="CNP:_connector" class="st1" x1="-1361.7" y1="821.9" x2="-1361.7" y2="838.7"/>
	<polygon id="CVT:_positive_x5F_terminal" class="st2" points="-1361.6,817.9 -1367.7,825.7 -1355.6,825.9 	"/>
	<path id="CGT:_negative_x5F_terminal" d="M-1368.3,833.6c-0.7,0-4.8-0.3-5.2,0.2c-1.1,1.4-2.5,2.3-2.5,5c0,1,2.9,1.6,2.9,1.6
		c6.4,2,23.7,0.4,24.4-0.2c0.5-0.4,0.8-1.1,0.8-1.8c0-0.8-1.2-2.7-2.4-4.4c-0.4-0.6-5.3-0.1-6,0c0,0-1.4,2-5.5,1.9
		C-1365.8,835.8-1368.3,833.6-1368.3,833.6z"/>
	<rect id="NC:_LED" x="-1365.5" y="828.3" class="st3" width="7.5" height="3.8"/>
</g>
</svg>
