<?xml version="1.0" encoding="utf-8"?>
<!-- Generator: Adobe Illustrator 19.1.0, SVG Export Plug-In . SVG Version: 6.00 Build 0)  -->
<svg version="1.1" id="Layer_1" xmlns="http://www.w3.org/2000/svg" xmlns:xlink="http://www.w3.org/1999/xlink" x="0px" y="0px"
	 viewBox="0 0 200.7 194.3" style="enable-background:new 0 0 200.7 194.3;" xml:space="preserve">
<style type="text/css">
	.st0{fill:none;stroke:#8B5E3C;stroke-width:2;stroke-miterlimit:10;}
	.st1{fill:#FBB040;stroke:#000000;stroke-width:2;stroke-miterlimit:10;}
	.st2{fill:none;stroke:#000000;stroke-width:2;stroke-miterlimit:10;}
	.st3{fill:none;stroke:#1C75BC;stroke-width:2;stroke-miterlimit:10;}
</style>
<g id="XMLID_167_">
	<line id="XMLID_171_" class="st0" x1="96.9" y1="62.9" x2="96.9" y2="45.3"/>
	<line id="XMLID_170_" class="st0" x1="100" y1="60.1" x2="100" y2="48.1"/>
	<line id="XMLID_169_" class="st0" x1="102.9" y1="62.9" x2="102.9" y2="45.3"/>
	<line id="XMLID_168_" class="st0" x1="106" y1="60.1" x2="106" y2="48.1"/>
</g>
<g id="XMLID_164_">
	<polygon id="XMLID_166_" class="st1" points="95.6,90.2 110.6,98.9 95.6,107.5 	"/>
	<line id="XMLID_165_" class="st2" x1="112.6" y1="89.8" x2="112.6" y2="108"/>
</g>
<g id="XMLID_150_">
	<line id="XMLID_160_" class="st3" x1="131" y1="102.4" x2="135.9" y2="94"/>
	<line id="XMLID_159_" class="st3" x1="131.3" y1="102.4" x2="128.5" y2="97.6"/>
	<line id="XMLID_158_" class="st3" x1="140.5" y1="102.4" x2="135.6" y2="94"/>
	<line id="XMLID_157_" class="st3" x1="140.1" y1="102.4" x2="145" y2="94"/>
	<line id="XMLID_156_" class="st3" x1="149.6" y1="102.4" x2="144.7" y2="94"/>
	<line id="XMLID_155_" class="st3" x1="149.4" y1="102.4" x2="154.3" y2="94"/>
	<line id="XMLID_154_" class="st3" x1="158.9" y1="102.4" x2="154" y2="94"/>
	<line id="XMLID_153_" class="st3" x1="158.6" y1="102.4" x2="163.5" y2="94"/>
	<line id="XMLID_152_" class="st3" x1="168.2" y1="102.4" x2="163.3" y2="94"/>
	<line id="XMLID_151_" class="st3" x1="167.9" y1="102.4" x2="170.7" y2="97.6"/>
</g>
<g id="XMLID_139_">
	<line id="XMLID_149_" class="st3" x1="39.7" y1="102.8" x2="44.6" y2="94.4"/>
	<line id="XMLID_148_" class="st3" x1="40" y1="102.8" x2="37.2" y2="98"/>
	<line id="XMLID_147_" class="st3" x1="49.2" y1="102.8" x2="44.3" y2="94.4"/>
	<line id="XMLID_146_" class="st3" x1="48.8" y1="102.8" x2="53.7" y2="94.4"/>
	<line id="XMLID_145_" class="st3" x1="58.3" y1="102.8" x2="53.4" y2="94.4"/>
	<line id="XMLID_144_" class="st3" x1="58.1" y1="102.8" x2="63" y2="94.4"/>
	<line id="XMLID_143_" class="st3" x1="67.6" y1="102.8" x2="62.7" y2="94.4"/>
	<line id="XMLID_142_" class="st3" x1="67.3" y1="102.8" x2="72.2" y2="94.4"/>
	<line id="XMLID_141_" class="st3" x1="76.8" y1="102.8" x2="71.9" y2="94.4"/>
	<line id="XMLID_140_" class="st3" x1="76.6" y1="102.8" x2="79.3" y2="98"/>
</g>
<g id="XMLID_128_">
	<line id="XMLID_138_" class="st3" x1="39.7" y1="155.9" x2="44.6" y2="147.4"/>
	<line id="XMLID_137_" class="st3" x1="40" y1="155.9" x2="37.2" y2="151.1"/>
	<line id="XMLID_136_" class="st3" x1="49.2" y1="155.9" x2="44.3" y2="147.4"/>
	<line id="XMLID_135_" class="st3" x1="48.8" y1="155.9" x2="53.7" y2="147.4"/>
	<line id="XMLID_134_" class="st3" x1="58.3" y1="155.9" x2="53.4" y2="147.4"/>
	<line id="XMLID_133_" class="st3" x1="58.1" y1="155.9" x2="63" y2="147.4"/>
	<line id="XMLID_132_" class="st3" x1="67.6" y1="155.9" x2="62.7" y2="147.4"/>
	<line id="XMLID_131_" class="st3" x1="67.3" y1="155.9" x2="72.2" y2="147.4"/>
	<line id="XMLID_130_" class="st3" x1="76.8" y1="155.9" x2="71.9" y2="147.4"/>
	<line id="XMLID_129_" class="st3" x1="76.6" y1="155.9" x2="79.3" y2="151.1"/>
</g>
<g id="XMLID_106_">
	<line id="XMLID_116_" class="st3" x1="131" y1="155.9" x2="135.9" y2="147.4"/>
	<line id="XMLID_115_" class="st3" x1="131.3" y1="155.9" x2="128.5" y2="151.1"/>
	<line id="XMLID_114_" class="st3" x1="140.5" y1="155.9" x2="135.6" y2="147.4"/>
	<line id="XMLID_113_" class="st3" x1="140.1" y1="155.9" x2="145" y2="147.4"/>
	<line id="XMLID_112_" class="st3" x1="149.6" y1="155.9" x2="144.7" y2="147.4"/>
	<line id="XMLID_111_" class="st3" x1="149.4" y1="155.9" x2="154.3" y2="147.4"/>
	<line id="XMLID_110_" class="st3" x1="158.9" y1="155.9" x2="154" y2="147.4"/>
	<line id="XMLID_109_" class="st3" x1="158.6" y1="155.9" x2="163.5" y2="147.4"/>
	<line id="XMLID_108_" class="st3" x1="168.2" y1="155.9" x2="163.3" y2="147.4"/>
	<line id="XMLID_107_" class="st3" x1="167.9" y1="155.9" x2="170.7" y2="151.1"/>
</g>
<line id="XMLID_94_" class="st2" x1="26.3" y1="52.6" x2="35.4" y2="52.6"/>
<line id="XMLID_93_" class="st2" x1="106.2" y1="52.6" x2="122.4" y2="52.6"/>
<line id="XMLID_92_" class="st2" x1="79.6" y1="98" x2="95.6" y2="98"/>
<line id="XMLID_91_" class="st2" x1="79.6" y1="151.7" x2="95.6" y2="151.7"/>
<line id="XMLID_89_" class="st2" x1="112.6" y1="98.2" x2="128.6" y2="98.2"/>
<line id="XMLID_88_" class="st2" x1="113.5" y1="151.7" x2="129.5" y2="151.7"/>
<line id="XMLID_86_" class="st2" x1="26.3" y1="52.6" x2="26.3" y2="103.4"/>
<line id="XMLID_85_" class="st2" x1="176.8" y1="52.8" x2="176.8" y2="103.8"/>
<line id="XMLID_84_" class="st2" x1="26.3" y1="98.2" x2="38.3" y2="98.2"/>
<line id="XMLID_83_" class="st2" x1="25.3" y1="151.7" x2="37.2" y2="151.7"/>
<line id="XMLID_81_" class="st2" x1="170.8" y1="97.6" x2="176.8" y2="97.6"/>
<line id="XMLID_80_" class="st2" x1="170.8" y1="151.7" x2="176.8" y2="151.7"/>
<g id="XMLID_68_">
	<line id="XMLID_78_" class="st3" x1="37.9" y1="57.6" x2="42.8" y2="49.2"/>
	<line id="XMLID_77_" class="st3" x1="38.2" y1="57.6" x2="35.4" y2="52.8"/>
	<line id="XMLID_76_" class="st3" x1="47.4" y1="57.6" x2="42.6" y2="49.2"/>
	<line id="XMLID_75_" class="st3" x1="47.1" y1="57.6" x2="52" y2="49.2"/>
	<line id="XMLID_74_" class="st3" x1="56.6" y1="57.6" x2="51.7" y2="49.2"/>
	<line id="XMLID_73_" class="st3" x1="56.3" y1="57.6" x2="61.2" y2="49.2"/>
	<line id="XMLID_72_" class="st3" x1="65.9" y1="57.6" x2="61" y2="49.2"/>
	<line id="XMLID_71_" class="st3" x1="65.6" y1="57.6" x2="70.5" y2="49.2"/>
	<line id="XMLID_70_" class="st3" x1="75.1" y1="57.6" x2="70.2" y2="49.2"/>
	<line id="XMLID_69_" class="st3" x1="74.8" y1="57.6" x2="77.6" y2="52.8"/>
</g>
<g id="XMLID_57_">
	<line id="XMLID_67_" class="st3" x1="124.9" y1="57.6" x2="129.8" y2="49.2"/>
	<line id="XMLID_66_" class="st3" x1="125.2" y1="57.6" x2="122.4" y2="52.8"/>
	<line id="XMLID_65_" class="st3" x1="134.4" y1="57.6" x2="129.5" y2="49.2"/>
	<line id="XMLID_64_" class="st3" x1="134" y1="57.6" x2="138.9" y2="49.2"/>
	<line id="XMLID_63_" class="st3" x1="143.5" y1="57.6" x2="138.6" y2="49.2"/>
	<line id="XMLID_62_" class="st3" x1="143.3" y1="57.6" x2="148.2" y2="49.2"/>
	<line id="XMLID_61_" class="st3" x1="152.8" y1="57.6" x2="147.9" y2="49.2"/>
	<line id="XMLID_60_" class="st3" x1="152.5" y1="57.6" x2="157.4" y2="49.2"/>
	<line id="XMLID_59_" class="st3" x1="162" y1="57.6" x2="157.1" y2="49.2"/>
	<line id="XMLID_58_" class="st3" x1="161.8" y1="57.6" x2="164.5" y2="52.8"/>
</g>
<line id="XMLID_56_" class="st2" x1="77.6" y1="53.4" x2="96.5" y2="53.4"/>
<line id="XMLID_55_" class="st2" x1="164.7" y1="52.8" x2="176.8" y2="52.8"/>
<line id="XMLID_54_" class="st2" x1="26.3" y1="145.1" x2="26.3" y2="151.7"/>
<line id="XMLID_53_" class="st2" x1="176.8" y1="146.3" x2="176.8" y2="151.7"/>
<g id="XMLID_42_">
	<line id="XMLID_52_" class="st3" x1="181" y1="143.5" x2="172.5" y2="138.6"/>
	<line id="XMLID_51_" class="st3" x1="181" y1="143.2" x2="176.2" y2="146"/>
	<line id="XMLID_50_" class="st3" x1="181" y1="134" x2="172.5" y2="138.9"/>
	<line id="XMLID_49_" class="st3" x1="181" y1="134.3" x2="172.5" y2="129.5"/>
	<line id="XMLID_48_" class="st3" x1="181" y1="124.8" x2="172.5" y2="129.7"/>
	<line id="XMLID_47_" class="st3" x1="181" y1="125.1" x2="172.5" y2="120.2"/>
	<line id="XMLID_46_" class="st3" x1="181" y1="115.5" x2="172.5" y2="120.4"/>
	<line id="XMLID_45_" class="st3" x1="181" y1="115.8" x2="172.5" y2="110.9"/>
	<line id="XMLID_44_" class="st3" x1="181" y1="106.3" x2="172.5" y2="111.2"/>
	<line id="XMLID_43_" class="st3" x1="181" y1="106.6" x2="176.2" y2="103.8"/>
</g>
<g id="XMLID_31_">
	<line id="XMLID_41_" class="st3" x1="30.6" y1="142.7" x2="22.1" y2="137.8"/>
	<line id="XMLID_40_" class="st3" x1="30.6" y1="142.4" x2="25.8" y2="145.1"/>
	<line id="XMLID_39_" class="st3" x1="30.6" y1="133.1" x2="22.1" y2="138"/>
	<line id="XMLID_38_" class="st3" x1="30.6" y1="133.5" x2="22.1" y2="128.6"/>
	<line id="XMLID_37_" class="st3" x1="30.6" y1="124" x2="22.1" y2="128.9"/>
	<line id="XMLID_36_" class="st3" x1="30.6" y1="124.2" x2="22.1" y2="119.3"/>
	<line id="XMLID_35_" class="st3" x1="30.6" y1="114.7" x2="22.1" y2="119.6"/>
	<line id="XMLID_34_" class="st3" x1="30.6" y1="115" x2="22.1" y2="110.1"/>
	<line id="XMLID_33_" class="st3" x1="30.6" y1="105.5" x2="22.1" y2="110.4"/>
	<line id="XMLID_32_" class="st3" x1="30.6" y1="105.8" x2="25.8" y2="103"/>
</g>
<g id="XMLID_28_">
	<polygon id="XMLID_30_" class="st1" points="95.5,143 110.5,151.7 95.5,160.3 	"/>
	<line id="XMLID_29_" class="st2" x1="112.5" y1="142.6" x2="112.5" y2="160.8"/>
</g>
</svg>
