<?xml version="1.0" encoding="utf-8"?>
<!-- Generator: Adobe Illustrator 19.2.1, SVG Export Plug-In . SVG Version: 6.00 Build 0)  -->
<svg version="1.1" id="EL:_Ellustrave_SVG_for_circuit_stickerLED"
	 xmlns="http://www.w3.org/2000/svg" xmlns:xlink="http://www.w3.org/1999/xlink" x="0px" y="0px" viewBox="0 0 59 53"
	 style="enable-background:new 0 0 59 53;" xml:space="preserve">
<style type="text/css">
	.st0{fill:#8D93E7;}
	.st1{fill:#B7CDE5;}
	.st2{fill:#FFFFFF;}
	.st3{fill:#FF0000;}
</style>
<g id="CP:_circuit_x5F_led_1_">
	<polygon id="NC:_Base" class="st0" points="34.3,0 16.2,0 5.6,20.9 10.4,53 40.2,53 44.2,20.9 	"/>
	<path id="NC:_Base_1_" class="st1" d="M30.1,7.1H19.8c-0.9,0-1.8,0.5-2.2,1.4l-6.8,13.4c-0.2,0.5-0.3,1-0.2,1.5l3.1,21
		c0.2,1.2,1.2,2.1,2.4,2.1h17.8c1.3,0,2.3-0.9,2.5-2.2l2.6-20.9c0.1-0.5,0-0.9-0.2-1.4L32.4,8.5C31.9,7.7,31.1,7.1,30.1,7.1z"/>
	<circle id="NC:_Light" class="st2" cx="24.8" cy="27.7" r="6.3"/>
	<polygon id="CGT:_negative_x5F_terminal" points="27.5,0 22.5,0 22.5,23.5 27.5,23.5 	"/>
	<path id="CVT:_positive_x5F_terminal_1_" class="st3" d="M27.8,30.6h-5.6L21.6,53h5.9L27.8,30.6z"/>
</g>
</svg>
