<?xml version="1.0" encoding="utf-8"?>
<!-- Generator: Adobe Illustrator 19.1.0, SVG Export Plug-In . SVG Version: 6.00 Build 0)  -->
<svg version="1.1" id="Layer_1" xmlns="http://www.w3.org/2000/svg" xmlns:xlink="http://www.w3.org/1999/xlink" x="0px" y="0px"
	 viewBox="0 0 205.9 197.7" style="enable-background:new 0 0 205.9 197.7;" xml:space="preserve">
<style type="text/css">
	.st0{fill:none;stroke:#8B5E3C;stroke-width:2;stroke-miterlimit:10;}
	.st1{fill:#FBB040;stroke:#000000;stroke-width:2;stroke-miterlimit:10;}
	.st2{fill:none;stroke:#000000;stroke-width:2;stroke-miterlimit:10;}
	.st3{fill:none;stroke:#1C75BC;stroke-width:2;stroke-miterlimit:10;}
</style>
<g id="XMLID_262_">
	<line id="XMLID_266_" class="st0" x1="101.6" y1="87.9" x2="101.6" y2="70.2"/>
	<line id="XMLID_265_" class="st0" x1="104.7" y1="85" x2="104.7" y2="73.1"/>
	<line id="XMLID_264_" class="st0" x1="107.7" y1="87.9" x2="107.7" y2="70.2"/>
	<line id="XMLID_263_" class="st0" x1="110.7" y1="85" x2="110.7" y2="73.1"/>
</g>
<g id="XMLID_259_">
	<polygon id="XMLID_261_" class="st1" points="121.2,113.9 136.2,122.6 121.2,131.2 	"/>
	<line id="XMLID_260_" class="st2" x1="138.3" y1="113.5" x2="138.3" y2="131.7"/>
</g>
<line id="XMLID_206_" class="st2" x1="31.1" y1="77.6" x2="40.2" y2="77.6"/>
<line id="XMLID_202_" class="st2" x1="110.9" y1="77.6" x2="127.1" y2="77.6"/>
<line id="XMLID_200_" class="st2" x1="90.8" y1="122.6" x2="121.2" y2="122.6"/>
<line id="XMLID_194_" class="st2" x1="31.1" y1="77.6" x2="31.1" y2="123.2"/>
<line id="XMLID_161_" class="st2" x1="181.5" y1="77.8" x2="181.5" y2="122.6"/>
<line id="XMLID_127_" class="st2" x1="32.4" y1="123.2" x2="72.1" y2="123.2"/>
<line id="XMLID_126_" class="st2" x1="136.2" y1="122.6" x2="183.1" y2="122.6"/>
<g id="XMLID_104_">
	<line id="XMLID_125_" class="st3" x1="42.7" y1="82.6" x2="47.6" y2="74.2"/>
	<line id="XMLID_124_" class="st3" x1="43" y1="82.6" x2="40.2" y2="77.8"/>
	<line id="XMLID_123_" class="st3" x1="52.2" y1="82.6" x2="47.3" y2="74.2"/>
	<line id="XMLID_122_" class="st3" x1="51.8" y1="82.6" x2="56.7" y2="74.2"/>
	<line id="XMLID_121_" class="st3" x1="61.3" y1="82.6" x2="56.4" y2="74.2"/>
	<line id="XMLID_120_" class="st3" x1="61.1" y1="82.6" x2="66" y2="74.2"/>
	<line id="XMLID_119_" class="st3" x1="70.6" y1="82.6" x2="65.7" y2="74.2"/>
	<line id="XMLID_118_" class="st3" x1="70.3" y1="82.6" x2="75.2" y2="74.2"/>
	<line id="XMLID_117_" class="st3" x1="79.8" y1="82.6" x2="74.9" y2="74.2"/>
	<line id="XMLID_105_" class="st3" x1="79.6" y1="82.6" x2="82.3" y2="77.8"/>
</g>
<g id="XMLID_87_">
	<line id="XMLID_103_" class="st3" x1="129.6" y1="82.6" x2="134.5" y2="74.2"/>
	<line id="XMLID_102_" class="st3" x1="129.9" y1="82.6" x2="127.1" y2="77.8"/>
	<line id="XMLID_101_" class="st3" x1="139.1" y1="82.6" x2="134.2" y2="74.2"/>
	<line id="XMLID_100_" class="st3" x1="138.7" y1="82.6" x2="143.6" y2="74.2"/>
	<line id="XMLID_99_" class="st3" x1="148.2" y1="82.6" x2="143.3" y2="74.2"/>
	<line id="XMLID_98_" class="st3" x1="148" y1="82.6" x2="152.9" y2="74.2"/>
	<line id="XMLID_97_" class="st3" x1="157.5" y1="82.6" x2="152.6" y2="74.2"/>
	<line id="XMLID_96_" class="st3" x1="157.2" y1="82.6" x2="162.1" y2="74.2"/>
	<line id="XMLID_95_" class="st3" x1="166.8" y1="82.6" x2="161.9" y2="74.2"/>
	<line id="XMLID_90_" class="st3" x1="166.5" y1="82.6" x2="169.3" y2="77.8"/>
</g>
<line id="XMLID_82_" class="st2" x1="82.3" y1="78.4" x2="101.2" y2="78.4"/>
<line id="XMLID_79_" class="st2" x1="169.4" y1="77.8" x2="181.5" y2="77.8"/>
<g id="XMLID_209_">
	<polygon id="XMLID_211_" class="st1" points="73.8,114.5 88.8,123.2 73.8,131.8 	"/>
	<line id="XMLID_210_" class="st2" x1="90.9" y1="114.1" x2="90.9" y2="132.3"/>
</g>
</svg>
