<?xml version="1.0" encoding="utf-8"?>
<!-- Generator: Adobe Illustrator 19.1.0, SVG Export Plug-In . SVG Version: 6.00 Build 0)  -->
<svg version="1.1" id="Layer_1" xmlns="http://www.w3.org/2000/svg" xmlns:xlink="http://www.w3.org/1999/xlink" x="0px" y="0px"
	 viewBox="0 0 205.9 194.3" style="enable-background:new 0 0 205.9 194.3;" xml:space="preserve">
<style type="text/css">
	.st0{fill:none;stroke:#8B5E3C;stroke-width:2;stroke-miterlimit:10;}
	.st1{fill:#FBB040;stroke:#000000;stroke-width:2;stroke-miterlimit:10;}
	.st2{fill:none;stroke:#000000;stroke-width:2;stroke-miterlimit:10;}
	.st3{fill:none;stroke:#1C75BC;stroke-width:2;stroke-miterlimit:10;}
</style>
<g id="XMLID_708_">
	<line id="XMLID_712_" class="st0" x1="97.8" y1="38" x2="97.8" y2="20.3"/>
	<line id="XMLID_711_" class="st0" x1="100.9" y1="35.1" x2="100.9" y2="23.2"/>
	<line id="XMLID_710_" class="st0" x1="103.8" y1="38" x2="103.8" y2="20.3"/>
	<line id="XMLID_709_" class="st0" x1="106.9" y1="35.1" x2="106.9" y2="23.2"/>
</g>
<g id="XMLID_23_">
	<polygon id="XMLID_707_" class="st1" points="96.5,65.2 111.5,73.9 96.5,82.6 	"/>
	<line id="XMLID_706_" class="st2" x1="113.5" y1="64.8" x2="113.5" y2="83"/>
</g>
<g id="XMLID_27_">
	<polygon id="XMLID_691_" class="st1" points="97.4,159.6 112.4,168.3 97.4,176.9 	"/>
	<line id="XMLID_690_" class="st2" x1="114.4" y1="159.2" x2="114.4" y2="177.4"/>
</g>
<g id="XMLID_673_">
	<line id="XMLID_683_" class="st3" x1="131.9" y1="77.4" x2="136.8" y2="69"/>
	<line id="XMLID_682_" class="st3" x1="132.2" y1="77.4" x2="129.4" y2="72.6"/>
	<line id="XMLID_681_" class="st3" x1="141.4" y1="77.4" x2="136.5" y2="69"/>
	<line id="XMLID_680_" class="st3" x1="141" y1="77.4" x2="145.9" y2="69"/>
	<line id="XMLID_679_" class="st3" x1="150.5" y1="77.4" x2="145.6" y2="69"/>
	<line id="XMLID_678_" class="st3" x1="150.3" y1="77.4" x2="155.2" y2="69"/>
	<line id="XMLID_677_" class="st3" x1="159.8" y1="77.4" x2="154.9" y2="69"/>
	<line id="XMLID_676_" class="st3" x1="159.5" y1="77.4" x2="164.4" y2="69"/>
	<line id="XMLID_675_" class="st3" x1="169" y1="77.4" x2="164.1" y2="69"/>
	<line id="XMLID_674_" class="st3" x1="168.8" y1="77.4" x2="171.6" y2="72.6"/>
</g>
<g id="XMLID_662_">
	<line id="XMLID_672_" class="st3" x1="40.6" y1="77.9" x2="45.5" y2="69.4"/>
	<line id="XMLID_671_" class="st3" x1="40.9" y1="77.9" x2="38.1" y2="73.1"/>
	<line id="XMLID_670_" class="st3" x1="50.1" y1="77.9" x2="45.2" y2="69.4"/>
	<line id="XMLID_669_" class="st3" x1="49.7" y1="77.9" x2="54.6" y2="69.4"/>
	<line id="XMLID_668_" class="st3" x1="59.2" y1="77.9" x2="54.3" y2="69.4"/>
	<line id="XMLID_667_" class="st3" x1="59" y1="77.9" x2="63.9" y2="69.4"/>
	<line id="XMLID_666_" class="st3" x1="68.5" y1="77.9" x2="63.6" y2="69.4"/>
	<line id="XMLID_665_" class="st3" x1="68.2" y1="77.9" x2="73.1" y2="69.4"/>
	<line id="XMLID_664_" class="st3" x1="77.7" y1="77.9" x2="72.8" y2="69.4"/>
	<line id="XMLID_663_" class="st3" x1="77.4" y1="77.9" x2="80.2" y2="73.1"/>
</g>
<g id="XMLID_651_">
	<line id="XMLID_661_" class="st3" x1="40.6" y1="130.9" x2="45.5" y2="122.5"/>
	<line id="XMLID_660_" class="st3" x1="40.9" y1="130.9" x2="38.1" y2="126.1"/>
	<line id="XMLID_659_" class="st3" x1="50.1" y1="130.9" x2="45.2" y2="122.5"/>
	<line id="XMLID_658_" class="st3" x1="49.7" y1="130.9" x2="54.6" y2="122.5"/>
	<line id="XMLID_657_" class="st3" x1="59.2" y1="130.9" x2="54.3" y2="122.5"/>
	<line id="XMLID_656_" class="st3" x1="59" y1="130.9" x2="63.9" y2="122.5"/>
	<line id="XMLID_655_" class="st3" x1="68.5" y1="130.9" x2="63.6" y2="122.5"/>
	<line id="XMLID_654_" class="st3" x1="68.2" y1="130.9" x2="73.1" y2="122.5"/>
	<line id="XMLID_653_" class="st3" x1="77.7" y1="130.9" x2="72.8" y2="122.5"/>
	<line id="XMLID_652_" class="st3" x1="77.4" y1="130.9" x2="80.2" y2="126.1"/>
</g>
<g id="XMLID_640_">
	<line id="XMLID_650_" class="st3" x1="40.6" y1="172.5" x2="45.5" y2="164.1"/>
	<line id="XMLID_649_" class="st3" x1="40.9" y1="172.5" x2="38.1" y2="167.7"/>
	<line id="XMLID_648_" class="st3" x1="50.1" y1="172.5" x2="45.2" y2="164.1"/>
	<line id="XMLID_647_" class="st3" x1="49.7" y1="172.5" x2="54.6" y2="164.1"/>
	<line id="XMLID_646_" class="st3" x1="59.2" y1="172.5" x2="54.3" y2="164.1"/>
	<line id="XMLID_645_" class="st3" x1="59" y1="172.5" x2="63.9" y2="164.1"/>
	<line id="XMLID_644_" class="st3" x1="68.5" y1="172.5" x2="63.6" y2="164.1"/>
	<line id="XMLID_643_" class="st3" x1="68.2" y1="172.5" x2="73.1" y2="164.1"/>
	<line id="XMLID_642_" class="st3" x1="77.7" y1="172.5" x2="72.8" y2="164.1"/>
	<line id="XMLID_641_" class="st3" x1="77.4" y1="172.5" x2="80.2" y2="167.7"/>
</g>
<g id="XMLID_629_">
	<line id="XMLID_639_" class="st3" x1="131.9" y1="130.9" x2="136.8" y2="122.5"/>
	<line id="XMLID_638_" class="st3" x1="132.2" y1="130.9" x2="129.4" y2="126.1"/>
	<line id="XMLID_637_" class="st3" x1="141.4" y1="130.9" x2="136.5" y2="122.5"/>
	<line id="XMLID_636_" class="st3" x1="141" y1="130.9" x2="145.9" y2="122.5"/>
	<line id="XMLID_635_" class="st3" x1="150.5" y1="130.9" x2="145.6" y2="122.5"/>
	<line id="XMLID_634_" class="st3" x1="150.3" y1="130.9" x2="155.2" y2="122.5"/>
	<line id="XMLID_633_" class="st3" x1="159.8" y1="130.9" x2="154.9" y2="122.5"/>
	<line id="XMLID_632_" class="st3" x1="159.5" y1="130.9" x2="164.4" y2="122.5"/>
	<line id="XMLID_631_" class="st3" x1="169" y1="130.9" x2="164.1" y2="122.5"/>
	<line id="XMLID_630_" class="st3" x1="168.8" y1="130.9" x2="171.6" y2="126.1"/>
</g>
<g id="XMLID_618_">
	<line id="XMLID_628_" class="st3" x1="131.9" y1="172.5" x2="136.8" y2="164.1"/>
	<line id="XMLID_627_" class="st3" x1="132.2" y1="172.5" x2="129.4" y2="167.7"/>
	<line id="XMLID_626_" class="st3" x1="141.4" y1="172.5" x2="136.5" y2="164.1"/>
	<line id="XMLID_625_" class="st3" x1="141" y1="172.5" x2="145.9" y2="164.1"/>
	<line id="XMLID_624_" class="st3" x1="150.5" y1="172.5" x2="145.6" y2="164.1"/>
	<line id="XMLID_623_" class="st3" x1="150.3" y1="172.5" x2="155.2" y2="164.1"/>
	<line id="XMLID_622_" class="st3" x1="159.8" y1="172.5" x2="154.9" y2="164.1"/>
	<line id="XMLID_621_" class="st3" x1="159.5" y1="172.5" x2="164.4" y2="164.1"/>
	<line id="XMLID_620_" class="st3" x1="169" y1="172.5" x2="164.1" y2="164.1"/>
	<line id="XMLID_619_" class="st3" x1="168.8" y1="172.5" x2="171.6" y2="167.7"/>
</g>
<line id="XMLID_509_" class="st2" x1="27.2" y1="27.7" x2="36.3" y2="27.7"/>
<line id="XMLID_508_" class="st2" x1="107.1" y1="27.7" x2="123.3" y2="27.7"/>
<line id="XMLID_507_" class="st2" x1="80.5" y1="73.1" x2="96.5" y2="73.1"/>
<line id="XMLID_506_" class="st2" x1="80.5" y1="126.7" x2="96.5" y2="126.7"/>
<line id="XMLID_505_" class="st2" x1="80.5" y1="168.3" x2="96.5" y2="168.3"/>
<line id="XMLID_504_" class="st2" x1="113.5" y1="73.2" x2="129.5" y2="73.2"/>
<line id="XMLID_503_" class="st2" x1="114.4" y1="126.7" x2="130.4" y2="126.7"/>
<line id="XMLID_502_" class="st2" x1="114.6" y1="168.3" x2="129.4" y2="168.3"/>
<line id="XMLID_501_" class="st2" x1="27.2" y1="27.7" x2="27.2" y2="78.4"/>
<line id="XMLID_462_" class="st2" x1="177.7" y1="27.9" x2="177.7" y2="78.8"/>
<line id="XMLID_452_" class="st2" x1="27.2" y1="73.2" x2="39.2" y2="73.2"/>
<line id="XMLID_428_" class="st2" x1="26.1" y1="126.7" x2="38.1" y2="126.7"/>
<line id="XMLID_422_" class="st2" x1="26.1" y1="168.3" x2="38.1" y2="168.3"/>
<line id="XMLID_421_" class="st2" x1="171.7" y1="72.6" x2="177.7" y2="72.6"/>
<line id="XMLID_420_" class="st2" x1="171.7" y1="126.7" x2="177.7" y2="126.7"/>
<line id="XMLID_419_" class="st2" x1="170.5" y1="168.3" x2="176.4" y2="168.3"/>
<g id="XMLID_728_">
	<line id="XMLID_738_" class="st3" x1="38.8" y1="32.7" x2="43.7" y2="24.2"/>
	<line id="XMLID_737_" class="st3" x1="39.1" y1="32.7" x2="36.3" y2="27.9"/>
	<line id="XMLID_736_" class="st3" x1="48.3" y1="32.7" x2="43.4" y2="24.2"/>
	<line id="XMLID_735_" class="st3" x1="47.9" y1="32.7" x2="52.8" y2="24.2"/>
	<line id="XMLID_734_" class="st3" x1="57.5" y1="32.7" x2="52.6" y2="24.2"/>
	<line id="XMLID_733_" class="st3" x1="57.2" y1="32.7" x2="62.1" y2="24.2"/>
	<line id="XMLID_732_" class="st3" x1="66.7" y1="32.7" x2="61.9" y2="24.2"/>
	<line id="XMLID_731_" class="st3" x1="66.5" y1="32.7" x2="71.4" y2="24.2"/>
	<line id="XMLID_730_" class="st3" x1="76" y1="32.7" x2="71.1" y2="24.2"/>
	<line id="XMLID_729_" class="st3" x1="75.7" y1="32.7" x2="78.5" y2="27.9"/>
</g>
<g id="XMLID_713_">
	<line id="XMLID_723_" class="st3" x1="125.7" y1="32.7" x2="130.6" y2="24.2"/>
	<line id="XMLID_722_" class="st3" x1="126.1" y1="32.7" x2="123.3" y2="27.9"/>
	<line id="XMLID_721_" class="st3" x1="135.3" y1="32.7" x2="130.4" y2="24.2"/>
	<line id="XMLID_720_" class="st3" x1="134.9" y1="32.7" x2="139.8" y2="24.2"/>
	<line id="XMLID_719_" class="st3" x1="144.4" y1="32.7" x2="139.5" y2="24.2"/>
	<line id="XMLID_718_" class="st3" x1="144.2" y1="32.7" x2="149.1" y2="24.2"/>
	<line id="XMLID_717_" class="st3" x1="153.7" y1="32.7" x2="148.8" y2="24.2"/>
	<line id="XMLID_716_" class="st3" x1="153.4" y1="32.7" x2="158.3" y2="24.2"/>
	<line id="XMLID_715_" class="st3" x1="162.9" y1="32.7" x2="158" y2="24.2"/>
	<line id="XMLID_714_" class="st3" x1="162.6" y1="32.7" x2="165.4" y2="27.9"/>
</g>
<line id="XMLID_739_" class="st2" x1="78.5" y1="28.4" x2="97.4" y2="28.4"/>
<line id="XMLID_740_" class="st2" x1="165.6" y1="27.9" x2="177.7" y2="27.9"/>
<line id="XMLID_767_" class="st2" x1="27.2" y1="120.2" x2="27.2" y2="168.3"/>
<line id="XMLID_768_" class="st2" x1="177.7" y1="121.3" x2="177.7" y2="168.3"/>
<g id="XMLID_1_">
	<line id="XMLID_11_" class="st3" x1="181.9" y1="118.5" x2="173.4" y2="113.6"/>
	<line id="XMLID_10_" class="st3" x1="181.9" y1="118.2" x2="177.1" y2="121"/>
	<line id="XMLID_9_" class="st3" x1="181.9" y1="109" x2="173.4" y2="113.9"/>
	<line id="XMLID_8_" class="st3" x1="181.9" y1="109.4" x2="173.4" y2="104.5"/>
	<line id="XMLID_7_" class="st3" x1="181.9" y1="99.8" x2="173.4" y2="104.7"/>
	<line id="XMLID_6_" class="st3" x1="181.9" y1="100.1" x2="173.4" y2="95.2"/>
	<line id="XMLID_5_" class="st3" x1="181.9" y1="90.6" x2="173.4" y2="95.5"/>
	<line id="XMLID_4_" class="st3" x1="181.9" y1="90.8" x2="173.4" y2="86"/>
	<line id="XMLID_3_" class="st3" x1="181.9" y1="81.3" x2="173.4" y2="86.2"/>
	<line id="XMLID_2_" class="st3" x1="181.9" y1="81.6" x2="177.1" y2="78.8"/>
</g>
<g id="XMLID_12_">
	<line id="XMLID_22_" class="st3" x1="31.4" y1="117.7" x2="23" y2="112.8"/>
	<line id="XMLID_21_" class="st3" x1="31.4" y1="117.4" x2="26.6" y2="120.2"/>
	<line id="XMLID_20_" class="st3" x1="31.4" y1="108.2" x2="23" y2="113.1"/>
	<line id="XMLID_19_" class="st3" x1="31.4" y1="108.5" x2="23" y2="103.6"/>
	<line id="XMLID_18_" class="st3" x1="31.4" y1="99" x2="23" y2="103.9"/>
	<line id="XMLID_17_" class="st3" x1="31.4" y1="99.3" x2="23" y2="94.4"/>
	<line id="XMLID_16_" class="st3" x1="31.4" y1="89.7" x2="23" y2="94.6"/>
	<line id="XMLID_15_" class="st3" x1="31.4" y1="90" x2="23" y2="85.1"/>
	<line id="XMLID_14_" class="st3" x1="31.4" y1="80.5" x2="23" y2="85.4"/>
	<line id="XMLID_13_" class="st3" x1="31.4" y1="80.8" x2="26.6" y2="78"/>
</g>
<g id="XMLID_26_">
	<polygon id="XMLID_25_" class="st1" points="96.4,118 111.4,126.7 96.4,135.3 	"/>
	<line id="XMLID_24_" class="st2" x1="113.4" y1="117.6" x2="113.4" y2="135.8"/>
</g>
</svg>
