<?xml version="1.0" encoding="utf-8"?>
<!-- Generator: Adobe Illustrator 19.1.0, SVG Export Plug-In . SVG Version: 6.00 Build 0)  -->
<svg version="1.1" id="Layer_1" xmlns="http://www.w3.org/2000/svg" xmlns:xlink="http://www.w3.org/1999/xlink" x="0px" y="0px"
	 viewBox="0 0 188.7 198.3" style="enable-background:new 0 0 188.7 198.3;" xml:space="preserve">
<style type="text/css">
	.st0{fill:none;stroke:#8B5E3C;stroke-width:2;stroke-miterlimit:10;}
	.st1{fill:#FBB040;stroke:#000000;stroke-width:2;stroke-miterlimit:10;}
	.st2{fill:none;stroke:#000000;stroke-width:2;stroke-miterlimit:10;}
	.st3{fill:none;stroke:#1C75BC;stroke-width:2;stroke-miterlimit:10;}
</style>
<g id="XMLID_253_">
	<line id="XMLID_257_" class="st0" x1="89.7" y1="83.9" x2="89.7" y2="66.3"/>
	<line id="XMLID_256_" class="st0" x1="92.8" y1="81.1" x2="92.8" y2="69.1"/>
	<line id="XMLID_255_" class="st0" x1="95.7" y1="83.9" x2="95.7" y2="66.3"/>
	<line id="XMLID_254_" class="st0" x1="98.8" y1="81.1" x2="98.8" y2="69.1"/>
</g>
<g id="XMLID_250_">
	<polygon id="XMLID_252_" class="st1" points="88.4,111.2 103.4,119.9 88.4,128.6 	"/>
	<line id="XMLID_251_" class="st2" x1="105.4" y1="110.8" x2="105.4" y2="129"/>
</g>
<line id="XMLID_205_" class="st2" x1="19.1" y1="73.6" x2="28.2" y2="73.6"/>
<line id="XMLID_204_" class="st2" x1="99" y1="73.6" x2="115.2" y2="73.6"/>
<line id="XMLID_203_" class="st2" x1="19.1" y1="119" x2="88.4" y2="119"/>
<line id="XMLID_201_" class="st2" x1="105.4" y1="119.2" x2="169.6" y2="119.2"/>
<line id="XMLID_199_" class="st2" x1="19.1" y1="73.6" x2="19.1" y2="119.2"/>
<line id="XMLID_198_" class="st2" x1="169.6" y1="73.8" x2="169.6" y2="118.6"/>
<g id="XMLID_183_">
	<line id="XMLID_193_" class="st3" x1="30.7" y1="78.6" x2="35.6" y2="70.2"/>
	<line id="XMLID_192_" class="st3" x1="31" y1="78.6" x2="28.2" y2="73.8"/>
	<line id="XMLID_191_" class="st3" x1="40.2" y1="78.6" x2="35.3" y2="70.2"/>
	<line id="XMLID_190_" class="st3" x1="39.8" y1="78.6" x2="44.7" y2="70.2"/>
	<line id="XMLID_189_" class="st3" x1="49.4" y1="78.6" x2="44.5" y2="70.2"/>
	<line id="XMLID_188_" class="st3" x1="49.1" y1="78.6" x2="54" y2="70.2"/>
	<line id="XMLID_187_" class="st3" x1="58.7" y1="78.6" x2="53.8" y2="70.2"/>
	<line id="XMLID_186_" class="st3" x1="58.4" y1="78.6" x2="63.3" y2="70.2"/>
	<line id="XMLID_185_" class="st3" x1="67.9" y1="78.6" x2="63" y2="70.2"/>
	<line id="XMLID_184_" class="st3" x1="67.6" y1="78.6" x2="70.4" y2="73.8"/>
</g>
<g id="XMLID_172_">
	<line id="XMLID_182_" class="st3" x1="117.7" y1="78.6" x2="122.5" y2="70.2"/>
	<line id="XMLID_181_" class="st3" x1="118" y1="78.6" x2="115.2" y2="73.8"/>
	<line id="XMLID_180_" class="st3" x1="127.2" y1="78.6" x2="122.3" y2="70.2"/>
	<line id="XMLID_179_" class="st3" x1="126.8" y1="78.6" x2="131.7" y2="70.2"/>
	<line id="XMLID_178_" class="st3" x1="136.3" y1="78.6" x2="131.4" y2="70.2"/>
	<line id="XMLID_177_" class="st3" x1="136.1" y1="78.6" x2="141" y2="70.2"/>
	<line id="XMLID_176_" class="st3" x1="145.6" y1="78.6" x2="140.7" y2="70.2"/>
	<line id="XMLID_175_" class="st3" x1="145.3" y1="78.6" x2="150.2" y2="70.2"/>
	<line id="XMLID_174_" class="st3" x1="154.8" y1="78.6" x2="149.9" y2="70.2"/>
	<line id="XMLID_173_" class="st3" x1="154.5" y1="78.6" x2="157.3" y2="73.8"/>
</g>
<line id="XMLID_163_" class="st2" x1="70.4" y1="74.4" x2="89.3" y2="74.4"/>
<line id="XMLID_162_" class="st2" x1="157.5" y1="73.8" x2="169.6" y2="73.8"/>
</svg>
