<?xml version="1.0" encoding="utf-8"?>
<!-- Generator: Adobe Illustrator 19.1.0, SVG Export Plug-In . SVG Version: 6.00 Build 0)  -->
<svg version="1.1" id="Layer_1" xmlns="http://www.w3.org/2000/svg" xmlns:xlink="http://www.w3.org/1999/xlink" x="0px" y="0px"
	 viewBox="0 0 200.7 197.7" style="enable-background:new 0 0 200.7 197.7;" xml:space="preserve">
<style type="text/css">
	.st0{fill:none;stroke:#8B5E3C;stroke-width:2;stroke-miterlimit:10;}
	.st1{fill:#FBB040;stroke:#000000;stroke-width:2;stroke-miterlimit:10;}
	.st2{fill:none;stroke:#000000;stroke-width:2;stroke-miterlimit:10;}
	.st3{fill:none;stroke:#1C75BC;stroke-width:2;stroke-miterlimit:10;}
</style>
<g id="XMLID_244_">
	<line id="XMLID_248_" class="st0" x1="98.5" y1="86.8" x2="98.5" y2="69.2"/>
	<line id="XMLID_247_" class="st0" x1="101.6" y1="84" x2="101.6" y2="72"/>
	<line id="XMLID_246_" class="st0" x1="104.5" y1="86.8" x2="104.5" y2="69.2"/>
	<line id="XMLID_245_" class="st0" x1="107.6" y1="84" x2="107.6" y2="72"/>
</g>
<g id="XMLID_241_">
	<polygon id="XMLID_243_" class="st1" points="96,113.5 111,122.1 96,130.8 	"/>
	<line id="XMLID_242_" class="st2" x1="113" y1="113" x2="113" y2="131.2"/>
</g>
<line id="XMLID_240_" class="st2" x1="27.9" y1="76.5" x2="37" y2="76.5"/>
<line id="XMLID_239_" class="st2" x1="107.8" y1="76.5" x2="124" y2="76.5"/>
<line id="XMLID_238_" class="st2" x1="73.5" y1="122.1" x2="96" y2="122.1"/>
<line id="XMLID_237_" class="st2" x1="27.9" y1="76.5" x2="27.9" y2="122.1"/>
<line id="XMLID_236_" class="st2" x1="178.4" y1="76.7" x2="178.4" y2="121.5"/>
<line id="XMLID_235_" class="st2" x1="27.5" y1="122.1" x2="55.7" y2="122.1"/>
<line id="XMLID_234_" class="st2" x1="113.3" y1="122.1" x2="137.5" y2="122.1"/>
<g id="XMLID_223_">
	<line id="XMLID_233_" class="st3" x1="39.5" y1="81.5" x2="44.4" y2="73.1"/>
	<line id="XMLID_232_" class="st3" x1="39.8" y1="81.5" x2="37" y2="76.7"/>
	<line id="XMLID_231_" class="st3" x1="49" y1="81.5" x2="44.1" y2="73.1"/>
	<line id="XMLID_230_" class="st3" x1="48.6" y1="81.5" x2="53.5" y2="73.1"/>
	<line id="XMLID_229_" class="st3" x1="58.2" y1="81.5" x2="53.3" y2="73.1"/>
	<line id="XMLID_228_" class="st3" x1="57.9" y1="81.5" x2="62.8" y2="73.1"/>
	<line id="XMLID_227_" class="st3" x1="67.5" y1="81.5" x2="62.6" y2="73.1"/>
	<line id="XMLID_226_" class="st3" x1="67.2" y1="81.5" x2="72.1" y2="73.1"/>
	<line id="XMLID_225_" class="st3" x1="76.7" y1="81.5" x2="71.8" y2="73.1"/>
	<line id="XMLID_224_" class="st3" x1="76.4" y1="81.5" x2="79.2" y2="76.7"/>
</g>
<g id="XMLID_212_">
	<line id="XMLID_222_" class="st3" x1="126.5" y1="81.5" x2="131.3" y2="73.1"/>
	<line id="XMLID_221_" class="st3" x1="126.8" y1="81.5" x2="124" y2="76.7"/>
	<line id="XMLID_220_" class="st3" x1="136" y1="81.5" x2="131.1" y2="73.1"/>
	<line id="XMLID_219_" class="st3" x1="135.6" y1="81.5" x2="140.5" y2="73.1"/>
	<line id="XMLID_218_" class="st3" x1="145.1" y1="81.5" x2="140.2" y2="73.1"/>
	<line id="XMLID_217_" class="st3" x1="144.9" y1="81.5" x2="149.8" y2="73.1"/>
	<line id="XMLID_216_" class="st3" x1="154.4" y1="81.5" x2="149.5" y2="73.1"/>
	<line id="XMLID_215_" class="st3" x1="154.1" y1="81.5" x2="159" y2="73.1"/>
	<line id="XMLID_214_" class="st3" x1="163.6" y1="81.5" x2="158.7" y2="73.1"/>
	<line id="XMLID_213_" class="st3" x1="163.3" y1="81.5" x2="166.1" y2="76.7"/>
</g>
<line id="XMLID_208_" class="st2" x1="79.2" y1="77.3" x2="98.1" y2="77.3"/>
<line id="XMLID_207_" class="st2" x1="166.3" y1="76.7" x2="178.4" y2="76.7"/>
<g id="XMLID_195_">
	<polygon id="XMLID_197_" class="st1" points="55.1,113.5 70.1,122.1 55.1,130.8 	"/>
	<line id="XMLID_196_" class="st2" x1="72.1" y1="113" x2="72.1" y2="131.2"/>
</g>
<g id="XMLID_249_">
	<polygon id="XMLID_267_" class="st1" points="138.8,113.5 153.8,122.1 138.8,130.8 	"/>
	<line id="XMLID_258_" class="st2" x1="155.8" y1="113" x2="155.8" y2="131.2"/>
</g>
<line id="XMLID_268_" class="st2" x1="156" y1="122.1" x2="178.4" y2="122.1"/>
</svg>
