<?xml version="1.0" encoding="utf-8"?>
<!-- Generator: Adobe Illustrator 19.0.1, SVG Export Plug-In . SVG Version: 6.00 Build 0)  -->
<svg version="1.1" id="Layer_1" xmlns="http://www.w3.org/2000/svg" xmlns:xlink="http://www.w3.org/1999/xlink" x="0px" y="0px"
	 viewBox="0 0 90 159.5" enable-background="new 0 0 90 159.5" xml:space="preserve">
<path fill="none" stroke="#EC008C" stroke-width="5.6693" stroke-miterlimit="10" d="M45.3,117.6c-0.5,0.2-6.3,2.8-7.5,9
	c-0.1,0.4-1.4,7.6,4,11.5c3.1,2.2,7.3,2.6,10.5,1c6.3-3.2,6-12.8,6-14c-0.2-8.2-5.3-12.6-12.5-22c-5.2-6.7-15.2-20.1-20-36.5
	c-2.5-8.5-5.5-18.9,0-27c4.2-6.2,11.5-8.3,17.5-10c5.6-1.6,13-3.7,20.5,0c5.4,2.7,8.1,7,9,8.5c3.8,6.3,5.4,15.8,1,23
	c-0.9,1.5-3.4,5.6-8.5,7c-0.6,0.2-6.8,1.7-11.5-2.5c-3.4-3.1-5.6-8.9-3-13.5c1.9-3.3,5.6-5,9-5c5,0,8.1,3.5,8.5,4"/>
</svg>
