<?xml version="1.0" encoding="utf-8"?>
<!-- Generator: Adobe Illustrator 19.1.0, SVG Export Plug-In . SVG Version: 6.00 Build 0)  -->
<svg version="1.1" id="Layer_1" xmlns="http://www.w3.org/2000/svg" xmlns:xlink="http://www.w3.org/1999/xlink" x="0px" y="0px"
	 viewBox="-2504 1463.7 336.2 357.4" style="enable-background:new -2504 1463.7 336.2 357.4;" xml:space="preserve">
<style type="text/css">
	.st0{fill:#C0C0C0;}
	.st1{fill:none;stroke:#ED1164;stroke-width:10;stroke-miterlimit:10;}
	.st2{fill:#ED1164;}
	.st3{fill:none;stroke:#000000;stroke-width:10;stroke-miterlimit:10;}
	.st4{fill:none;stroke:#000000;stroke-width:6;stroke-miterlimit:10;}
	.st5{fill:#F7941E;stroke:#F7941E;stroke-miterlimit:10;}
	.st6{fill:#ED1064;}
</style>
<g id="EL:_BIRD">
	<g id="ART:_ARTWORK">
		<path id="papitas" class="st0" d="M-2200.1,1561.4L-2200.1,1561.4l-17.7,7.4l0,0l-10.7,4.4c0.7-45.7-26.6-89.6-72.3-108.5
			l-68.2,164.6c-12.9-28-46.1-41.3-74.9-29.5c-24.7,10.3-38.4,35.4-35.4,60.5l-19.6,26.2l30.2,3c30.2,49.1,101.1,67.5,166.4,40.2
			c58.7-24.3,94.4-77.5,91.5-128.4l22.9-9.6l0,0c16.6-7,24.3-25.8,17.3-42.4L-2200.1,1561.4z M-2273.5,1492.1l-49.4,119.5l8.5,3.7
			l48-116.2c7,7.4,12.5,15.5,17,24.3l-42.2,101.5l8.5,3.7l38.7-93.3c4.1,11.1,6.3,22.5,6.6,34.3c0.4,14-2.2,27.7-7.7,40.6
			c-10.3,25.1-30.2,45-55.7,55.7c-12.9,5.2-26.6,8.1-40.6,8.1c-11.4,0-22.5-1.5-33.6-5.2l79.3-191.8
			C-2287.9,1481-2280.5,1486.2-2273.5,1492.1z M-2228.5,1578v0.4C-2228.5,1578.4-2228.5,1578.4-2228.5,1578z M-2228.9,1580.6
			c0,0.7,0,1.5-0.4,2.6C-2228.9,1582.5-2228.9,1581.7-2228.9,1580.6z M-2481.6,1678.4l3.3-4.4l1.8,4.8L-2481.6,1678.4z
			 M-2240.7,1669.9c-7.7,10.7-17,20.7-27.7,29.1c-11.1,8.9-23.6,16.2-37.3,21.8c-16.2,6.6-33.2,10.7-50.2,11.4
			c-16.2,1.1-32.1-0.7-46.8-5.5c-29.9-9.2-52.4-28-63.5-53.9l0,0l0,0c-0.4-0.4-0.4-1.1-0.7-1.5c-10.3-24.7,1.5-53.5,26.6-63.8
			c24.7-10.3,53.5,1.5,63.8,26.6l2.6,6.6l-8.9,21l0,0l-8.1-19.9c-7-16.6-25.8-24.3-42.4-17.7c-15.5,6.6-23.6,23.6-18.8,39.5
			c0.4,0.7,0.4,1.5,0.7,2.2c3.3,8.1,12.9,12.2,21.4,8.9c8.1-3.3,12.2-12.9,8.9-21.4c-3.3-8.1-12.5-12.2-20.7-8.9
			c2.2-5.2,6.6-9.6,12.2-11.8c11.8-4.8,25.5,0.7,30.2,12.5l8.5,20.7l0,0l3.3,7.7l0,0l0,0c30.2,12.5,62.3,11.4,90,0
			c26.6-11.1,49.1-32.1,60.9-60.5c0.4-0.7,0.7-1.5,1.1-2.6l16.2-6.6c0.4,10.3-1.5,21-4.4,31.7
			C-2227.8,1647.8-2233.3,1659.2-2240.7,1669.9z M-2442.8,1662.9c0-0.4-0.4-0.7-0.4-1.1c-0.7-3.3,0.7-6.6,4.1-8.1
			c3.7-1.5,7.7,0.4,9.2,3.7c1.5,3.7-0.4,7.7-3.7,9.2C-2437.3,1668.1-2441.4,1666.2-2442.8,1662.9L-2442.8,1662.9z M-2178.7,1570.3
			c-2.2,5.5-6.6,10.3-12.5,12.5l-0.7,0.4l-7.4,3l0,0l-32.8,13.6c1.5-5.5,2.6-10.7,3-16.2l6.3-2.6l0,0l8.5-3.7l17.3-7h0.4l19.6-8.1
			C-2177.2,1564.8-2177.6,1567.3-2178.7,1570.3z"/>
	</g>
	<g id="SI:_ON_A_CLOUD">
		<g id="CP:_trace_1_">
			<path id="CVP:_bottom" class="st1" d="M-2496.1,1686.8c7.8,1.2,36.6,8.8,36.6,8.8c19.3,20.7,48.2,33.7,58.9,36.7
				c33.6,9.3,61.9,2.3,77.9-1.8c13.2-3.5,34.4-9.2,56.3-26.3c25.3-19.7,39.1-45,44.7-62.3c6.1-18.7,6.5-38.7,6.5-38.7
				c0-0.6-1.1-3,0-5.1c1.4-2.6,5.3-3,6.9-3.2c0,0,10.9-1.5,22.1-9.7c8.5-6.2,11.2-14.8,12-17.5c1.1-3.8,2.5-11,0-12.5
				c-1.5-0.9-3.8,0.8-6.9,2.8c-5.4,3.4-17.1,8.8-17.1,8.8s-13.8,5.7-24.9,8.8"/>
			<path id="CVP:_cloud" class="st1" d="M-2304.3,1724.9c-10.1,6.6-24.1,17.6-36.4,34.3c-18,24.4-22.9,48.4-24.5,61.3"/>
			<circle id="CVT:_terminal_x5F_b" class="st2" cx="-2217.7" cy="1573.4" r="9.2"/>
			<circle id="CVT:_terminal_x5F_a" class="st2" cx="-2494.8" cy="1687.9" r="9.2"/>
		</g>
		<g id="CP:_trace">
			<path id="CGP:_wing_x5F_and_x5F_head" class="st3" d="M-2471.5,1675.2c-2.2-4.6-5.8-14-5-26c1.3-19.3,13.3-31.6,17.5-35.5
				c2.6-2.4,21.4-19.2,47.5-14c18.4,3.7,33.1,16.8,38.5,31c2.2,5.8,1.5,8.1,3,8.5c12.2,3.2,70.5-146.8,70.9-167.1
				c0-0.5,0-2.1,1.1-2.9c4.8-3.7,26.7,14.8,40.5,32.5c6,7.7,16.8,21.4,22,41.5c11.5,43.8-12.7,81.4-15.5,85.5
				c-23.5,35.2-65,52.2-101.5,49c-7.5-0.7-22.2,1.4-30-7.5c-1.6-1.8-3-4.9-6-11c-6.5-13.6-5.5-15.7-9.5-21c-1.6-2.2-7.1-9.4-17-11.5
				c-10.1-2.1-18.3,2.6-20.5,4c-8.8,5.6-15.3,16.5-13.5,27c0.3,2.1,1.8,10.4,8.5,13c4,1.5,9.6,1,13-3c3.7-4.3,3.6-11.2-0.5-15.5
				c-3.7-3.9-9.7-4.7-14.5-2"/>
			<circle id="CGT:_terminal_x5F_b" cx="-2178.9" cy="1477.7" r="9.2"/>
			<circle id="CGT:_terminal_x5F_a" cx="-2472.1" cy="1674.9" r="9.2"/>
			<path id="CGP:_wing_x5F_accent_1_" class="st4" d="M-2330,1623.7c36.8-50.2,50.4-96.5,54.9-132.3c0.3-2.6,0.6-5.2,0.9-7.8"/>
			<path id="CGP:_wing_x5F_accent" class="st4" d="M-2287.5,1626.7c24.2-42.6,33.2-81.8,36.1-112.1c0.2-2.2,0.4-4.4,0.6-6.6"/>
			<path id="CGP:_cloud" class="st3" d="M-2178.9,1477.7c-8.9,6.4-21.2,16.9-32,33c-15.8,23.5-20.1,46.6-21.5,59"/>
		</g>
		<g id="CP:_led_x5F_sticker_1_">
			<path id="NC:_base" class="st5" d="M-2493.5,1687.1c0,0,30.2,9.7,30.2,0.9c-0.1-7.6-9.1-23.4-14.4-26.7
				C-2483.6,1658.2-2493.5,1687.1-2493.5,1687.1z"/>
			<polygon id="CVT:_terminal_x5F_positive" class="st6" points="-2486.8,1675 -2491.4,1685.9 -2491.4,1685.9 -2491.4,1685.9 
				-2480.6,1688.6 -2480.4,1689 			"/>
			<path id="CGT:_terminal_x5F_negative" d="M-2465.6,1688.5c-1.3,1.5-8.4,0.6-10.1-1.3c-3.4-3.7-8.3-13.2-6.9-18.6
				c0.4-1.5,2.9-5,5.1-3.9C-2473.7,1666.7-2463.6,1686.2-2465.6,1688.5z"/>
		</g>
	</g>
	<g id="NEL:_Potatoes">
		<rect x="-2431.9" y="1520.6" class="st1" width="94.8" height="163.5"/>
	</g>
</g>
<g id="NEL:_Non-ellustrate_layer">
	<rect x="-2409.4" y="1559.8" class="st1" width="114.9" height="216"/>
</g>
</svg>
