<?xml version="1.0" encoding="utf-8"?>
<!-- Generator: Adobe Illustrator 19.0.1, SVG Export Plug-In . SVG Version: 6.00 Build 0)  -->
<svg version="1.1" id="Layer_1" xmlns="http://www.w3.org/2000/svg" xmlns:xlink="http://www.w3.org/1999/xlink" x="0px" y="0px"
	 viewBox="0 0 49 152" enable-background="new 0 0 49 152" xml:space="preserve">
<path fill="none" stroke="#EC008C" stroke-width="5.6693" stroke-miterlimit="10" d="M26.3,58.1c-1.6-0.1-7.2-0.5-11.5-5
	c-4-4.2-6.7-12-3-17c3.3-4.4,9.6-4.1,10.5-4c6.4,0.5,11.3,5.5,13,10.5c1.3,3.7,0.7,6.9-1.5,14c-3.4,11.1-6.8,19.2-8,22
	c-6.6,15.8-9.2,26.2-10.5,33.5c-2,11-1.3,15.9,1.5,19.5c0.4,0.5,4.2,5.2,10,5c5.6-0.2,9.4-4.8,11-8.5c0.5-1.1,2-4.9,0.5-9.5
	c-0.5-1.4-2.1-5.5-6.5-7.5c-4.2-2-8.1-0.8-9-0.5"/>
</svg>
