<?xml version="1.0" encoding="utf-8"?>
<!-- Generator: Adobe Illustrator 19.0.1, SVG Export Plug-In . SVG Version: 6.00 Build 0)  -->
<svg version="1.1" id="Layer_1" xmlns="http://www.w3.org/2000/svg" xmlns:xlink="http://www.w3.org/1999/xlink" x="0px" y="0px"
	 viewBox="0 0 130.8 129" enable-background="new 0 0 130.8 129" xml:space="preserve">
<path fill="none" stroke="#EC008C" stroke-width="5.6693" stroke-miterlimit="10" d="M53.3,19.9c-1,0.1-3.9,0.6-6.3,3
	c-0.6,0.5-3.2,3.1-3.2,7c0,4.3,3.3,7.4,6.2,8.8c3.1,1.5,8,2,11.2-0.8c3.4-3,3-7.9,2.8-9.5c-0.6-7.3-6.6-11.8-9-13.7
	c-5.8-4.5-11.9-5.2-14.2-5.5c-2.4-0.3-8.9-0.9-16,2.5c-9.6,4.7-13.3,13.6-14.2,15.8c-3.1,8-1.9,15-0.7,21.5c1.6,8.9,5,15.2,7.5,19.7
	c2.4,4.4,5.5,8.3,11.5,16.2c5.1,6.6,8.8,11.4,14.5,17.5c2.3,2.4,6.8,7.2,13,12.7c0,0,1.6,2.2,4.8,4.2c0.6,0.4,1.4,0.8,2.5,0.8
	c1.4,0,2.5-0.6,3-1c5-3.4,20.7-18.7,27.7-26c6.2-6.5,20.4-25.9,22.5-30.2c3.4-6.9,6-12.4,6.2-20.2c0.1-3.4,0.2-10.2-3.8-17.3
	c-5.4-9.6-14.4-13-16.7-13.8c-2.2-0.8-7.7-2.6-14.5-1.3c-2.2,0.4-7.9,1.5-12.8,6.3c-2.4,2.4-7.3,7.1-6.2,13.2c0.8,4.2,4.3,9,9.5,9.3
	c3.1,0.2,6.6-1.2,8.7-4.3c3-4.6,0.6-9.5,0.5-9.7c-1.6-3.2-4.9-5.2-8.5-5.3"/>
</svg>
