<?xml version="1.0" encoding="utf-8"?>
<!-- Generator: Adobe Illustrator 19.0.1, SVG Export Plug-In . SVG Version: 6.00 Build 0)  -->
<svg version="1.1" id="Layer_1" xmlns="http://www.w3.org/2000/svg" xmlns:xlink="http://www.w3.org/1999/xlink" x="0px" y="0px"
	 viewBox="0 0 223.1 104.6" enable-background="new 0 0 223.1 104.6" xml:space="preserve">
<path fill="none" stroke="#EC008C" stroke-width="5.6693" stroke-miterlimit="10" d="M73.9,36.3c1-6.7,5.9-12.1,12.3-13.8
	c6.2-1.6,12.8,0.6,16.7,5.1c6.7,8,3.3,21.3-3.6,25.4c-3.5,2-7.8,1.7-16.7-1.4c-15.4-5.4-19.4-12.6-37-20.3
	c-10.8-4.7-14.8-4.3-17.4-3.6c-6.7,1.9-12.6,8.2-13.8,15.9c-1.8,11.9,8.5,19.6,9.4,20.3c7.1,5.1,15.5,4.5,18.1,4.3
	c17.9-1.1,77.6-1,160.9-0.7"/>
</svg>
