<?xml version="1.0" encoding="utf-8"?>
<!-- Generator: Adobe Illustrator 19.0.1, SVG Export Plug-In . SVG Version: 6.00 Build 0)  -->
<svg version="1.1" id="Layer_1" xmlns="http://www.w3.org/2000/svg" xmlns:xlink="http://www.w3.org/1999/xlink" x="0px" y="0px"
	 viewBox="0 0 254 142" enable-background="new 0 0 254 142" xml:space="preserve">
<path fill="none" stroke="#EC008C" stroke-width="5.6693" stroke-miterlimit="10" d="M71.2,51.7c-4,2.6-6.3,7.3-5.7,11.9
	c0.7,5.4,4.8,9.2,9.2,10.4c5.8,1.6,12.3-1.2,14.6-6c2.7-5.6-1.2-11.9-2.5-13.9c-6.1-9.7-19.5-13.6-30.4-12.4
	c-1.4,0.2-22.8,2.8-28.2,20c-3.9,12.3,3.3,23,4.2,24.3c8.8,12.7,25.7,14.2,35.9,12.1c8.3-1.7,14.8-6.4,18.9-9.3
	c8.5-6.1,8.4-9.3,16.1-13.6c8.5-4.9,16.6-5.6,20.1-5.9c3.2-0.3,10.7-0.6,19.7,2.1c9.8,3,11.3,6.6,26.1,15.7
	c11.8,7.3,17.8,10.9,25.9,12.2c5.3,0.9,17.4,2.9,27.2-4.9c1-0.8,11.1-9,10.5-21.8c-0.5-11.9-9.9-19-14.1-22.1
	c-11.8-8.9-24.9-7.9-28.6-7.5c-5.9,0.5-20.6,1.9-24.7,12.2c-2.3,5.8-1.5,14.7,4.8,19.2c6.1,4.4,16.1,3.9,19.9-1.9
	c3.1-4.7,1.2-11.5-1.6-15.4c-1.3-1.8-2.7-3-3.8-3.7"/>
</svg>
