<?xml version="1.0" encoding="utf-8"?>
<!-- Generator: Adobe Illustrator 19.0.1, SVG Export Plug-In . SVG Version: 6.00 Build 0)  -->
<svg version="1.1" id="Layer_1" xmlns="http://www.w3.org/2000/svg" xmlns:xlink="http://www.w3.org/1999/xlink" x="0px" y="0px"
	 viewBox="0 0 82 172" enable-background="new 0 0 82 172" xml:space="preserve">
<path fill="none" stroke="#EC008C" stroke-width="5.6693" stroke-miterlimit="10" d="M36.8,134.6c-3.1-3.2-7.9-4.1-12-2.5
	c-5.1,2-6.4,7.5-7,10c-0.3,1.3-2.2,9.1,2.5,13.5c3.7,3.5,9.8,3.2,13,2c11.1-4,11.5-26.5,12-44.5c0-1.6-0.3-11.4-1-31
	c-0.4-11,0-22-0.5-33c-0.3-7.6-0.7-14.4,2-23c1.6-5.1,3.6-11,9-13c3.8-1.4,8.3-0.4,11.5,2c5.4,4.1,5.1,10.9,5,12
	c-0.1,1.3-0.5,8.5-6.5,11.5c-4.1,2-9.1,1.4-13-1.5"/>
</svg>
