<?xml version="1.0" encoding="utf-8"?>
<!-- Generator: Adobe Illustrator 19.0.1, SVG Export Plug-In . SVG Version: 6.00 Build 0)  -->
<svg version="1.1" id="Layer_1" xmlns="http://www.w3.org/2000/svg" xmlns:xlink="http://www.w3.org/1999/xlink" x="0px" y="0px"
	 viewBox="0 0 137.2 82.4" enable-background="new 0 0 137.2 82.4" xml:space="preserve">
<path fill="none" stroke="#EC008C" stroke-width="5.6693" stroke-miterlimit="10" d="M16.1,47.4c7.4,1.6,13.2-5.2,10.2-12.2
	c-3.3-7.8-14.2-7.6-19.3-1.6c-12.2,14.3,4.5,29.3,16.8,34.9c22.4,10.3,53.1,4.6,63-20.2c2.5-6.1,3.1-12.4,0.9-18.7
	c-2.4-6.7-4.6-14.5-7.7-20.8C70.9-9.5,54.6,19.2,52.2,27.7c-8.9,30.9,28.8,56.1,56.1,51.2c13.5-2.4,31.6-16,24.4-31.9
	c-3.4-7.5-16.4-10.4-19.7-1.2c-2.1,6,1,13.2,6.1,16.6"/>
</svg>
