<?xml version="1.0" encoding="utf-8"?>
<!-- Generator: Adobe Illustrator 19.0.1, SVG Export Plug-In . SVG Version: 6.00 Build 0)  -->
<svg version="1.1" id="Layer_1" xmlns="http://www.w3.org/2000/svg" xmlns:xlink="http://www.w3.org/1999/xlink" x="0px" y="0px"
	 viewBox="0 0 250.6 136.5" enable-background="new 0 0 250.6 136.5" xml:space="preserve">
<path fill="none" stroke="#EC008C" stroke-width="5.6693" stroke-miterlimit="10" d="M72.8,31.2c-0.3,2.5-1.4,9.6-7.2,15.6
	c-1.7,1.7-8.5,8.7-18.3,7.6c-8.7-1-13.5-7.8-14.5-9.1c-0.6-0.9-8.2-12-2.3-22.4c4.8-8.5,14.8-10.2,20.9-9.5c1.5,0.2,2.9,0.5,9.9,3.8
	c8.9,4.2,18.1,9.1,28.9,16.7c3.9,2.8,6.3,4.7,8.4,8c0.9,1.4,3.5,5.8,3.4,11.8C102,61,97.8,68.5,90.7,72.3c-1.6,0.9-10.8,5.5-19,0.4
	c-0.6-0.4-7.1-4.6-7.6-11.8c-0.6-9.1,9-16.3,16.7-17.9c2.8-0.6,3.8-0.1,12.5,1.1c14.2,2,14.2,1,21.3,2.3c6,1.1,15,2.8,24.3,8.7
	c5.7,3.6,12.7,8.1,16.4,17.1c4.2,10.3,1.3,19.6,0.8,21.3c-3.8,11.6-13.2,16.9-16.4,18.6c-3.1,1.7-14.6,7.9-27.4,3
	C97.1,109.5,93.4,93,93,90.9c-0.4-2-1.4-7.2,0-13.3c3.2-13.6,17-20.3,27.4-25.5c9.2-4.6,16.9-6.2,27-8.4c8.6-1.8,13-2.7,19-1.9
	c3.7,0.5,14.1,2.5,21.7,11c2.7,3,6,6.8,5.7,11.8c-0.4,6.9-7.3,11-9.1,12.2c-1.5,0.9-8.7,5.4-16.7,2.7c-8.5-2.9-13.1-11.8-12.9-19.4
	c0.1-4.5,2.2-8.2,2.2-8.2c1.4-2.6,3.1-4.1,3.9-4.9c14.4-13.3,29-23.6,32.8-26.6c0.2-0.2,0.7-0.6,1.5-1c1.8-1,3.8-1.3,6.5-1.3
	c4,0.1,7.3,0.2,10.8,2.3c4.2,2.5,6,6.3,7.1,8.6c1.3,2.7,3.7,7.9,1.9,14.1c-2.2,7.5-8.8,10.6-10.1,11.3c-1.4,0.7-5.4,2.5-10.8,1.8
	c-1.6-0.2-6.1-1.1-10-4.8c-4.2-4-5.1-8.8-5.5-10.8c-0.3-1.6-0.4-2.9-0.4-3.8"/>
</svg>
