<?xml version="1.0" encoding="utf-8"?>
<!-- Generator: Adobe Illustrator 19.0.1, SVG Export Plug-In . SVG Version: 6.00 Build 0)  -->
<svg version="1.1" id="Layer_1" xmlns="http://www.w3.org/2000/svg" xmlns:xlink="http://www.w3.org/1999/xlink" x="0px" y="0px"
	 viewBox="0 0 69.7 159.5" enable-background="new 0 0 69.7 159.5" xml:space="preserve">
<path fill="none" stroke="#EC008C" stroke-width="5.6693" stroke-miterlimit="10" d="M47.9,55.7c-3.3-3.6-8.5-4.5-12.5-2.5
	c-5.2,2.6-6.9,9.5-4.5,14c2.7,5.1,9.7,5.4,13.5,4.5c8.5-2,12.6-12.1,13.5-18.5c0.2-1.3,1.9-14.3-8-22.5c-11.1-9.2-25.6-2.9-26.5-2.5
	C15.8,31.7,7.7,39.6,7.9,48.7c0,2,0.5,6.2,9.5,16.5C28,77.4,34,79,46.4,91.2c9.1,8.9,13.6,13.5,15,21c0.3,1.6,2.3,13.5-6,22
	c-6.9,7.1-16.2,7-19,7c-3.2,0-11.4-0.6-18.5-7c-1.3-1.2-10.1-9.1-9-20c1.4-12.8,15.9-23.5,26-20.5c4.9,1.5,9.9,6.6,10,12.5
	c0.1,4.2-2.4,9.5-6.5,10.5c-5.2,1.2-10-5.1-11-6.5c-1.3-1.7-2.1-3.3-2.5-4.5"/>
</svg>
