<?xml version="1.0" encoding="utf-8"?>
<!-- Generator: Adobe Illustrator 19.0.1, SVG Export Plug-In . SVG Version: 6.00 Build 0)  -->
<svg version="1.1" id="Layer_1" xmlns="http://www.w3.org/2000/svg" xmlns:xlink="http://www.w3.org/1999/xlink" x="0px" y="0px"
	 viewBox="0 0 95.7 79.5" enable-background="new 0 0 95.7 79.5" xml:space="preserve">
<path fill="none" stroke="#EC008C" stroke-width="5.6693" stroke-miterlimit="10" d="M33.2,41.3c0.7-0.3,4.7-1.9,6.3-6.3
	c0.3-0.7,1.7-4.8-0.5-8.2c-2.3-3.4-6.6-3.6-8.3-3.7c-1.6-0.1-5-0.2-7.3,2C19.3,29,22.5,37,22.7,37.6c0.3,0.7,0.7,1.6,1.7,3.3
	c1.4,2.7,2.6,4.5,3.7,6.3c4,6.5,6,9.8,6.5,10.8c1.2,2.6,1.8,4.3,3.8,6c1.1,0.9,2.3,2.1,4,2.2c1.9,0.1,3.4-1.3,4.7-2.3
	c1.5-1.3,2.2-2.6,2.5-3c5.2-8.6,7-12,7-12c0.9-1.6,2.8-5.3,5.5-10.5c1.6-3,2.5-5,2.5-7.8c0-1.2-0.1-3.6-1.8-5.8
	c-2-2.5-4.8-3-5.5-3.2c-0.6-0.1-3.8-0.6-6.8,1.5c-3.9,2.7-4,7.3-4,7.8c0,0.9,0.1,4.4,3,7c2.2,2,4.8,2.3,5.7,2.3"/>
</svg>
