<?xml version="1.0" encoding="utf-8"?>
<!-- Generator: Adobe Illustrator 19.0.1, SVG Export Plug-In . SVG Version: 6.00 Build 0)  -->
<svg version="1.1" id="Layer_1" xmlns="http://www.w3.org/2000/svg" xmlns:xlink="http://www.w3.org/1999/xlink" x="0px" y="0px"
	 viewBox="0 0 250.6 147.1" enable-background="new 0 0 250.6 147.1" xml:space="preserve">
<path fill="none" stroke="#EC008C" stroke-width="5.6693" stroke-miterlimit="10" d="M90,77.9c-3.5,13.2-12.7,17-25.1,16.7
	c-9.6-0.2-17.2-7.2-18.1-17.8c-1.1-13.1,10.9-23.5,21.3-24.3c12.3-1,22.2,11.3,23.2,12.5c2.8,3.5,4.4,7.2,10.2,13.7
	c2.9,3.2,4.3,4.8,6.5,6.4c2,1.5,12.2,12,22.8,10.4c0.8-0.1,15.8-5.9,17.1-19.1c1-10-4.6-19.9-13.7-23.6c-8.2-3.3-18.5-1.6-24.7,5.3
	c-6.4,7.2-5.1,16.3-4.9,17.5c1.8,11.4,12.9,19.9,22.8,20.2c12.2,0.3,21.8-11.9,27-18.6c6.5-8.3,7-13.3,14.5-17.9
	c1.8-1.1,8-4.8,16.4-4.2c3,0.2,10.9,0.1,16.2,9c3.8,6.5,2.9,14.3-1.5,20.5c-5.4,7.7-11.3,9.8-13.5,10c-2.1,0.1-7.8,0.4-13.3-3
	c-9.7-6.1-10.2-18.2-10.3-19.4"/>
</svg>
