<?xml version="1.0" encoding="utf-8"?>
<!-- Generator: Adobe Illustrator 19.0.1, SVG Export Plug-In . SVG Version: 6.00 Build 0)  -->
<svg version="1.1" id="Layer_1" xmlns="http://www.w3.org/2000/svg" xmlns:xlink="http://www.w3.org/1999/xlink" x="0px" y="0px"
	 viewBox="0 0 161 105" enable-background="new 0 0 161 105" xml:space="preserve">
<path fill="none" stroke="#EC008C" stroke-width="5.6693" stroke-miterlimit="10" d="M70.6,29.7c-0.5,0-4.2-0.2-7,2.7
	c-0.3,0.4-3.1,3.3-2.3,7.3c0.7,3.7,4,6.5,7.7,6.7c4,0.2,6.8-3,8-5.3c2.8-5.6-0.4-14.1-6.7-17.3c-6-3-12.7-0.3-16.3,2.7
	c-7,5.7-7.2,15.8-5.3,22c1.3,4.1,3.8,7.1,9,13c4.3,5,3.8,3.3,10,10c0,0,1.7,1.9,10,8.4c0.4,0.3,1.4,1,2.7,1.1c1.8,0.1,3.2-1,3.9-1.6
	c12.6-10.2,10.3-7.6,13.7-11.4c7.5-8.4,11.2-12.6,13.3-18.3c1.2-3.2,2.7-7.4,2-12.8c-0.3-2.5-1.1-7.7-5.5-11.5
	c-5.9-5-13.5-3.3-14.7-3c-1.4,0.3-8.2,2-11,8.3c-0.4,0.9-3.3,7.8,0.8,12.2c2.4,2.5,6.6,3.8,10.2,2c3.6-1.8,4.4-5.7,4.5-6.3
	c0.2-0.9,0.7-3.6-1-5.8c-1.5-2.1-3.9-2.5-4.5-2.7c-1.3-0.3-2.5-0.1-3.2,0"/>
</svg>
