<?xml version="1.0" encoding="utf-8"?>
<!-- Generator: Adobe Illustrator 19.0.1, SVG Export Plug-In . SVG Version: 6.00 Build 0)  -->
<svg version="1.1" id="Layer_1" xmlns="http://www.w3.org/2000/svg" xmlns:xlink="http://www.w3.org/1999/xlink" x="0px" y="0px"
	 viewBox="0 0 95.7 86" enable-background="new 0 0 95.7 86" xml:space="preserve">
<path fill="none" stroke="#EC008C" stroke-width="5.6693" stroke-miterlimit="10" d="M41.6,26.9c-0.3-0.1-3.9-2.1-7.3-0.2
	c-2.5,1.4-3.3,3.9-3.5,4.5c-0.1,0.4-1.3,4.4,1.3,7.2c2.3,2.5,6.2,2.3,8.7,1.2c4.2-2,4.9-7.2,5.2-9.3c0.2-1.2,0.9-6.3-2.5-10.8
	c-3.2-4.3-8-5.2-10.7-5.7c-1.7-0.3-5.5-1-10,0.7c-6.1,2.2-9.1,7.2-9.8,8.7c-2.8,5.2-2.2,10.1-1.8,13.2c0.8,7.3,4.2,12.3,6.3,15.3
	c3.8,5.5,4.4,3.6,17.8,15.8c3.8,3.4,5.9,5.6,9.7,6.2c2.6,0.4,5.4-0.1,10.2-2.5c10.7-5.3,17.1-13,18.5-14.7
	c5.2-6.3,9.4-11.4,10.7-19.5c0.6-3.7,2.1-13.6-4.7-20c-3.8-3.6-9.9-5.7-16-4.2c-7.7,2-10.9,8.6-11.3,9.5c-0.6,1.3-3.5,8-0.2,14
	c0.7,1.2,3.1,5.5,7.3,5.7c3.7,0.1,7-3,8-6.5c0.6-2.2,0.5-5.4-1.5-7.5c-2.1-2.2-5.6-2.2-7.8-2.2c-0.9,0-1.6,0.1-2.2,0.2"/>
</svg>
