<?xml version="1.0" encoding="utf-8"?>
<!-- Generator: Adobe Illustrator 18.1.1, SVG Export Plug-In . SVG Version: 6.00 Build 0)  -->
<!DOCTYPE svg PUBLIC "-//W3C//DTD SVG 1.1//EN" "http://www.w3.org/Graphics/SVG/1.1/DTD/svg11.dtd">
<svg version="1.1" id="Layer_1" xmlns="http://www.w3.org/2000/svg" xmlns:xlink="http://www.w3.org/1999/xlink" x="0px" y="0px"
	 viewBox="-783 330 161 205" enable-background="new -783 330 161 205" xml:space="preserve">
<g>
	<g id="Layer_1_1_">
		
			<path id="_x2F_primitives_x2F_elegant_x5F_scroll.svg" fill="none" stroke="#C0C0C0" stroke-width="2.9018" stroke-miterlimit="10" d="
			M-688.9,405.9c-3.3-3.6-8.5-4.5-12.5-2.5c-5.2,2.6-6.9,9.5-4.5,14c2.7,5.1,9.7,5.4,13.5,4.5c8.5-2,12.6-12.1,13.5-18.5
			c0.2-1.3,1.9-14.3-8-22.5c-11.1-9.2-25.6-2.9-26.5-2.5c-7.6,3.5-15.7,11.4-15.5,20.5c0,2,0.5,6.2,9.5,16.5
			c10.6,12.2,16.6,13.8,29,26c9.1,8.9,13.6,13.5,15,21c0.3,1.6,2.3,13.5-6,22c-6.9,7.1-16.2,7-19,7c-3.2,0-11.4-0.6-18.5-7
			c-1.3-1.2-10.1-9.1-9-20c1.4-12.8,15.9-23.5,26-20.5c4.9,1.5,9.9,6.6,10,12.5c0.1,4.2-2.4,9.5-6.5,10.5c-5.2,1.2-10-5.1-11-6.5
			c-1.3-1.7-2.1-3.3-2.5-4.5"/>
	</g>
	<g id="Layer_1_2_">
		
			<path id="_x2F_primitives_x2F_open_x5F_scroll.svg" fill="none" stroke="#C0C0C0" stroke-width="2.9018" stroke-miterlimit="10" d="
			M-721.5,499.8c-0.4,0.4-4.8,5-3.5,11.2c0.1,0.4,1.6,7.6,8,9.1c3.7,0.9,7.7-0.4,10.1-3c4.6-5.3,0.7-14.1,0.3-15.2
			c-3.3-7.5-9.7-9.7-19.9-15.6c-7.3-4.2-21.7-12.9-32.3-26.2c-5.5-6.9-12.2-15.4-10.2-25c1.5-7.3,7.5-12,12.4-15.9
			c4.6-3.6,10.6-8.3,19-7.7c6,0.5,10.1,3.4,11.5,4.5c5.9,4.4,11,12.6,9.6,20.9c-0.3,1.7-1,6.5-5.2,9.7c-0.5,0.4-5.7,4.1-11.6,2
			c-4.3-1.6-8.5-6.1-7.9-11.4c0.5-3.8,3.3-6.7,6.4-8c4.6-1.9,8.8,0.2,9.4,0.5"/>
	</g>
	<g id="Layer_1_3_">
		
			<path id="_x2F_primitives_x2F_open_x5F_scroll.svg_1_" fill="none" stroke="#C0C0C0" stroke-width="2.9018" stroke-miterlimit="10" d="
			M-686.5,364.9c0.4-0.4,4.5-5.2,3-11.3c-0.1-0.4-2-7.5-8.5-8.7c-3.7-0.7-7.7,0.7-9.9,3.5c-4.4,5.6,0,14.1,0.5,15.2
			c3.7,7.3,10.1,9.2,20.6,14.6c7.5,3.9,22.3,11.8,33.6,24.6c5.9,6.6,13,14.8,11.4,24.5c-1.2,7.4-6.9,12.4-11.6,16.5
			c-4.4,3.8-10.2,8.9-18.6,8.7c-6-0.2-10.3-2.9-11.8-3.9c-6.1-4.1-11.6-12-10.7-20.4c0.2-1.7,0.7-6.5,4.7-9.9
			c0.5-0.4,5.4-4.4,11.5-2.6c4.4,1.4,8.8,5.7,8.4,11c-0.3,3.8-3,6.9-6,8.3c-4.5,2.1-8.8,0.3-9.4,0"/>
	</g>
	<g id="Layer_1_4_">
		
			<path id="_x2F_primitives_x2F_connector_x5F_five_x5F_coil.svg" fill="none" stroke="#C0C0C0" stroke-width="1.4473" stroke-miterlimit="10" d="
			M-709.3,487.3c-0.5,1.4-1.4,3-2.9,4.5c-1.2,1.4-3.3,3.6-3.9,3.2c-0.4-0.3,0.4-2,1.6-5.2c1.3-2.9,2.1-4.1,1.9-4.2
			c-0.3-0.2-5.1,8.3-5.7,7.8c-0.4-0.3,4-8.8,3.3-9.3s-6.2,7.1-6.6,6.8s4.9-8.5,4.3-9s-6.6,7.1-7,6.8c-0.1-0.1,2.4-3.7,5.4-7.9"/>
	</g>
	<g id="Layer_1_5_">
		
			<path id="_x2F_primitives_x2F_connector_x5F_five_x5F_coil.svg_1_" fill="none" stroke="#C0C0C0" stroke-width="1.4473" stroke-miterlimit="10" d="
			M-714.5,416.8c-0.9,1.3-2.2,2.7-4,3.8c-1.6,1.1-4.3,2.8-4.8,2.3c-0.3-0.4,0.9-1.9,3-4.9c2.1-2.6,3.2-3.6,3-3.8
			c-0.3-0.3-7.3,7.1-7.8,6.5c-0.3-0.4,6.3-7.9,5.7-8.6c-0.6-0.7-8.1,5.7-8.4,5.3s7.2-7.4,6.7-8c-0.5-0.6-8.5,5.5-8.9,5.1
			c-0.1-0.1,3.4-3.1,7.5-6.6"/>
	</g>
	<g id="Layer_1_6_">
		
			<path id="_x2F_primitives_x2F_connector_x5F_five_x5F_coil.svg_2_" fill="none" stroke="#C0C0C0" stroke-width="1.4473" stroke-miterlimit="10" d="
			M-672.9,448.5c-0.9,1.3-2.1,2.7-3.9,4c-1.5,1.2-4.2,3-4.7,2.5c-0.4-0.4,0.8-2,2.8-5c2-2.7,3-3.7,2.8-3.9c-0.3-0.3-7,7.4-7.5,6.8
			c-0.4-0.4,6-8.2,5.4-8.9s-7.9,6-8.2,5.6s6.9-7.7,6.4-8.3c-0.5-0.6-8.3,5.9-8.7,5.5c-0.1-0.1,3.3-3.2,7.3-6.9"/>
	</g>
	<g id="Layer_1_7_">
		
			<path id="_x2F_primitives_x2F_connector_x5F_five_x5F_coil.svg_3_" fill="none" stroke="#C0C0C0" stroke-width="1.4473" stroke-miterlimit="10" d="
			M-684.4,426.6c-1.3-0.8-2.8-2-4.1-3.7c-1.2-1.4-3.1-4-2.6-4.5c0.4-0.4,2,0.7,5,2.6c2.7,1.9,3.8,2.8,4,2.6c0.3-0.3-7.6-6.6-7-7.2
			c0.4-0.4,8.3,5.6,9,4.9s-6.3-7.5-5.9-7.9s7.9,6.5,8.5,6c0.6-0.6-6.2-8-5.8-8.4c0.1-0.1,3.3,3.1,7.1,6.9"/>
	</g>
	<g id="Layer_1_8_">
		
			<path id="_x2F_primitives_x2F_connector_x5F_five_x5F_coil.svg_4_" fill="none" stroke="#C0C0C0" stroke-width="1.4473" stroke-miterlimit="10" d="
			M-721.6,454.5c-1.2-0.9-2.6-2.2-3.6-4.1c-1-1.6-2.6-4.4-2.1-4.8c0.4-0.3,1.9,0.9,4.7,3.1c2.5,2.1,3.5,3.2,3.7,3.1
			c0.3-0.2-6.8-7.4-6.2-7.9c0.4-0.3,7.6,6.4,8.3,5.9s-5.4-8.1-4.9-8.5s7.1,7.3,7.7,6.8s-5.2-8.6-4.8-8.9c0.1-0.1,3,3.4,6.3,7.6"/>
	</g>
	<g id="Layer_1_9_">
		
			<path id="_x2F_primitives_x2F_connector_x5F_five_x5F_coil.svg_5_" fill="none" stroke="#C0C0C0" stroke-width="1.4473" stroke-miterlimit="10" d="
			M-680,376.3c-0.6,1.4-1.6,3.1-3.2,4.6c-1.3,1.4-3.6,3.7-4.2,3.3c-0.4-0.3,0.4-2.1,1.9-5.4c1.5-3,2.3-4.2,2.1-4.4
			c-0.3-0.3-5.6,8.5-6.3,8c-0.4-0.3,4.5-9.1,3.8-9.7c-0.7-0.6-6.7,7.3-7.1,7s5.5-8.8,4.9-9.3s-7.2,7.3-7.6,6.9
			c-0.1-0.1,2.7-3.8,6-8.1"/>
	</g>
</g>
</svg>
