<?xml version="1.0" encoding="utf-8"?>
<!-- Generator: Adobe Illustrator 19.0.1, SVG Export Plug-In . SVG Version: 6.00 Build 0)  -->
<svg version="1.1" id="Layer_1" xmlns="http://www.w3.org/2000/svg" xmlns:xlink="http://www.w3.org/1999/xlink" x="0px" y="0px"
	 viewBox="0 0 45.4 159.5" enable-background="new 0 0 45.4 159.5" xml:space="preserve">
<path fill="none" stroke="#EC008C" stroke-width="5.6693" stroke-miterlimit="10" d="M23.2,109.2c-4.5-0.2-8.7,2.4-10.5,6.5
	c-1.9,4.2-1.1,9.5,2.5,12.5c4.3,3.6,10.6,2.4,14-0.5c5.1-4.3,3.6-12.5,3-16c-1.3-7.2-4.5-10-9.5-19c-6-10.8-7.3-15.8-8-18.5
	c-1.6-6-2.4-9-2-11.5c0.8-4.5,5.6-9.8,11.5-9.5c4.1,0.2,8.8,3.2,9.5,8c0.5,3.6-1.5,7.2-4.5,9c-4.2,2.6-8.6,0.7-9,0.5"/>
</svg>
