<?xml version="1.0" encoding="utf-8"?>
<!-- Generator: Adobe Illustrator 19.2.1, SVG Export Plug-In . SVG Version: 6.00 Build 0)  -->
<svg version="1.1" id="EL:_Octopulpo" xmlns="http://www.w3.org/2000/svg" xmlns:xlink="http://www.w3.org/1999/xlink" x="0px"
	 y="0px" viewBox="0 0 682.6 494" style="enable-background:new 0 0 682.6 494;" xml:space="preserve">
<style type="text/css">
	.st0{fill:none;stroke:#231F20;stroke-width:3;stroke-miterlimit:10;}
	.st1{fill:#FFF200;}
	.st2{opacity:6.000000e-02;}
	.st3{fill:none;stroke:#000000;stroke-width:2;stroke-miterlimit:10;}
	.st4{fill:none;stroke:#FFF200;stroke-miterlimit:10;}
</style>
<g id="ART:_Gestalt_path">
	<polyline class="st0" points="123.1,-14.8 82,69.2 70.3,163.1 138.6,231.6 201.4,263.5 331.1,245.8 453,178.9 502.7,148 609.8,268 
		613.8,367.6 559.9,450.9 496,392.6 530.2,297.7 566.2,308.9 577,374.1 543.1,374.1 536.9,329.2 	"/>
</g>
<g id="ART:_Lights">
	<path class="st1" d="M52.2,42.2L52.2,42.2c-6,0-10.9-4.9-10.9-10.9v0c0-6,4.9-10.9,10.9-10.9h0c6,0,10.9,4.9,10.9,10.9v0
		C63.1,37.3,58.2,42.2,52.2,42.2z"/>
	<path class="st1" d="M26.6,97.1L26.6,97.1c-6,0-10.9-4.9-10.9-10.9v0c0-6,4.9-10.9,10.9-10.9h0c6,0,10.9,4.9,10.9,10.9v0
		C37.5,92.2,32.6,97.1,26.6,97.1z"/>
	<path class="st1" d="M27,161.8L27,161.8c-6,0-10.9-4.9-10.9-10.9v0c0-6,4.9-10.9,10.9-10.9h0c6,0,10.9,4.9,10.9,10.9v0
		C38,156.9,33,161.8,27,161.8z"/>
	<path class="st1" d="M53.8,220.6L53.8,220.6c-6,0-10.9-4.9-10.9-10.9v0c0-6,4.9-10.9,10.9-10.9h0c6,0,10.9,4.9,10.9,10.9v0
		C64.7,215.7,59.8,220.6,53.8,220.6z"/>
	<path class="st1" d="M106.3,231.6L106.3,231.6c-6,0-10.9-4.9-10.9-10.9v0c0-6,4.9-10.9,10.9-10.9h0c6,0,10.9,4.9,10.9,10.9v0
		C117.2,226.7,112.3,231.6,106.3,231.6z"/>
	<path class="st1" d="M176.8,302.3L176.8,302.3c-6,0-10.9-4.9-10.9-10.9v0c0-6,4.9-10.9,10.9-10.9h0c6,0,10.9,4.9,10.9,10.9v0
		C187.8,297.4,182.8,302.3,176.8,302.3z"/>
	<path class="st1" d="M232.7,310.2L232.7,310.2c-6,0-10.9-4.9-10.9-10.9v0c0-6,4.9-10.9,10.9-10.9h0c6,0,10.9,4.9,10.9,10.9v0
		C243.6,305.3,238.7,310.2,232.7,310.2z"/>
	<path class="st1" d="M342.9,289.9L342.9,289.9c-6,0-10.9-4.9-10.9-10.9v0c0-6,4.9-10.9,10.9-10.9h0c6,0,10.9,4.9,10.9,10.9v0
		C353.9,284.9,348.9,289.9,342.9,289.9z"/>
	<path class="st1" d="M426.1,230.8L426.1,230.8c-6,0-10.9-4.9-10.9-10.9v0c0-6,4.9-10.9,10.9-10.9h0c6,0,10.9,4.9,10.9,10.9v0
		C437.1,225.8,432.1,230.8,426.1,230.8z"/>
	<path class="st1" d="M501.9,182.2L501.9,182.2c-6,0-10.9-4.9-10.9-10.9v0c0-6,4.9-10.9,10.9-10.9h0c6,0,10.9,4.9,10.9,10.9v0
		C512.8,177.3,507.9,182.2,501.9,182.2z"/>
	<path class="st1" d="M589.8,358.9L589.8,358.9c-6,0-10.9-4.9-10.9-10.9v0c0-6,4.9-10.9,10.9-10.9l0,0c6,0,10.9,4.9,10.9,10.9v0
		C600.8,354,595.8,358.9,589.8,358.9z"/>
	<path class="st1" d="M554.1,256.8L554.1,256.8c-6,0-10.9-4.9-10.9-10.9v0c0-6,4.9-10.9,10.9-10.9h0c6,0,10.9,4.9,10.9,10.9v0
		C565,251.9,560.1,256.8,554.1,256.8z"/>
	<path class="st1" d="M545.1,166.4L545.1,166.4c-6,0-10.9-4.9-10.9-10.9v0c0-6,4.9-10.9,10.9-10.9l0,0c6,0,10.9,4.9,10.9,10.9v0
		C556,161.5,551.1,166.4,545.1,166.4z"/>
	<path class="st1" d="M508.8,127.5L508.8,127.5c-6,0-10.9-4.9-10.9-10.9v0c0-6,4.9-10.9,10.9-10.9l0,0c6,0,10.9,4.9,10.9,10.9v0
		C519.8,122.5,514.8,127.5,508.8,127.5z"/>
	<path class="st1" d="M437.1,168.2L437.1,168.2c-6,0-10.9-4.9-10.9-10.9v0c0-6,4.9-10.9,10.9-10.9h0c6,0,10.9,4.9,10.9,10.9v0
		C448,163.2,443.1,168.2,437.1,168.2z"/>
	<path class="st1" d="M404.3,195.6L404.3,195.6c-6,0-10.9-4.9-10.9-10.9v0c0-6,4.9-10.9,10.9-10.9h0c6,0,10.9,4.9,10.9,10.9v0
		C415.2,190.7,410.3,195.6,404.3,195.6z"/>
	<path class="st1" d="M357.8,212.3L357.8,212.3c-6,0-10.9-4.9-10.9-10.9v0c0-6,4.9-10.9,10.9-10.9h0c6,0,10.9,4.9,10.9,10.9v0
		C368.7,207.4,363.8,212.3,357.8,212.3z"/>
	<path class="st1" d="M308.7,225.8L308.7,225.8c-6,0-10.9-4.9-10.9-10.9v0c0-6,4.9-10.9,10.9-10.9h0c6,0,10.9,4.9,10.9,10.9v0
		C319.7,220.9,314.8,225.8,308.7,225.8z"/>
	<path class="st1" d="M262.6,245.8L262.6,245.8c-6,0-10.9-4.9-10.9-10.9v0c0-6,4.9-10.9,10.9-10.9l0,0c6,0,10.9,4.9,10.9,10.9v0
		C273.6,240.9,268.7,245.8,262.6,245.8z"/>
	<path class="st1" d="M214.3,237.9L214.3,237.9c-6,0-10.9-4.9-10.9-10.9v0c0-6,4.9-10.9,10.9-10.9h0c6,0,10.9,4.9,10.9,10.9v0
		C225.3,233,220.3,237.9,214.3,237.9z"/>
	<path class="st1" d="M169.2,211.8L169.2,211.8c-6,0-10.9-4.9-10.9-10.9v0c0-6,4.9-10.9,10.9-10.9h0c6,0,10.9,4.9,10.9,10.9v0
		C180.1,206.9,175.2,211.8,169.2,211.8z"/>
	<path class="st1" d="M130.1,181.8L130.1,181.8c-6,0-10.9-4.9-10.9-10.9v0c0-6,4.9-10.9,10.9-10.9h0c6,0,10.9,4.9,10.9,10.9v0
		C141,176.8,136.1,181.8,130.1,181.8z"/>
	<path class="st1" d="M159.4,143.8L159.4,143.8c-6,0-10.9-4.9-10.9-10.9v0c0-6,4.9-10.9,10.9-10.9h0c6,0,10.9,4.9,10.9,10.9v0
		C170.3,138.9,165.4,143.8,159.4,143.8z"/>
	<path class="st1" d="M98,141.9L98,141.9c-6,0-10.9-4.9-10.9-10.9v0c0-6,4.9-10.9,10.9-10.9h0c6,0,10.9,4.9,10.9,10.9v0
		C108.9,137,104,141.9,98,141.9z"/>
	<path class="st1" d="M100.6,97.1L100.6,97.1c-6,0-10.9-4.9-10.9-10.9v0c0-6,4.9-10.9,10.9-10.9h0c6,0,10.9,4.9,10.9,10.9v0
		C111.5,92.2,106.6,97.1,100.6,97.1z"/>
	<path class="st1" d="M132.4,58.2L132.4,58.2c-6,0-10.9-4.9-10.9-10.9v0c0-6,4.9-10.9,10.9-10.9h0c6,0,10.9,4.9,10.9,10.9v0
		C143.3,53.3,138.4,58.2,132.4,58.2z"/>
	<path class="st1" d="M183.4,31.2L183.4,31.2c-6,0-10.9-4.9-10.9-10.9v0c0-6,4.9-10.9,10.9-10.9h0c6,0,10.9,4.9,10.9,10.9v0
		C194.3,26.3,189.4,31.2,183.4,31.2z"/>
	<path class="st1" d="M596.6,219.3L596.6,219.3c-6,0-10.9-4.9-10.9-10.9v0c0-6,4.9-10.9,10.9-10.9h0c6,0,10.9,4.9,10.9,10.9v0
		C607.5,214.4,602.6,219.3,596.6,219.3z"/>
	<path class="st1" d="M554.5,426.6L554.5,426.6c-6,0-10.9-4.9-10.9-10.9v0c0-6,4.9-10.9,10.9-10.9l0,0c6,0,10.9,4.9,10.9,10.9v0
		C565.4,421.6,560.5,426.6,554.5,426.6z"/>
	<path class="st1" d="M501.2,421.1L501.2,421.1c-6,0-10.9-4.9-10.9-10.9v0c0-6,4.9-10.9,10.9-10.9h0c6,0,10.9,4.9,10.9,10.9v0
		C512.1,416.2,507.2,421.1,501.2,421.1z"/>
	<path class="st1" d="M625.7,288.6L625.7,288.6c-6,0-10.9-4.9-10.9-10.9l0,0c0-6,4.9-10.9,10.9-10.9l0,0c6,0,10.9,4.9,10.9,10.9l0,0
		C636.6,283.7,631.7,288.6,625.7,288.6z"/>
</g>
<g id="ART:_Artwork" class="st2">
	<g>
		<path class="st3" d="M199.8,213.8L199.8,213.8c0.5-0.5,0.6-0.5,1.7-0.9c1.3-0.5,3.5-1.3,7.9-3.4c3-1.5,5.2-2.6,6.8-3.5
			c3-1.6,3.8-2,5.5-2.1c0,0,0.2,0,0.4,0c1.3,0,5.9,0.2,8.8,3.4c3.5,3.8,2.5,9.9,1.7,15.4c-1.3,7.9-5,13.3-6.5,15.2
			c-3.3,4.2-8.3,10.6-15,10.3c-8.9-0.4-13.8-12.3-14-12.8C193.9,227.6,195.1,217.9,199.8,213.8z M313.4,196.3c2.3,0.2,7,0.7,9.5,4
			c4.1,5.4,0.1,15.2-3.9,20.1c-4.2,5.2-13,11-19.4,7.9c-6.8-3.3-6.7-14.2-6.7-14.3c0.1-6,3.1-10.1,4.4-11.6l0,0
			c4.8-5.5,11.4-6.2,14.5-6.2C312.6,196.3,313.2,196.3,313.4,196.3z M344,193.8c2.1-3.4,6.6-4.1,10.2-4.6c1.6-0.2,3.7-0.6,5.9-0.6
			c3.5,0,7.4,0.8,10,3.9c3.2,3.9,3.5,10.3,0.5,15.2c-2.8,4.7-8.1,7.4-13.5,6.9c-2.6-0.2-4.8-1.2-6.6-2.5c-1.7-1.9-3.2-4.1-4.5-6.1
			c-0.7-1.1-1.4-2.1-2.1-3C343,200.4,342.2,196.8,344,193.8z M248.4,226.5c0.9-7.3,4.8-12.5,7.2-15c2.3-1.3,4.8-2.2,7.3-2.6
			c4.9-0.7,8.7-0.2,11.4,1.5c7.7,5,5.2,19.7,5,20.4c-0.7,3.9-2.3,13-9.7,16c-6.9,2.8-14.6-0.7-18.4-5.4
			C247.2,236.2,248,229.7,248.4,226.5z M119.9,107.4c-1.1,0-2.4-0.1-3.4,0.1c-1.6-0.2-3.7-0.4-6.3-0.8c-2.4-0.3-5.1-0.7-8.4-1.1
			c-4.4-0.5-8.1-0.9-11.4-1.2c-12.1-1.2-15.3-1.7-17.3-4.6c-1.4-2.1-2.3-5.5-2.7-10.1c0-0.5-0.4-5.2,0.7-8.8
			c2.4-8.3,13.3-14.2,22.9-15.7c1.6-0.3,15.7-2.2,27.2,7.6c2.5,2.1,7.5,6.4,9.5,12.8c0,0.3,0.1,0.7,0.1,1c0.1,1.4-0.1,2-0.6,3.5
			c-0.6,1.9-1.4,4.6-2.2,10.5c-0.1,0.9-0.2,1.6-0.3,2.2c0,0.1,0,0.2,0,0.3c-1,1.3-2.1,2.4-3.5,3.3c-0.6,0.4-1.2,0.7-1.9,0.9
			C121.6,107.4,120.7,107.4,119.9,107.4z M135.9,70.4c-0.6-0.5-0.8-0.8-1.2-1.2c-0.4-0.6-1-1.2-2.3-2.4c-4.7-3.9-12.1-5.7-17.5-6.5
			c-3.5-0.5-6.1-0.7-8.3-0.8c-3.8-0.2-5.2-0.4-6.9-1.8c0,0-2.1-1.7-3.1-4c-3.6-8.2,3.6-22.6,14.6-29.1c17.8-10.6,40.1,4.7,41,5.4
			c3.4,2.4,8.7,6.8,12.2,13.1c0.3,0.9,0.7,1.7,1.1,2.5c0.2,0.5,0.5,0.9,0.8,1.5c0.5,1.3,0.9,2.7,1.3,4.1c0.1,0.6,0.3,1.2,0.4,1.9
			c0.2,3.5-1.2,6.4-2.2,8.4c-0.7,1.4-4.4,8.5-12,11.2C148.4,74.4,140.8,74.3,135.9,70.4z M89.4,112.9c1.3-0.3,3.3-0.8,4-2.5
			c2.3,0.2,4.8,0.5,7.7,0.8c3.3,0.4,6,0.7,8.4,1c1.6,0.2,2.9,0.4,4.2,0.5c0.7,1.2,2.1,2.1,3.6,3.1c1.8,1.3,4.3,3,7,5.6
			c2.8,2.6,4.8,4.6,6,7.7c0.7,1.8,2.2,6.5,0.4,10.8c-1,2.4-2.7,3.9-4,5.1c-0.7,0.6-1.5,1.3-2,2.2c-0.2,0-0.4,0-0.6,0
			c-7.3,0.4-13.1,0.7-18.9,4.4c-1.5-1.2-3.9-1.1-6.4-1.1c-1.7,0-3.6,0-5.7-0.2c-4.2-0.4-14.1-1.3-18.4-7.8c-3.1-4.7-5.1-12.9-3-17.3
			c1.9-3.8,6.3-6.9,8.1-8.2C84.2,114.2,87.5,113.4,89.4,112.9z M169,179.9c-0.8,0.1-1.7,0.3-2.5,0.5c0.2-0.4,0.4-0.8,0.5-1.3
			C167.7,179.5,168.4,179.7,169,179.9z M145.5,190.6c-3.7,1.7-9.7,3.8-17.3,3.7c-11.9-0.1-20.6-3.4-25.8-10
			c-1.3-1.6-4.3-5.3-4.5-10.6c-0.5-9.7,8.7-16.1,9.8-16.8c4.6-3.1,8.9-3.4,16.7-3.9c3.1-0.2,6.2-0.3,9.3-0.3c8.2,0,16.1,1.2,22.1,7
			c0.7,0.7,1.6,1.7,2.5,2.7c0.2,0.3,0.4,0.6,0.5,0.9c1.3,2.5,1.6,4.4,1.9,6.3c0.2,1.7,0.5,3.5,1.6,5.3
			C160.9,183.4,150.2,188.4,145.5,190.6z M147.9,195.7c0.6-0.3,1.4-0.6,2.1-1c-0.5,1.6-1,3-2.4,4.2c-0.9,0.8-1.6,1-2.3,1.3
			c-1,0.4-2.4,0.9-3.4,2.5c0,0,0,0,0,0.1c-0.4-0.8-1-1.6-1.7-2.5c-0.5-0.6-1-1.1-1.6-1.5C142.5,198,145.6,196.8,147.9,195.7z
			 M191.6,197.1c1.1,7.4-7.7,13.8-11.1,16.2c-4.1,2.9-14.5,9.3-23.6,5.2c-4.7-2.1-8.5-6.8-9.8-10.3c-0.5-1.4-0.5-2.2-0.4-2.5
			c0.1-0.1,0.4-0.2,0.6-0.2c1-0.4,2.4-0.9,4-2.3c2.9-2.5,3.7-5.4,4.4-7.7c0.2-0.7,0.4-1.4,0.7-2c2.3-5.3,11-8.5,17.7-8.1
			C180.8,185.7,190.5,190,191.6,197.1z M229.3,28.2c-0.9,0.8-1.6,1.4-2.2,1.9c-2.1,1.8-3.4,2.9-4.8,5.2c-1.6,2.6-1.8,4.7-2.1,6.7
			c-0.2,1.6-0.4,3-1.2,5.1c-1.1,2.7-2,4.3-3.7,7.1c-0.8,1.3-1.7,2.8-2.8,4.7c-3.4,5.9-4.5,8.4-5.3,10.1c-0.6,1.4-0.9,1.9-2,3.4
			c-2,2.7-3.7,4.2-5.3,5.6c-2.1,1.9-4.3,3.9-6.7,8.1c-1.2,2.1-1.6,3.3-2,4.4c-0.3,0.9-0.6,1.8-1.6,3.6c-2.4,4.4-4.7,6.6-6.7,8.5
			c-1.9,1.8-3.7,3.5-4.8,6.4c-1.6,4.1-1.1,8.4,6.4,23.9c7.5,15.7,11.3,23.5,16.2,28.7c7.4,7.8,14.6,11,27.7,16.8
			c11.4,5.1,20.9,7.7,36.6,12c6.5,1.8,11.9,3.1,16.1,4.2c-10.5-0.1-25.7-1-40.3-2.6c-30.4-3.4-34.7-7.6-36.5-9.4
			c-0.3-0.3-0.6-0.6-0.9-0.9c-2.6-2.7-6.9-7.2-13.4-7.7c-0.5,0-0.9-0.1-1.3-0.1c-2,0-3.5,0.4-5,0.8c-1.7,0.5-3.5,0.9-6.4,0.8
			c-3.1-0.1-6.7-0.2-9-2.2c0.1-5.6-2.5-10.4-5.2-13.8c-2.6-4.2-6.5-7.6-11.4-10c-4.8-2.3-10.3-3.4-16.4-3c-0.6,0-1.2,0.1-1.7,0.1
			c0.9-1.1,1.8-2.4,2.5-4.1c2.6-6,0.9-12.1-0.4-15.2c-1.7-4.3-4.3-6.8-7.4-9.7c-1.9-1.8-3.7-3.2-5.2-4.4c0.1,0,0.3-0.1,0.4-0.1
			c2.9-0.2,6-0.9,8.2-3.5c1.1-1.3,1.5-2.5,1.7-4.2c2.9-4.5,4.1-9.9,4.1-14.1c0-2.5-0.4-4.8-1-6.9c-0.5-2.9-1.6-5.5-2.9-7.6
			c7.6,3.1,14.9,3.7,21.2,1.8c0.3-0.1,0.6-0.2,1-0.3c0.1,0,0.2,0,0.2-0.1c4.1-1.3,14-5.3,17.2-15.2c1.3-4,1.1-7.6,0.6-10.3
			c0-0.4-0.1-0.8-0.1-1.2c-0.2-1.8-0.7-3.4-1.3-4.8l0.2,0.1c8.6,4.8,14.2,8,20.2,8.2c7.2,0.3,14.7-3.7,18.3-9.6
			c0.7-1.2,1.3-2.5,1.7-3.8c0.3-0.6,0.6-1.1,0.8-1.7c2.4-5.7,1.6-11,0.4-15.1c0.7,0.2,1.6,0.6,2.3,0.9
			C219.5,27,223.9,28.9,229.3,28.2z M154.3,16c0.2-1.3,0.7-2.1,2-4.1l0,0c5.2-8.3,15-10.3,16.1-10.5c10.9-2,19.6,4.6,23.8,7.7
			c2.6,2,8,6,10.9,13.4c0.3,0.7,0.6,1.4,0.9,2.3c0,0.4,0.1,0.9,0.2,1.3c0.2,1.2,0.4,2.7,0.4,4.8c0,1.9,0,5.3-1,8.4
			c-2.8,4.9-8,7.8-12.4,8.5c-6.2,1-10.9-2.2-21.2-9.4C165.6,32.6,152.9,23.8,154.3,16z M24.7,40.6c-1.3-5.8,2.2-11.2,5.5-16.4
			c4.7-7.4,10.9-11.5,13.3-12.8c4.1-2.3,18.2-9.5,29.6-3.3c4,2.2,6.9,5.1,8.5,8.7c1.8,4,1.6,7.6,1.5,9.5
			c-0.5,9.2-6.1,18.6-14.3,24.1c-1.2,0.7-12.4,7.9-26,4.2C39,53.6,26.7,49.5,24.7,40.6z M1.5,100c-2-8.7,2.7-16.2,5.5-20.7
			C9.1,76,15,68,25.2,64.7c2.8-0.9,5.8-1.4,8.6-1.4c0.4,0,0.9,0,1.4,0c3.8,0,9.5,0.4,14,4.4c3.8,3.4,4.9,8,5.4,10.3
			c2,8.5-1.7,15.5-3.7,19.3c-3.5,6.7-13.3,22-28.3,20.5C12.7,116.9,3.6,109.2,1.5,100z M8.4,165c-4.2-11.1,0.8-21.3,1.8-23.2
			c1.8-3.3,5-7.8,10.7-11.1l0,0c1.6-0.9,6.3-3.6,12.8-3.6c0.2,0,0.4,0,0.6,0c7.2,0.2,12.2,2.2,14.7,5.8c0.8,1.2,1.7,3.2,1.9,8
			c0.2,6.1,0.6,18.9-9,28.6c-11.2,11.3-19.9,9.6-22.3,8.8C12.5,175.8,9.6,167.9,8.4,165z M38.1,221.9c-1-3.8-3.4-12.8,0.3-22.7
			c1.5-4.1,4.1-11,11.1-14.2c1.8-0.8,8.1-3.3,13.7-0.4c4.9,2.5,6.6,8,8.4,14.4c1.5,5.1,4.6,15.6-0.3,26.8
			c-1.5,3.5-5.6,12.9-13.7,14.5c-4.1,0.8-7.8-0.7-9.5-1.7C41.6,235.2,39.6,227.8,38.1,221.9z M108.4,292
			c-5.9-1.5-20.2-6.4-24.8-19.8c-0.8-2.2-3.1-9,0-16.5c0.7-1.6,4.4-10,13.1-12.5c10.7-3.1,19.6,5.1,21.2,6.8
			c6.1,6.1,6.9,13.8,7.5,19.9c0.4,4.6,1.8,18.5-4.9,22.5C117.3,294.2,113.4,293.2,108.4,292z M186.4,315.1
			c-16.1,2.7-28.5-10-29-10.6c-2.3-2.4-7.2-7.5-7.9-15.2c-0.6-6.2,0.7-10.9,3.9-13.8c2.9-2.8,6.6-3.1,10.9-3.6
			c11.3-1.1,20.2,4,21.8,5.1c2.3,1.4,9.2,5.8,12.7,14.4c1.4,3.6,4.5,11,1,16.8C196.7,313.4,190,314.5,186.4,315.1z M206.4,320
			c-3.6-0.9-5.5-2.2-6.1-3.1c0.3-0.3,0.9-0.7,1.3-1.1c1.8-1.4,4.4-3.4,5.7-6.9c0.5,1.1,1,2.2,1.6,3.1c2.7,4.5,6.2,6.9,8.6,8.6
			C215,320.9,210.7,321,206.4,320z M262.5,309c-0.9,3.9-5.5,6.1-9.9,8.3c-4.2,2.1-12,5.9-21.7,3.3c-3.3-0.9-6.1-2.1-8.3-3.6
			c-0.5-0.4-1.1-0.8-1.6-1.1c-3-2.3-4.9-4.8-6.1-7c-3.9-7-3.9-15.9,0-22.8c1.1-2,3.5-6.1,8-7.8c5-1.8,10,0.5,16.3,3.4
			c4.4,2.1,12.7,6.9,18.9,16.3C261.4,303.1,263.2,306,262.5,309z M310.9,296.6c-0.5,2.9-1.2,7.2-4.1,10.9
			c-5.3,6.5-15.7,7.6-23.1,5.7c-2.2-0.5-8-2-12.2-7.3c-7.2-9.1-2.8-21.1-2.7-21.2l0,0c2.8-7.4,7.3-10.5,10.6-11.8
			c1.9-0.7,3.7-1,5.5-1c4.1,0,7.9,1.5,11.7,3c5,1.9,11.2,4.4,13.8,10.3C312,289.3,311.4,293.4,310.9,296.6z M362,270.1
			c2.8,5.3,0.8,12.6-2.2,17.2c-6.2,9.3-21.1,12.4-31.3,6.6c-5.6-3.2-11.5-10.3-11.2-18.3c0.2-4.7,2.5-8.3,3.9-10.4l0,0
			c1.5-2.3,5.4-8.3,11-9c0.3,0,0.6-0.1,0.8-0.1c1.7,0,3.4,0.7,8.3,3C351.8,264,361,268.2,362,270.1z M359.9,231.5
			c-2,2.5-0.7,5.5,0.4,8.1c1.2,2.6,2.5,5.6,1.8,9.3c-0.9,4.4-2.8,6.4-7.1,7.4c-3.4,0.8-7-0.9-11-3c-4.4-2.2-9.5-4.7-15.2-3.7
			c-4,0.7-10,3.8-15.7,14.6l-0.1,0.2c-1.9,3.5-2.3,7.1-2.1,10.1l0,0c-6.7-7.5-21.1-11.8-30.9-9.3c-8.5,2.2-14.5,10.1-16.7,13.4
			l-0.1,0.1c-2.7,4-3,8-3.3,10.7c0,0.3-0.1,0.7-0.1,1c-0.6-0.6-1.3-1.4-1.9-2.1c-0.8-1-1.7-2-2.8-3.2c-7.9-8.1-21.1-16.6-32.2-14
			c-6.5,1.6-11.8,6.9-15.2,15.3l-0.1,0.2c-0.8,1.7-1.4,3.4-1.8,5.1c-3.6-8.9-9.9-16.4-11.6-17.6c-8.7-6.7-32.9-13.2-44.6-4.8
			c-5.5,4-6.1,12.4-6.5,19.2c-0.1,1.9,0,3.4,0.2,4.5c0,0.2,0,0.5,0.1,0.6L128,293c3.2-4.6,7.2-12.2,5.5-21.6
			c-5.6-29.9-16.4-34-29.9-36.3c-4.4-0.7-11,1.3-16.6,5.2c-2.9,2-5.2,4.2-6.6,5.7c-2.4-1.2-6.6-3-11.3-4c1.4-1,2.7-2.1,3.9-3.3
			c10-10.8,9.5-29.4,6.6-39.3l-0.3-0.9c-1.8-6.3-5.5-19.4-16.1-21.9c-6.9-1.7-18.5,0.7-23.6,6.4c-1.7,1.8-2.8,3.9-3.9,5.8
			c-0.9,1.5-1.6,2.9-2.5,3.8c-4.3-2.1-8.3-4.4-11.1-6.3c5.8-0.3,14.3-2,20.7-8l0.8-0.7c3.7-3.4,9.3-8.6,13-17.6
			c5.4-13.4,4.4-20.4,1-27.5c-3-6.3-9.6-9.4-12.4-10.8c-1.7-0.8-3.2-1.4-4.6-1.8c2.9-2.2,6.5-5.3,10-9c4.4-4.8,6.7-10.2,8.3-14.2
			l0.5-1.2c3.7-8.7,2.6-15.4,1.1-20.8c-1.2-4.1-3.1-9.5-5.9-12.6c4-0.2,8.4-1.2,12.8-3.6c6.9-3.8,14.2-10.2,17-14.8
			c3.9-6.5,7.1-17.4,5.1-26.1c-1.2-5.1-3.3-8.6-5.4-11c19-4.9,50.7-8.5,62,6.9c1.2,1.6,1.8,4.3,2.1,6.7c-8.8-3.6-28.9-10-42.7-1.4
			c-8.1,5-19.3,22-17.4,32.7c0.6,3.2,1.9,5.8,3.2,7.6c-3,0.9-7,2.2-10.9,3.8c-7.5,3.1-14,9.9-16.4,17.3c-0.7,2.1-2.3,15.5,2.7,23.1
			c3.3,5.1,8.5,6.9,13.2,7.5c-1,0.6-2,1.2-3.2,2c-3.5,2.4-7.8,5.8-10,10.3c-3.2,6.4-0.8,16.7,3.3,22.9c5.8,8.7,17.6,9.8,22.6,10.3
			c2.5,0.2,4.6,0.2,6.3,0.2c0.1,0,0.1,0,0.2,0c-1.6,1.5-3.6,3.4-5.2,6.2c-4.3,7.5-4.1,18,0.5,25c5.1,7.8,14.5,10,24.6,12.2
			c3.7,0.8,6.6,1.2,9,1.5c4.6,0.5,6.3,0.8,8,2.7c1.4,1.6,1.6,2.9,2,4.9c0.4,2.1,0.9,4.7,2.9,7.8c5.4,8.5,17.6,13.7,27.7,11.9
			c3.6-0.7,6-2,7.7-3c1.8-1.1,2.2-1.2,2.9-1c1.5,0.4,2.1,2.4,3.2,6.6c1,3.9,2.2,8.7,5.5,13.5c8.3,12.1,27.3,18.8,42.4,14.9
			c4.9-1.3,7.4-3.6,9.4-5.4c2.1-2,3.4-3.1,7.2-3.2h0.1c3.1,0,7,1.2,11.2,2.6c7.3,2.3,15.5,4.9,21.9,1.4c4.8-2.5,6.7-7.3,8.3-11.2
			c1.4-3.5,2.4-5.6,4.1-5.8c0.5-0.1,0.6,0,1.9,0.8c1.1,0.7,2.6,1.8,5.1,2.6c11.4,4,26.2-0.9,29.9-9.9c0.6-1.5,0.8-2.8,0.9-3.7
			c2.6,0.6,8.6,5.6,11,7.6c4.3,3.6,6.5,5.4,8.7,3.3c2-2,0.4-4.2-1.2-6.3c-1.5-2.1-3.9-5.2-5.6-9.1c-2.7-6-3.4-12.2-3.2-15.6
			c0.3,0.6,0.6,1.2,0.9,1.7c1.2,2,3.2,4.8,6.1,7c3,3.1,6.7,5.7,11.6,5.8c3.2,0.1,5.3-0.9,7.3-1.9c1.6-0.8,3.2-1.5,5.9-2.1
			c10.6-2.3,23.9,1.4,25.4,7c0.7,2.6-0.9,7-4.3,9.1c-4.9,3.1-12.7,0.1-19-2.2C367.9,230,362.7,228,359.9,231.5z M367.7,244.1
			c-0.4-2.8-1.5-5.1-2.3-6.8c-0.3-0.6-0.6-1.4-0.8-2c1.6,0.1,4.9,1.4,7.2,2.3c1.2,0.5,2.5,0.9,3.8,1.4
			C373,239.9,370,241.3,367.7,244.1z M392,259.7c-4.2,4.3-13.2,8-18.6,3.4c-3.7-3.2-4.7-9.8-2.2-14.1c1.9-3.3,5.5-4.4,8.7-5.4
			l-0.9-2.7l-0.3-0.9l0,0l0.3,0.9l0.9,2.7c7.8-2.5,13.5-2.2,15.8,0.6C398.6,247.7,396.1,255.4,392,259.7z"/>
		<path class="st3" d="M431.8,230.4c-3.3,3-9.9,7-14,4.7c-2.1-1.1-2.9-3.6-3.4-5.1c-2.4-6.9,1.9-13.7,2.4-14.4
			c2.8-4.1,8.8-9.6,14.1-7.9c3.9,1.3,6.2,6,6.7,9.8C438.2,222,436.2,226.3,431.8,230.4z"/>
		<path class="st3" d="M474.4,196.5c-1.9,5.4-8.6,7.8-13.9,7.2c-3.4-0.4-10.2-2.6-11.3-8.3c-1-5.1,3.2-9.4,3.8-9.9
			c1.6-1.3,4.1-2.8,7.5-3.3c3.3-0.4,8-0.2,11.3,3.4C474.1,188.1,475.8,192.5,474.4,196.5z"/>
		<path class="st3" d="M421.2,157.2c0.7-6.8,8.6-10.2,12.5-11.8c7.4-3.2,12.8-3.4,16-0.8c2.3,1.9,3.5,5.4,3.3,10.3
			c-0.2,6.4-4.2,10.7-5.4,11.8c-0.7,0.7-7.4,6.7-15.4,4.5C426.4,169.5,420.6,163.5,421.2,157.2z M396,199.6
			c-7.9-3.8-10.8-13.4-9.5-20.5c0.5-2.5,2.6-9.1,6.7-10.4c1-0.3,1.5-0.2,3.8,0.7c1.6,0.6,3.7,1.4,6.9,2.1c5.2,1.2,8.7,1.3,11.3,1.4
			c2.8,0.1,3.7,0.1,4.8,1.1c3.5,3.2,2.3,10.2,1.9,12.3c-1.7,8.2-8.8,12.2-9.6,12.6C410.9,199.7,403.5,203.2,396,199.6z"/>
		<path class="st3" d="M456.3,126.5L456.3,126.5c0.2-0.4,0.3-0.4,1-0.9c0.9-0.6,2.1-1.4,3.6-3.1c1.2-1.4,1.7-2.4,2-3.1
			c0.3-0.6,0.3-0.6,0.6-0.8c0.2-0.2,0.2-0.2,1.7-0.4c0.9-0.1,2.2-0.3,4-0.7c0.9-0.2,1.7-0.3,2.4-0.5c1.5-0.3,2.3-0.4,2.9-0.4
			c0.3,0,0.6,0,1,0.1c0.1,0,0.1,0,0.1,0c0.1,0,0.1,0.1,0.3,0.1c0.4,0.1,1,0.4,2.4,0.9c1.8,0.6,3,1,3.9,1.2c1.2,0.4,1.5,0.4,2,0.7
			c0.6,0.4,1.9,1.4,2.3,2.4c0.9,2.4-2.5,7-6.1,9.7c-6.6,4.9-14.6,3.5-18.9,2.1c-1.8-0.6-3.7-1.3-4.7-3
			C456,129.8,455.6,127.8,456.3,126.5z"/>
		<path class="st3" d="M672.8,259.4c0.1,0.3,0.2,0.6,0.3,0.9c0.4,1.4,1.3,2.9,3.3,6.2c1.2,2,2.2,3.3,2.8,4.3
			c1.1,1.6,1.2,1.7,1.2,2.2s0.1,1.7-0.5,2.8c-0.4,0.8-0.9,1.1-2.4,1.8c-1.4,0.7-3.4,1.6-5.7,3.6c-0.9,0.8-1.4,1.4-1.9,1.9
			c-0.7-0.8-2-2.7-4.5-6.7c-4.9-8.1-5.3-9.9-5.3-11.7c0-1.7,0.2-2.8,0.4-3.4c0.1,0.1,0.3,0.1,0.4,0.2c1.4,0.7,3.4,1.8,6,1
			c1.4-0.4,2.2-1.2,2.7-1.7c0.3-0.4,0.6-0.6,1.3-0.9c0.9-0.4,1.5-0.6,1.9-0.6C672.8,259.3,672.8,259.3,672.8,259.4z M663.1,232.4
			c3.1,5.1,5.2,8.1,6.5,10.1c0.7,1,1.4,2,1.6,2.4c0,0,0,0,0,0.1c-0.6,2.4-2.2,4.4-4.5,5.8c-2.5,1.4-5.4,1.8-7.6,1.1
			c-1.5-0.5-2.6-1.9-5.4-5.8c-5-7-7.1-11.4-6.3-13c0.2-0.1,0.5-0.2,0.8-0.2c1.3-0.3,3.3-0.9,6.5-2.4c1.4-0.7,2.4-1.2,3.2-1.7
			c1.3-0.7,1.6-0.9,1.8-0.8c0.9,0.1,1.9,1.9,3.2,4.1L663.1,232.4z M640.3,202.5c0.6-1.3,2.9-2.3,5.1-2.3c0.5,0,1,0,1.4,0.2
			c1.8,0.4,4.9,5.6,8.7,12.1c2.9,4.9,3,5.8,2.8,6.7c-0.4,1.9-2.1,3.9-3.6,4c-0.4-0.1-2.4-1.2-7.5-8.5
			C643.4,209.4,639.6,203.9,640.3,202.5z M642.5,217.9c3,4.3,5.3,6.9,7.2,8.6c-1.3,0.5-2.2,0.7-2.9,0.9c-1,0.3-1.9,0.5-2.8,1.2
			c0.1-0.8,0.2-1.8,0.1-2.9c-0.3-3.6-1.7-5.6-3.3-7.7c-1-1.4-2.2-3-3.3-5.5c-0.7-1.7-1.1-2.9-1.3-4
			C637.7,211.1,639.8,214.1,642.5,217.9z M568,147.2c0.8-1,2-1.3,2.5-1.4c3.5-1,7,2,7.4,2.3c0.8,0.7,1,1.1,1.4,1.9
			c0.5,1,1.3,2.5,3.3,4.4c1.4,1.3,2.6,2.1,3.4,2.7c0.4,0.2,0.8,0.6,1,0.7c0.1,0.9-2.1,3.9-5.2,5c-4.3,1.4-9.3-1.4-11.8-4.8
			C567.5,154.6,566.1,149.5,568,147.2z M534.7,122.1c0.8-3.4,1.3-5.1,2-5.5c0.4-0.2,1.3,0.1,3.5,1c1.9,0.8,4.5,1.8,8.3,2.9
			c2,0.6,3.4,0.9,4.5,1.1c2.1,0.5,2.2,0.5,2.5,0.9c1.7,1.9,1.7,5.8,0,8.4c-0.3,0.5-2,2.9-4.7,3.5c-1.2,0.2-2,0-3.6-0.6
			c-1.3-0.5-3-1.1-5.3-1.3c-0.5-0.1-1.1-0.1-1.5-0.1c-2.7,0-4.5,0.8-5.8,1.3c-0.2,0.1-0.5,0.2-0.7,0.3
			C533.5,133.3,532.8,130.1,534.7,122.1z M525.2,127.9c-3.7,3.7-12.4,0.6-16.2-0.7c-2.5-0.9-7.2-2.6-10.4-7.1c-2.2-3.1-3-5.4-2.3-7
			c0,0,0.3-0.7,2.7-2.5c3.6-2.6,5.8-4.2,9-4.7c4.8-0.8,8.8,1.5,10.2,2.3c1.6,0.9,6.5,3.7,8.1,9.3
			C526.5,118.3,528.2,124.8,525.2,127.9z M533,159.1c-1.9-5.2-1.4-12.6,2.8-16c1.9-1.5,4.1-1.9,5.3-2c4.4-0.3,7.6,2.4,10,4.3
			c3.5,2.8,9.9,8.1,8.7,14.6c-0.8,4.7-5.5,8.9-10.8,9.8C542,171,535.3,165.3,533,159.1z M565.4,161.3c2.9,3.9,7.9,7,13.1,7.4
			c-1.5,1.2-3.2,2.5-5.6,3.3c-2.7,1-4.2,0.8-6.4,0.5c-2.4-0.3-5.3-0.6-9.9,0.6c-0.1,0-0.1,0-0.1,0
			C561,170.5,564.4,166.1,565.4,161.3z M577.2,211.3c-3.2-2.3-5.5-3.8-7.6-5.2c-1.8-1.1-3.3-2.1-5-3.4c-0.4-0.3-2-1.6-4.5-3.9
			c-7.5-6.9-13-11.9-12.5-14.3c0.1-0.8,1.3-3.6,10.5-6c3.5-0.9,5.6-0.7,7.8-0.4c2.5,0.3,5.1,0.6,9-0.8c3.8-1.4,6.2-3.4,8.2-5
			c2.1-1.8,3-2.4,4.4-2.3c1.4,0.1,2.4,1,4.3,2.9c0.3,0.3,0.7,0.7,1.1,1c4.3,4.1,6.9,5.4,10.1,7c2.8,1.4,6.4,3.2,12.6,7.8
			c8.5,6.3,12.4,9.3,14,13.7c0.7,1.8,0.8,3,0.9,4.5c0.2,2,0.3,4.3,1.9,7.9c1.3,3,2.7,5,3.9,6.5c1.3,1.8,2,2.8,2.2,4.8
			c0.1,1.6-0.2,2.4-0.7,3.6c-0.6,1.5-1.4,3.3-0.8,6.2c0.5,2.6,1.7,3.8,5.9,8.3c0.7,0.7,1.4,1.5,2.3,2.5c5.6,6,6.4,7.2,6.8,8.7
			c0.5,1.7,0.3,2.9-0.1,4.6c-0.1,0.7-0.3,1.6-0.4,2.5c-0.8,6.8,1.8,11.3,4.3,15.5c2.2,3.8,4.5,7.6,5.1,13.8c0.2,2.1,0.1,2.9-0.1,4.3
			c-0.2,1.7-0.5,4.1-0.4,9.7c0.1,1.9,0.1,3.5,0.2,5c0.2,3.5,0.3,5.9-0.2,9.5c-0.3,2.3-0.7,3.3-1,4.3c-0.4,1.1-0.8,2.2-1,4.5
			c-0.4,4.5,0.4,7.4,1.1,10c0.5,2,1,3.8,0.9,6.2c-0.1,1.5-0.3,1.6-1.3,2.4s-2.4,1.8-3.6,4c-3.6,6.7-4.3,12.3-5.1,17.7
			c-0.8,6.2-1.7,12.1-6.5,20c-0.7,1.2-2,2.8-3.5,4.7c-3.6,4.6-8.5,11-10.8,17.8c-2.9,8.3-3.7,10.5-17.4,22.4
			c-3.1,2.7-5.7,4.4-7.9,5.9c-3.2,2.2-5.8,3.9-7.8,7.2c-4.8,7.8-15,15.4-22.1,18.3c-3.7,1.5-7.8,3.2-11.7,4.9
			c-7.6,3.3-18.7,8-22.6,8.3c0.8-2.5,4.9-8.5,6.6-10.9c4.7-7,6.6-12,8.1-16.1c0.9-2.5,1.7-4.7,3-6.9c3.7-6.3,7.4-9.2,11.8-12.5
			c4.8-3.7,10.3-8,16.4-17.6c14.7-23.3,17.9-39.5,19.8-49.1c0.3-1.6,0.6-3,0.9-4.2c4.4-19.2,0.4-54.3-2.7-60.5
			c-2.2-4.5-1.7-8.2-0.7-16.3c0.6-4.9,1.4-11.1,1.8-19.7c0.6-10.7,0.8-16.1-0.1-19.7C600.9,228.9,587.2,218.8,577.2,211.3z
			 M592.9,292.9c0-0.6,0-1.1-0.2-1.5c1.7,1.3,2.9,2,4.1,2c-0.1,3.6,0.5,6.7,2.1,10.1c2.3,4.8,6.5,38.5,2.3,56.8
			c-0.3,1.3-0.6,2.8-0.9,4.4c-1.5,7.4-3.5,17.6-10.4,31.7c-2.3-0.8-5.3,0-8.7,0.8c-4.8,1.2-11.3,2.9-19,1.4
			c-9.8-1.8-19.5-9.1-25.3-18.6c1.2,1.1,2.4,1.8,3.7,1.8c0.4,0,0.8-0.1,1.2-0.2c0.6-0.2,1.1-0.6,1.4-1c0.8,0.8,2.3,1.6,4.7,1.6
			c0.1,0,0.1,0,0.2,0c4.8-0.1,11.3-3.4,15.2-7.6c4.7-5.1,4.7-11.6,4.7-23.4v-1.9c0-7.3,0-11.8-1.7-17.1c-1.6-5.1-5-15.5-13.2-17.9
			c4.7-2.9,9.9-5.7,16.3-8.3c3.2-1.3,6.3-2.3,9-3.3C586.7,299.9,592.7,297.9,592.9,292.9z M544.4,367.6c-0.5-1.3-1.2-2.1-1.7-2.7
			c-0.3-0.3-0.5-0.6-0.7-1c-0.9-1.5-0.8-2.8-0.3-5.8c0.4-2.7,0.8-6,0.2-10.5c-0.2-1.2-0.4-2.5-0.8-3.8c1.5,0.6,2.9,1,4.1,1.4
			c2,0.6,3.5,1.1,5,2.2c4,2.9,6.6,9.3,5.1,12.6c-0.6,1.5-2.1,2.2-4.4,3.3C548.8,364.2,546.3,365.3,544.4,367.6z M534.3,348.2
			c0.5-0.8,1.1-1.5,1.5-2c0.2,0.8,0.3,1.6,0.4,2.1c0.5,3.7,0.1,6.5-0.2,8.9c-0.4,3.2-0.9,6.2,1.1,9.5c0.5,0.8,0.9,1.3,1.2,1.7
			c0.4,0.5,0.6,0.8,0.9,1.4c0.5,1.5,0.3,3.1,0.1,4.3c-1-1.4-2.2-3.4-3.3-5.6C534.2,364.6,530.2,354.7,534.3,348.2z M547.7,373
			c1-2.4,2.8-3.3,5.6-4.6c2.7-1.2,5.7-2.6,7.2-6.1c2.8-6.4-1.4-15.4-7-19.4c-2.3-1.7-4.5-2.3-6.7-3c-2.5-0.8-5.1-1.5-8.5-4.1
			c-1.1-0.9-1.9-1.6-2.2-2.5c-0.7-2.2,1.3-4.9,2.2-6.2c0.6-0.9,6.3-8.6,12.4-7.5c5.9,1.1,8.8,10,10.1,14.3c1.4,4.4,1.4,7.7,1.4,15.4
			v1.9c0,10.7,0,16.1-3.2,19.5c-4.2,4.6-10.7,6.3-12.2,5.7C546.9,375.9,547,374.4,547.7,373z M533.2,338.8c0.5,0.5,1.1,1,1.6,1.4
			c-0.7,0.3-1.4,0.7-2.1,1.2c0,0,0,0,0-0.1C532.9,340.5,533.1,339.6,533.2,338.8z M527.2,340.4c-1.5,9-3.9,22.7,1.6,36.1
			c5.6,13.8,18.9,25.2,32.4,27.7c8.9,1.7,16.2-0.2,21.4-1.5c1-0.3,2.3-0.6,3.3-0.8c-2.5,4.9-7.9,14.5-15.5,21.1
			c-7.1,6.2-10.5,9.5-12.3,11.3c-0.3,0.2-0.5,0.5-0.7,0.7c-0.2-0.1-0.4-0.3-0.7-0.5c-1-0.7-2.7-1.9-6.1-4.1
			c-1.7-1.1-4.5-2.8-7.5-4.6c-3.9-2.3-5.8-3.2-7.1-3.8c-1.1-0.5-1.7-0.8-2.8-1.6c-1.9-1.3-7.1-4.8-9.5-10.7
			c-0.7-1.8-0.8-2.7-0.9-5.4c-0.1-1.7-0.2-4.1-0.6-7.5c-0.4-4-0.8-6-1.1-8c-0.3-1.5-0.5-3-0.8-5.4c-1.6-12.4-0.6-21.8,0-27.4
			c1-10,2.6-13.2,4-15.5c1.3-2,2.6-3.8,3.7-4.9C527.8,336.9,527.4,338.8,527.2,340.4z M543.1,261.6c-0.5-0.8-1.1-1.7-1.9-2.8
			c-3.7-5.2-7-8.4-12.5-13.8c-4.6-4.4-8.4-7.5-10.4-9.2c-4.2-3.4-7.3-5.9-11.6-8.8c-2.6-1.7-4.5-2.8-6.1-3.8c-3.1-1.8-3.5-2.1-3.8-3
			c-0.8-2.7,1.8-6.3,2.9-7.5c3.3-3.5,8.9-4.8,18.6-4.2c9.2,0.6,21.9,2.6,45.8,13.9c17.1,8.1,24.8,11.9,28.2,18.4
			c1.9,3.7,2.5,11.5,3.6,25.7c1,12.9,0.7,18.2,0.3,20.3c-1-0.8-2.4-2.1-4.1-3.6c-2-1.9-4.8-4.4-8.5-7.6c-7.6-6.6-10-8.4-13.8-9.3
			c-1.2-0.3-2.1-0.4-3-0.4c-0.7,0-1.3,0-2.1,0.1c-1.6,0.1-4,0.3-8.5,0.2c-7.6-0.2-9.2-0.8-10.4-1.5
			C544.8,264,544.4,263.5,543.1,261.6z M525.9,491.7c-3.7,1.6-9.7,2-13.4-0.5c-1.3-0.9-2.1-2-3.1-3.3c-1.5-2-3.2-4.3-6.9-5.7
			c-1.9-0.7-3.4-0.9-4.6-0.9c-0.4,0-0.7,0-1,0c-1.2,0-1.4,0-2-0.4c-1.3-1-2.4-4.2-4.1-9.2c-0.3-1-0.7-1.8-1-2.5
			c-0.2-0.4-0.4-0.8-0.5-1.1c1.5-4.8,0.8-8.2-6.6-13.7c-0.2-0.2-0.2-0.8-0.1-2.2c0.2-1.9,0.4-4.4-1-6.9c-2.1-3.6-3.9-4.6-5.6-5.5
			c-0.9-0.4-1.1-0.6-1.8-2.2c-0.2-0.5-1.1-4-0.5-8.5c0.8-5.5,0.5-10,0.3-12.9c-0.1-1.2-0.2-2.7-0.1-3c3.6-11.3,4.5-17.4,5.1-27.7
			c0.1-1.8,0.1-3.9,0-6.2c-0.1-4.5-0.2-9.5,0.8-14c1.6-7.2,3.9-14.4,6.9-21.4v-0.1c1.3-0.5,2.8-1.3,4.7-4.4c1.1-1.8,1.4-4.2,1.6-6.4
			c0.1-0.9,0.2-2.4,0.4-2.8c0.8-1.3,1.5-2.5,2-3.5c9.2-15.4,21.5-28.9,35.4-38.9c12.1-8.7,18.3-12.8,27.4-12.5
			c8.9,0.3,20.8,5.2,27.2,15.2c0.3,0.4,0.6,0.8,0.9,1.2c0.2,0.2,0.5,0.6,0.6,0.8c-0.6,1.3-6.6,3.4-10.5,4.7c-2.8,1-6,2-9.3,3.4
			c-12.6,5-21.1,11.1-28.6,16.5c-11.4,8.2-17.1,12.3-21.6,19.7c-7.4,12.1-6.4,24.4-5.1,41.5c1.6,21.3,2.6,34.2,12.6,44.3
			c5.1,5.1,10.9,7.8,15.6,10c5.5,2.6,8.7,4.2,9.2,7.3c0.3,1.9-0.4,3.1-2.7,6.7c-0.6,1-1.3,2-2,3.2c-6.9,11.5-9.4,21.1-11.2,28.1
			C531.4,486.2,530.3,489.8,525.9,491.7z M550.2,488.8c-0.1,0.4-0.2,0.7-0.2,1c-2,0.1-3.5,0.1-3.9,0c-2.3-0.3-5.1-0.7-5.5-1.7
			c-0.1-0.2-0.2-0.5-0.2-0.7c0.2,0,0.6-0.1,0.8-0.1c1.3-0.2,3.1-0.4,5.2-1.6c1.7-0.9,2.7-2,3.4-2.7c0.1-0.1,0.1-0.1,0.2-0.2
			c0.3,0.2,0.6,0.6,0.7,0.9c0.1,0.2,0.1,0.3,0.1,0.5c0.1,0.6,0.3,1.4,0.8,2.2C551,487.1,550.5,487.9,550.2,488.8z M574.9,477.6v0.2
			c-0.1,0.9-0.2,1.9-0.9,2.9c-1.7,2.4-5.6,2.4-6.3,2.3c-1.1,0-2.7-0.1-4.1-1c-0.3-0.2-0.5-0.3-0.7-0.5c-0.7-0.5-1.7-1.3-3.2-1.5
			c-0.3,0-0.6-0.1-0.9-0.1c-0.5,0-1,0.1-1.4,0.2c0-0.3,0-0.5,0.1-0.8c0.1,0,0.2,0.1,0.3,0.1c1.2,0.3,3,0.9,5.6,0.9
			c2.7,0,5.8,0.1,8.5-2.1c0.8-0.6,1.3-1.3,1.7-1.8c0.4-0.6,0.7-0.9,1.4-1.3h0.1C575.1,475.6,575,476.5,574.9,477.6z M604.5,463.9
			c-0.2,2.8-3.3,5.8-6.5,6.3c-0.7,0.1-1.9,0.3-3-0.2c-0.4-0.2-0.8-0.6-3-3.5c-0.5-0.7-1.5-1.9-2.1-2.8c0.3-0.1,0.6-0.3,0.8-0.4
			c1.7-0.9,4-2,6.3-4.4c1.8-1.9,3.1-3.9,4-5.4l0,0c0.1,0.3,0.1,0.7,0.2,1.1c0.4,2,1.1,3.2,1.7,4c0.5,0.7,0.8,1.2,1.2,2.4
			C604.3,462,604.5,462.9,604.5,463.9z M623.4,446.9c-0.8,1.2-1.9,2.8-2.7,3.3c-0.3,0.2-1,0.6-2,0.7c-2,0.2-3.6-1.2-4.1-1.7
			c-0.4-0.3-0.5-0.5-0.7-0.8c-0.3-0.5-0.8-1.2-1.9-2.2c-0.9-0.8-1.6-1.4-2.2-1.8c1.1-1.1,3.5-2.8,5-3.9c2.5-1.7,4.9-3.5,7.4-5.2
			c0.3,0.9,0.7,1.8,1.1,2.7c0.8,1.8,1.4,3,1.8,3.9c0.2,0.5,0.5,1,0.6,1.2C625.4,443.7,624.4,445.2,623.4,446.9z M647.8,418.3
			c-0.4,0.6-0.6,1-0.8,1.2c-0.4-0.1-0.9-0.3-1.5-0.4c-2-0.3-3.4,0.2-4.4,0.6c-0.5,0.2-0.9,0.4-1.5,0.5c-1,0.2-1.4,0-2.3-0.3
			c-0.8-0.3-1.9-0.7-3.3-0.7c-0.2,0-0.3,0-0.5,0c0.4-0.8,0.8-1.7,1.2-2.7c0.5-1.2,0.9-2.2,1.2-3c1-2.5,1.4-3.5,2.7-5
			c0.9-1,2-2.2,2.8-2.2c0.1,0,0.2,0,0.8,0.3c0.8,0.4,2.1,1.1,4.2,1.3c0.7,0.1,1.3,0.1,1.7,0.1c0.2,0,0.5,0,0.5,0
			c0.2,0.1,0.5,0.7,0.7,1.3c0.3,0.7,0.6,1.7,0.6,3.2C649.8,414.8,648.8,416.5,647.8,418.3z M659.7,387.5c0.1,0,0.2,0,0.4,0
			c0.1,0.3,0.1,0.7,0.2,1c0.1,0.7,0.4,2.1,0.3,3.2c0,0.6-0.2,0.9-2.2,4.6l-0.4,0.8c-1,2-1.9,3.5-2.1,3.7c-0.3,0.1-1.3,0.1-2.6,0
			c-1.1-0.1-1.7-0.2-2.2-0.4c-0.7-0.2-1.4-0.4-2.7-0.4c-0.1,0-0.2,0-0.4,0c-0.8,0-1.6,0.1-2.1,0.2c0.2-1.7,2.3-5.3,4-8.3
			c1.1-1.9,2.3-4,3.5-6.2l0.5-0.9c0.1-0.1,0.1-0.3,0.2-0.4c0.4,0.6,1,1.3,1.8,1.8C657.4,387.2,658.8,387.4,659.7,387.5z
			 M670.3,357.9c0.3,0.3,0.4,0.9,0.5,2c0.1,0.8,0,2.4-0.4,4.3c-0.3,1.4-0.4,1.9-0.6,2.3c-0.2,0.7-0.4,1.2-0.5,2.3
			c-0.2,1.6-0.1,2.7,0,3.6c0.1,1,0.1,1.1-0.1,1.4c-0.3,0.5-0.7,0.8-1,1c-1.8,1.2-4.7,0.8-6.1,0.1l-0.2-0.1c-0.6-0.3-1.7-0.9-3.3-1.2
			c-0.3-0.1-0.6-0.1-0.8-0.2c-0.2-0.9-0.3-2.8,0.3-6.2c1-6.3,2.9-11.5,4.2-12.9c0.7,0.6,1.9,1.6,4.1,2.4c1.1,0.4,2.1,0.6,2.8,0.7
			C670.1,357.7,670.2,357.8,670.3,357.9z M667.3,326.3L667.3,326.3c0.1-0.1,0.2-0.3,0.3-0.3c0.2,0.1,0.7,0.3,1.1,0.4
			c0.8,0.3,2,0.8,3.5,1.2c1.2,0.3,2.1,0.4,2.7,0.4c0.7,0.1,1.2,0.1,2.3,0.5c0.9,0.3,1.4,0.6,1.6,0.7c0,0.3-0.1,0.7-0.1,1.1
			c-0.1,0.4-0.1,0.8-0.2,1.3c-0.2,1.3-0.1,3.2,0,7.3c0,1.7,0.1,3,0.2,3.9c0,0.5,0.1,1,0.1,1.3c-0.5,0.4-2.1,0.7-3.6,0.9
			c-0.7,0.1-1.2,0.2-1.8,0.2c-0.8,0-1.8,0.1-3.4,0.4c-0.4,0.1-0.8,0.2-1.1,0.2c-0.1-0.9-0.2-2.1-0.3-3.3c-0.1-1.2-0.2-2.7-0.4-4.3
			c-0.2-1.9-0.5-3.5-0.7-5C666.7,329.4,666.5,327.3,667.3,326.3z M666.4,290.5c-0.2-1.3-0.4-2.5-0.7-3.7c0.8,0.9,1.5,1.5,2.3,1.8
			C667.4,289.2,666.9,289.8,666.4,290.5z M681.3,311c0.1,0.4,0.1,0.8,0.1,1c-0.3,0.3-1.3,0.4-1.8,0.5c-0.9,0.2-1.6,0.1-2.4,0
			c-1.3-0.2-3.1-0.4-4.7,1c-0.3,0.3-0.6,0.5-0.8,0.8c-0.4-0.3-0.7-0.6-1-1c-1.9-2.1-3.6-6.5-1-15.8c0.9-3.3,1.5-4.3,1.9-4.6
			c0.5,0.1,1.9,0.7,2.9,1.1c3.1,1.3,4.2,1.8,5.1,2.8c0.3,0.3,1.3,1.4,1.8,3.1c0.3,0.9,0.2,1.3,0,2.4c-0.2,1-0.5,2.5-0.5,4.7
			C680.9,308.8,681.2,310.1,681.3,311z"/>
		<path class="st3" d="M482.2,166.3c2-8.2,14.3-10.7,14.8-10.8c2-0.4,6.2-0.8,10.9,0.7c2.3,0.7,13.9,5,15.4,15.5
			c0.8,5.9-1.5,12.1-5.8,15.5c-8.7,6.9-23,0.7-29.5-6.3C481.8,174.3,481.4,169.3,482.2,166.3z"/>
	</g>
</g>
<polyline id="ART:_ID_path" class="st4" points="70.8,1 36.4,58.2 22.1,110.4 28.8,169.9 64.7,225.8 106.3,220.6 103.9,266.1 
	180.1,295.3 232.7,299.2 297.8,299.5 342.9,278.9 382.5,255.2 426.1,219.8 501.9,171.3 554.1,245.8 593.5,346.2 501.2,410.1 
	554.5,415.6 640.2,346.2 633.5,306.3 596.6,208.3 549.1,157.2 512.8,116.6 437.1,157.2 408.2,183.2 363.3,201.6 311.4,219.3 
	262.6,234.9 217.5,228.2 170.3,203.9 130.1,173.1 159.4,132.9 98,131 101.2,82.9 130.1,42.2 187.8,15.6 "/>
</svg>
