<?xml version="1.0" encoding="utf-8"?>
<!-- Generator: Adobe Illustrator 19.2.1, SVG Export Plug-In . SVG Version: 6.00 Build 0)  -->
<svg version="1.1" id="EL:_Ellustrator" xmlns="http://www.w3.org/2000/svg" xmlns:xlink="http://www.w3.org/1999/xlink" x="0px"
	 y="0px" viewBox="0 0 69.4 62.1" style="enable-background:new 0 0 69.4 62.1;" xml:space="preserve">
<g id="ART:_Stars">
	<polygon points="12.8,0.9 15.9,7.2 22.9,8.2 17.9,13.1 19,20.1 12.8,16.8 6.6,20.1 7.8,13.1 2.7,8.2 9.7,7.2 	"/>
	<polygon points="43.9,23.2 43.7,28.7 48,32 42.8,33.5 41,38.6 38,34.1 32.5,34 35.9,29.7 34.3,24.5 39.4,26.4 	"/>
	<polygon points="4.5,30.3 10.2,33.9 16.3,31.2 14.7,37.7 19.2,42.7 12.5,43.2 9.1,49 6.6,42.8 0,41.4 5.1,37 	"/>
	<polygon points="31.2,42.9 33.2,46.9 37.6,47.5 34.4,50.7 35.2,55.1 31.2,53 27.3,55.1 28,50.7 24.8,47.5 29.3,46.9 	"/>
	<polygon points="44.1,0 43.8,7.4 49.8,11.9 42.6,13.9 40.2,20.9 36.1,14.7 28.7,14.6 33.3,8.8 31.1,1.7 38.1,4.3 	"/>
	<polygon points="51.1,37.2 55.2,45.4 64.2,46.7 57.7,53.1 59.2,62.1 51.1,57.8 43,62.1 44.6,53.1 38,46.7 47.1,45.4 	"/>
	<polygon points="65.2,10.5 65,15.9 69.4,19.2 64.1,20.7 62.3,25.9 59.3,21.3 53.8,21.2 57.2,16.9 55.6,11.7 60.7,13.6 	"/>
</g>
</svg>
