<?xml version="1.0" encoding="utf-8"?>
<!-- Generator: Adobe Illustrator 19.2.1, SVG Export Plug-In . SVG Version: 6.00 Build 0)  -->
<svg version="1.1" id="EL:_Tentacle" xmlns="http://www.w3.org/2000/svg" xmlns:xlink="http://www.w3.org/1999/xlink" x="0px"
	 y="0px" viewBox="0 0 991 541" style="enable-background:new 0 0 991 541;" xml:space="preserve">
<style type="text/css">
	.st0{fill:#0080FF;}
</style>
<g id="ART:_Artwork">
	<g>
		<path class="st0" d="M260.8,243.9L260.8,243.9c0.5-0.5,0.6-0.5,1.7-0.9c1.3-0.5,3.5-1.3,7.9-3.4c3-1.5,5.2-2.6,6.8-3.5
			c3-1.6,3.8-2,5.5-2.1c0,0,0.2,0,0.4,0c1.3,0,5.9,0.2,8.8,3.4c3.5,3.8,2.5,9.9,1.7,15.4c-1.3,7.9-5,13.3-6.5,15.2
			c-3.3,4.2-8.3,10.6-15,10.3c-8.9-0.4-13.8-12.3-14-12.8C254.9,257.7,256.1,248,260.8,243.9z M374.4,226.4c2.3,0.2,7,0.7,9.5,4
			c4.1,5.4,0.1,15.2-3.9,20.1c-4.2,5.2-13,11-19.4,7.9c-6.8-3.3-6.7-14.2-6.7-14.3c0.1-6,3.1-10.1,4.4-11.6l0,0
			c4.8-5.5,11.4-6.2,14.5-6.2C373.6,226.4,374.2,226.4,374.4,226.4z M405,223.9c2.1-3.4,6.6-4.1,10.2-4.6c1.6-0.2,3.7-0.6,5.9-0.6
			c3.5,0,7.4,0.8,10,3.9c3.2,3.9,3.5,10.3,0.5,15.2c-2.8,4.7-8.1,7.4-13.5,6.9c-2.6-0.2-4.8-1.2-6.6-2.5c-1.7-1.9-3.2-4.1-4.5-6.1
			c-0.7-1.1-1.4-2.1-2.1-3C404,230.5,403.2,226.9,405,223.9z M309.4,256.6c0.9-7.3,4.8-12.5,7.2-15c2.3-1.3,4.8-2.2,7.3-2.6
			c4.9-0.7,8.7-0.2,11.4,1.5c7.7,5,5.2,19.7,5,20.4c-0.7,3.9-2.3,13-9.7,16c-6.9,2.8-14.6-0.7-18.4-5.4
			C308.2,266.3,309,259.8,309.4,256.6z M180.9,137.5c-1.1,0-2.4-0.1-3.4,0.1c-1.6-0.2-3.7-0.4-6.3-0.8c-2.4-0.3-5.1-0.7-8.4-1.1
			c-4.4-0.5-8.1-0.9-11.4-1.2c-12.1-1.2-15.3-1.7-17.3-4.6c-1.4-2.1-2.3-5.5-2.7-10.1c0-0.5-0.4-5.2,0.7-8.8
			c2.4-8.3,13.3-14.2,22.9-15.7c1.6-0.3,15.7-2.2,27.2,7.6c2.5,2.1,7.5,6.4,9.5,12.8c0,0.3,0.1,0.7,0.1,1c0.1,1.4-0.1,2-0.6,3.5
			c-0.6,1.9-1.4,4.6-2.2,10.5c-0.1,0.9-0.2,1.6-0.3,2.2c0,0.1,0,0.2,0,0.3c-1,1.3-2.1,2.4-3.5,3.3c-0.6,0.4-1.2,0.7-1.9,0.9
			C182.6,137.5,181.7,137.5,180.9,137.5z M196.9,100.5c-0.6-0.5-0.8-0.8-1.2-1.2c-0.4-0.6-1-1.2-2.3-2.4c-4.7-3.9-12.1-5.7-17.5-6.5
			c-3.5-0.5-6.1-0.7-8.3-0.8c-3.8-0.2-5.2-0.4-6.9-1.8c0,0-2.1-1.7-3.1-4c-3.6-8.2,3.6-22.6,14.6-29.1c17.8-10.6,40.1,4.7,41,5.4
			c3.4,2.4,8.7,6.8,12.2,13.1c0.3,0.9,0.7,1.7,1.1,2.5c0.2,0.5,0.5,0.9,0.8,1.5c0.5,1.3,0.9,2.7,1.3,4.1c0.1,0.6,0.3,1.2,0.4,1.9
			c0.2,3.5-1.2,6.4-2.2,8.4c-0.7,1.4-4.4,8.5-12,11.2C209.4,104.5,201.8,104.4,196.9,100.5z M150.4,143c1.3-0.3,3.3-0.8,4-2.5
			c2.3,0.2,4.8,0.5,7.7,0.8c3.3,0.4,6,0.7,8.4,1c1.6,0.2,2.9,0.4,4.2,0.5c0.7,1.2,2.1,2.1,3.6,3.1c1.8,1.3,4.3,3,7,5.6
			c2.8,2.6,4.8,4.6,6,7.7c0.7,1.8,2.2,6.5,0.4,10.8c-1,2.4-2.7,3.9-4,5.1c-0.7,0.6-1.5,1.3-2,2.2c-0.2,0-0.4,0-0.6,0
			c-7.3,0.4-13.1,0.7-18.9,4.4c-1.5-1.2-3.9-1.1-6.4-1.1c-1.7,0-3.6,0-5.7-0.2c-4.2-0.4-14.1-1.3-18.4-7.8c-3.1-4.7-5.1-12.9-3-17.3
			c1.9-3.8,6.3-6.9,8.1-8.2C145.2,144.3,148.5,143.5,150.4,143z M230,210c-0.8,0.1-1.7,0.3-2.5,0.5c0.2-0.4,0.4-0.8,0.5-1.3
			C228.7,209.6,229.4,209.8,230,210z M206.5,220.7c-3.7,1.7-9.7,3.8-17.3,3.7c-11.9-0.1-20.6-3.4-25.8-10c-1.3-1.6-4.3-5.3-4.5-10.6
			c-0.5-9.7,8.7-16.1,9.8-16.8c4.6-3.1,8.9-3.4,16.7-3.9c3.1-0.2,6.2-0.3,9.3-0.3c8.2,0,16.1,1.2,22.1,7c0.7,0.7,1.6,1.7,2.5,2.7
			c0.2,0.3,0.4,0.6,0.5,0.9c1.3,2.5,1.6,4.4,1.9,6.3c0.2,1.7,0.5,3.5,1.6,5.3C221.9,213.5,211.2,218.5,206.5,220.7z M208.9,225.8
			c0.6-0.3,1.4-0.6,2.1-1c-0.5,1.6-1,3-2.4,4.2c-0.9,0.8-1.6,1-2.3,1.3c-1,0.4-2.4,0.9-3.4,2.5c0,0,0,0,0,0.1
			c-0.4-0.8-1-1.6-1.7-2.5c-0.5-0.6-1-1.1-1.6-1.5C203.5,228.1,206.6,226.9,208.9,225.8z M252.6,227.2c1.1,7.4-7.7,13.8-11.1,16.2
			c-4.1,2.9-14.5,9.3-23.6,5.2c-4.7-2.1-8.5-6.8-9.8-10.3c-0.5-1.4-0.5-2.2-0.4-2.5c0.1-0.1,0.4-0.2,0.6-0.2c1-0.4,2.4-0.9,4-2.3
			c2.9-2.5,3.7-5.4,4.4-7.7c0.2-0.7,0.4-1.4,0.7-2c2.3-5.3,11-8.5,17.7-8.1C241.8,215.8,251.5,220.1,252.6,227.2z M290.3,58.3
			c-0.9,0.8-1.6,1.4-2.2,1.9c-2.1,1.8-3.4,2.9-4.8,5.2c-1.6,2.6-1.8,4.7-2.1,6.7c-0.2,1.6-0.4,3-1.2,5.1c-1.1,2.7-2,4.3-3.7,7.1
			c-0.8,1.3-1.7,2.8-2.8,4.7c-3.4,5.9-4.5,8.4-5.3,10.1c-0.6,1.4-0.9,1.9-2,3.4c-2,2.7-3.7,4.2-5.3,5.6c-2.1,1.9-4.3,3.9-6.7,8.1
			c-1.2,2.1-1.6,3.3-2,4.4c-0.3,0.9-0.6,1.8-1.6,3.6c-2.4,4.4-4.7,6.6-6.7,8.5c-1.9,1.8-3.7,3.5-4.8,6.4c-1.6,4.1-1.1,8.4,6.4,23.9
			c7.5,15.7,11.3,23.5,16.2,28.7c7.4,7.8,14.6,11,27.7,16.8c11.4,5.1,20.9,7.7,36.6,12c6.5,1.8,11.9,3.1,16.1,4.2
			c-10.5-0.1-25.7-1-40.3-2.6c-30.4-3.4-34.7-7.6-36.5-9.4c-0.3-0.3-0.6-0.6-0.9-0.9c-2.6-2.7-6.9-7.2-13.4-7.7
			c-0.5,0-0.9-0.1-1.3-0.1c-2,0-3.5,0.4-5,0.8c-1.7,0.5-3.5,0.9-6.4,0.8c-3.1-0.1-6.7-0.2-9-2.2c0.1-5.6-2.5-10.4-5.2-13.8
			c-2.6-4.2-6.5-7.6-11.4-10c-4.8-2.3-10.3-3.4-16.4-3c-0.6,0-1.2,0.1-1.7,0.1c0.9-1.1,1.8-2.4,2.5-4.1c2.6-6,0.9-12.1-0.4-15.2
			c-1.7-4.3-4.3-6.8-7.4-9.7c-1.9-1.8-3.7-3.2-5.2-4.4c0.1,0,0.3-0.1,0.4-0.1c2.9-0.2,6-0.9,8.2-3.5c1.1-1.3,1.5-2.5,1.7-4.2
			c2.9-4.5,4.1-9.9,4.1-14.1c0-2.5-0.4-4.8-1-6.9c-0.5-2.9-1.6-5.5-2.9-7.6c7.6,3.1,14.9,3.7,21.2,1.8c0.3-0.1,0.6-0.2,1-0.3
			c0.1,0,0.2,0,0.2-0.1c4.1-1.3,14-5.3,17.2-15.2c1.3-4,1.1-7.6,0.6-10.3c0-0.4-0.1-0.8-0.1-1.2c-0.2-1.8-0.7-3.4-1.3-4.8l0.2,0.1
			c8.6,4.8,14.2,8,20.2,8.2c7.2,0.3,14.7-3.7,18.3-9.6c0.7-1.2,1.3-2.5,1.7-3.8c0.3-0.6,0.6-1.1,0.8-1.7c2.4-5.7,1.6-11,0.4-15.1
			c0.7,0.2,1.6,0.6,2.3,0.9C280.5,57.1,284.9,59,290.3,58.3z M215.3,46.1c0.2-1.3,0.7-2.1,2-4.1l0,0c5.2-8.3,15-10.3,16.1-10.5
			c10.9-2,19.6,4.6,23.8,7.7c2.6,2,8,6,10.9,13.4c0.3,0.7,0.6,1.4,0.9,2.3c0,0.4,0.1,0.9,0.2,1.3c0.2,1.2,0.4,2.7,0.4,4.8
			c0,1.9,0,5.3-1,8.4c-2.8,4.9-8,7.8-12.4,8.5c-6.2,1-10.9-2.2-21.2-9.4C226.6,62.7,213.9,53.9,215.3,46.1z M85.7,70.7
			c-1.3-5.8,2.2-11.2,5.5-16.4c4.7-7.4,10.9-11.5,13.3-12.8c4.1-2.3,18.2-9.5,29.6-3.3c4,2.2,6.9,5.1,8.5,8.7c1.8,4,1.6,7.6,1.5,9.5
			c-0.5,9.2-6.1,18.6-14.3,24.1c-1.2,0.7-12.4,7.9-26,4.2C100,83.7,87.7,79.6,85.7,70.7z M62.5,130.1c-2-8.7,2.7-16.2,5.5-20.7
			c2.1-3.3,8-11.3,18.2-14.6c2.8-0.9,5.8-1.4,8.6-1.4c0.4,0,0.9,0,1.4,0c3.8,0,9.5,0.4,14,4.4c3.8,3.4,4.9,8,5.4,10.3
			c2,8.5-1.7,15.5-3.7,19.3c-3.5,6.7-13.3,22-28.3,20.5C73.7,147,64.6,139.3,62.5,130.1z M69.4,195.1c-4.2-11.1,0.8-21.3,1.8-23.2
			c1.8-3.3,5-7.8,10.7-11.1l0,0c1.6-0.9,6.3-3.6,12.8-3.6c0.2,0,0.4,0,0.6,0c7.2,0.2,12.2,2.2,14.7,5.8c0.8,1.2,1.7,3.2,1.9,8
			c0.2,6.1,0.6,18.9-9,28.6c-11.2,11.3-19.9,9.6-22.3,8.8C73.5,205.9,70.6,198,69.4,195.1z M99.1,252c-1-3.8-3.4-12.8,0.3-22.7
			c1.5-4.1,4.1-11,11.1-14.2c1.8-0.8,8.1-3.3,13.7-0.4c4.9,2.5,6.6,8,8.4,14.4c1.5,5.1,4.6,15.6-0.3,26.8
			c-1.5,3.5-5.6,12.9-13.7,14.5c-4.1,0.8-7.8-0.7-9.5-1.7C102.6,265.3,100.6,257.9,99.1,252z M169.4,322.1
			c-5.9-1.5-20.2-6.4-24.8-19.8c-0.8-2.2-3.1-9,0-16.5c0.7-1.6,4.4-10,13.1-12.5c10.7-3.1,19.6,5.1,21.2,6.8
			c6.1,6.1,6.9,13.8,7.5,19.9c0.4,4.6,1.8,18.5-4.9,22.5C178.3,324.3,174.4,323.3,169.4,322.1z M247.4,345.2
			c-16.1,2.7-28.5-10-29-10.6c-2.3-2.4-7.2-7.5-7.9-15.2c-0.6-6.2,0.7-10.9,3.9-13.8c2.9-2.8,6.6-3.1,10.9-3.6
			c11.3-1.1,20.2,4,21.8,5.1c2.3,1.4,9.2,5.8,12.7,14.4c1.4,3.6,4.5,11,1,16.8C257.7,343.5,251,344.6,247.4,345.2z M267.4,350.1
			c-3.6-0.9-5.5-2.2-6.1-3.1c0.3-0.3,0.9-0.7,1.3-1.1c1.8-1.4,4.4-3.4,5.7-6.9c0.5,1.1,1,2.2,1.6,3.1c2.7,4.5,6.2,6.9,8.6,8.6
			C276,351,271.7,351.1,267.4,350.1z M323.5,339.1c-0.9,3.9-5.5,6.1-9.9,8.3c-4.2,2.1-12,5.9-21.7,3.3c-3.3-0.9-6.1-2.1-8.3-3.6
			c-0.5-0.4-1.1-0.8-1.6-1.1c-3-2.3-4.9-4.8-6.1-7c-3.9-7-3.9-15.9,0-22.8c1.1-2,3.5-6.1,8-7.8c5-1.8,10,0.5,16.3,3.4
			c4.4,2.1,12.7,6.9,18.9,16.3C322.4,333.2,324.2,336.1,323.5,339.1z M371.9,326.7c-0.5,2.9-1.2,7.2-4.1,10.9
			c-5.3,6.5-15.7,7.6-23.1,5.7c-2.2-0.5-8-2-12.2-7.3c-7.2-9.1-2.8-21.1-2.7-21.2l0,0c2.8-7.4,7.3-10.5,10.6-11.8
			c1.9-0.7,3.7-1,5.5-1c4.1,0,7.9,1.5,11.7,3c5,1.9,11.2,4.4,13.8,10.3C373,319.4,372.4,323.5,371.9,326.7z M423,300.2
			c2.8,5.3,0.8,12.6-2.2,17.2c-6.2,9.3-21.1,12.4-31.3,6.6c-5.6-3.2-11.5-10.3-11.2-18.3c0.2-4.7,2.5-8.3,3.9-10.4l0,0
			c1.5-2.3,5.4-8.3,11-9c0.3,0,0.6-0.1,0.8-0.1c1.7,0,3.4,0.7,8.3,3C412.8,294.1,422,298.3,423,300.2z M420.9,261.6
			c-2,2.5-0.7,5.5,0.4,8.1c1.2,2.6,2.5,5.6,1.8,9.3c-0.9,4.4-2.8,6.4-7.1,7.4c-3.4,0.8-7-0.9-11-3c-4.4-2.2-9.5-4.7-15.2-3.7
			c-4,0.7-10,3.8-15.7,14.6l-0.1,0.2c-1.9,3.5-2.3,7.1-2.1,10.1l0,0c-6.7-7.5-21.1-11.8-30.9-9.3c-8.5,2.2-14.5,10.1-16.7,13.4
			l-0.1,0.1c-2.7,4-3,8-3.3,10.7c0,0.3-0.1,0.7-0.1,1c-0.6-0.6-1.3-1.4-1.9-2.1c-0.8-1-1.7-2-2.8-3.2c-7.9-8.1-21.1-16.6-32.2-14
			c-6.5,1.6-11.8,6.9-15.2,15.3l-0.1,0.2c-0.8,1.7-1.4,3.4-1.8,5.1c-3.6-8.9-9.9-16.4-11.6-17.6c-8.7-6.7-32.9-13.2-44.6-4.8
			c-5.5,4-6.1,12.4-6.5,19.2c-0.1,1.9,0,3.4,0.2,4.5c0,0.2,0,0.5,0.1,0.6l-15.4-0.6c3.2-4.6,7.2-12.2,5.5-21.6
			c-5.6-29.9-16.4-34-29.9-36.3c-4.4-0.7-11,1.3-16.6,5.2c-2.9,2-5.2,4.2-6.6,5.7c-2.4-1.2-6.6-3-11.3-4c1.4-1,2.7-2.1,3.9-3.3
			c10-10.8,9.5-29.4,6.6-39.3l-0.3-0.9c-1.8-6.3-5.5-19.4-16.1-21.9c-6.9-1.7-18.5,0.7-23.6,6.4c-1.7,1.8-2.8,3.9-3.9,5.8
			c-0.9,1.5-1.6,2.9-2.5,3.8c-4.3-2.1-8.3-4.4-11.1-6.3c5.8-0.3,14.3-2,20.7-8l0.8-0.7c3.7-3.4,9.3-8.6,13-17.6
			c5.4-13.4,4.4-20.4,1-27.5c-3-6.3-9.6-9.4-12.4-10.8c-1.7-0.8-3.2-1.4-4.6-1.8c2.9-2.2,6.5-5.3,10-9c4.4-4.8,6.7-10.2,8.3-14.2
			l0.5-1.2c3.7-8.7,2.6-15.4,1.1-20.8c-1.2-4.1-3.1-9.5-5.9-12.6c4-0.2,8.4-1.2,12.8-3.6c6.9-3.8,14.2-10.2,17-14.8
			c3.9-6.5,7.1-17.4,5.1-26.1c-1.2-5.1-3.3-8.6-5.4-11c19-4.9,50.7-8.5,62,6.9c1.2,1.6,1.8,4.3,2.1,6.7c-8.8-3.6-28.9-10-42.7-1.4
			c-8.1,5-19.3,22-17.4,32.7c0.6,3.2,1.9,5.8,3.2,7.6c-3,0.9-7,2.2-10.9,3.8c-7.5,3.1-14,9.9-16.4,17.3c-0.7,2.1-2.3,15.5,2.7,23.1
			c3.3,5.1,8.5,6.9,13.2,7.5c-1,0.6-2,1.2-3.2,2c-3.5,2.4-7.8,5.8-10,10.3c-3.2,6.4-0.8,16.7,3.3,22.9c5.8,8.7,17.6,9.8,22.6,10.3
			c2.5,0.2,4.6,0.2,6.3,0.2c0.1,0,0.1,0,0.2,0c-1.6,1.5-3.6,3.4-5.2,6.2c-4.3,7.5-4.1,18,0.5,25c5.1,7.8,14.5,10,24.6,12.2
			c3.7,0.8,6.6,1.2,9,1.5c4.6,0.5,6.3,0.8,8,2.7c1.4,1.6,1.6,2.9,2,4.9c0.4,2.1,0.9,4.7,2.9,7.8c5.4,8.5,17.6,13.7,27.7,11.9
			c3.6-0.7,6-2,7.7-3c1.8-1.1,2.2-1.2,2.9-1c1.5,0.4,2.1,2.4,3.2,6.6c1,3.9,2.2,8.7,5.5,13.5c8.3,12.1,27.3,18.8,42.4,14.9
			c4.9-1.3,7.4-3.6,9.4-5.4c2.1-2,3.4-3.1,7.2-3.2h0.1c3.1,0,7,1.2,11.2,2.6c7.3,2.3,15.5,4.9,21.9,1.4c4.8-2.5,6.7-7.3,8.3-11.2
			c1.4-3.5,2.4-5.6,4.1-5.8c0.5-0.1,0.6,0,1.9,0.8c1.1,0.7,2.6,1.8,5.1,2.6c11.4,4,26.2-0.9,29.9-9.9c0.6-1.5,0.8-2.8,0.9-3.7
			c2.6,0.6,8.6,5.6,11,7.6c4.3,3.6,6.5,5.4,8.7,3.3c2-2,0.4-4.2-1.2-6.3c-1.5-2.1-3.9-5.2-5.6-9.1c-2.7-6-3.4-12.2-3.2-15.6
			c0.3,0.6,0.6,1.2,0.9,1.7c1.2,2,3.2,4.8,6.1,7c3,3.1,6.7,5.7,11.6,5.8c3.2,0.1,5.3-0.9,7.3-1.9c1.6-0.8,3.2-1.5,5.9-2.1
			c10.6-2.3,23.9,1.4,25.4,7c0.7,2.6-0.9,7-4.3,9.1c-4.9,3.1-12.7,0.1-19-2.2C428.9,260.1,423.7,258.1,420.9,261.6z M428.7,274.2
			c-0.4-2.8-1.5-5.1-2.3-6.8c-0.3-0.6-0.6-1.4-0.8-2c1.6,0.1,4.9,1.4,7.2,2.3c1.2,0.5,2.5,0.9,3.8,1.4
			C434,270,431,271.4,428.7,274.2z M453,289.8c-4.2,4.3-13.2,8-18.6,3.4c-3.7-3.2-4.7-9.8-2.2-14.1c1.9-3.3,5.5-4.4,8.7-5.4L440,271
			l-0.3-0.9l0,0l0.3,0.9l0.9,2.7c7.8-2.5,13.5-2.2,15.8,0.6C459.6,277.8,457.1,285.5,453,289.8z"/>
		<path class="st0" d="M492.8,260.5c-3.3,3-9.9,7-14,4.7c-2.1-1.1-2.9-3.6-3.4-5.1c-2.4-6.9,1.9-13.7,2.4-14.4
			c2.8-4.1,8.8-9.6,14.1-7.9c3.9,1.3,6.2,6,6.7,9.8C499.2,252.1,497.2,256.4,492.8,260.5z"/>
		<path class="st0" d="M535.4,226.6c-1.9,5.4-8.6,7.8-13.9,7.2c-3.4-0.4-10.2-2.6-11.3-8.3c-1-5.1,3.2-9.4,3.8-9.9
			c1.6-1.3,4.1-2.8,7.5-3.3c3.3-0.4,8-0.2,11.3,3.4C535.1,218.2,536.8,222.6,535.4,226.6z"/>
		<path class="st0" d="M482.2,187.3c0.7-6.8,8.6-10.2,12.5-11.8c7.4-3.2,12.8-3.4,16-0.8c2.3,1.9,3.5,5.4,3.3,10.3
			c-0.2,6.4-4.2,10.7-5.4,11.8c-0.7,0.7-7.4,6.7-15.4,4.5C487.4,199.6,481.6,193.6,482.2,187.3z M457,229.7
			c-7.9-3.8-10.8-13.4-9.5-20.5c0.5-2.5,2.6-9.1,6.7-10.4c1-0.3,1.5-0.2,3.8,0.7c1.6,0.6,3.7,1.4,6.9,2.1c5.2,1.2,8.7,1.3,11.3,1.4
			c2.8,0.1,3.7,0.1,4.8,1.1c3.5,3.2,2.3,10.2,1.9,12.3c-1.7,8.2-8.8,12.2-9.6,12.6C471.9,229.8,464.5,233.3,457,229.7z"/>
		<path class="st0" d="M517.3,156.6L517.3,156.6c0.2-0.4,0.3-0.4,1-0.9c0.9-0.6,2.1-1.4,3.6-3.1c1.2-1.4,1.7-2.4,2-3.1
			c0.3-0.6,0.3-0.6,0.6-0.8c0.2-0.2,0.2-0.2,1.7-0.4c0.9-0.1,2.2-0.3,4-0.7c0.9-0.2,1.7-0.3,2.4-0.5c1.5-0.3,2.3-0.4,2.9-0.4
			c0.3,0,0.6,0,1,0.1c0.1,0,0.1,0,0.1,0c0.1,0,0.1,0.1,0.3,0.1c0.4,0.1,1,0.4,2.4,0.9c1.8,0.6,3,1,3.9,1.2c1.2,0.4,1.5,0.4,2,0.7
			c0.6,0.4,1.9,1.4,2.3,2.4c0.9,2.4-2.5,7-6.1,9.7c-6.6,4.9-14.6,3.5-18.9,2.1c-1.8-0.6-3.7-1.3-4.7-3
			C517,159.9,516.6,157.9,517.3,156.6z"/>
		<path class="st0" d="M733.8,289.5c0.1,0.3,0.2,0.6,0.3,0.9c0.4,1.4,1.3,2.9,3.3,6.2c1.2,2,2.2,3.3,2.8,4.3
			c1.1,1.6,1.2,1.7,1.2,2.2s0.1,1.7-0.5,2.8c-0.4,0.8-0.9,1.1-2.4,1.8c-1.4,0.7-3.4,1.6-5.7,3.6c-0.9,0.8-1.4,1.4-1.9,1.9
			c-0.7-0.8-2-2.7-4.5-6.7c-4.9-8.1-5.3-9.9-5.3-11.7c0-1.7,0.2-2.8,0.4-3.4c0.1,0.1,0.3,0.1,0.4,0.2c1.4,0.7,3.4,1.8,6,1
			c1.4-0.4,2.2-1.2,2.7-1.7c0.3-0.4,0.6-0.6,1.3-0.9c0.9-0.4,1.5-0.6,1.9-0.6C733.8,289.4,733.8,289.4,733.8,289.5z M724.1,262.5
			c3.1,5.1,5.2,8.1,6.5,10.1c0.7,1,1.4,2,1.6,2.4c0,0,0,0,0,0.1c-0.6,2.4-2.2,4.4-4.5,5.8c-2.5,1.4-5.4,1.8-7.6,1.1
			c-1.5-0.5-2.6-1.9-5.4-5.8c-5-7-7.1-11.4-6.3-13c0.2-0.1,0.5-0.2,0.8-0.2c1.3-0.3,3.3-0.9,6.5-2.4c1.4-0.7,2.4-1.2,3.2-1.7
			c1.3-0.7,1.6-0.9,1.8-0.8c0.9,0.1,1.9,1.9,3.2,4.1L724.1,262.5z M701.3,232.6c0.6-1.3,2.9-2.3,5.1-2.3c0.5,0,1,0,1.4,0.2
			c1.8,0.4,4.9,5.6,8.7,12.1c2.9,4.9,3,5.8,2.8,6.7c-0.4,1.9-2.1,3.9-3.6,4c-0.4-0.1-2.4-1.2-7.5-8.5
			C704.4,239.5,700.6,234,701.3,232.6z M703.5,248c3,4.3,5.3,6.9,7.2,8.6c-1.3,0.5-2.2,0.7-2.9,0.9c-1,0.3-1.9,0.5-2.8,1.2
			c0.1-0.8,0.2-1.8,0.1-2.9c-0.3-3.6-1.7-5.6-3.3-7.7c-1-1.4-2.2-3-3.3-5.5c-0.7-1.7-1.1-2.9-1.3-4
			C698.7,241.2,700.8,244.2,703.5,248z M629,177.3c0.8-1,2-1.3,2.5-1.4c3.5-1,7,2,7.4,2.3c0.8,0.7,1,1.1,1.4,1.9
			c0.5,1,1.3,2.5,3.3,4.4c1.4,1.3,2.6,2.1,3.4,2.7c0.4,0.2,0.8,0.6,1,0.7c0.1,0.9-2.1,3.9-5.2,5c-4.3,1.4-9.3-1.4-11.8-4.8
			C628.5,184.7,627.1,179.6,629,177.3z M595.7,152.2c0.8-3.4,1.3-5.1,2-5.5c0.4-0.2,1.3,0.1,3.5,1c1.9,0.8,4.5,1.8,8.3,2.9
			c2,0.6,3.4,0.9,4.5,1.1c2.1,0.5,2.2,0.5,2.5,0.9c1.7,1.9,1.7,5.8,0,8.4c-0.3,0.5-2,2.9-4.7,3.5c-1.2,0.2-2,0-3.6-0.6
			c-1.3-0.5-3-1.1-5.3-1.3c-0.5-0.1-1.1-0.1-1.5-0.1c-2.7,0-4.5,0.8-5.8,1.3c-0.2,0.1-0.5,0.2-0.7,0.3
			C594.5,163.4,593.8,160.2,595.7,152.2z M586.2,158c-3.7,3.7-12.4,0.6-16.2-0.7c-2.5-0.9-7.2-2.6-10.4-7.1c-2.2-3.1-3-5.4-2.3-7
			c0,0,0.3-0.7,2.7-2.5c3.6-2.6,5.8-4.2,9-4.7c4.8-0.8,8.8,1.5,10.2,2.3c1.6,0.9,6.5,3.7,8.1,9.3C587.5,148.4,589.2,154.9,586.2,158
			z M594,189.2c-1.9-5.2-1.4-12.6,2.8-16c1.9-1.5,4.1-1.9,5.3-2c4.4-0.3,7.6,2.4,10,4.3c3.5,2.8,9.9,8.1,8.7,14.6
			c-0.8,4.7-5.5,8.9-10.8,9.8C603,201.1,596.3,195.4,594,189.2z M626.4,191.4c2.9,3.9,7.9,7,13.1,7.4c-1.5,1.2-3.2,2.5-5.6,3.3
			c-2.7,1-4.2,0.8-6.4,0.5c-2.4-0.3-5.3-0.6-9.9,0.6c-0.1,0-0.1,0-0.1,0C622,200.6,625.4,196.2,626.4,191.4z M638.2,241.4
			c-3.2-2.3-5.5-3.8-7.6-5.2c-1.8-1.1-3.3-2.1-5-3.4c-0.4-0.3-2-1.6-4.5-3.9c-7.5-6.9-13-11.9-12.5-14.3c0.1-0.8,1.3-3.6,10.5-6
			c3.5-0.9,5.6-0.7,7.8-0.4c2.5,0.3,5.1,0.6,9-0.8c3.8-1.4,6.2-3.4,8.2-5c2.1-1.8,3-2.4,4.4-2.3c1.4,0.1,2.4,1,4.3,2.9
			c0.3,0.3,0.7,0.7,1.1,1c4.3,4.1,6.9,5.4,10.1,7c2.8,1.4,6.4,3.2,12.6,7.8c8.5,6.3,12.4,9.3,14,13.7c0.7,1.8,0.8,3,0.9,4.5
			c0.2,2,0.3,4.3,1.9,7.9c1.3,3,2.7,5,3.9,6.5c1.3,1.8,2,2.8,2.2,4.8c0.1,1.6-0.2,2.4-0.7,3.6c-0.6,1.5-1.4,3.3-0.8,6.2
			c0.5,2.6,1.7,3.8,5.9,8.3c0.7,0.7,1.4,1.5,2.3,2.5c5.6,6,6.4,7.2,6.8,8.7c0.5,1.7,0.3,2.9-0.1,4.6c-0.1,0.7-0.3,1.6-0.4,2.5
			c-0.8,6.8,1.8,11.3,4.3,15.5c2.2,3.8,4.5,7.6,5.1,13.8c0.2,2.1,0.1,2.9-0.1,4.3c-0.2,1.7-0.5,4.1-0.4,9.7c0.1,1.9,0.1,3.5,0.2,5
			c0.2,3.5,0.3,5.9-0.2,9.5c-0.3,2.3-0.7,3.3-1,4.3c-0.4,1.1-0.8,2.2-1,4.5c-0.4,4.5,0.4,7.4,1.1,10c0.5,2,1,3.8,0.9,6.2
			c-0.1,1.5-0.3,1.6-1.3,2.4s-2.4,1.8-3.6,4c-3.6,6.7-4.3,12.3-5.1,17.7c-0.8,6.2-1.7,12.1-6.5,20c-0.7,1.2-2,2.8-3.5,4.7
			c-3.6,4.6-8.5,11-10.8,17.8c-2.9,8.3-3.7,10.5-17.4,22.4c-3.1,2.7-5.7,4.4-7.9,5.9c-3.2,2.2-5.8,3.9-7.8,7.2
			c-4.8,7.8-15,15.4-22.1,18.3c-3.7,1.5-7.8,3.2-11.7,4.9c-7.6,3.3-18.7,8-22.6,8.3c0.8-2.5,4.9-8.5,6.6-10.9c4.7-7,6.6-12,8.1-16.1
			c0.9-2.5,1.7-4.7,3-6.9c3.7-6.3,7.4-9.2,11.8-12.5c4.8-3.7,10.3-8,16.4-17.6c14.7-23.3,17.9-39.5,19.8-49.1c0.3-1.6,0.6-3,0.9-4.2
			c4.4-19.2,0.4-54.3-2.7-60.5c-2.2-4.5-1.7-8.2-0.7-16.3c0.6-4.9,1.4-11.1,1.8-19.7c0.6-10.7,0.8-16.1-0.1-19.7
			C661.9,259,648.2,248.9,638.2,241.4z M653.9,323c0-0.6,0-1.1-0.2-1.5c1.7,1.3,2.9,2,4.1,2c-0.1,3.6,0.5,6.7,2.1,10.1
			c2.3,4.8,6.5,38.5,2.3,56.8c-0.3,1.3-0.6,2.8-0.9,4.4c-1.5,7.4-3.5,17.6-10.4,31.7c-2.3-0.8-5.3,0-8.7,0.8
			c-4.8,1.2-11.3,2.9-19,1.4c-9.8-1.8-19.5-9.1-25.3-18.6c1.2,1.1,2.4,1.8,3.7,1.8c0.4,0,0.8-0.1,1.2-0.2c0.6-0.2,1.1-0.6,1.4-1
			c0.8,0.8,2.3,1.6,4.7,1.6c0.1,0,0.1,0,0.2,0c4.8-0.1,11.3-3.4,15.2-7.6c4.7-5.1,4.7-11.6,4.7-23.4v-1.9c0-7.3,0-11.8-1.7-17.1
			c-1.6-5.1-5-15.5-13.2-17.9c4.7-2.9,9.9-5.7,16.3-8.3c3.2-1.3,6.3-2.3,9-3.3C647.7,330,653.7,328,653.9,323z M605.4,397.7
			c-0.5-1.3-1.2-2.1-1.7-2.7c-0.3-0.3-0.5-0.6-0.7-1c-0.9-1.5-0.8-2.8-0.3-5.8c0.4-2.7,0.8-6,0.2-10.5c-0.2-1.2-0.4-2.5-0.8-3.8
			c1.5,0.6,2.9,1,4.1,1.4c2,0.6,3.5,1.1,5,2.2c4,2.9,6.6,9.3,5.1,12.6c-0.6,1.5-2.1,2.2-4.4,3.3
			C609.8,394.3,607.3,395.4,605.4,397.7z M595.3,378.3c0.5-0.8,1.1-1.5,1.5-2c0.2,0.8,0.3,1.6,0.4,2.1c0.5,3.7,0.1,6.5-0.2,8.9
			c-0.4,3.2-0.9,6.2,1.1,9.5c0.5,0.8,0.9,1.3,1.2,1.7c0.4,0.5,0.6,0.8,0.9,1.4c0.5,1.5,0.3,3.1,0.1,4.3c-1-1.4-2.2-3.4-3.3-5.6
			C595.2,394.7,591.2,384.8,595.3,378.3z M608.7,403.1c1-2.4,2.8-3.3,5.6-4.6c2.7-1.2,5.7-2.6,7.2-6.1c2.8-6.4-1.4-15.4-7-19.4
			c-2.3-1.7-4.5-2.3-6.7-3c-2.5-0.8-5.1-1.5-8.5-4.1c-1.1-0.9-1.9-1.6-2.2-2.5c-0.7-2.2,1.3-4.9,2.2-6.2c0.6-0.9,6.3-8.6,12.4-7.5
			c5.9,1.1,8.8,10,10.1,14.3c1.4,4.4,1.4,7.7,1.4,15.4v1.9c0,10.7,0,16.1-3.2,19.5c-4.2,4.6-10.7,6.3-12.2,5.7
			C607.9,406,608,404.5,608.7,403.1z M594.2,368.9c0.5,0.5,1.1,1,1.6,1.4c-0.7,0.3-1.4,0.7-2.1,1.2c0,0,0,0,0-0.1
			C593.9,370.6,594.1,369.7,594.2,368.9z M588.2,370.5c-1.5,9-3.9,22.7,1.6,36.1c5.6,13.8,18.9,25.2,32.4,27.7
			c8.9,1.7,16.2-0.2,21.4-1.5c1-0.3,2.3-0.6,3.3-0.8c-2.5,4.9-7.9,14.5-15.5,21.1c-7.1,6.2-10.5,9.5-12.3,11.3
			c-0.3,0.2-0.5,0.5-0.7,0.7c-0.2-0.1-0.4-0.3-0.7-0.5c-1-0.7-2.7-1.9-6.1-4.1c-1.7-1.1-4.5-2.8-7.5-4.6c-3.9-2.3-5.8-3.2-7.1-3.8
			c-1.1-0.5-1.7-0.8-2.8-1.6c-1.9-1.3-7.1-4.8-9.5-10.7c-0.7-1.8-0.8-2.7-0.9-5.4c-0.1-1.7-0.2-4.1-0.6-7.5c-0.4-4-0.8-6-1.1-8
			c-0.3-1.5-0.5-3-0.8-5.4c-1.6-12.4-0.6-21.8,0-27.4c1-10,2.6-13.2,4-15.5c1.3-2,2.6-3.8,3.7-4.9
			C588.8,367,588.4,368.9,588.2,370.5z M604.1,291.7c-0.5-0.8-1.1-1.7-1.9-2.8c-3.7-5.2-7-8.4-12.5-13.8c-4.6-4.4-8.4-7.5-10.4-9.2
			c-4.2-3.4-7.3-5.9-11.6-8.8c-2.6-1.7-4.5-2.8-6.1-3.8c-3.1-1.8-3.5-2.1-3.8-3c-0.8-2.7,1.8-6.3,2.9-7.5c3.3-3.5,8.9-4.8,18.6-4.2
			c9.2,0.6,21.9,2.6,45.8,13.9c17.1,8.1,24.8,11.9,28.2,18.4c1.9,3.7,2.5,11.5,3.6,25.7c1,12.9,0.7,18.2,0.3,20.3
			c-1-0.8-2.4-2.1-4.1-3.6c-2-1.9-4.8-4.4-8.5-7.6c-7.6-6.6-10-8.4-13.8-9.3c-1.2-0.3-2.1-0.4-3-0.4c-0.7,0-1.3,0-2.1,0.1
			c-1.6,0.1-4,0.3-8.5,0.2c-7.6-0.2-9.2-0.8-10.4-1.5C605.8,294.1,605.4,293.6,604.1,291.7z M586.9,521.8c-3.7,1.6-9.7,2-13.4-0.5
			c-1.3-0.9-2.1-2-3.1-3.3c-1.5-2-3.2-4.3-6.9-5.7c-1.9-0.7-3.4-0.9-4.6-0.9c-0.4,0-0.7,0-1,0c-1.2,0-1.4,0-2-0.4
			c-1.3-1-2.4-4.2-4.1-9.2c-0.3-1-0.7-1.8-1-2.5c-0.2-0.4-0.4-0.8-0.5-1.1c1.5-4.8,0.8-8.2-6.6-13.7c-0.2-0.2-0.2-0.8-0.1-2.2
			c0.2-1.9,0.4-4.4-1-6.9c-2.1-3.6-3.9-4.6-5.6-5.5c-0.9-0.4-1.1-0.6-1.8-2.2c-0.2-0.5-1.1-4-0.5-8.5c0.8-5.5,0.5-10,0.3-12.9
			c-0.1-1.2-0.2-2.7-0.1-3c3.6-11.3,4.5-17.4,5.1-27.7c0.1-1.8,0.1-3.9,0-6.2c-0.1-4.5-0.2-9.5,0.8-14c1.6-7.2,3.9-14.4,6.9-21.4
			v-0.1c1.3-0.5,2.8-1.3,4.7-4.4c1.1-1.8,1.4-4.2,1.6-6.4c0.1-0.9,0.2-2.4,0.4-2.8c0.8-1.3,1.5-2.5,2-3.5
			c9.2-15.4,21.5-28.9,35.4-38.9c12.1-8.7,18.3-12.8,27.4-12.5c8.9,0.3,20.8,5.2,27.2,15.2c0.3,0.4,0.6,0.8,0.9,1.2
			c0.2,0.2,0.5,0.6,0.6,0.8c-0.6,1.3-6.6,3.4-10.5,4.7c-2.8,1-6,2-9.3,3.4c-12.6,5-21.1,11.1-28.6,16.5
			c-11.4,8.2-17.1,12.3-21.6,19.7c-7.4,12.1-6.4,24.4-5.1,41.5c1.6,21.3,2.6,34.2,12.6,44.3c5.1,5.1,10.9,7.8,15.6,10
			c5.5,2.6,8.7,4.2,9.2,7.3c0.3,1.9-0.4,3.1-2.7,6.7c-0.6,1-1.3,2-2,3.2c-6.9,11.5-9.4,21.1-11.2,28.1
			C592.4,516.3,591.3,519.9,586.9,521.8z M611.2,518.9c-0.1,0.4-0.2,0.7-0.2,1c-2,0.1-3.5,0.1-3.9,0c-2.3-0.3-5.1-0.7-5.5-1.7
			c-0.1-0.2-0.2-0.5-0.2-0.7c0.2,0,0.6-0.1,0.8-0.1c1.3-0.2,3.1-0.4,5.2-1.6c1.7-0.9,2.7-2,3.4-2.7c0.1-0.1,0.1-0.1,0.2-0.2
			c0.3,0.2,0.6,0.6,0.7,0.9c0.1,0.2,0.1,0.3,0.1,0.5c0.1,0.6,0.3,1.4,0.8,2.2C612,517.2,611.5,518,611.2,518.9z M635.9,507.7v0.2
			c-0.1,0.9-0.2,1.9-0.9,2.9c-1.7,2.4-5.6,2.4-6.3,2.3c-1.1,0-2.7-0.1-4.1-1c-0.3-0.2-0.5-0.3-0.7-0.5c-0.7-0.5-1.7-1.3-3.2-1.5
			c-0.3,0-0.6-0.1-0.9-0.1c-0.5,0-1,0.1-1.4,0.2c0-0.3,0-0.5,0.1-0.8c0.1,0,0.2,0.1,0.3,0.1c1.2,0.3,3,0.9,5.6,0.9
			c2.7,0,5.8,0.1,8.5-2.1c0.8-0.6,1.3-1.3,1.7-1.8c0.4-0.6,0.7-0.9,1.4-1.3h0.1C636.1,505.7,636,506.6,635.9,507.7z M665.5,494
			c-0.2,2.8-3.3,5.8-6.5,6.3c-0.7,0.1-1.9,0.3-3-0.2c-0.4-0.2-0.8-0.6-3-3.5c-0.5-0.7-1.5-1.9-2.1-2.8c0.3-0.1,0.6-0.3,0.8-0.4
			c1.7-0.9,4-2,6.3-4.4c1.8-1.9,3.1-3.9,4-5.4l0,0c0.1,0.3,0.1,0.7,0.2,1.1c0.4,2,1.1,3.2,1.7,4c0.5,0.7,0.8,1.2,1.2,2.4
			C665.3,492.1,665.5,493,665.5,494z M684.4,477c-0.8,1.2-1.9,2.8-2.7,3.3c-0.3,0.2-1,0.6-2,0.7c-2,0.2-3.6-1.2-4.1-1.7
			c-0.4-0.3-0.5-0.5-0.7-0.8c-0.3-0.5-0.8-1.2-1.9-2.2c-0.9-0.8-1.6-1.4-2.2-1.8c1.1-1.1,3.5-2.8,5-3.9c2.5-1.7,4.9-3.5,7.4-5.2
			c0.3,0.9,0.7,1.8,1.1,2.7c0.8,1.8,1.4,3,1.8,3.9c0.2,0.5,0.5,1,0.6,1.2C686.4,473.8,685.4,475.3,684.4,477z M708.8,448.4
			c-0.4,0.6-0.6,1-0.8,1.2c-0.4-0.1-0.9-0.3-1.5-0.4c-2-0.3-3.4,0.2-4.4,0.6c-0.5,0.2-0.9,0.4-1.5,0.5c-1,0.2-1.4,0-2.3-0.3
			c-0.8-0.3-1.9-0.7-3.3-0.7c-0.2,0-0.3,0-0.5,0c0.4-0.8,0.8-1.7,1.2-2.7c0.5-1.2,0.9-2.2,1.2-3c1-2.5,1.4-3.5,2.7-5
			c0.9-1,2-2.2,2.8-2.2c0.1,0,0.2,0,0.8,0.3c0.8,0.4,2.1,1.1,4.2,1.3c0.7,0.1,1.3,0.1,1.7,0.1c0.2,0,0.5,0,0.5,0
			c0.2,0.1,0.5,0.7,0.7,1.3c0.3,0.7,0.6,1.7,0.6,3.2C710.8,444.9,709.8,446.6,708.8,448.4z M720.7,417.6c0.1,0,0.2,0,0.4,0
			c0.1,0.3,0.1,0.7,0.2,1c0.1,0.7,0.4,2.1,0.3,3.2c0,0.6-0.2,0.9-2.2,4.6l-0.4,0.8c-1,2-1.9,3.5-2.1,3.7c-0.3,0.1-1.3,0.1-2.6,0
			c-1.1-0.1-1.7-0.2-2.2-0.4c-0.7-0.2-1.4-0.4-2.7-0.4c-0.1,0-0.2,0-0.4,0c-0.8,0-1.6,0.1-2.1,0.2c0.2-1.7,2.3-5.3,4-8.3
			c1.1-1.9,2.3-4,3.5-6.2l0.5-0.9c0.1-0.1,0.1-0.3,0.2-0.4c0.4,0.6,1,1.3,1.8,1.8C718.4,417.3,719.8,417.5,720.7,417.6z M731.3,388
			c0.3,0.3,0.4,0.9,0.5,2c0.1,0.8,0,2.4-0.4,4.3c-0.3,1.4-0.4,1.9-0.6,2.3c-0.2,0.7-0.4,1.2-0.5,2.3c-0.2,1.6-0.1,2.7,0,3.6
			c0.1,1,0.1,1.1-0.1,1.4c-0.3,0.5-0.7,0.8-1,1c-1.8,1.2-4.7,0.8-6.1,0.1l-0.2-0.1c-0.6-0.3-1.7-0.9-3.3-1.2
			c-0.3-0.1-0.6-0.1-0.8-0.2c-0.2-0.9-0.3-2.8,0.3-6.2c1-6.3,2.9-11.5,4.2-12.9c0.7,0.6,1.9,1.6,4.1,2.4c1.1,0.4,2.1,0.6,2.8,0.7
			C731.1,387.8,731.2,387.9,731.3,388z M728.3,356.4L728.3,356.4c0.1-0.1,0.2-0.3,0.3-0.3c0.2,0.1,0.7,0.3,1.1,0.4
			c0.8,0.3,2,0.8,3.5,1.2c1.2,0.3,2.1,0.4,2.7,0.4c0.7,0.1,1.2,0.1,2.3,0.5c0.9,0.3,1.4,0.6,1.6,0.7c0,0.3-0.1,0.7-0.1,1.1
			c-0.1,0.4-0.1,0.8-0.2,1.3c-0.2,1.3-0.1,3.2,0,7.3c0,1.7,0.1,3,0.2,3.9c0,0.5,0.1,1,0.1,1.3c-0.5,0.4-2.1,0.7-3.6,0.9
			c-0.7,0.1-1.2,0.2-1.8,0.2c-0.8,0-1.8,0.1-3.4,0.4c-0.4,0.1-0.8,0.2-1.1,0.2c-0.1-0.9-0.2-2.1-0.3-3.3c-0.1-1.2-0.2-2.7-0.4-4.3
			c-0.2-1.9-0.5-3.5-0.7-5C727.7,359.5,727.5,357.4,728.3,356.4z M727.4,320.6c-0.2-1.3-0.4-2.5-0.7-3.7c0.8,0.9,1.5,1.5,2.3,1.8
			C728.4,319.3,727.9,319.9,727.4,320.6z M742.3,341.1c0.1,0.4,0.1,0.8,0.1,1c-0.3,0.3-1.3,0.4-1.8,0.5c-0.9,0.2-1.6,0.1-2.4,0
			c-1.3-0.2-3.1-0.4-4.7,1c-0.3,0.3-0.6,0.5-0.8,0.8c-0.4-0.3-0.7-0.6-1-1c-1.9-2.1-3.6-6.5-1-15.8c0.9-3.3,1.5-4.3,1.9-4.6
			c0.5,0.1,1.9,0.7,2.9,1.1c3.1,1.3,4.2,1.8,5.1,2.8c0.3,0.3,1.3,1.4,1.8,3.1c0.3,0.9,0.2,1.3,0,2.4c-0.2,1-0.5,2.5-0.5,4.7
			C741.9,338.9,742.2,340.2,742.3,341.1z"/>
		<path class="st0" d="M543.2,196.4c2-8.2,14.3-10.7,14.8-10.8c2-0.4,6.2-0.8,10.9,0.7c2.3,0.7,13.9,5,15.4,15.5
			c0.8,5.9-1.5,12.1-5.8,15.5c-8.7,6.9-23,0.7-29.5-6.3C542.8,204.4,542.4,199.4,543.2,196.4z"/>
	</g>
</g>
</svg>
