<?xml version="1.0" encoding="utf-8"?>
<!-- Generator: Adobe Illustrator 19.2.1, SVG Export Plug-In . SVG Version: 6.00 Build 0)  -->
<svg version="1.1" id="EL:_Ellustrave_SVG_for_circuit_stickerLED"
	 xmlns="http://www.w3.org/2000/svg" xmlns:xlink="http://www.w3.org/1999/xlink" x="0px" y="0px" viewBox="0 0 59 53"
	 style="enable-background:new 0 0 59 53;" xml:space="preserve">
<style type="text/css">
	.st0{fill:#F7941E;stroke:#F7941E;stroke-miterlimit:10;}
	.st1{fill:#FF0000;}
	.st2{fill:#FFF200;}
</style>
<g id="CP:_circuit_x5F_led_1_">
	<path id="NC:_base" class="st0" d="M30.6,11.5c0,0-22.9,22-15.1,26.2c6.7,3.5,24.9,3.1,30.3,0C51.3,33.9,30.6,11.5,30.6,11.5z"/>
	<polygon id="CGT:_negative_x5F_terminal" points="30.5,14.5 24.4,22.3 36.5,22.5 	"/>
	<path id="CVT:_positive_x5F_terminal_1_" class="st1" d="M23.8,30.2c-0.7,0-4.8-0.3-5.2,0.2c-1.1,1.4-2.5,2.3-2.5,5
		c0,1,2.9,1.6,2.9,1.6c6.4,2,23.7,0.4,24.4-0.2c0.5-0.4,0.8-1.1,0.8-1.8c0-0.8-1.2-2.7-2.4-4.4c-0.4-0.6-5.3-0.1-6,0
		c0,0-1.4,2-5.5,1.9C26.3,32.4,23.8,30.2,23.8,30.2z"/>
	<rect id="NC:_LED" x="26.6" y="24.9" class="st2" width="7.5" height="3.8"/>
</g>
</svg>
