<?xml version="1.0" encoding="utf-8"?>
<!-- Generator: Adobe Illustrator 19.2.1, SVG Export Plug-In . SVG Version: 6.00 Build 0)  -->
<svg version="1.1" xmlns="http://www.w3.org/2000/svg" xmlns:xlink="http://www.w3.org/1999/xlink" x="0px" y="0px"
	 viewBox="0 0 12.4 41.5" style="enable-background:new 0 0 12.4 41.5;" xml:space="preserve">
<style type="text/css">
	.st0{fill:#0C00FF;}
	.st1{display:none;}
	.st2{display:inline;fill:#00000C;}
	.st3{display:inline;fill:#0C00FF;}
	.st4{display:inline;}
</style>
<g id="EL:_5050_Package">
	<g id="CP:_Copper_Tape_Breakout">
		<polygon id="CGT:_GND" class="st0" points="12.4,41.5 0,41.5 0,32.5 8.4,32.5 12.4,32.5 		"/>
		<polygon id="CNT:_C" class="st0" points="12.4,30.7 0,30.7 0,21.7 7,21.7 12.4,21.7 		"/>
		<polygon id="CNT:_D" class="st0" points="12.4,19.8 0,19.8 0,10.8 7.3,10.8 12.4,10.8 		"/>
		<polygon id="CVT:_VCC" class="st0" points="12.4,9 0,9 0,0 7.7,0 12.4,0 		"/>
	</g>
</g>
<g id="NEL:_Other_stuff" class="st1">
	<rect x="-77.6" y="13.7" class="st2" width="14.2" height="14.2"/>
	<rect x="-67.2" y="15.6" class="st3" width="6.2" height="1.8"/>
	<rect x="-80" y="15.6" class="st3" width="6.2" height="1.8"/>
	<rect x="-80.2" y="10.5" class="st3" width="19.2" height="1.8"/>
	<rect x="-80.2" y="29.2" class="st3" width="19.3" height="1.8"/>
	<rect x="-67.1" y="20.1" class="st3" width="6.2" height="1.8"/>
	<rect x="-70.2" y="24.5" class="st3" width="9.3" height="1.8"/>
	<rect x="-80.1" y="20.1" class="st3" width="6.4" height="1.8"/>
	<rect x="-80.2" y="24.5" class="st3" width="6.4" height="1.8"/>
	
		<rect x="-78.3" y="17.7" transform="matrix(-8.577577e-11 -1 1 -8.577577e-11 -89.1142 -51.9718)" class="st3" width="15.6" height="1.8"/>
	
		<rect x="-77.9" y="26.9" transform="matrix(-2.054063e-10 -1 1 -2.054063e-10 -102.4355 -46.8996)" class="st3" width="6.5" height="1.8"/>
	<g class="st4">
		<rect y="16.3" class="st0" width="12.4" height="9"/>
		<rect y="27.1" class="st0" width="12.4" height="9"/>
		<rect y="-5.4" class="st0" width="12.4" height="9"/>
		<rect x="0" y="5.4" class="st0" width="12.4" height="9"/>
		<rect y="37.9" class="st0" width="12.4" height="9"/>
	</g>
</g>
</svg>
