<svg x="0" y="0" width="1366" height="910" version="1.1" xmlns="http://www.w3.org/2000/svg" xmlns:xlink="http://www.w3.org/1999/xlink"><g id="ELD: Ellustrate Circuit Design" fill="none" stroke="none" stroke-width="none" stroke-linecap="butt" stroke-linejoin="miter" stroke-miterlimit="none" stroke-dasharray="" stroke-dashoffset="0" font-family="none" font-weight="none" font-size="none" text-anchor="none" mix-blend-mode="normal"><g id="NCB: artboard" stroke-width="1" stroke-miterlimit="10"><polygon points="262.05512,752.6378 262.05512,157.3622 1103.94488,157.3622 1103.94488,752.6378" fill="#ffffff" font-family="sans-serif" font-weight="normal" font-size="12" text-anchor="start"/><text x="1081.16168" y="197.3622" fill="#000000" font-family="Arial" font-weight="bold" font-size="20" text-anchor="end">A4</text></g><g id="CP: Added trace" stroke="#839ca5" stroke-width="4" stroke-miterlimit="10" font-family="sans-serif" font-weight="normal" font-size="12" text-anchor="start"><path d="M546,331c0,-2.30623 -3.59654,-2.80445 -5,-1c-3.75054,4.82212 -7.62786,18.39536 2,20c5.28353,0.88059 13.86039,-6.20942 10,-12c-1.93715,-2.90573 -4.82061,-4.9402 -8,-6c-0.25472,-0.08491 -3.72956,0 -1,0" id="CVP: silver_ink"/></g><g id="CP: Added trace" stroke="#839ca5" stroke-width="4" stroke-miterlimit="10" font-family="sans-serif" font-weight="normal" font-size="12" text-anchor="start"><path d="M543,329c0,3.70076 -10.89722,-12.40185 -1,-19c7.22352,-4.81568 9.24374,13.05009 9,15c-0.05116,0.40927 -3,4 -3,4c0,0 1.46252,-1.92503 2,-3c1.10814,-2.21627 6.45179,-9.77411 10,-8c5.6254,2.8127 7.31045,13.75164 2,18c-0.11213,0.0897 -8,4 -8,4c0,0 7.90417,-2.21917 9,-2c4.81364,0.96273 6.63816,11.48246 4,15c-3.2618,4.34907 -12.85285,1.22072 -15,-2c-0.41345,-0.62017 -1.66667,-1.66667 -1,-2c7.40714,-3.70357 13.71267,21.54789 5,23c-7.30111,1.21685 -14.03424,-6.23966 -15,-13c-0.15102,-1.05716 -0.48749,-6.53753 0,-8c0.14907,-0.44721 0.57836,-1.21082 1,-1c2.81912,1.40956 0.47736,8.52264 -1,10c-3.9047,3.9047 -13.00583,-0.01166 -15,-4c-1.28944,-2.57889 -3.43894,-9.12212 -2,-12c1.09665,-2.1933 14.782,-1.564 13,2c-1.28155,2.5631 -8.3128,0.67488 -10,0c-5.43338,-2.17335 -7.246,-13.672 -4,-18c2.87895,-3.83861 15,-2.32741 15,3" id="CVP: silver_ink"/></g><g id="CP: Added trace" stroke="#839ca5" stroke-width="4" stroke-miterlimit="10" font-family="sans-serif" font-weight="normal" font-size="12" text-anchor="start"><path d="M596,287c-2.54761,-2.54761 -4.61507,-4.30684 -6,-8c-0.90772,-2.42058 -0.01522,-6.98478 1,-8c0.62745,-0.62745 -1.73529,-2 -1,-2c1.28206,0 6.48496,6.48496 7,7c3.28426,3.28426 11.01434,7.75359 16,9c3.77744,0.94436 6,-1.41753 6,-5c0,-1.938 -0.22941,-2.45883 -1,-4c-0.29814,-0.59628 -0.4714,-2.4714 0,-2c2.07996,2.07996 6.97957,14.34696 12,11c2.36304,-1.57536 1.2646,-16.3677 4,-15c4.62108,2.31054 5.9469,8.97345 10,11c3.41277,1.70638 1.15599,-7.68802 3,-4c2.1743,4.3486 2.95066,8.90132 5,13c0.4714,0.94281 1,3 1,3c0,0 0.46667,-3.46667 -1,-2c-3.10331,3.10331 -1.04757,11.02379 -5,13c-3.71451,1.85726 -14.06184,1.53092 -15,2c-4.87524,2.43762 -5.03182,9.01591 -9,11c-2.18988,1.09494 -10.84305,-11.42153 -14,-13c-1.60555,-0.80277 -5,-3.79505 -5,-2c0,2.10338 3.32043,4.88029 2,4c-4.46958,-2.97972 -21.14971,-12.85029 -15,-19" id="CVP: silver_ink"/></g><g id="CP: Added trace" stroke="#839ca5" stroke-width="4" stroke-miterlimit="10" font-family="sans-serif" font-weight="normal" font-size="12" text-anchor="start"><path d="M595,272c0,9.19596 -4,-12.4222 -4,-15c0,-1 -1,-3 0,-3c1.5339,0 4.83702,8.58149 8,7c2.17051,-1.08525 -0.4267,-7 2,-7c4.30856,0 4.55704,12.72148 10,10c2.92575,-1.46287 -0.39577,-6.60423 2,-9c2.37717,-2.37717 5.6125,10.12917 9,9c4.64426,-1.54809 1.21945,-7.10972 5,-9c2.42461,-1.2123 1.91353,5.91353 3,7c0.4714,0.4714 1.40372,0.29814 2,0c4.09986,-2.04993 4.09132,-9.30289 11,-7c8.86707,2.95569 6,18.86371 6,25" id="CVP: silver_ink"/></g><g id="CP: Added trace" stroke="#839ca5" stroke-width="4" stroke-miterlimit="10" font-family="sans-serif" font-weight="normal" font-size="12" text-anchor="start"><path d="M734,311c-0.48485,0.9697 -1.51515,4.36364 -2,0c-0.73713,-6.63417 -1.94399,-13.39209 -1,-20c0.24998,-1.74984 2.31332,-7.53734 5,-7c3.83205,0.76641 3,2.2861 3,5c0,1.33333 -0.94281,4.94281 0,4c3.03018,-3.03018 6.62858,-13.12381 13,-11c4.80683,1.60228 -0.48716,8.51284 1,10c0.25427,0.25427 8,-0.15245 8,0c0,2.13807 -3,4.86193 -3,7c0,3.18888 12.94582,-1.16254 14,2c0.87505,2.62514 -2.95456,8.04544 -2,9c0.97454,0.97454 10.45678,-7.17287 12,-1c0.75968,3.03873 -4,5.51732 -4,9c0,1.89498 3.59285,2.8143 2,6c-5.94453,11.88907 -34.24274,-2.62137 -41,-6c-4.04272,-2.02136 -8.82503,-1.60834 -13,-3" id="CGP: silver_ink"/></g><g id="CP: Added trace" stroke="#839ca5" stroke-width="4" stroke-miterlimit="10" font-family="sans-serif" font-weight="normal" font-size="12" text-anchor="start"><path d="M693,304c9.17121,0 -6.09981,-17.29943 -9,-26c-2.99628,-8.98884 -3,-18.65597 -3,-28c0,-4.08722 -0.04626,-10.31791 5,-12c3.47037,-1.15679 8.77033,0.19258 12,1c13.58372,3.39593 10,14.83994 10,27c0,2.78033 3.16271,3.34917 2,8c-1.47046,5.88184 -6.04122,11.12366 -8,17c-2.09695,6.29084 -10.51908,12.98728 -3,18" id="CGP: silver_ink"/></g><g id="CP: Added trace" stroke="#839ca5" stroke-width="4" stroke-miterlimit="10" font-family="sans-serif" font-weight="normal" font-size="12" text-anchor="start"><path d="M758,364c0,5.46789 -0.54539,-5.45461 1,-7c3.21581,-3.21581 10.57803,-7.80732 16,-6c9.21924,3.07308 16.52707,17.47293 8,26c-6.39241,6.39241 -24.37005,-6.7401 -27,-12c-1.06545,-2.1309 -4.70127,-6.4481 -7,-3c-1.54941,2.32411 -1.67108,10.21928 1,12c2.65198,1.76799 7.56883,0.56883 10,3c4.04705,4.04705 3.78457,19.30386 17,16c11.66747,-2.91687 13.13615,-17.45538 11,-26c-0.64743,-2.58973 -2.42684,-11.71342 -5,-13c-1.76028,-0.88014 -4.22535,1 -6,1" id="CGP: silver_ink"/></g><g id="CP: Added trace" stroke="#839ca5" stroke-width="4" stroke-miterlimit="10" font-family="sans-serif" font-weight="normal" font-size="12" text-anchor="start"><path d="M762,352c-5.1079,5.1079 -5.35785,-3.33946 -8,-4c-5.42484,-1.35621 -18.75088,3.75442 -20,10c-3.4991,17.49548 9.31945,16.97917 14,24c3.77013,5.6552 12.31982,15.04054 16,4" id="CGP: silver_ink"/></g><g id="CP: Added trace" stroke="#839ca5" stroke-width="4" stroke-miterlimit="10" font-family="sans-serif" font-weight="normal" font-size="12" text-anchor="start"><path d="M756,355c0,-4.37034 -4.23565,-9.60725 -1,-15c12.6573,-21.09551 39.62791,2.39536 42,19c1.50964,10.56747 -5.39733,16.09599 -10,23c-1.61942,2.42912 2.40806,2.81613 3,4c1.26643,2.53285 -5.61958,15.87319 -9,17c-3.40604,1.13535 -13.58806,3.70597 -17,2c-4.77284,-2.38642 -20.75,-11.9375 -24,-16c-3.76801,-4.71001 -0.3622,-9.08659 -2,-14c-0.97026,-2.91079 -8.35493,-3.70986 -10,-7c-3.11273,-6.22546 12.33148,-31.11049 18,-33c6.9813,-2.3271 11.08968,1 17,1" id="CGP: silver_ink"/></g><g id="CP: Added trace" stroke="#839ca5" stroke-width="4" stroke-miterlimit="10" font-family="sans-serif" font-weight="normal" font-size="12" text-anchor="start"><path d="M798,360c-0.71332,-0.71332 7.81072,1.71608 10,5c5.43625,8.15437 5.73975,20.27393 2,29c-4.74707,11.07651 -20.4997,14.07156 -30,10c-2.54456,-1.09053 -8,-2.46759 -8,-6" id="CGP: silver_ink"/></g><g id="CP: Added trace" stroke="#839ca5" stroke-width="4" stroke-miterlimit="10" font-family="sans-serif" font-weight="normal" font-size="12" text-anchor="start"><path d="M721,373c-15.4405,-6.61736 -6.59846,8.28901 -3,16c3.69181,7.91101 13.60313,15.89063 21,20c7.04622,3.91457 19.09172,3.97707 27,2c2.01503,-0.50376 9,-5.68718 9,-4" id="CGP: silver_ink"/></g><g id="CP: Added trace" stroke="#839ca5" stroke-width="4" stroke-miterlimit="10" font-family="sans-serif" font-weight="normal" font-size="12" text-anchor="start"><path d="M722,354c-0.11388,-0.34164 -0.11388,-4.34164 0,-4c1.63057,4.89172 0.68422,11.73688 2,17c0.08085,0.32338 -0.33333,1 0,1c3.54644,0 6.70382,-3 11,-3" id="CGP: silver_ink"/></g><g id="CP: Added trace" stroke="#839ca5" stroke-width="4" stroke-miterlimit="10" font-family="sans-serif" font-weight="normal" font-size="12" text-anchor="start"><path d="M765,419c-2.67054,0 -3.82924,-1.65848 -5,-4c-0.21082,-0.42164 0.66667,0.66667 1,1c1.05409,1.05409 2.56182,1.60777 4,2c4.0678,1.1094 8.22876,2.11438 12,4c11.33537,5.66768 23.58875,4.8225 30,-8" id="CNP: silver_ink"/></g><g id="CP: Added trace" stroke="#839ca5" stroke-width="4" stroke-miterlimit="10" font-family="sans-serif" font-weight="normal" font-size="12" text-anchor="start"><path d="M733,412c-2.33333,-1.33333 -4.54421,-2.90854 -7,-4c-6.0296,-2.67982 1.00545,8.93624 3,10c5.49457,2.93044 11.77282,5 18,5" id="CGP: silver_ink"/></g><g id="CP: Added trace" stroke="#839ca5" stroke-width="4" stroke-miterlimit="10" font-family="sans-serif" font-weight="normal" font-size="12" text-anchor="start"><path d="M753,425c0,-1.49071 2.5538,-1.63845 4,-2" id="CGP: silver_ink"/></g><g id="CP: Added trace" stroke="#839ca5" stroke-width="4" stroke-miterlimit="10" font-family="sans-serif" font-weight="normal" font-size="12" text-anchor="start"><path d="M709,366c6.71918,-13.43836 1.68709,-12.78911 -8,-14c-0.91846,-0.11481 -4.0458,-2.9542 -5,-2c-0.65558,0.65558 -0.499,3.499 -1,4c-0.83797,0.83797 -7.35915,-5.64085 -9,-4c-1.82557,1.82557 0,8 0,8c0,0 -0.66667,-0.66667 -1,-1c-1.80307,-1.80307 -4.77565,-1.11217 -7,0c-6.8843,3.44215 2.78268,13.47821 11,8" id="CGP: silver_ink"/></g><g id="CP: Added trace" stroke="#839ca5" stroke-width="4" stroke-miterlimit="10" font-family="sans-serif" font-weight="normal" font-size="12" text-anchor="start"><path d="M610,336c-11.67626,7.78417 -19.05048,10.26922 -22,26c-0.31085,1.65784 9.9632,0.4816 11,1c1.71463,0.85731 0.46656,9.36664 3,10c4.50921,1.1273 7.58866,-6.58866 10,-9c1.20185,-1.20185 0.58777,3.35107 1,5c1.24245,4.9698 1.05519,8.61873 5,12c1.04098,0.89226 6.41522,3.2264 8,3c2.46592,-0.35227 5,-6 5,-6c0,0 4.17849,5.86613 8,3c3.14829,-2.36122 3.27704,-7.67557 3,-11c-0.19574,-2.34888 -0.17239,-4.79305 -1,-7c-0.33104,-0.88278 -2.94281,-2 -2,-2c2.01512,0 0.88063,2.77984 4,2c7.81273,-1.95318 0.49418,-11.00333 -3,-13c-2.30424,-1.31671 -8.2761,-1.2761 -10,-3c-0.9579,-0.9579 6.68648,-4.31352 5,-6c-1.6074,-1.6074 -5.50103,-3.99959 -8,-3c-1.11589,0.44636 -3.84984,2.84984 -3,2c1.9388,-1.9388 4.93952,-3.12095 3,-7c-2.84297,-5.68594 -21.58142,-10.83715 -25,-4" id="CVP: silver_ink"/></g><g id="CP: Added trace" stroke="#839ca5" stroke-width="4" stroke-miterlimit="10" font-family="sans-serif" font-weight="normal" font-size="12" text-anchor="start"><path d="M587,313c0,-6.08484 -11.34144,-13.21141 -16,-7c-3.784,5.04534 0,15 0,15c0,0 -4.62602,8.75341 -5,10c-1.73725,5.79085 -4.73016,17.42328 3,20c4.74123,1.58041 10.83174,-6.22116 15,-9c0.78446,-0.52298 1.15673,-1.57836 2,-2c0.70667,-0.35333 1,-2 1,-2c0,0 1.87215,5.68102 5,3c3.16667,-2.71429 8.83156,-10.01067 8,-15c-0.3769,-2.26139 -5.23913,-0.49565 -4,0c4.08936,1.63574 13.36275,2.85784 12,-6c-0.89039,-5.78753 -12.85091,-8.51055 -17,-11" id="CVP: silver_ink"/></g><g id="CP: Added trace" stroke="#839ca5" stroke-width="4" stroke-miterlimit="10" font-family="sans-serif" font-weight="normal" font-size="12" text-anchor="start"><path d="M684,329c-2.74874,-2.74874 -4.77073,-6.31218 -6,-10c-0.86923,-2.60768 -1.21016,-5.36719 -2,-8c-0.21418,-0.71392 -0.47295,-2.52705 -1,-2c-2.45437,2.45437 5.4281,13.38016 7,16c0.24254,0.40423 1,1 1,1c0,0 -0.78918,-0.57836 -1,-1c-1.90036,-3.80072 -1,-17.07022 -1,-10" id="CVP: silver_ink"/></g><g id="CP: Added trace" stroke="#839ca5" stroke-width="4" stroke-miterlimit="10" font-family="sans-serif" font-weight="normal" font-size="12" text-anchor="start"><path d="M685,322c0.97183,0.97183 1,5.37437 1,4c0,-4.8193 -0.1481,-10.7038 2,-15" id="CNP: silver_ink"/></g><g id="CP: Added trace" stroke="#839ca5" stroke-width="4" stroke-miterlimit="10" font-family="sans-serif" font-weight="normal" font-size="12" text-anchor="start"><path d="M687,320c0,5.94245 0.87883,-0.75767 3,-5" id="CNP: silver_ink"/></g><g id="CP: Added trace" stroke="#839ca5" stroke-width="4" stroke-miterlimit="10" font-family="sans-serif" font-weight="normal" font-size="12" text-anchor="start"><path d="M687,324c2.85437,2.85437 7.67371,-5.67371 10,-8" id="CGP: silver_ink"/></g><g id="CP: Added trace" stroke="#839ca5" stroke-width="4" stroke-miterlimit="10" font-family="sans-serif" font-weight="normal" font-size="12" text-anchor="start"><path d="M694,323c0,4.07813 4.00758,-0.00758 7,-3" id="CGP: silver_ink"/></g><g id="CP: Added trace" stroke="#839ca5" stroke-width="4" stroke-miterlimit="10" font-family="sans-serif" font-weight="normal" font-size="12" text-anchor="start"><path d="M693,327c-3.07222,3.07222 -2.24704,4 2,4" id="CGP: silver_ink"/></g><g id="CP: Added trace" stroke="#839ca5" stroke-width="4" stroke-miterlimit="10" font-family="sans-serif" font-weight="normal" font-size="12" text-anchor="start"><path d="M688,329c0,2.71238 -2.94849,6 2,6" id="CNP: silver_ink"/></g><g id="CP: Added trace" stroke="#839ca5" stroke-width="4" stroke-miterlimit="10" font-family="sans-serif" font-weight="normal" font-size="12" text-anchor="start"><path d="M684,337c0,1.84583 -6.5838,7 1,7" id="CNP: silver_ink"/></g><g id="CP: Added trace" stroke="#839ca5" stroke-width="4" stroke-miterlimit="10" font-family="sans-serif" font-weight="normal" font-size="12" text-anchor="start"><path d="M681,337c-4.99063,0 -12,10.03849 -12,7" id="CVP: silver_ink"/></g><g id="CP: Added trace" stroke="#839ca5" stroke-width="4" stroke-miterlimit="10" font-family="sans-serif" font-weight="normal" font-size="12" text-anchor="start"><path d="M673,332c0,-0.59028 -6.28905,-2.71095 -7,-2c-1.19226,1.19226 3.77363,-5.61319 1,-7c-4.21102,-2.10551 -14,-1.11369 -14,-9" id="CNP: silver_ink"/></g><g id="CP: Added trace" stroke="#839ca5" stroke-width="4" stroke-miterlimit="10" font-family="sans-serif" font-weight="normal" font-size="12" text-anchor="start"><path d="M670,326c-6.9386,-2.31287 -12.20216,-6.80864 -14,-14" id="CNP: silver_ink"/></g><g id="CP: Added trace" stroke="#839ca5" stroke-width="4" stroke-miterlimit="10" font-family="sans-serif" font-weight="normal" font-size="12" text-anchor="start"><line x1="684" y1="334" x2="673" y2="326" id="CVP: silver_ink"/></g><g id="CP: Added trace" stroke="#839ca5" stroke-width="4" stroke-miterlimit="10" font-family="sans-serif" font-weight="normal" font-size="12" text-anchor="start"><path d="M684,346c-7.51999,0 -6.96806,17.96806 -4,15" id="CGP: silver_ink"/></g><g id="CP: Added trace" stroke="#839ca5" stroke-width="4" stroke-miterlimit="10" font-family="sans-serif" font-weight="normal" font-size="12" text-anchor="start"><path d="M685,365c-0.81685,1.6337 -7.99144,8.00856 -6,10c4.14764,4.14764 8.7296,-4 13,-4c4.44984,0 0.77089,13.22911 5,9" id="CGP: silver_ink"/></g><g id="CP: Added trace" stroke="#839ca5" stroke-width="4" stroke-miterlimit="10" font-family="sans-serif" font-weight="normal" font-size="12" text-anchor="start"><path d="M666,378c-4.85691,0.80948 -10.19583,2.90208 -10,3c0.89443,0.44721 2,0 3,0" id="CVP: silver_ink"/></g><g id="CP: Added trace" stroke="#839ca5" stroke-width="4" stroke-miterlimit="10" font-family="sans-serif" font-weight="normal" font-size="12" text-anchor="start"><path d="M589,392c-4.79096,-1.19774 -9.98292,-6.00342 -15,-5c-4.72414,0.94483 -4.17815,8.82185 -6,7c-1.80143,-1.80143 0.37617,-9.12539 -6,-7c-8.2433,2.74777 -3.35476,17.30333 0,22c5.04594,7.06431 8.1084,-4 10,-4c0.33333,0 0,0.66667 0,1c0,4.50657 -1.09512,6.92866 3,10c4.66091,3.49568 10.59742,-5.26839 14,-3c3.88501,2.59 7.14945,8.02989 12,9c1.29193,0.25839 5,-2 5,-2c0,0 -4.01554,5.00518 -1,4c4.02831,-1.34277 11.72201,-19 5,-19c-5.9951,0 -1.6115,13.30575 7,9c6.38157,-3.19078 1.3095,-9.79367 -2,-12c-5.06234,-3.37489 -10.98932,-6.49466 -16,-9c-0.42164,-0.21082 0.57836,-0.78918 1,-1c1.97184,-0.98592 1.29853,-5.70147 0,-7c-3.65725,-3.65725 -8.78016,-4.89008 -13,-7c-3.34232,-1.67116 -5.40447,-8.40447 -8,-11" id="CVP: silver_ink"/></g><g id="CP: Added trace" stroke="#839ca5" stroke-width="4" stroke-miterlimit="10" font-family="sans-serif" font-weight="normal" font-size="12" text-anchor="start"><path d="M703,406c-11.42205,-2.07674 -14.67721,-5.88768 -19,6c-0.68349,1.87959 -1.89737,5.36754 0,6c3.42121,1.1404 7.13422,-2.26844 7,-2c-2.14332,4.28664 2.77241,15.04552 8,14c8.37391,-1.67478 2.68684,-12.37368 1,-9c-1.05765,2.1153 9.0175,1.91251 10,-3c0.72644,-3.63222 -0.8735,-7.6205 -2,-11c-0.43461,-1.30384 -2.37437,-4 -1,-4c1.83435,0 6.46051,1.92102 4,-3c-0.29814,-0.59628 0,-2 0,-2c0,0 2.21936,3.43873 2,3c-3.37144,-6.74287 -18.56491,-5.85497 -25,-8" id="CGP: silver_ink"/></g><g id="CP: Added trace" stroke="#839ca5" stroke-width="4" stroke-miterlimit="10" font-family="sans-serif" font-weight="normal" font-size="12" text-anchor="start"><path d="M650,394c-5.45388,0 -14.39505,-1.61734 -16,4c-2.33202,8.16208 9.08497,-2.49019 10,3c0.76757,4.6054 -3.95362,12.09275 -2,16c0.42164,0.84327 1.33333,-1.33333 2,-2c2.50664,-2.50664 5.88591,-14.44295 1,-12c-4.03904,2.01952 0.09427,13.61784 2,16c5.68059,7.10074 15.58959,1.58959 17,3c2.84392,2.84392 -5.87295,12.75137 -1,16c5.70722,3.80481 5,-10 5,-10c0,0 2,4.60833 2,3c0,-10.10089 -12.54436,-16.57394 -17,-24c-2.52307,-4.20512 0,-8.33351 0,-12" id="CVP: silver_ink"/></g><g id="CP: Added trace" stroke="#839ca5" stroke-width="4" stroke-miterlimit="10" font-family="sans-serif" font-weight="normal" font-size="12" text-anchor="start"><path d="M735,257c-3.27923,19.6754 1.89196,-13.33794 7,-21c2.76319,-4.14478 11.47716,-15 17,-15c1.4714,0 2,-2 2,-2c0,0 -0.2192,2.68481 0,4c0.94678,5.68069 4.60333,9.4133 6,15c0.08085,0.32338 0.14907,0.70186 0,1c-4.94002,9.88005 -27,16.58429 -27,28c0,0.51484 -7.07117,0.92883 -8,0c-1.77619,-1.77619 -1.36526,-13.68263 4,-11c2.66052,1.33026 -0.04296,4.56443 -1,6c-0.41345,0.62017 -1,2.74536 -1,2c0,-4.77644 2.50484,-12.51451 4,-17c0.14907,-0.44721 0.5286,-1 1,-1c0.03502,0 -0.05807,5.76773 0,6c0.20846,0.83384 3,3.44809 3,4c0,0.6991 -3.87195,-4.97559 -4,-6c-0.85086,-6.80691 -4,-15.35004 -4,-22c0,-0.74536 0.66667,1.33333 1,2c0.86923,1.73845 2.27815,3.19537 3,5c0.47625,1.19061 2.16845,12 4,12c2.02759,0 -0.71326,-3.99279 -1,-6c-0.77663,-5.43641 -3,-12.54681 -3,-18c0,-0.74536 0.58655,1.37983 1,2c0.9245,1.38675 2.1731,2.55293 3,4c1.25949,2.20411 1.59184,4.88776 3,7c0.66667,1 2,4.20185 2,3c0,-4.06139 -0.63076,-13.73849 1,-17c0.53748,-1.07497 1.70851,1.83403 2,3c0.22866,0.91466 1.33333,1.33333 2,2c0.36453,0.36453 0.42131,5 1,5c2.93471,0 -0.39664,-10.60336 1,-12c0.8698,-0.8698 2.33067,6.33067 3,7c1.09577,1.09577 1.46022,-6.07956 1,-7c-0.74536,-1.49071 -0.52705,3.41886 0,5" id="CGP: silver_ink"/></g><g id="CP: Added trace" stroke="#839ca5" stroke-width="4" stroke-miterlimit="10" font-family="sans-serif" font-weight="normal" font-size="12" text-anchor="start"><path d="M748,250c-5.45251,0 0.52744,10.52744 4,14" id="CGP: silver_ink"/></g><g id="CP: Added trace" stroke="#839ca5" stroke-width="4" stroke-miterlimit="10" font-family="sans-serif" font-weight="normal" font-size="12" text-anchor="start"><path d="M747,255c0,-1.87708 -2,-1.96598 -2,-4c0,-0.52852 5.78924,7.81613 7,6c3.92749,-5.89124 -2,-8.9132 -2,-14c0,-0.74536 0.55279,1.40372 1,2c1.00873,1.34498 3.45852,4.22926 5,5c0.29814,0.14907 0.85093,0.29814 1,0c0.84004,-1.68008 -1.25482,-10 -1,-10c0.62164,0 4.69165,7.6167 6,5c1.11999,-2.23998 -2,-7.60329 -2,-10c0,-1.66667 1.95884,2.69855 3,4c0.70883,0.88604 6.93645,5.1271 8,3c0.72539,-1.45078 -5.5409,-14.72955 -9,-13c-0.91745,0.45872 3.75421,3.49159 5,1c1.73786,-3.47573 1,-5.79284 1,-10" id="CGP: silver_ink"/></g><g id="CP:_Battery" stroke="none" stroke-width="1" stroke-miterlimit="4" font-family="museo-sans, sans-serif" font-weight="normal" font-size="14" text-anchor="start"><path d="M751.35,604.99974c0,17.7 -14.2,32 -31.8,32l-67.1,0c-17.6,0.1 -31.8,-14.3 -31.8,-32l0,0c0,-17.7 14.2,-32 31.8,-32l67.2,0c17.5,0 31.7,14.3 31.7,32z" id="NC:_base" fill="#d1d3d4"/><path d="M718.05,576.09974c15.7,0 28.3,12.7 28.3,28.3c0,15.6 -12.7,28.3 -28.3,28.3c-15.6,0 -27,-12 -27,-27.7c0,-15.7 11.4,-28.9 27,-28.9z" id="CGTB:_ground_pad" fill="#000000"/><path d="M654.95,576.09974c15.7,0 27.1,12.7 27.1,28.3c0,15.6 -11.5,28.3 -27.1,28.3c-15.6,0 -28.4,-12.6 -28.4,-28.3c0,-15.7 12.7,-28.3 28.4,-28.3z" id="CVTB:_power_pad" fill="#ff0000"/></g><line x1="1017" y1="319" x2="1017" y2="319" id="CXP: trace" stroke="#cccccc" stroke-width="4" stroke-miterlimit="10" font-family="sans-serif" font-weight="normal" font-size="12" text-anchor="start"/><g stroke-width="1" stroke-miterlimit="10" font-family="sans-serif" font-weight="normal" font-size="12" text-anchor="start"/><line x1="1021" y1="329" x2="1021" y2="329" id="CXP: trace" stroke="#cccccc" stroke-width="4" stroke-miterlimit="10" font-family="sans-serif" font-weight="normal" font-size="12" text-anchor="start"/><g stroke-width="1" stroke-miterlimit="10" font-family="sans-serif" font-weight="normal" font-size="12" text-anchor="start"/><g id="CP: Added trace" stroke="#839ca5" stroke-width="4" stroke-miterlimit="10" font-family="sans-serif" font-weight="normal" font-size="12" text-anchor="start"><path d="M607,415c0,-5.79765 9.70799,15.31865 10,16c4.89782,11.42826 8.62269,25.60422 10,38c1.85785,16.72069 1.67221,35.18051 8,51c5.38768,13.46919 14.40436,26.21308 19,40c4.01851,12.05554 -8.22284,33.59239 8,39" id="CVP: silver_ink"/></g><g id="CP: Added trace" stroke="#839ca5" stroke-width="4" stroke-miterlimit="10" font-family="sans-serif" font-weight="normal" font-size="12" text-anchor="start"><path d="M672,602c-6.00925,0 -4.54254,-11.17017 -6,-17c-4.17034,-16.68137 -8,-49.71884 -8,-67c0,-13.60909 0.22981,-27.47206 -1,-41c-1.24109,-13.65204 -11.71311,-26.13934 -16,-39c-1.90214,-5.70643 -3.26468,-22.89701 -6,-27c-8.15133,-12.227 -17.8832,-28.18241 -20,-43c-3.82152,-26.75066 15.01726,-43.89643 10,-74" id="CVP: silver_ink"/></g><g id="CP: Added trace" stroke="#839ca5" stroke-width="4" stroke-miterlimit="10" font-family="sans-serif" font-weight="normal" font-size="12" text-anchor="start"><path d="M670,605c0,-23.42024 -3.86357,-67.22169 -4,-78c-0.23787,-18.79209 7.7471,-36.77027 5,-56c-2.17578,-15.23046 -17.96385,-33.14459 -14,-49c3.63407,-14.53629 5.53337,-31.2002 8,-46c0.92023,-5.52136 5.3004,-9.90121 7,-15c2.98512,-8.95536 3.44936,-18.12339 7,-27c2.49759,-6.24397 7,-11.6525 7,-19c0,-2.86363 -3,-4.58951 -3,-8" id="CVP: silver_ink"/></g><g id="CP: Added trace" stroke="#839ca5" stroke-width="4" stroke-miterlimit="10" font-family="sans-serif" font-weight="normal" font-size="12" text-anchor="start"><path d="M731,601c-10.62619,-7.96965 -11.73638,-36.10015 -13,-50c-1.52966,-16.82621 -5.94924,-31.79695 -10,-48c-1.98016,-7.92064 -1.65589,-16.93536 -3,-25c-0.80621,-4.83728 -4.30269,-9.11881 -5,-14c-3.51955,-24.63682 -9.52974,-31.58737 0,-57" id="CGP: silver_ink"/></g><g id="CP: Added trace" stroke="#839ca5" stroke-width="4" stroke-miterlimit="10" font-family="sans-serif" font-weight="normal" font-size="12" text-anchor="start"><path d="M722,606c0,-42.04806 -10.29088,-81.03041 2,-122c6.71407,-22.38024 17.8912,-41.7824 28,-62c6.03652,-12.07303 17,-21.8419 17,-38" id="CGP: silver_ink"/></g><g id="CP: Added trace" stroke="#839ca5" stroke-width="4" stroke-miterlimit="10" font-family="sans-serif" font-weight="normal" font-size="12" text-anchor="start"><path d="M723,480c0,0.59763 -0.2357,2 1,2c2.33333,0 0.56592,-4.73633 0,-7c-0.96991,-3.87966 -1.4444,-7.83298 -2,-12c-1.55506,-11.66294 -2.70157,-23.50784 -5,-35c-2.44811,-12.24053 -3.6519,-25.2595 -6,-37c-2.11128,-10.5564 -9.32518,-25.34964 -4,-36c6.03826,-12.07651 12.32219,-24.48329 20,-36" id="CGP: silver_ink"/></g><g id="CP: Added trace" stroke="#839ca5" stroke-width="4" stroke-miterlimit="10" font-family="sans-serif" font-weight="normal" font-size="12" text-anchor="start"><path d="M722,327c4.55916,-7.59859 13.23091,-14.69274 16,-23c1.7277,-5.1831 2.0705,-14.0705 6,-18" id="CGP: silver_ink"/></g><g id="CP: Added trace" stroke="#839ca5" stroke-width="4" stroke-miterlimit="10" font-family="sans-serif" font-weight="normal" font-size="12" text-anchor="start"><path d="M731,304c1.11409,-10.02679 3.1622,-19.94635 4,-30c1.0819,-12.98278 -5.1711,-30.93156 10,-37" id="CGP: silver_ink"/></g><g id="CP: Added trace" stroke="#839ca5" stroke-width="4" stroke-miterlimit="10" font-family="sans-serif" font-weight="normal" font-size="12" text-anchor="start"><path d="M738,262c0.66667,-2.66667 3.22927,-5.54145 2,-8c-1,-2 -2.0544,3.97371 -3,6c-1.38831,2.97496 -2.53182,6.06364 -4,9c-2.86744,5.73488 -6.2552,11.20542 -9,17c-11.71853,24.73912 -24.13414,50.78046 -32,77c-6.05508,20.18359 -5.70958,43.35324 -7,64c-2.44337,39.09398 2.36121,77.80604 10,116c4.85295,24.26474 6.24099,39.94499 17,63" id="CGP: silver_ink"/></g><g id="CP: Added trace" stroke="#839ca5" stroke-width="4" stroke-miterlimit="10" font-family="sans-serif" font-weight="normal" font-size="12" text-anchor="start"><line x1="696" y1="295" x2="695" y2="295" id="CGP: silver_ink"/></g><g id="CP: Added trace" stroke="#839ca5" stroke-width="4" stroke-miterlimit="10" font-family="sans-serif" font-weight="normal" font-size="12" text-anchor="start"><path d="M695,306c-0.66667,-1 -1.46252,-4.07497 -2,-3c-2.85738,5.71476 1,16.88337 1,23c0,8.16118 -1,17.28543 -1,24" id="CGP: silver_ink"/></g><g id="CP: Added trace" stroke="#839ca5" stroke-width="4" stroke-miterlimit="10" font-family="sans-serif" font-weight="normal" font-size="12" text-anchor="start"><path d="M694,282c3.89625,31.16999 8,61.70491 8,93" id="CGP: silver_ink"/></g><g id="CP: Added trace" stroke="#839ca5" stroke-width="4" stroke-miterlimit="10" font-family="sans-serif" font-weight="normal" font-size="12" text-anchor="start"><path d="M741,415c2.33333,2 4.49925,4.21375 7,6c1.15079,0.82199 -1.84921,-2.17801 -3,-3c-1.50319,-1.0737 -6.83777,-6.72972 -9,-7c-5.96017,-0.74502 -14.78704,7.54167 -16,13c-2.05379,9.24207 15.0281,5.61686 19,8c3.23381,1.94029 -8,4.22876 -8,8c0,0.01408 8.98264,3.36415 10,4c5.97986,3.73741 15.24391,12.55122 23,11c7.9831,-1.59662 8.3277,-11 -1,-11c-1.19129,0 4.90978,2.9918 5,3c2.65572,0.24143 5.33333,0 8,0c4.62136,0 24.32715,1.3457 27,-4c0.42164,-0.84327 -1.18141,-1.53224 -2,-2c-3.8829,-2.2188 -7.92872,-4.14942 -12,-6c-9.03677,-4.10762 -17.17904,-7.45524 -27,-5c-1.02262,0.25565 -0.01617,-2.6216 -1,-3c-4.97931,-1.91512 -10.69909,-2.93982 -16,-4" id="CGP: silver_ink"/></g><g id="CP: Added trace" stroke="#839ca5" stroke-width="4" stroke-miterlimit="10" font-family="sans-serif" font-weight="normal" font-size="12" text-anchor="start"><path d="M619,430c-7.98692,-1.99673 -14.59154,7.83189 -21,13c-4.61975,3.7256 -9.80344,6.80344 -14,11c-1.58114,1.58114 -5.12132,5.29289 -3,6c6.88856,2.29619 19.94042,-7.00745 28,-6c0.66152,0.08269 0.38749,1.45751 0,2c-3.40181,4.76254 -8.53484,9.27903 -13,13c-0.72429,0.60357 -2,1.05719 -2,2c0,1.33333 2.66667,0 4,0c6.18785,0 11.96729,-0.24591 18,-1c4.13374,-0.51672 9.98285,-2.98285 12,-5c0.4714,-0.4714 1.35324,-0.16169 2,0c5.25585,1.31396 10.15311,1.23126 15,-2c3.21014,-2.14009 -1.0312,-8.9688 1,-11c0.64611,-0.64611 19,-1.30432 19,-4c0,-2.4037 -3.681,-3.36754 -6,-4c-8.8305,-2.40832 -18.02473,-3.20495 -27,-5" id="CVP: silver_ink"/></g></g></svg>