<svg x="0" y="0" width="1366" height="910" version="1.1" xmlns="http://www.w3.org/2000/svg" xmlns:xlink="http://www.w3.org/1999/xlink"><g id="ELD: Ellustrate Circuit Design" fill="none" stroke="none" stroke-width="none" stroke-linecap="butt" stroke-linejoin="miter" stroke-miterlimit="none" stroke-dasharray="" stroke-dashoffset="0" font-family="none" font-weight="none" font-size="none" text-anchor="none" mix-blend-mode="normal"><g id="NCB: artboard" stroke-width="1" stroke-miterlimit="10"><polygon points="246.05512,723.6378 246.05512,128.3622 1087.94488,128.3622 1087.94488,723.6378" fill="#ffffff" font-family="sans-serif" font-weight="normal" font-size="12" text-anchor="start"/><text x="1065.16168" y="168.3622" fill="#000000" font-family="Arial" font-weight="bold" font-size="20" text-anchor="end">A4</text></g><g id="CP:_Battery" stroke="none" stroke-width="1" stroke-miterlimit="4" font-family="museo-sans, sans-serif" font-weight="normal" font-size="14" text-anchor="start"><path d="M706.35,559.99974c0,17.7 -14.2,32 -31.8,32l-67.1,0c-17.6,0.1 -31.8,-14.3 -31.8,-32l0,0c0,-17.7 14.2,-32 31.8,-32l67.2,0c17.5,0 31.7,14.3 31.7,32z" id="NC:_base" fill="#d1d3d4"/><path d="M673.05,531.09974c15.7,0 28.3,12.7 28.3,28.3c0,15.6 -12.7,28.3 -28.3,28.3c-15.6,0 -27,-12 -27,-27.7c0,-15.7 11.4,-28.9 27,-28.9z" id="CGTB:_ground_pad" fill="#000000"/><path d="M609.95,531.09974c15.7,0 27.1,12.7 27.1,28.3c0,15.6 -11.5,28.3 -27.1,28.3c-15.6,0 -28.4,-12.6 -28.4,-28.3c0,-15.7 12.7,-28.3 28.4,-28.3z" id="CVTB:_power_pad" fill="#ff0000"/></g><g id="CP:_circuit_x5F_led_1_" stroke-width="1" font-family="museo-sans, sans-serif" font-weight="normal" font-size="14" text-anchor="start"><path d="M680.51839,462.60664c0,0 -12.05623,-29.37784 -18.8266,-23.66452c-5.7154,4.94714 -12.02523,22.02302 -11.12426,28.18405c1.51538,6.51104 29.95086,-4.51953 29.95086,-4.51953z" id="NC:_base" fill="#f7941e" stroke="#f7941e" stroke-miterlimit="10"/><polygon points="677.7646,461.41221 672.74884,452.87452 668.12044,464.05611" id="CGT:_negative_x5F_terminal" fill="#000000" stroke="none" stroke-miterlimit="4"/><path d="M665.6208,449.41603c0.257,-0.65112 2.04132,-4.35465 1.72309,-4.91029c-0.89838,-1.53718 -1.22154,-3.16984 -3.73299,-4.16111c-0.93017,-0.36714 -2.55297,2.11007 -2.55297,2.11007c-4.21001,5.21879 -9.07322,21.89809 -8.77212,22.76949c0.1885,0.61194 0.72947,1.14798 1.38059,1.40498c0.74413,0.29371 2.95201,-0.12492 4.97386,-0.61699c0.70496,-0.15178 2.03885,-4.89317 2.20283,-5.581c0,0 -1.34634,-2.03651 0.25194,-5.81348c1.56157,-3.68395 4.52577,-5.20167 4.52577,-5.20167z" id="CVT:_positive_x5F_terminal_1_" fill="#ff0000" stroke="none" stroke-miterlimit="4"/><rect x="176.45587" y="-789.43282" transform="matrix(-0.36714,0.93017,-0.93017,-0.36714,0,0)" width="7.5" height="3.8" id="NC:_LED" fill="#fff200" stroke="none" stroke-miterlimit="4"/></g><g id="CP:_circuit_x5F_led_1_" stroke-width="1" font-family="museo-sans, sans-serif" font-weight="normal" font-size="14" text-anchor="start"><path d="M704.77902,386.20218c0,0 -11.34179,-29.66098 -18.24843,-24.11316c-5.83344,4.80738 -12.55464,21.72559 -11.80302,27.90661c1.35738,6.5458 30.05145,-3.79345 30.05145,-3.79345z" id="NC:_base" fill="#f7941e" stroke="#f7941e" stroke-miterlimit="10"/><polygon points="702.05495,384.94147 697.24725,376.2849 692.34964,387.35122" id="CGT:_negative_x5F_terminal" fill="#000000" stroke="none" stroke-miterlimit="4"/><path d="M690.205,372.65494c0.27268,-0.64471 2.14609,-4.30399 1.8414,-4.86716c-0.86092,-1.55847 -1.14448,-3.19847 -3.63121,-4.25022c-0.92101,-0.38954 -2.60328,2.04767 -2.60328,2.04767c-4.33507,5.11539 -9.60047,21.67213 -9.32054,22.55056c0.17363,0.61632 0.70148,1.16529 1.34619,1.43797c0.73681,0.31163 2.95418,-0.05345 4.98734,-0.49645c0.70842,-0.13468 2.15665,-4.8424 2.33723,-5.52606c0,0 -1.29667,-2.06849 0.39254,-5.80568c1.65026,-3.64509 4.65033,-5.09063 4.65033,-5.09063z" id="CVT:_positive_x5F_terminal_1_" fill="#ff0000" stroke="none" stroke-miterlimit="4"/><rect x="77.15641" y="-786.14907" transform="matrix(-0.38954,0.92101,-0.92101,-0.38954,0,0)" width="7.5" height="3.8" id="NC:_LED" fill="#fff200" stroke="none" stroke-miterlimit="4"/></g><g id="CP:_circuit_x5F_led_1_" stroke-width="1" font-family="museo-sans, sans-serif" font-weight="normal" font-size="14" text-anchor="start"><path d="M735.94252,303.90365c0,0 -5.31379,-31.30773 -13.17312,-27.21983c-6.66191,3.57196 -16.56601,18.84641 -17.03935,25.05495c0.04925,6.68488 30.21247,2.16488 30.21247,2.16488z" id="NC:_base" fill="#f7941e" stroke="#f7941e" stroke-miterlimit="10"/><polygon points="733.51806,302.13389 730.49864,292.70346 723.52877,302.59643" id="CGT:_negative_x5F_terminal" fill="#000000" stroke="none" stroke-miterlimit="4"/><path d="M724.30357,287.76472c0.39365,-0.57883 2.94738,-3.80039 2.75887,-4.41233c-0.53906,-1.69688 -0.49597,-3.36066 -2.72859,-4.87902c-0.8269,-0.56235 -2.95387,1.49823 -2.95387,1.49823c-5.25286,4.16743 -13.65857,19.3725 -13.55608,20.28874c0.04958,0.63839 0.4597,1.2801 1.03853,1.67375c0.66152,0.44988 2.90745,0.52609 4.988,0.48982c0.72108,0.00665 3.06317,-4.32632 3.37413,-4.96138c0,0 -0.86649,-2.28236 1.52185,-5.6164c2.33211,-3.25135 5.55716,-4.08141 5.55716,-4.08141z" id="CVT:_positive_x5F_terminal_1_" fill="#ff0000" stroke="none" stroke-miterlimit="4"/><rect x="-166.55927" y="-766.05021" transform="scale(1,1) rotate(124.21845)" width="7.5" height="3.8" id="NC:_LED" fill="#fff200" stroke="none" stroke-miterlimit="4"/></g><line x1="700" y1="381" x2="700" y2="381" id="CXP: trace" stroke="#cccccc" stroke-width="2" stroke-miterlimit="10" font-family="sans-serif" font-weight="normal" font-size="12" text-anchor="start"/><g stroke-width="1" stroke-miterlimit="10" font-family="sans-serif" font-weight="normal" font-size="12" text-anchor="start"/><g id="CP: Added trace" stroke="#839ca5" stroke-width="7" stroke-miterlimit="10" font-family="sans-serif" font-weight="normal" font-size="12" text-anchor="start"><path d="M685,550c-4.69282,8.21244 -6,9 -6,9c0,0 1.43431,-1.24575 2,-2c2.95296,-3.93729 4.79899,-8.59798 7,-13c10.60647,-21.21293 18.29725,-43.3554 28,-65c22.3137,-49.77671 46.60686,-98.21372 71,-147c7.93016,-15.86032 15.57075,-31.90329 23,-48c2.08025,-4.50722 4.73568,-17.26432 10,-12" id="CGP: silver_ink"/></g><g id="CP: Added trace" stroke="#839ca5" stroke-width="7" stroke-miterlimit="10" font-family="sans-serif" font-weight="normal" font-size="12" text-anchor="start"><path d="M607,561c0,2.7281 -4.47733,3.48934 -4,-2c0.55545,-6.38769 1.59253,-12.74459 3,-19c5.66179,-25.16351 13.29565,-50.09813 20,-75c16.98023,-63.06943 47.67106,-121.1316 73,-181c1.97827,-4.67592 3.89905,-9.3779 6,-14c2.40775,-5.29704 16.36622,-37 25,-37" id="CVP: silver_ink"/></g><g id="CP: Added trace" stroke="#839ca5" stroke-width="7" stroke-miterlimit="10" font-family="sans-serif" font-weight="normal" font-size="12" text-anchor="start"><path d="M719,289c0,1.50824 -10.89889,-2.72472 -16,-4c-16.51304,-4.12826 -31.95925,-11.65308 -48,-17" id="CVP: silver_ink"/></g><g id="CP: Added trace" stroke="#839ca5" stroke-width="7" stroke-miterlimit="10" font-family="sans-serif" font-weight="normal" font-size="12" text-anchor="start"><path d="M687,371c-1.86484,3.72969 -10.33377,2.73325 -14,2c-13.89671,-2.77934 -31.24858,-2.62429 -44,-9" id="CVP: silver_ink"/></g><g id="CP: Added trace" stroke="#839ca5" stroke-width="7" stroke-miterlimit="10" font-family="sans-serif" font-weight="normal" font-size="12" text-anchor="start"><path d="M661,452c-13.64043,0 -24.89011,-4.14415 -38,-8c-3.33869,-0.98197 -10,0.4801 -10,-3" id="CVP: silver_ink"/></g><polyline points="699,381 697,381 698,381 707,385 712,387 717,388 724,390 732,392 739,392 747,393 753,394 758,395 761,395 763,395 764,395 765,395 766,395 767,395 766,395" id="CXP: trace" stroke-width="5" stroke-miterlimit="10" font-family="sans-serif" font-weight="normal" font-size="12" text-anchor="start"/><g id="CP: Added trace" stroke="#839ca5" stroke-width="7" stroke-miterlimit="10" font-family="sans-serif" font-weight="normal" font-size="12" text-anchor="start"><path d="M673,462c-2.79034,-2.79034 8.41304,-2.19837 10,-2c12.43066,1.55383 25.42963,7 38,7c2.98818,0 7.20193,1.06731 10,2c0.97047,0.32349 6.27645,1 4,1" id="CGP: silver_ink"/></g><g id="CP: Added trace" stroke="#839ca5" stroke-width="7" stroke-miterlimit="10" font-family="sans-serif" font-weight="normal" font-size="12" text-anchor="start"><path d="M697,385c-4.4988,0 11.09293,3.82788 15,5c12.50833,3.7525 25.23152,7.87192 38,10c3.00307,0.50051 19.74753,7.74753 15,3" id="CGP: silver_ink"/></g><g id="CP: Added trace" stroke="#839ca5" stroke-width="7" stroke-miterlimit="10" font-family="sans-serif" font-weight="normal" font-size="12" text-anchor="start"><path d="M728,302c0,-0.12622 15.13842,4.21957 18,5c13.15409,3.58748 26.05172,8.68391 39,13c2.84892,0.94964 21.63684,10.09122 14,5" id="CGP: silver_ink"/></g><g id="CP: Added trace" stroke="#839ca5" stroke-width="2" stroke-miterlimit="10" font-family="sans-serif" font-weight="normal" font-size="12" text-anchor="start"><path d="M683,576c0,2.53119 -0.27735,-0.00255 3,-1c6.57411,-2.00082 13.59154,-2.51931 20,-5c5.66038,-2.19111 14.09469,-8.9231 18,-14c1.54781,-2.01215 3,-7 3,-7c0,0 -0.19612,2.01942 0,3c0.97301,4.86507 4.67752,13.11835 9,16c0.87706,0.58471 2.25464,1.74536 3,1c0.93553,-0.93553 4.74651,-12 5,-12c3.55662,0 6.28126,11.42709 11,13c2.93094,0.97698 6.57736,-5.71132 8,-5c0.58334,0.29167 5.73526,9.52947 7,7c0.61464,-1.22927 1,-4 1,-4c0,0 0.02341,4.97659 1,4c1.50092,-1.50092 1.74759,-12.75722 1,-15c-0.08,-0.24 -3,-3 -3,-3c0,0 4.75294,4.67059 5,5c1.86593,2.4879 3.73714,4.73714 6,7c0.33333,0.33333 0.78918,0.57836 1,1c0.14907,0.29814 -0.2357,0.7643 0,1c1.97502,1.97502 2.6542,-4.6729 6,-3c2.57918,1.28959 3.83878,4.2097 7,5c3.97151,0.99288 7.30893,-3 9,-3c0.81173,0 1.88678,3.44339 3,4c3.85621,1.9281 12.67113,2 17,2" id="CGP: silver_ink"/></g><g id="CP: Added trace" stroke="#839ca5" stroke-width="2" stroke-miterlimit="10" font-family="sans-serif" font-weight="normal" font-size="12" text-anchor="start"><path d="M504,580c0,-3 -0.72761,-6.08957 0,-9c1.33333,-5.33333 9.49747,-16 4,-16c-1.2357,0 -1,1.40237 -1,2c0,5.71497 0.2658,12.2658 4,16c1.69033,1.69033 1.49352,-8.25324 4,-7c2.19711,1.09855 7.07767,11.92233 11,8c0.93772,-0.93772 2,-8 2,-8c0,0 2.34838,11.32581 7,9c1.71943,-0.85971 4.50848,-3.03391 5,-5c0.25565,-1.02262 0.25464,-3.74536 1,-3c2.227,2.227 0.03468,5.25867 7,7c3.87355,0.96839 6.60307,-0.86769 10,-2c4.50772,-1.50257 8.97784,3.00739 18,0c2.44281,-0.81427 5.50473,3 9,3c9.60667,0 19.43292,-2 29,-2" id="CVP: silver_ink"/></g></g></svg>