<?xml version="1.0" encoding="utf-8"?>
<!-- Generator: Adobe Illustrator 19.1.0, SVG Export Plug-In . SVG Version: 6.00 Build 0)  -->
<svg version="1.1" id="Layer_1" xmlns="http://www.w3.org/2000/svg" xmlns:xlink="http://www.w3.org/1999/xlink" x="0px" y="0px"
	 viewBox="-255 334 100 125" style="enable-background:new -255 334 100 125;" xml:space="preserve">
<path d="M-164,395.4c-3.4,0.2-5.4,3.9-6.1,5.4c-3.5-3.2-6.2-2.5-6.3-2.4l-0.7,0.2l0.5,0.5c3,3.4,2.5,8.9,2.5,9
	c-0.4,6.4-5.1,6.7-5.3,6.7c-4.2,0-6.9-4.1-7-4.2c-1.2-1.6-1.6-3.9-2-5.9l0-0.2c-0.9-5.3-1.3-10.8-1.5-16c-0.3-6.9-0.8-13.1-4.5-18.1
	c-4.3-5.8-12.3-8.9-17.9-9.9c-3.3-0.6-6.6-0.7-9.6-0.6c2.7-2.6,4.4-6.2,4.4-10.2c0-7.7-6.3-14-14-14c-7.7,0-14,6.3-14,14
	c0,7.7,6.3,14,14,14c0.7,0,1.4-0.1,2-0.2c-0.8,5.1-7,45.9-0.2,54.8c-3.5,2.4-3.5,4.9-3.5,5.1c-0.1,1.1,0.3,2.1,1.1,3
	c3.9,4.2,17.1,4.4,19.7,4.4h0.2l0.3,0c0.3,0,0.7,0,1,0l0,0c4.9,1,13.8,2,13.9,2c0.3,0,0.7,0,1,0c9.3,0,16.6-2.5,21.7-7.6
	c7.5-7.3,7.6-17.5,7.6-17.6c0.6-7.3,3.1-11.6,3.1-11.7l0.4-0.7L-164,395.4z M-218.4,349.8c0,5.7-3.6,10.5-8.7,12.3
	c1.1-3.3,5.2-18.9-10.1-24.2c1.7-0.8,3.6-1.3,5.7-1.3C-224.3,336.6-218.4,342.5-218.4,349.8z M-244.7,349.8c0-4.9,2.7-9.2,6.7-11.4
	c-1.1,3.2-5.7,18.8,9.8,24.1c-1.1,0.3-2.2,0.4-3.3,0.4C-238.8,362.9-244.7,357-244.7,349.8z M-212.2,430h-0.2
	c-1.6,0-15.4-0.1-19.1-4.1c-0.6-0.7-0.9-1.4-0.8-2.3c0-0.1,0-5.9,14.1-7.9c0,0,1.5-0.3,3.5-0.3c3.6,0,8.2,1,9.6,5.7
	c0,0,0.7,4.2-1.4,6.9c-1.2,1.4-3,2.1-5.4,2.1H-212.2z M-167.6,407.7c0,0.1-0.1,9.9-7.3,17c-5.1,5-12.6,7.5-22.1,7.3
	c-0.1,0-6.8-0.8-11.7-1.6c1.1-0.4,2.1-1,2.8-1.9c2.4-2.9,1.7-7.4,1.6-7.6c-1.2-4.1-4.9-6.4-10.5-6.4c-2.1,0-3.6,0.3-3.7,0.3
	c-5,0.7-8.4,1.9-10.6,3.2c-6-7.4-1.5-41.4-0.1-51.7c0.4-0.1,0.8-0.2,1.1-0.5c0.7,0.7,2.5,2.7,2.7,5.9l0.9-0.1
	c-0.2-3.4-2.1-5.6-2.9-6.4c0.1-0.1,0.2-0.2,0.3-0.3c1.1,0.6,4,2.4,4.8,4.1l0.8-0.4c-0.9-2-3.9-3.8-5.1-4.5c0-0.1,0.1-0.2,0.1-0.2
	c0.9,0,5.4-0.1,8.3,2l0.5-0.7c-2.9-2.1-7-2.3-8.5-2.2c0-0.1,0.1-0.3,0.1-0.4c1-0.4,1.9-1,2.8-1.7c3.2-0.3,7-0.2,10.6,0.5
	c5.4,0.9,13.3,4,17.4,9.5c3.6,4.8,4.1,10.8,4.4,17.6c0.2,5.2,0.6,10.7,1.5,16.1l0,0.2c0.4,2,0.8,4.5,2.1,6.3c0.1,0.2,3,4.6,7.7,4.6
	c0.1,0,5.7-0.3,6.2-7.5c0-0.2,0.5-5.3-2.1-9c1,0,2.9,0.4,5.1,2.7l0.5,0.5l0.2-0.7c0,0,1.6-4.5,4.7-5.3
	C-165.6,398-167.2,401.9-167.6,407.7z"/>
<circle cx="-214.9" cy="372.5" r="2.8"/>
</svg>
