<?xml version="1.0" encoding="utf-8"?>
<!-- Generator: Adobe Illustrator 19.1.0, SVG Export Plug-In . SVG Version: 6.00 Build 0)  -->
<svg version="1.1" id="Layer_1" xmlns="http://www.w3.org/2000/svg" xmlns:xlink="http://www.w3.org/1999/xlink" x="0px" y="0px"
	 viewBox="-255 334 100 125" style="enable-background:new -255 334 100 125;" xml:space="preserve">
<g>
	<path d="M-475.4,109.3c-9.4-8.5,51-26.1,37.3-6.6C-417.5,117.1-481.3,120.4-475.4,109.3z"/>
	<path d="M-475.4,114.5c4.8-11.7,42,39,18.9,32.8C-463,171.7-487.9,112.8-475.4,114.5z"/>
	<path d="M-480.4,116.4c12.6,0.5-22.3,52.8-24.3,29C-529.8,147.6-483,104-480.4,116.4z"/>
	<path d="M-483.8,112.4c3.9,12-57.2-2.9-35.6-13C-530,76.6-473.1,105.6-483.8,112.4z"/>
	<path d="M-481.2,107.8c-10,7.8-16.9-54.8,0-37.9C-463.3,52.1-471.2,115.5-481.2,107.8z"/>
</g>
<g>
	<path d="M-344.4,110.2c11.9,2.6,31.7-24.9,27.2-33.1c-2.2-4-10.9,7.4-14.1,4.8c-3.2-2.6,2.5-16.7-2.1-16.9
		C-344.3,64.6-349.8,100.6-344.4,110.2z"/>
	<path d="M-343.6,111c1.4,12.1,33.9,21.9,40.2,14.9c3.1-3.4-10.5-7.9-9.1-11.8c1.4-3.9,16.6-3.1,15.3-7.5
		C-300.5,96.3-336.3,102.8-343.6,111z"/>
	<path d="M-344.1,112c-11,5.2-9.6,39.2-1,42.8c4.2,1.8,4-12.5,8.2-12.4c4.2,0.1,8.3,14.7,12.1,12C-316.1,148-333.9,116.2-344.1,112z
		"/>
	<path d="M-345.2,111.8c-8.5-8.7-40.2,3.6-40.9,13c-0.3,4.6,13.1-0.3,14.4,3.7c1.3,4-11.2,12.7-7.4,15.3
		C-370.2,150-345.9,122.8-345.2,111.8z"/>
	<path d="M-345.4,110.7c5.4-10.9-16.5-36.8-25.6-34.4c-4.4,1.2,4.6,12.3,1.2,14.8c-3.3,2.5-15.6-6.5-16.9-2
		C-389.6,99.6-356.1,113.7-345.4,110.7z"/>
</g>
<g>
	<path d="M-479.6,246.2c0.5,4.8,30.4,25.4,41.5,14.3c11.7-11.6-5.9-18.1-5.9-18.1s19.2-10,2-18.9
		C-452.7,218-480.1,241.4-479.6,246.2z"/>
	<path d="M-477.7,246.7c-4.9,0.3-26.4,29.5-15.8,41c11.2,12.1,18.3-5.3,18.3-5.3s9.3,19.5,18.8,2.7
		C-450.4,274.7-472.8,246.4-477.7,246.7z"/>
	<path d="M-478.3,248.7c-0.2-4.9-28.5-27.5-40.4-17.2c-12.5,10.8,4.6,18.4,4.6,18.4s-19.8,8.6-3.4,18.7
		C-507.1,274.9-478.1,253.5-478.3,248.7z"/>
	<path d="M-480.2,248c4.9,0,28.4-27.6,18.6-39.8c-10.3-12.8-18.6,4-18.6,4s-7.9-20.1-18.6-4C-505.4,218.3-485,248-480.2,248z"/>
</g>
<g>
	<path d="M-319.6,367.2c11-1.9,22.6,6,22.6,6s-9.7,11.6-19.2,13.4c-12,2.3-21.7-0.7-22.6-6C-339.8,375.2-330.6,369.1-319.6,367.2z"
		/>
	<path d="M-317.3,395c6.9,8.8,5.3,22.8,5.3,22.8s-14.8-3.2-20.9-10.7c-7.7-9.5-9.6-19.5-5.3-22.8C-333.9,381-324.2,386.2-317.3,395z
		"/>
	<path d="M-340.8,410.1c-4.5,10.2-17.7,15.4-17.7,15.4s-4.2-14.5-0.4-23.4c4.8-11.3,12.7-17.6,17.7-15.4
		C-336.2,388.9-336.3,399.9-340.8,410.1z"/>
	<path d="M-365.1,396.4c-11.1,0.8-21.9-8.4-21.9-8.4s10.9-10.5,20.5-11.3c12.2-1.1,21.5,2.9,21.9,8.4
		C-344.3,390.5-354,395.7-365.1,396.4z"/>
	<path d="M-364.5,368.5c-5.9-9.5-2.9-23.2-2.9-23.2s14.4,4.7,19.6,12.8c6.7,10.3,7.5,20.4,2.9,23.2
		C-349.5,384.2-358.6,378-364.5,368.5z"/>
	<path d="M-339.6,356c5.6-9.7,19.2-13.5,19.2-13.5s2.6,14.9-2.1,23.3c-6,10.7-14.4,16.2-19.2,13.5
		C-346.4,376.6-345.2,365.7-339.6,356z"/>
</g>
<g>
	<path d="M-454.1,396.4c-12.3-0.9-20.2-5.6-24.5-12.3c3.6-6.2,10-12,22.3-11.1c12.3,0.9,22.6,7.6,22.2,14.2
		C-434.5,393.8-441.8,397.3-454.1,396.4z"/>
	<path d="M-488.4,410.1c-2.6-12.1-0.2-21,5.1-26.9c7,1.7,14.3,6.4,16.8,18.4c2.6,12-1.1,23.9-7.6,25.2
		C-480.4,428.2-485.8,422.2-488.4,410.1z"/>
	<path d="M-510.9,380.9c10.9-5.8,20.1-6,27.3-2.5c0.2,7.2-2.2,15.5-13,21.3c-10.9,5.8-23.2,5.5-26.3-0.3
		C-526.1,393.5-521.8,386.7-510.9,380.9z"/>
	<path d="M-489.1,351.1c8.6,8.9,11.3,17.7,9.9,25.6c-6.8,2.2-15.5,2.2-24-6.7c-8.6-8.9-11.7-20.8-7-25.4
		C-505.4,340-497.7,342.3-489.1,351.1z"/>
	<path d="M-454.5,363.9c-6.2,10.7-13.9,15.7-21.8,16.6c-4-6-6.4-14.3-0.2-24.9c6.2-10.7,16.8-17,22.5-13.7
		C-448.2,345.2-448.3,353.3-454.5,363.9z"/>
</g>
<g>
	<path d="M-229.9,97.3c10.4-0.7,16.9,7.8,17.6,17.1c0.7,9.4-1.7,17.1-12.1,17.9c-10.4,0.7-24.9-5.9-25.6-15.2
		C-250.5,110.3-240.3,98-229.9,97.3z"/>
	<path d="M-221.2,128.6c2.2-10.2,12.1-14.1,21.3-12.2c9.2,1.9,16,6.3,13.8,16.5c-2.2,10.2-12.5,22.3-21.7,20.4
		C-214.3,151.9-223.4,138.8-221.2,128.6z"/>
	<path d="M-188.6,128.8c-9.2-4.9-10.2-15.6-5.8-23.8c4.4-8.3,10.5-13.6,19.7-8.8c9.2,4.9,18,18.2,13.6,26.5
		C-164.3,128.6-179.4,133.7-188.6,128.8z"/>
	<path d="M-179.5,97.6c-7.2,7.5-17.8,5.5-24.5-1c-6.7-6.5-10.2-13.9-3-21.3c7.2-7.5,22.4-12.3,29.2-5.8
		C-172.9,74.2-172.2,90.1-179.5,97.6z"/>
	<path d="M-206.9,80.2c5.2,9,0.4,18.6-7.7,23.3c-8.1,4.7-16.1,6-21.3-3c-5.2-9-5.6-25,2.5-29.6C-227.7,67.5-212.1,71.1-206.9,80.2z"
		/>
</g>
<g>
	<path d="M-64.8,350.8c10.2-13.1,22.9-9.6,22.9-9.6s6.4,11.5-3.8,24.6c-10.2,13.1-17.8,12.9-23.1,8.8
		C-74.1,370.3-75,363.8-64.8,350.8z"/>
	<path d="M-38.9,374.7c15.5,5.9,15.9,19.1,15.9,19.1s-9.1,9.5-24.6,3.5c-15.5-5.9-17.5-13.2-15.1-19.5
		C-60.3,371.6-54.4,368.8-38.9,374.7z"/>
	<path d="M-54.2,406.5c-1.2,16.5-13.6,20.8-13.6,20.8s-11.7-6-10.6-22.5c1.2-16.5,7.5-20.6,14.2-20.2
		C-57.5,385.1-53.1,389.9-54.2,406.5z"/>
	<path d="M-89.1,401.1c-16.2,3.7-23.9-6.9-23.9-6.9s2.3-13,18.4-16.7c16.2-3.7,21.9,1.2,23.4,7.7C-69.6,391.7-73,397.4-89.1,401.1z"
		/>
	<path d="M-94.2,366.2c-8.3-14.4-0.3-24.9-0.3-24.9s13.1-1.6,21.4,12.7c8.3,14.4,5.3,21.3-0.5,24.7
		C-79.5,382.1-85.9,380.6-94.2,366.2z"/>
</g>
<g>
	<path d="M-327.1,229.4c-7.8,10.3-12.9,18.3-15.1,17s1.2-9.4,7.2-21.6c5.4-11.1,11.1-19.3,15.1-17
		C-315.9,210.1-319.6,219.6-327.1,229.4z"/>
	<path d="M-319.3,251.1c-12.8-1.6-22.3-2-22.3-4.6c0-2.5,8.8-3.6,22.3-4.6c12.3-0.8,22.3,0,22.3,4.6
		C-297,251.1-307.1,252.7-319.3,251.1z"/>
	<path d="M-334.2,268.7c-5-11.9-9.4-20.3-7.2-21.6c2.2-1.3,7.5,5.8,15.1,17c6.9,10.2,11.1,19.3,7.2,21.6
		C-323.1,288-329.5,280.1-334.2,268.7z"/>
	<path d="M-356.9,264.6c7.8-10.3,12.9-18.3,15.1-17c2.2,1.3-1.2,9.4-7.2,21.6c-5.4,11.1-11.1,19.3-15.1,17
		C-368.1,283.9-364.4,274.4-356.9,264.6z"/>
	<path d="M-364.7,242.9c12.8,1.6,22.3,2,22.3,4.6c0,2.5-8.8,3.6-22.3,4.6c-12.3,0.8-22.3,0-22.3-4.6S-376.9,241.3-364.7,242.9z"/>
	<path d="M-349.8,225.3c5,11.9,9.4,20.3,7.2,21.6c-2.2,1.3-7.5-5.8-15.1-17c-6.9-10.2-11.1-19.3-7.2-21.6
		C-360.9,206-354.6,213.9-349.8,225.3z"/>
</g>
<g>
	<path d="M-61.6,246c-2.5,1.2-3.1,0.5-1.1-1.5l16.2-17.3c1.9-2.1,5.7-4.5,8.4-5.4l9.7-3.3c2.7-0.9,3.4,0.1,1.7,2.4l-7.7,9.7
		c-1.8,2.2-5.3,5-7.8,6.2L-61.6,246z"/>
	<path d="M-62.3,248.6c-1.9-2-1.4-2.7,1.1-1.5l21.4,10.1c2.6,1.2,6,4,7.7,6.3l6.2,8.2c1.7,2.3,0.9,3.3-1.7,2.3l-11.6-4.3
		c-2.6-1-6.4-3.5-8.4-5.5L-62.3,248.6z"/>
	<path d="M-65,248.7c1.3-2.5,2.2-2.2,1.8,0.6l-3,23.5c-0.4,2.8-2,7-3.6,9.3l-5.9,8.4c-1.6,2.3-2.9,1.9-2.7-0.9l0.5-12.3
		c0.1-2.8,1.3-7.2,2.7-9.6L-65,248.7z"/>
	<path d="M-65.9,246.2c2.8,0.5,2.8,1.4,0,1.9l-23.3,4.4c-2.8,0.5-7.3,0.3-10-0.6l-9.8-3c-2.7-0.8-2.7-2.1,0-2.9l11.9-3.3
		c2.7-0.8,7.2-1,10-0.4L-65.9,246.2z"/>
	<path d="M-63.8,244.5c0.4,2.8-0.4,3.1-1.8,0.6L-77,224.3c-1.4-2.5-2.5-6.8-2.6-9.6l-0.2-10.3c0-2.8,1.2-3.2,2.8-0.9l6.8,10.3
		c1.6,2.4,3.1,6.6,3.5,9.4L-63.8,244.5z"/>
</g>
<g>
	<path d="M-50.4,96.8c-8.8,8.8-17.2,14.6-18.7,13c-1.6-1.6,4.2-10,13-18.7c13.9-13.9,17.2-14.6,18.7-13
		C-35.8,79.7-37,83.4-50.4,96.8z"/>
	<path d="M-48.7,121c-11.8-3.8-20.8-8.7-20.1-10.8c0.7-2.1,10.8-0.7,22.6,3.1c18.7,6.1,20.8,8.7,20.1,10.8
		C-26.8,126.2-30.7,126.8-48.7,121z"/>
	<path d="M-69.5,133.4c-1.9-12.2-1.7-22.5,0.5-22.8c2.2-0.3,5.6,9.3,7.5,21.5c3.1,19.5,1.7,22.5-0.5,22.8
		C-64.2,155.3-66.5,152.2-69.5,133.4z"/>
	<path d="M-90,120.6c10-7.3,19.2-11.7,20.5-9.9c1.3,1.8-5.8,9.2-15.8,16.5c-15.9,11.6-19.2,11.7-20.5,9.9
		C-107.1,135.3-105.4,131.8-90,120.6z"/>
	<path d="M-87.9,96.5c11.1,5.6,19.2,11.8,18.2,13.8c-1,2-10.8-1-21.8-6.6c-17.6-8.9-19.2-11.8-18.2-13.8
		C-108.7,87.9-104.8,87.9-87.9,96.5z"/>
	<path d="M-65.4,87.4c0,12.4-1.8,22.5-4,22.5c-2.2,0-4-10.1-4-22.5c0-19.7,1.8-22.5,4-22.5C-67.3,65-65.4,68.4-65.4,87.4z"/>
</g>
<g>
	<path d="M-225.2,400.7c-11.7,2.9-24.8-9.4-24.8-9.4s5.8-17,17.5-20c11.7-2.9,22.8,1.3,24.8,9.4
		C-205.7,388.8-213.6,397.8-225.2,400.7z"/>
	<path d="M-230.3,367.2c-6.5-10.1,0.8-26.5,0.8-26.5s18-0.1,24.6,10c6.5,10.1,6.2,21.9-0.8,26.5
		C-212.8,381.7-223.8,377.2-230.3,367.2z"/>
	<path d="M-200.3,351.4c7.4-9.5,25.3-7.8,25.3-7.8s5.9,17-1.5,26.5c-7.4,9.5-18.7,13-25.3,7.8C-208.4,372.8-207.7,360.9-200.3,351.4
		z"/>
	<path d="M-175.6,374.7c11.4,3.9,15.6,21.4,15.6,21.4s-14.1,11.1-25.5,7.2c-11.4-3.9-18.4-13.5-15.6-21.4
		C-198.4,374-187,370.8-175.6,374.7z"/>
	<path d="M-189.6,405.6c0,12-15.1,21.8-15.1,21.8s-15.1-9.7-15.1-21.8c0-12,6.8-21.8,15.1-21.8
		C-196.4,383.8-189.6,393.6-189.6,405.6z"/>
</g>
<g>
	<path d="M-185.8,235.1c9.4-8.4,15.8-16.5,14.3-18.1c-1-1.1-5.7,1.3-11.7,5.9c3.6-6.3,5.3-11,3.9-11.6c-2-1-9.4,6.4-16.5,16.5
		c-6.6,9.3-10.6,17.6-9.6,19.6c0,0.1,0.1,0.1,0.1,0.2c0,0,0,0,0,0c0.1,0.1,0.1,0.1,0.2,0.2c0.1,0.1,0.3,0.1,0.4,0.1
		C-202.1,247.9-194.2,242.7-185.8,235.1z"/>
	<path d="M-183.3,255.4c12.4,2.2,22.7,2.2,23.1,0.1c0.3-1.5-4.6-3.7-11.8-5.6c7.2-1,11.9-2.6,11.6-4.1c-0.5-2.2-10.9-3.5-23.2-2.9
		c-11.3,0.5-20.4,2.5-21.3,4.5c0,0.1-0.1,0.1-0.1,0.2c0,0,0,0,0,0c0,0.1,0,0.2,0,0.3c0,0.1,0.1,0.3,0.2,0.4
		C-203.4,250.5-194.4,253.5-183.3,255.4z"/>
	<path d="M-197.7,270c5.9,11.1,12.2,19.3,14.1,18.3c1.3-0.7,0.1-5.9-2.9-12.8c5.2,5,9.4,7.8,10.4,6.6c1.4-1.7-4-10.7-12-20
		c-7.4-8.6-14.5-14.5-16.7-14.1c-0.1,0-0.1,0-0.2,0.1c0,0,0,0,0,0c-0.1,0-0.2,0.1-0.2,0.2c-0.1,0.1-0.1,0.2-0.2,0.4
		C-206.2,251-203,260-197.7,270z"/>
	<path d="M-218.1,267.5c-5.1,11.5-7.7,21.5-5.7,22.4c1.4,0.6,4.7-3.5,8.3-10.1c-0.8,7.2-0.4,12.2,1.2,12.2c2.2,0.1,6-9.7,8.4-21.8
		c2.2-11.1,2.5-20.4,0.8-21.8c-0.1,0-0.1-0.1-0.2-0.1c0,0,0,0,0,0c-0.1,0-0.2-0.1-0.3-0.1c-0.1,0-0.3,0-0.4,0.1
		C-208.4,249.2-213.5,257.2-218.1,267.5z"/>
	<path d="M-228.7,250c-12.2,3-21.7,7.2-21.2,9.3c0.4,1.5,5.7,1.5,13.1,0.3c-6.2,3.8-9.8,7.2-8.9,8.5c1.3,1.8,11.3-1.3,22.4-6.8
		c10.1-5.1,17.6-10.6,17.7-12.8c0-0.1,0-0.1,0-0.2c0,0,0,0,0,0c0-0.1-0.1-0.2-0.1-0.3c-0.1-0.1-0.2-0.2-0.3-0.3
		C-208.3,246.3-217.7,247.2-228.7,250z"/>
	<path d="M-221.4,230.8c-9.9-7.7-19-12.7-20.3-11c-0.9,1.2,2.3,5.4,7.8,10.5c-6.8-2.5-11.7-3.3-12.1-1.8c-0.6,2.1,8,8.2,19.1,13.4
		c10.3,4.9,19.2,7.4,21,6.1c0.1,0,0.1-0.1,0.2-0.1c0,0,0,0,0,0c0.1-0.1,0.1-0.2,0.1-0.3c0-0.1,0-0.3,0-0.4
		C-205.9,244.6-212.5,237.8-221.4,230.8z"/>
	<path d="M-201.8,224.8c0-12.6-1.7-22.8-3.9-22.8c-1.5,0-2.8,5.1-3.5,12.6c-2.2-6.9-4.6-11.3-6.1-10.7c-2.1,0.9-1.5,11.3,1.2,23.3
		c2.5,11.1,6,19.6,8.1,20.2c0.1,0,0.1,0,0.2,0c0,0,0,0,0,0c0.1,0,0.2,0,0.3-0.1c0.1-0.1,0.2-0.1,0.3-0.3
		C-203.2,245.5-201.8,236.1-201.8,224.8z"/>
</g>
</svg>
