<?xml version="1.0" encoding="utf-8"?>
<!-- Generator: Adobe Illustrator 19.1.0, SVG Export Plug-In . SVG Version: 6.00 Build 0)  -->
<svg version="1.1" id="Layer_1" xmlns="http://www.w3.org/2000/svg" xmlns:xlink="http://www.w3.org/1999/xlink" x="0px" y="0px"
	 viewBox="-255 334 100 125" style="enable-background:new -255 334 100 125;" xml:space="preserve">
<g>
	<g>
		<path d="M-189.3,397.4c-1.1,0-2,0.9-2,2c0,1.3-1.5,2.4-3.3,2.4c-1.8,0-3.3-1.1-3.3-2.4c0-1.1-0.9-2-2-2s-2,0.9-2,2
			c0,1.3-1.5,2.4-3.3,2.4c-1.8,0-3.3-1.1-3.3-2.4c0-1.1-0.9-2-2-2c-1.1,0-2,0.9-2,2c0,1.3-1.5,2.4-3.3,2.4s-3.3-1.1-3.3-2.4
			c0-1.1-0.9-2-2-2s-2,0.9-2,2c0,3.5,3.2,6.4,7.2,6.4c2.1,0,3.9-0.8,5.2-2c1.3,1.2,3.2,2,5.2,2s3.9-0.8,5.2-2c1.3,1.2,3.2,2,5.2,2
			c4,0,7.2-2.9,7.2-6.4C-187.3,398.3-188.2,397.4-189.3,397.4z"/>
		<path d="M-194.5,407.1c-1.1,0-2,0.9-2,2c0,1.3-1.5,2.4-3.3,2.4c-1.8,0-3.3-1.1-3.3-2.4c0-1.1-0.9-2-2-2c-1.1,0-2,0.9-2,2
			c0,1.3-1.5,2.4-3.3,2.4c-1.8,0-3.3-1.1-3.3-2.4c0-1.1-0.9-2-2-2s-2,0.9-2,2c0,3.5,3.2,6.4,7.2,6.4c2.1,0,3.9-0.8,5.2-2
			c1.3,1.2,3.2,2,5.2,2c4,0,7.2-2.9,7.2-6.4C-192.5,408-193.4,407.1-194.5,407.1z"/>
		<path d="M-167.8,370.6c0-7.4-3.4-14.2-9.1-18.6c3.4-3.2,6.4-6.6,8.6-9.9c0.5-0.8,0.4-1.9-0.4-2.6c-0.8-0.7-1.9-0.6-2.6,0
			c-3,2.7-12.3,9-18.7,6.4c-7-2.9-10.3-2.9-14-2.9c-0.3,0-1.6,0-1.9,0c-3.8,0-7,0-14,2.9c-7.7,3.2-18.5-6.3-18.7-6.4
			c-0.7-0.7-1.9-0.7-2.6,0c-0.8,0.7-0.9,1.8-0.4,2.6c2.2,3.3,5.2,6.7,8.6,9.9c-5.7,4.5-9.1,11.2-9.1,18.6c0,6.6,2.7,12.5,7,16.8
			c-1.6,4.3-4.5,13.8-0.9,20.1c1.7,3,4.6,4.8,8.6,5.4c1.4,2.4,3.3,4.6,5.7,6.4v5.2c0,2.5,2.3,4.6,5,4.6c2.8,0,5-2,5-4.6v-0.5
			c2.1,0.5,4.3,0.7,6.6,0.7h0c0,0,0,0,0,0c2.3,0,4.5-0.3,6.6-0.7v0.5c0,2.5,2.3,4.6,5,4.6c2.8,0,5-2,5-4.6v-5.2
			c2.4-1.8,4.3-4,5.7-6.4c4-0.6,6.9-2.5,8.6-5.4c3.7-6.3,0.8-15.8-0.9-20.1C-170.5,383.1-167.8,377.2-167.8,370.6z M-171.8,370.6
			c0,10.8-8.8,19.6-19.6,19.6c-3.5,0-6.9-0.9-9.9-2.7l1.2-4.1c2.5,1.7,5.5,2.7,8.7,2.7c8.6,0,15.5-7,15.5-15.5
			c0-5.4-2.8-10.3-7.3-13.1c1.1-0.9,2.2-1.8,3.3-2.8C-174.8,358.4-171.8,364.2-171.8,370.6z M-223.5,360.1c2.1,1.6,4.1,3.1,6,4.4
			c-0.4-0.1-0.7-0.1-1.1-0.1c-3.4,0-6.1,2.7-6.1,6.1c0,3.4,2.7,6.1,6.1,6.1c3.4,0,6.1-2.7,6.1-6.1c0-1.2-0.3-2.3-0.9-3.2
			c2.8,1.9,5.1,3.3,6.3,4c-0.4,6-5.4,10.7-11.5,10.7c-6.4,0-11.6-5.2-11.6-11.6C-230.1,366.1-227.5,362-223.5,360.1z M-216.4,370.6
			c0,1.2-1,2.2-2.2,2.2c-1.2,0-2.2-1-2.2-2.2s1-2.2,2.2-2.2C-217.4,368.4-216.4,369.4-216.4,370.6z M-191.4,368.4
			c1.2,0,2.2,1,2.2,2.2s-1,2.2-2.2,2.2c-1.2,0-2.2-1-2.2-2.2S-192.6,368.4-191.4,368.4z M-191.4,376.7c3.4,0,6.1-2.7,6.1-6.1
			c0-3.4-2.7-6.1-6.1-6.1c-0.4,0-0.8,0-1.1,0.1c1.9-1.4,3.9-2.8,6-4.4c4,1.9,6.7,6,6.7,10.5c0,6.4-5.2,11.6-11.6,11.6
			c-6.1,0-11.1-4.7-11.5-10.7c1.2-0.8,3.5-2.2,6.3-4c-0.6,0.9-0.9,2-0.9,3.2C-197.6,374-194.8,376.7-191.4,376.7z M-205,379.4
			l1.4,1.7l-1.4,4.8l-1.4-4.8L-205,379.4z M-218.5,349.5c6.3-2.6,8.9-2.6,12.5-2.6c0.3,0,1.7,0,2,0c3.6,0,6.2,0,12.5,2.6
			c3.9,1.6,8.1,1,11.8-0.4c-9.3,8.9-21.7,16.7-25.3,18.9c-3.6-2.2-16-10.1-25.3-18.9C-226.5,350.5-222.3,351.1-218.5,349.5z
			 M-238.2,370.6c0-6.4,3-12.2,8.1-15.9c1.1,0.9,2.2,1.9,3.3,2.8c-4.4,2.8-7.3,7.7-7.3,13.1c0,8.6,7,15.5,15.5,15.5
			c3.2,0,6.2-1,8.7-2.7l1.2,4.1c-3,1.7-6.4,2.7-9.9,2.7C-229.4,390.2-238.2,381.4-238.2,370.6z M-232.6,405.5
			c-2.5-4.3-0.7-11.5,0.7-15.4c0.7,0.5,1.5,1,2.3,1.4v13c0,1.3,0.2,2.6,0.5,3.9C-230.7,407.7-231.8,406.8-232.6,405.5z
			 M-215.5,424.4c0,0.2-0.4,0.6-1.1,0.6s-1.1-0.4-1.1-0.6v-2.7c0.7,0.3,1.4,0.7,2.2,1V424.4L-215.5,424.4z M-192.3,424.4
			c0,0.2-0.4,0.6-1.1,0.6s-1.1-0.4-1.1-0.6v-1.8c0.7-0.3,1.5-0.6,2.2-1V424.4z M-205,420.7C-205,420.7-205,420.7-205,420.7
			L-205,420.7c-11.4,0-20.7-7.3-20.7-16.2v-11.3c2.2,0.7,4.6,1.1,7.1,1.1c3.9,0,7.6-0.9,11-2.7c0,0,0.6,3.4,2,3.8
			c0.2,0.1,0.4,0.1,0.5,0.1c0,0,0,0,0,0c0,0,0,0,0,0c0.2,0,0.4,0,0.5-0.1c1.3-0.3,2-3.8,2-3.8c3.4,1.8,7.1,2.7,11,2.7
			c2.5,0,4.9-0.4,7.1-1.1v11.3C-184.3,413.4-193.6,420.7-205,420.7z M-177.4,405.5c-0.8,1.3-1.9,2.2-3.4,2.9
			c0.3-1.3,0.5-2.6,0.5-3.9v-13c0.8-0.4,1.5-0.9,2.3-1.4C-176.8,394-174.9,401.2-177.4,405.5z"/>
	</g>
</g>
</svg>
