<?xml version="1.0" encoding="utf-8"?>
<!-- Generator: Adobe Illustrator 19.1.0, SVG Export Plug-In . SVG Version: 6.00 Build 0)  -->
<svg version="1.1" id="Layer_1" xmlns="http://www.w3.org/2000/svg" xmlns:xlink="http://www.w3.org/1999/xlink" x="0px" y="0px"
	 viewBox="-255 334 100 125" style="enable-background:new -255 334 100 125;" xml:space="preserve">
<path d="M-208.6,357.2l-1.6-4.7l-21.2,7.1l1.6,4.7L-208.6,357.2z M-224.9,372.4l-1.7,1.7l-1.7-1.7c-2.7-2.7-7-2.7-9.7,0
	c-2.7,2.7-2.7,7,0,9.7l1.7,1.7l9.7,9.7l9.7-9.7l1.7-1.7c2.7-2.7,2.7-7,0-9.7C-217.8,369.7-222.2,369.7-224.9,372.4z M-178,359.6
	l-21.2-7.1l-1.6,4.7l21.2,7.1L-178,359.6z M-205,399c-2.8,0-5,2.2-5,5s2.2,5,5,5s5-2.2,5-5S-202.2,399-205,399z M-205,339
	c-24.9,0-45,20.1-45,45s20.1,45,45,45s45-20.1,45-45S-180.1,339-205,339z M-205,424c-22.1,0-40-17.9-40-40s17.9-40,40-40
	s40,17.9,40,40S-182.9,424-205,424z M-172.1,372.4c-2.7-2.7-7-2.7-9.7,0l-1.7,1.7l-1.7-1.7c-2.7-2.7-7-2.7-9.7,0
	c-2.7,2.7-2.7,7,0,9.7l1.7,1.7l9.7,9.7l9.7-9.7l1.7-1.7C-169.4,379.4-169.4,375-172.1,372.4z"/>
</svg>
