<?xml version="1.0" encoding="utf-8"?>
<!-- Generator: Adobe Illustrator 19.1.0, SVG Export Plug-In . SVG Version: 6.00 Build 0)  -->
<svg version="1.1" id="Layer_1" xmlns="http://www.w3.org/2000/svg" xmlns:xlink="http://www.w3.org/1999/xlink" x="0px" y="0px"
	 viewBox="-255 334 100 125" style="enable-background:new -255 334 100 125;" xml:space="preserve">
<g>
	<g>
		<path d="M-170.5,366.8c-6.5-1.3-13-0.6-18.8,2c0.7,2.6,1.1,5.3,1.1,8c0,9.6-4.4,18.4-12.2,24.8c8.3,0.5,16.4-2.1,22.3-8.1
			C-171.1,386.5-168.6,376.5-170.5,366.8z"/>
		<g>
			<path d="M-168.2,383.5c-1.5,4.6-4,8.8-7.5,12.3c-5.9,5.9-13.9,9.1-22.7,9.1c0,0,0,0,0,0c-0.4,0-0.8,0-1.2,0
				c6.4,4,13.9,5.6,21.4,3.9c9.6-2.2,17-9.3,20.7-18.6C-160.7,387.2-164.3,384.9-168.2,383.5z"/>
			<path d="M-211.7,404.9c-8.7,0-16.8-3.2-22.7-9.1c-3.5-3.5-6-7.7-7.5-12.3c-3.9,1.5-7.5,3.8-10.7,6.7c3.6,9.3,11,16.4,20.7,18.6
				c7.5,1.7,15,0.1,21.4-3.9C-210.9,404.9-211.3,404.9-211.7,404.9L-211.7,404.9z"/>
		</g>
		<path d="M-221.8,376.8c0-2.7,0.4-5.4,1.1-8c-5.7-2.6-12.3-3.3-18.8-2.1c-1.9,9.8,0.6,19.8,7.5,26.7c6,6,14.1,8.6,22.4,8.1
			C-217.4,395.2-221.8,386.3-221.8,376.8z"/>
	</g>
	<path d="M-218.6,376.8c0,9.9,5.3,18.7,13.6,24.2c8.2-5.6,13.6-14.4,13.6-24.2c0-9.9-5.3-18.7-13.6-24.2
		C-213.3,358.1-218.6,366.9-218.6,376.8z"/>
</g>
</svg>
