<?xml version="1.0" encoding="utf-8"?>
<!-- Generator: Adobe Illustrator 19.1.0, SVG Export Plug-In . SVG Version: 6.00 Build 0)  -->
<svg version="1.1" id="Layer_1" xmlns="http://www.w3.org/2000/svg" xmlns:xlink="http://www.w3.org/1999/xlink" x="0px" y="0px"
	 viewBox="-255 334 100 125" style="enable-background:new -255 334 100 125;" xml:space="preserve">
<path d="M-173,401c-0.5-8.4-7.5-15-16-15c-2.9,0-5.7,0.8-8.2,2.2c-4-4.6-9.7-7.2-15.8-7.2c-1.3,0-2.6,0.1-3.9,0.4c0,0,0,0,0-0.1
	c-6.2-6.8-9.6-15.6-9.6-24.8c0-4.6,0.9-9.2,2.6-13.5c0.1-0.4,0.1-0.8-0.2-1.1c-0.3-0.3-0.7-0.4-1.1-0.2c-15,5.9-24.8,20.2-24.8,36.3
	c0,7.1,1.9,14,5.5,20c-3.4,3.3-5.5,7.9-5.5,13c0,6.9,3.9,12.9,9.6,15.9c0,0,0,0,0.1,0c2.5,1.3,5.3,2.1,8.4,2.1h58
	c7.7,0,14-6.3,14-14C-160,407.6-165.8,401.5-173,401z M-248,378c0-14.6,8.3-27.5,21.4-33.6c-1.3,3.9-1.9,7.9-1.9,12.1
	c0,9.4,3.3,18.3,9.4,25.4c-1.4,0.4-2.8,1-4.1,1.7c-1.6-2.8-4.5-4.6-7.9-4.6c-5,0-9,4-9,9c0,2.2,0.8,4.3,2.3,6
	c-1.9,0.6-3.6,1.6-5.2,2.8C-246.2,391.1-248,384.6-248,378z M-232,393c-1.2,0-2.4,0.1-3.5,0.3c-1.6-1.3-2.5-3.3-2.5-5.3
	c0-3.9,3.1-7,7-7c2.6,0,4.9,1.4,6.1,3.7C-227.9,386.7-230.3,389.6-232,393C-232,393-232,393-232,393z M-173.6,427l2.3-2.3
	c0.4-0.4,0.4-1,0-1.4c-0.4-0.4-1-0.4-1.4,0l-3.7,3.7h-3.2l2.3-2.3c0.4-0.4,0.4-1,0-1.4s-1-0.4-1.4,0l-3.7,3.7h-3.2l2.3-2.3
	c0.4-0.4,0.4-1,0-1.4s-1-0.4-1.4,0l-3.7,3.7h-3.2l2.3-2.3c0.4-0.4,0.4-1,0-1.4s-1-0.4-1.4,0l-3.7,3.7h-3.2l2.3-2.3
	c0.4-0.4,0.4-1,0-1.4c-0.4-0.4-1-0.4-1.4,0l-3.7,3.7h-3.2l2.3-2.3c0.4-0.4,0.4-1,0-1.4c-0.4-0.4-1-0.4-1.4,0l-3.7,3.7h-3.2l2.3-2.3
	c0.4-0.4,0.4-1,0-1.4c-0.4-0.4-1-0.4-1.4,0l-3.7,3.7h-3.2l2.3-2.3c0.4-0.4,0.4-1,0-1.4c-0.4-0.4-1-0.4-1.4,0l-3.7,3.7h-3.2l2.3-2.3
	c0.4-0.4,0.4-1,0-1.4c-0.4-0.4-1-0.4-1.4,0l-3.7,3.7h-3.2l2.3-2.3c0.4-0.4,0.4-1,0-1.4s-1-0.4-1.4,0l-3.7,3.7h-1.6
	c-0.5,0-1,0-1.5-0.1l3.2-3.2c0.4-0.4,0.4-1,0-1.4s-1-0.4-1.4,0l-4,4c-0.1,0.1-0.1,0.1-0.1,0.2c-0.8-0.2-1.7-0.5-2.4-0.8l3-3
	c0.4-0.4,0.4-1,0-1.4s-1-0.4-1.4,0l-3.4,3.4c-0.7-0.4-1.3-0.8-1.9-1.3l3.7-3.7c0.4-0.4,0.4-1,0-1.4s-1-0.4-1.4,0l-3.8,3.8
	c-0.5-0.5-1-1.1-1.4-1.7l3.7-3.7c0.4-0.4,0.4-1,0-1.4c-0.4-0.4-1-0.4-1.4,0l-3.3,3.3c-0.4-0.7-0.7-1.4-1-2.2l3.7-3.7
	c0.4-0.4,0.4-1,0-1.4c-0.4-0.4-1-0.4-1.4,0l-3,3c-0.2-0.9-0.3-1.9-0.3-2.9l3.7-3.7c0.4-0.4,0.4-1,0-1.4c-0.4-0.4-1-0.4-1.4,0
	l-2.1,2.1c1.3-7.6,7.8-13.3,15.8-13.3c0.1,0,0.2,0,0.4,0l0.3,0c0,0,0,0,0,0c0.3,0,0.6,0,1,0c0.3,0,0.5,0.1,0.8,0.1
	c0.2,0,0.5,0.1,0.7,0.1c0.3,0.1,0.6,0.1,0.9,0.2c0.2,0.1,0.4,0.1,0.6,0.1c0.3,0.1,0.6,0.2,0.9,0.3c0.2,0.1,0.4,0.1,0.6,0.2
	c0.3,0.1,0.6,0.3,0.8,0.4c0.2,0.1,0.4,0.2,0.6,0.3c0.3,0.1,0.5,0.3,0.7,0.4c0.2,0.1,0.4,0.2,0.6,0.4c0.2,0.1,0.4,0.3,0.6,0.5
	c0.2,0.2,0.4,0.3,0.6,0.5c0.2,0.1,0.3,0.3,0.5,0.5c0.2,0.2,0.5,0.4,0.7,0.6c0.2,0.2,0.5,0.3,0.7,0.3c0.3,0,0.5-0.1,0.7-0.3
	c0.4-0.4,0.4-1,0-1.4c0,0,0,0,0,0c0,0,0,0,0,0c-0.3-0.3-0.6-0.5-0.9-0.8c-0.1-0.1-0.3-0.3-0.4-0.4c-0.2-0.2-0.4-0.3-0.6-0.5l1.9-1.9
	c0.4-0.4,0.4-1,0-1.4c-0.4-0.4-1-0.4-1.4,0l-2,2c-0.1,0.1-0.1,0.1-0.1,0.2c-0.2-0.1-0.4-0.3-0.7-0.4c-0.3-0.1-0.5-0.2-0.8-0.4
	c-0.2-0.1-0.4-0.2-0.7-0.3l2.7-2.7c0.4-0.4,0.4-1,0-1.4c-0.4-0.4-1-0.4-1.4,0l-3,3c-0.1,0.1-0.2,0.3-0.2,0.4
	c-0.2-0.1-0.4-0.1-0.6-0.2c-0.3-0.1-0.6-0.2-0.9-0.2c-0.3-0.1-0.6-0.1-0.9-0.1c-0.1,0-0.3,0-0.4-0.1c3.3-6.2,9.7-10.1,16.8-10.1
	c5.8,0,11.2,2.6,14.9,7.2c0.3,0.4,0.9,0.5,1.3,0.2c2.3-1.6,5-2.4,7.8-2.4c7.4,0,13.5,5.8,14,13c-2.8,0.2-5.4,1.2-7.6,2.9
	c-0.4,0.3-0.5,1-0.2,1.4c0.2,0.3,0.5,0.4,0.8,0.4c0.2,0,0.4-0.1,0.6-0.2c2.1-1.7,4.7-2.5,7.4-2.5c6.6,0,12,5.4,12,12
	C-162,421.5-167.1,426.7-173.6,427z"/>
<path d="M-236,374c0-3.3-2.2-6-5-6s-5,2.7-5,6s2.2,6,5,6S-236,377.3-236,374z M-241,378c-1.7,0-3-1.8-3-4s1.3-4,3-4s3,1.8,3,4
	S-239.3,378-241,378z"/>
<path d="M-172,346h2.6l-2.3,2.3c-0.4,0.4-0.4,1,0,1.4c0.2,0.2,0.5,0.3,0.7,0.3s0.5-0.1,0.7-0.3l2.3-2.3v2.6c0,0.6,0.4,1,1,1
	s1-0.4,1-1v-2.6l2.3,2.3c0.2,0.2,0.5,0.3,0.7,0.3s0.5-0.1,0.7-0.3c0.4-0.4,0.4-1,0-1.4l-2.3-2.3h2.6c0.6,0,1-0.4,1-1s-0.4-1-1-1
	h-2.6l2.3-2.3c0.4-0.4,0.4-1,0-1.4s-1-0.4-1.4,0l-2.3,2.3V340c0-0.6-0.4-1-1-1s-1,0.4-1,1v2.6l-2.3-2.3c-0.4-0.4-1-0.4-1.4,0
	s-0.4,1,0,1.4l2.3,2.3h-2.6c-0.6,0-1,0.4-1,1S-172.6,346-172,346z"/>
<path d="M-201,350h2.6l-1.3,1.3c-0.4,0.4-0.4,1,0,1.4c0.2,0.2,0.5,0.3,0.7,0.3s0.5-0.1,0.7-0.3l1.3-1.3v2.6c0,0.6,0.4,1,1,1
	s1-0.4,1-1v-2.6l1.3,1.3c0.2,0.2,0.5,0.3,0.7,0.3s0.5-0.1,0.7-0.3c0.4-0.4,0.4-1,0-1.4l-1.3-1.3h2.6c0.6,0,1-0.4,1-1s-0.4-1-1-1
	h-2.6l1.3-1.3c0.4-0.4,0.4-1,0-1.4s-1-0.4-1.4,0l-1.3,1.3V344c0-0.6-0.4-1-1-1s-1,0.4-1,1v2.6l-1.3-1.3c-0.4-0.4-1-0.4-1.4,0
	s-0.4,1,0,1.4l1.3,1.3h-2.6c-0.6,0-1,0.4-1,1S-201.6,350-201,350z"/>
<path d="M-181,370h2.6l-1.3,1.3c-0.4,0.4-0.4,1,0,1.4c0.2,0.2,0.5,0.3,0.7,0.3s0.5-0.1,0.7-0.3l1.3-1.3v2.6c0,0.6,0.4,1,1,1
	s1-0.4,1-1v-2.6l1.3,1.3c0.2,0.2,0.5,0.3,0.7,0.3s0.5-0.1,0.7-0.3c0.4-0.4,0.4-1,0-1.4l-1.3-1.3h2.6c0.6,0,1-0.4,1-1s-0.4-1-1-1
	h-2.6l1.3-1.3c0.4-0.4,0.4-1,0-1.4s-1-0.4-1.4,0l-1.3,1.3V364c0-0.6-0.4-1-1-1s-1,0.4-1,1v2.6l-1.3-1.3c-0.4-0.4-1-0.4-1.4,0
	s-0.4,1,0,1.4l1.3,1.3h-2.6c-0.6,0-1,0.4-1,1S-181.6,370-181,370z"/>
</svg>
