<?xml version="1.0" encoding="utf-8"?>
<!-- Generator: Adobe Illustrator 19.1.0, SVG Export Plug-In . SVG Version: 6.00 Build 0)  -->
<svg version="1.1" id="Layer_1" xmlns="http://www.w3.org/2000/svg" xmlns:xlink="http://www.w3.org/1999/xlink" x="0px" y="0px"
	 viewBox="-255 334 100 125" style="enable-background:new -255 334 100 125;" xml:space="preserve">
<path d="M-174,395c7.7,0,14-6.3,14-14c0-7.4-5.8-13.5-13-14c-0.5-8.4-7.5-15-16-15c-1.1,0-2.3,0.1-3.4,0.4
	c-3.1-8-10.9-13.4-19.6-13.4c-11.3,0-20.5,8.9-21,20c-9.5,0.5-17,8.4-17,18c0,6.9,3.9,12.9,9.6,15.9c0,0,0,0,0.1,0
	c2.5,1.3,5.3,2.1,8.4,2.1H-174z M-233.5,392.9l3.2-3.2c0.4-0.4,0.4-1,0-1.4c-0.4-0.4-1-0.4-1.4,0l-4,4c-0.1,0.1-0.1,0.1-0.1,0.2
	c-0.8-0.2-1.7-0.5-2.4-0.8l3-3c0.4-0.4,0.4-1,0-1.4c-0.4-0.4-1-0.4-1.4,0l-3.4,3.4c-0.7-0.4-1.3-0.8-1.9-1.3l3.7-3.7
	c0.4-0.4,0.4-1,0-1.4c-0.4-0.4-1-0.4-1.4,0l-3.8,3.8c-0.5-0.5-1-1.1-1.4-1.7l3.7-3.7c0.4-0.4,0.4-1,0-1.4c-0.4-0.4-1-0.4-1.4,0
	l-3.3,3.3c-0.4-0.7-0.7-1.4-1-2.2l3.7-3.7c0.4-0.4,0.4-1,0-1.4c-0.4-0.4-1-0.4-1.4,0l-3,3c-0.2-0.9-0.3-1.9-0.3-2.9l3.7-3.7
	c0.4-0.4,0.4-1,0-1.4c-0.4-0.4-1-0.4-1.4,0l-2.1,2.1c1.3-7.6,7.8-13.3,15.8-13.3c4.3,0,8.3,1.7,11.3,4.7c0.2,0.2,0.5,0.3,0.7,0.3
	c0.3,0,0.5-0.1,0.7-0.3c0.4-0.4,0.4-1,0-1.4c-0.6-0.6-1.2-1.1-1.9-1.6l1.9-1.9c0.4-0.4,0.4-1,0-1.4s-1-0.4-1.4,0l-2,2
	c-0.1,0.1-0.1,0.1-0.1,0.2c-0.7-0.4-1.4-0.8-2.1-1.1l2.7-2.7c0.4-0.4,0.4-1,0-1.4c-0.4-0.4-1-0.4-1.4,0l-3,3
	c-0.1,0.1-0.2,0.3-0.2,0.4c-0.9-0.3-1.8-0.4-2.8-0.6l3.4-3.5c0.4-0.4,0.4-1,0-1.4s-1-0.4-1.4,0l-3.1,3.1c1.3-9.2,9.2-16.4,18.8-16.4
	c7.8,0,14.7,4.8,17.6,11.9c-2.5,0.9-4.8,2.4-6.5,4.4c-0.4,0.4-0.3,1,0.1,1.4c0.2,0.2,0.4,0.3,0.7,0.3c0.3,0,0.5-0.1,0.7-0.3
	c1.6-1.8,3.6-3.1,5.8-3.9c0.2-0.1,0.3-0.1,0.4-0.3c0.2,0,0.3,0,0.5,0c1.3-0.4,2.5-0.5,3.8-0.5c7.4,0,13.5,5.8,14,13
	c-2.8,0.2-5.4,1.2-7.6,2.9c-0.4,0.3-0.5,1-0.2,1.4c0.2,0.3,0.5,0.4,0.8,0.4c0.2,0,0.4-0.1,0.6-0.2c2.1-1.7,4.7-2.5,7.4-2.5
	c6.6,0,12,5.4,12,12c0,6.5-5.1,11.7-11.6,12l2.3-2.3c0.4-0.4,0.4-1,0-1.4c-0.4-0.4-1-0.4-1.4,0l-3.7,3.7h-3.2l2.3-2.3
	c0.4-0.4,0.4-1,0-1.4s-1-0.4-1.4,0l-3.7,3.7h-3.2l2.3-2.3c0.4-0.4,0.4-1,0-1.4s-1-0.4-1.4,0l-3.7,3.7h-3.2l2.3-2.3
	c0.4-0.4,0.4-1,0-1.4s-1-0.4-1.4,0l-3.7,3.7h-3.2l2.3-2.3c0.4-0.4,0.4-1,0-1.4c-0.4-0.4-1-0.4-1.4,0l-3.7,3.7h-3.2l2.3-2.3
	c0.4-0.4,0.4-1,0-1.4c-0.4-0.4-1-0.4-1.4,0l-3.7,3.7h-3.2l2.3-2.3c0.4-0.4,0.4-1,0-1.4c-0.4-0.4-1-0.4-1.4,0l-3.7,3.7h-3.2l2.3-2.3
	c0.4-0.4,0.4-1,0-1.4c-0.4-0.4-1-0.4-1.4,0l-3.7,3.7h-3.2l2.3-2.3c0.4-0.4,0.4-1,0-1.4c-0.4-0.4-1-0.4-1.4,0l-3.7,3.7h-3.2l2.3-2.3
	c0.4-0.4,0.4-1,0-1.4s-1-0.4-1.4,0l-3.7,3.7h-1.6C-232.5,393-233,393-233.5,392.9z"/>
<path d="M-228.2,410.4c0.2,0.1,0.3,0.1,0.5,0.1c0.3,0,0.7-0.2,0.9-0.5c0.3-0.5,0.1-1.1-0.4-1.4l-2.8-1.6l2.8-1.6
	c0.5-0.3,0.6-0.9,0.4-1.4c-0.3-0.5-0.9-0.6-1.4-0.4l-2.8,1.6V402c0-0.6-0.4-1-1-1s-1,0.4-1,1v3.3l-2.8-1.6c-0.5-0.3-1.1-0.1-1.4,0.4
	c-0.3,0.5-0.1,1.1,0.4,1.4l2.8,1.6l-2.8,1.6c-0.5,0.3-0.6,0.9-0.4,1.4c0.2,0.3,0.5,0.5,0.9,0.5c0.2,0,0.3,0,0.5-0.1l2.8-1.6v3.3
	c0,0.6,0.4,1,1,1s1-0.4,1-1v-3.3L-228.2,410.4z"/>
<path d="M-209.2,410.4c0.2,0.1,0.3,0.1,0.5,0.1c0.3,0,0.7-0.2,0.9-0.5c0.3-0.5,0.1-1.1-0.4-1.4l-2.8-1.6l2.8-1.6
	c0.5-0.3,0.6-0.9,0.4-1.4c-0.3-0.5-0.9-0.6-1.4-0.4l-2.8,1.6V402c0-0.6-0.4-1-1-1s-1,0.4-1,1v3.3l-2.8-1.6c-0.5-0.3-1.1-0.1-1.4,0.4
	s-0.1,1.1,0.4,1.4l2.8,1.6l-2.8,1.6c-0.5,0.3-0.6,0.9-0.4,1.4c0.2,0.3,0.5,0.5,0.9,0.5c0.2,0,0.3,0,0.5-0.1l2.8-1.6v3.3
	c0,0.6,0.4,1,1,1s1-0.4,1-1v-3.3L-209.2,410.4z"/>
<path d="M-190.2,410.4c0.2,0.1,0.3,0.1,0.5,0.1c0.3,0,0.7-0.2,0.9-0.5c0.3-0.5,0.1-1.1-0.4-1.4l-2.8-1.6l2.8-1.6
	c0.5-0.3,0.6-0.9,0.4-1.4c-0.3-0.5-0.9-0.6-1.4-0.4l-2.8,1.6V402c0-0.6-0.4-1-1-1s-1,0.4-1,1v3.3l-2.8-1.6c-0.5-0.3-1.1-0.1-1.4,0.4
	c-0.3,0.5-0.1,1.1,0.4,1.4l2.8,1.6l-2.8,1.6c-0.5,0.3-0.6,0.9-0.4,1.4c0.2,0.3,0.5,0.5,0.9,0.5c0.2,0,0.3,0,0.5-0.1l2.8-1.6v3.3
	c0,0.6,0.4,1,1,1s1-0.4,1-1v-3.3L-190.2,410.4z"/>
<path d="M-174,412v-3.3l2.8,1.6c0.2,0.1,0.3,0.1,0.5,0.1c0.3,0,0.7-0.2,0.9-0.5c0.3-0.5,0.1-1.1-0.4-1.4l-2.8-1.6l2.8-1.6
	c0.5-0.3,0.6-0.9,0.4-1.4s-0.9-0.6-1.4-0.4l-2.8,1.6V402c0-0.6-0.4-1-1-1s-1,0.4-1,1v3.3l-2.8-1.6c-0.5-0.3-1.1-0.1-1.4,0.4
	c-0.3,0.5-0.1,1.1,0.4,1.4l2.8,1.6l-2.8,1.6c-0.5,0.3-0.6,0.9-0.4,1.4c0.2,0.3,0.5,0.5,0.9,0.5c0.2,0,0.3,0,0.5-0.1l2.8-1.6v3.3
	c0,0.6,0.4,1,1,1S-174,412.6-174,412z"/>
<path d="M-239.2,424.6l-2.8-1.6l2.8-1.6c0.5-0.3,0.6-0.9,0.4-1.4c-0.3-0.5-0.9-0.6-1.4-0.4l-2.8,1.6V418c0-0.6-0.4-1-1-1s-1,0.4-1,1
	v3.3l-2.8-1.6c-0.5-0.3-1.1-0.1-1.4,0.4c-0.3,0.5-0.1,1.1,0.4,1.4l2.8,1.6l-2.8,1.6c-0.5,0.3-0.6,0.9-0.4,1.4
	c0.2,0.3,0.5,0.5,0.9,0.5c0.2,0,0.3,0,0.5-0.1l2.8-1.6v3.3c0,0.6,0.4,1,1,1s1-0.4,1-1v-3.3l2.8,1.6c0.2,0.1,0.3,0.1,0.5,0.1
	c0.3,0,0.7-0.2,0.9-0.5C-238.5,425.5-238.7,424.9-239.2,424.6z"/>
<path d="M-220.2,424.6l-2.8-1.6l2.8-1.6c0.5-0.3,0.6-0.9,0.4-1.4c-0.3-0.5-0.9-0.6-1.4-0.4l-2.8,1.6V418c0-0.6-0.4-1-1-1s-1,0.4-1,1
	v3.3l-2.8-1.6c-0.5-0.3-1.1-0.1-1.4,0.4c-0.3,0.5-0.1,1.1,0.4,1.4l2.8,1.6l-2.8,1.6c-0.5,0.3-0.6,0.9-0.4,1.4
	c0.2,0.3,0.5,0.5,0.9,0.5c0.2,0,0.3,0,0.5-0.1l2.8-1.6v3.3c0,0.6,0.4,1,1,1s1-0.4,1-1v-3.3l2.8,1.6c0.2,0.1,0.3,0.1,0.5,0.1
	c0.3,0,0.7-0.2,0.9-0.5C-219.5,425.5-219.7,424.9-220.2,424.6z"/>
<path d="M-201.2,424.6l-2.8-1.6l2.8-1.6c0.5-0.3,0.6-0.9,0.4-1.4c-0.3-0.5-0.9-0.6-1.4-0.4l-2.8,1.6V418c0-0.6-0.4-1-1-1s-1,0.4-1,1
	v3.3l-2.8-1.6c-0.5-0.3-1.1-0.1-1.4,0.4c-0.3,0.5-0.1,1.1,0.4,1.4l2.8,1.6l-2.8,1.6c-0.5,0.3-0.6,0.9-0.4,1.4
	c0.2,0.3,0.5,0.5,0.9,0.5c0.2,0,0.3,0,0.5-0.1l2.8-1.6v3.3c0,0.6,0.4,1,1,1s1-0.4,1-1v-3.3l2.8,1.6c0.2,0.1,0.3,0.1,0.5,0.1
	c0.3,0,0.7-0.2,0.9-0.5C-200.5,425.5-200.7,424.9-201.2,424.6z"/>
<path d="M-182.2,424.6l-2.8-1.6l2.8-1.6c0.5-0.3,0.6-0.9,0.4-1.4c-0.3-0.5-0.9-0.6-1.4-0.4l-2.8,1.6V418c0-0.6-0.4-1-1-1s-1,0.4-1,1
	v3.3l-2.8-1.6c-0.5-0.3-1.1-0.1-1.4,0.4c-0.3,0.5-0.1,1.1,0.4,1.4l2.8,1.6l-2.8,1.6c-0.5,0.3-0.6,0.9-0.4,1.4
	c0.2,0.3,0.5,0.5,0.9,0.5c0.2,0,0.3,0,0.5-0.1l2.8-1.6v3.3c0,0.6,0.4,1,1,1s1-0.4,1-1v-3.3l2.8,1.6c0.2,0.1,0.3,0.1,0.5,0.1
	c0.3,0,0.7-0.2,0.9-0.5C-181.5,425.5-181.7,424.9-182.2,424.6z"/>
<path d="M-164.2,424.6l-2.8-1.6l2.8-1.6c0.5-0.3,0.6-0.9,0.4-1.4c-0.3-0.5-0.9-0.6-1.4-0.4l-2.8,1.6V418c0-0.6-0.4-1-1-1s-1,0.4-1,1
	v3.3l-2.8-1.6c-0.5-0.3-1.1-0.1-1.4,0.4s-0.1,1.1,0.4,1.4l2.8,1.6l-2.8,1.6c-0.5,0.3-0.6,0.9-0.4,1.4c0.2,0.3,0.5,0.5,0.9,0.5
	c0.2,0,0.3,0,0.5-0.1l2.8-1.6v3.3c0,0.6,0.4,1,1,1s1-0.4,1-1v-3.3l2.8,1.6c0.2,0.1,0.3,0.1,0.5,0.1c0.3,0,0.7-0.2,0.9-0.5
	C-163.5,425.5-163.7,424.9-164.2,424.6z"/>
</svg>
