<?xml version="1.0" encoding="utf-8"?>
<!-- Generator: Adobe Illustrator 19.1.0, SVG Export Plug-In . SVG Version: 6.00 Build 0)  -->
<svg version="1.1" id="Layer_1" xmlns="http://www.w3.org/2000/svg" xmlns:xlink="http://www.w3.org/1999/xlink" x="0px" y="0px"
	 viewBox="0 0 263.9 168" style="enable-background:new 0 0 263.9 168;" xml:space="preserve">
<style type="text/css">
	.st0{fill:#BE1E2D;}
	.st1{fill:#58595B;}
	.st2{fill:none;stroke:#000000;stroke-width:3;stroke-miterlimit:10;}
</style>
<g>
	<path class="st0" d="M82.5,123.9C82.5,123.9,82.5,123.9,82.5,123.9c0-3.5-2.9-6.4-6.4-6.4c-3.6,0-6.4,2.9-6.4,6.4v0v12.8h12.9
		V123.9z M78.2,122.7c-0.7,0.1-1.3-0.4-2-0.2c-1,0.3-0.6,0.9-1.1,1.7c-0.4,0.7-1.5,0.9-2.2,0.5c-2.3-1.4,0-4.3,1.5-4.8
		c1.2-0.9,3.5-0.3,4.4,1.2C79.3,121.7,79.1,122.5,78.2,122.7z"/>
	<polygon class="st0" points="67.5,137.6 67.5,140.5 72.5,140.5 72.5,149.8 74.6,149.8 74.6,140.5 77.4,140.5 77.4,145.8 
		79.5,145.8 79.5,140.5 84.5,140.5 84.5,137.6 	"/>
</g>
<g>
	<path class="st0" d="M116.8,123.9C116.8,123.9,116.8,123.9,116.8,123.9c0-3.5-2.9-6.4-6.4-6.4c-3.6,0-6.4,2.9-6.4,6.4v0v12.8h12.9
		V123.9z M112.5,122.7c-0.7,0.1-1.3-0.4-2-0.2c-1,0.3-0.6,0.9-1.1,1.7c-0.4,0.7-1.5,0.9-2.2,0.5c-2.3-1.4,0-4.3,1.5-4.8
		c1.2-0.9,3.5-0.3,4.4,1.2C113.6,121.7,113.4,122.5,112.5,122.7z"/>
	<polygon class="st0" points="101.8,137.6 101.8,140.5 106.8,140.5 106.8,149.8 108.9,149.8 108.9,140.5 111.7,140.5 111.7,145.8 
		113.8,145.8 113.8,140.5 118.8,140.5 118.8,137.6 	"/>
</g>
<path class="st1" d="M170.6,35.8V24.4c0-4.7-3.8-8.4-8.4-8.4H99.7c-4.7,0-8.4,3.8-8.4,8.4v11.4h-5.7v5.7h5.7v11.4
	c0,4.7,3.8,8.4,8.4,8.4h62.5c4.7,0,8.4-3.8,8.4-8.4V41.4h5.7v-5.7H170.6z"/>
<line class="st2" x1="78.2" y1="144.5" x2="108.9" y2="148.3"/>
<g>
	<path class="st0" d="M154.6,123.9C154.6,123.9,154.6,123.9,154.6,123.9c0-3.5-2.9-6.4-6.4-6.4c-3.6,0-6.4,2.9-6.4,6.4v0v12.8h12.9
		V123.9z M150.4,122.7c-0.7,0.1-1.3-0.4-2-0.2c-1,0.3-0.6,0.9-1.1,1.7c-0.4,0.7-1.5,0.9-2.2,0.5c-2.3-1.4,0-4.3,1.5-4.8
		c1.2-0.9,3.5-0.3,4.4,1.2C151.4,121.7,151.2,122.5,150.4,122.7z"/>
	<polygon class="st0" points="139.6,137.6 139.6,140.5 144.7,140.5 144.7,149.8 146.8,149.8 146.8,140.5 149.5,140.5 149.5,145.8 
		151.6,145.8 151.6,140.5 156.7,140.5 156.7,137.6 	"/>
</g>
<line class="st2" x1="112.8" y1="145" x2="146.8" y2="148.3"/>
<g>
	<path class="st0" d="M190.9,123.9C190.9,123.9,190.9,123.9,190.9,123.9c0-3.5-2.9-6.4-6.4-6.4c-3.6,0-6.4,2.9-6.4,6.4v0v12.8h12.9
		V123.9z M186.6,122.7c-0.7,0.1-1.3-0.4-2-0.2c-1,0.3-0.6,0.9-1.1,1.7c-0.4,0.7-1.5,0.9-2.2,0.5c-2.3-1.4,0-4.3,1.5-4.8
		c1.2-0.9,3.5-0.3,4.4,1.2C187.7,121.7,187.5,122.5,186.6,122.7z"/>
	<polygon class="st0" points="175.9,137.6 175.9,140.5 180.9,140.5 180.9,149.8 183,149.8 183,140.5 185.8,140.5 185.8,145.8 
		187.9,145.8 187.9,140.5 192.9,140.5 192.9,137.6 	"/>
</g>
<line class="st2" x1="150" y1="144.7" x2="182.5" y2="148.1"/>
<path class="st2" d="M74.5,150c-4.2-0.9-60.6-28.5-59.3-66s67.2-42.6,72.3-45.4"/>
<path class="st2" d="M186.5,145c4.2-0.9,71.4-21.1,70.2-58.7c-1.2-37.6-76.3-44.9-81.3-47.7"/>
</svg>
