<?xml version="1.0" encoding="utf-8"?>
<!-- Generator: Adobe Illustrator 19.1.0, SVG Export Plug-In . SVG Version: 6.00 Build 0)  -->
<svg version="1.1" id="Layer_1" xmlns="http://www.w3.org/2000/svg" xmlns:xlink="http://www.w3.org/1999/xlink" x="0px" y="0px"
	 viewBox="-187 263.1 235.6 267.9" style="enable-background:new -187 263.1 235.6 267.9;" xml:space="preserve">
<style type="text/css">
	.st0{fill:#BE1E2D;}
	.st1{fill:#58595B;}
	.st2{fill:none;stroke:#000000;stroke-width:3;stroke-miterlimit:10;}
	.st3{fill:none;stroke:#231F20;stroke-width:3;stroke-miterlimit:10;}
</style>
<g id="led-red-through-hole_1_">
	<path class="st0" d="M-56.6,490.6L-56.6,490.6c0-3.5-2.9-6.4-6.4-6.4c-3.6,0-6.4,2.9-6.4,6.4l0,0v12.8h12.9L-56.6,490.6
		L-56.6,490.6z M-60.9,489.4c-0.7,0.1-1.3-0.4-2-0.2c-1,0.3-0.6,0.9-1.1,1.7c-0.4,0.7-1.5,0.9-2.2,0.5c-2.3-1.4,0-4.3,1.5-4.8
		c1.2-0.9,3.5-0.3,4.4,1.2C-59.8,488.4-60,489.2-60.9,489.4z"/>
	<polygon class="st0" points="-71.6,504.2 -71.6,507.2 -66.6,507.2 -66.6,516.5 -64.5,516.5 -64.5,507.2 -61.7,507.2 -61.7,512.4 
		-59.6,512.4 -59.6,507.2 -54.5,507.2 -54.5,504.2 	"/>
</g>
<g id="led-red-through-hole">
	<path class="st0" d="M-56.2,409.7L-56.2,409.7c0-3.5-2.9-6.4-6.4-6.4c-3.6,0-6.4,2.9-6.4,6.4l0,0v12.8h12.9L-56.2,409.7
		L-56.2,409.7z M-60.4,408.5c-0.7,0.1-1.3-0.4-2-0.2c-1,0.3-0.6,0.9-1.1,1.7c-0.4,0.7-1.5,0.9-2.2,0.5c-2.3-1.4,0-4.3,1.5-4.8
		c1.2-0.9,3.5-0.3,4.4,1.2C-59.3,407.5-59.5,408.3-60.4,408.5z"/>
	<polygon class="st0" points="-71.1,423.3 -71.1,426.3 -66.1,426.3 -66.1,435.6 -64,435.6 -64,426.3 -61.2,426.3 -61.2,431.6 
		-59.1,431.6 -59.1,426.3 -54.1,426.3 -54.1,423.3 	"/>
</g>
<path id="battery" class="st1" d="M-22.9,313.8v-11.4c0-4.7-3.8-8.4-8.4-8.4h-62.5c-4.7,0-8.4,3.8-8.4,8.4v11.4h-5.7v5.7h5.7v11.4
	c0,4.7,3.8,8.4,8.4,8.4h62.5c4.7,0,8.4-3.8,8.4-8.4v-11.5h5.7v-5.7h-5.7V313.8z"/>
<path id="default-trace" class="st2" d="M-106.3,316.6c-5.1,5.7-32.5,24.4-33.7,102.1c-1.2,77.7,71.3,95.4,75.5,97.3 M-139.7,434.5
	h75.5"/>
<path id="default-trace_1_" class="st3" d="M-60.9,511.8c4.2-1.9,78.7-15.5,77.4-93.1c-1.2-77.6-29.8-96.4-34.9-102.1 M16,430.5h-76
	"/>
</svg>
