<?xml version="1.0" encoding="utf-8"?>
<!-- Generator: Adobe Illustrator 19.1.0, SVG Export Plug-In . SVG Version: 6.00 Build 0)  -->
<svg version="1.1" xmlns="http://www.w3.org/2000/svg" xmlns:xlink="http://www.w3.org/1999/xlink" x="0px" y="0px"
	 viewBox="-944.3 688.1 407.3 411.3" style="enable-background:new -944.3 688.1 407.3 411.3;" xml:space="preserve">
<style type="text/css">
	.st0{display:none;}
	.st1{display:inline;fill:#C0C0C0;}
	.st2{fill:none;stroke:#ED1164;stroke-width:10;stroke-miterlimit:10;}
	.st3{fill:none;stroke:#000000;stroke-width:10;stroke-miterlimit:10;}
	.st4{fill:none;stroke:#000000;stroke-width:6;stroke-miterlimit:10;}
	.st5{fill:#F7941E;stroke:#F7941E;stroke-miterlimit:10;}
	.st6{fill:#ED1164;}
</style>
<g id="pretty_x5F_component" class="st0">
	<path id="trace_2_" class="st1" d="M-609.1,806.5L-609.1,806.5l-17.7,7.4l0,0l-10.7,4.4c0.7-45.7-26.6-89.6-72.3-108.5L-778,874.4
		c-12.9-28-46.1-41.3-74.9-29.5c-24.7,10.3-38.4,35.4-35.4,60.5l-19.6,26.2l30.2,3c30.2,49.1,101.1,67.5,166.4,40.2
		c58.7-24.3,94.4-77.5,91.5-128.4l22.9-9.6l0,0c16.6-7,24.3-25.8,17.3-42.4L-609.1,806.5z M-682.5,737.2l-49.4,119.5l8.5,3.7
		l48-116.2c7,7.4,12.5,15.5,17,24.3L-700.6,870l8.5,3.7l38.7-93.3c4.1,11.1,6.3,22.5,6.6,34.3c0.4,14-2.2,27.7-7.7,40.6
		c-10.3,25.1-30.2,45-55.7,55.7c-12.9,5.2-26.6,8.1-40.6,8.1c-11.4,0-22.5-1.5-33.6-5.2l79.3-191.8
		C-696.9,726.1-689.5,731.3-682.5,737.2z M-637.5,823.1v0.4C-637.5,823.5-637.5,823.5-637.5,823.1z M-637.9,825.7
		c0,0.7,0,1.5-0.4,2.6C-637.9,827.6-637.9,826.8-637.9,825.7z M-890.6,923.5l3.3-4.4l1.8,4.8L-890.6,923.5z M-649.7,915
		c-7.7,10.7-17,20.7-27.7,29.1c-11.1,8.9-23.6,16.2-37.3,21.8c-16.2,6.6-33.2,10.7-50.2,11.4c-16.2,1.1-32.1-0.7-46.8-5.5
		c-29.9-9.2-52.4-28-63.5-53.9l0,0l0,0c-0.4-0.4-0.4-1.1-0.7-1.5c-10.3-24.7,1.5-53.5,26.6-63.8c24.7-10.3,53.5,1.5,63.8,26.6
		l2.6,6.6l-8.9,21l0,0l-8.1-19.9c-7-16.6-25.8-24.3-42.4-17.7c-15.5,6.6-23.6,23.6-18.8,39.5c0.4,0.7,0.4,1.5,0.7,2.2
		c3.3,8.1,12.9,12.2,21.4,8.9c8.1-3.3,12.2-12.9,8.9-21.4c-3.3-8.1-12.5-12.2-20.7-8.9c2.2-5.2,6.6-9.6,12.2-11.8
		c11.8-4.8,25.5,0.7,30.2,12.5l8.5,20.7l0,0l3.3,7.7l0,0l0,0c30.2,12.5,62.3,11.4,90,0c26.6-11.1,49.1-32.1,60.9-60.5
		c0.4-0.7,0.7-1.5,1.1-2.6l16.2-6.6c0.4,10.3-1.5,21-4.4,31.7C-636.8,892.9-642.3,904.3-649.7,915z M-851.8,908
		c0-0.4-0.4-0.7-0.4-1.1c-0.7-3.3,0.7-6.6,4.1-8.1c3.7-1.5,7.7,0.4,9.2,3.7c1.5,3.7-0.4,7.7-3.7,9.2
		C-846.3,913.2-850.4,911.3-851.8,908L-851.8,908z M-587.7,815.4c-2.2,5.5-6.6,10.3-12.5,12.5l-0.7,0.4l-7.4,3l0,0l-32.8,13.6
		c1.5-5.5,2.6-10.7,3-16.2l6.3-2.6l0,0l8.5-3.7l17.3-7h0.4l19.6-8.1C-586.2,809.9-586.6,812.4-587.7,815.4z"/>
</g>
<g id="circuit_x5F_layer">
	<path id="trace_x5F_p_1_" class="st2" d="M-905.1,931.9c7.8,1.2,36.6,8.8,36.6,8.8c19.3,20.7,48.2,33.7,58.9,36.7
		c33.6,9.3,61.9,2.3,77.9-1.8c13.2-3.5,34.4-9.2,56.3-26.3c25.3-19.7,39.1-45,44.7-62.3c6.1-18.7,6.5-38.7,6.5-38.7
		c0-0.6-1.1-3,0-5.1c1.4-2.6,5.3-3,6.9-3.2c0,0,10.9-1.5,22.1-9.7c8.5-6.2,11.2-14.8,12-17.5c1.1-3.8,2.5-11,0-12.5
		c-1.5-0.9-3.8,0.8-6.9,2.8c-5.4,3.4-17.1,8.8-17.1,8.8s-13.8,5.7-24.9,8.8"/>
	<path id="trace_x5F_n_3_" class="st3" d="M-880.5,920.3c-2.2-4.6-5.8-14-5-26c1.3-19.3,13.3-31.6,17.5-35.5
		c2.6-2.4,21.4-19.2,47.5-14c18.4,3.7,33.1,16.8,38.5,31c2.2,5.8,1.5,8.1,3,8.5c12.2,3.2,70.5-146.8,70.9-167.1c0-0.5,0-2.1,1.1-2.9
		c4.8-3.7,26.7,14.8,40.5,32.5c6,7.7,16.8,21.4,22,41.5c11.5,43.8-12.7,81.4-15.5,85.5c-23.5,35.2-65,52.2-101.5,49
		c-7.5-0.7-22.2,1.4-30-7.5c-1.6-1.8-3-4.9-6-11c-6.5-13.6-5.5-15.7-9.5-21c-1.6-2.2-7.1-9.4-17-11.5c-10.1-2.1-18.3,2.6-20.5,4
		c-8.8,5.6-15.3,16.5-13.5,27c0.3,2.1,1.8,10.4,8.5,13c4,1.5,9.6,1,13-3c3.7-4.3,3.6-11.2-0.5-15.5c-3.7-3.9-9.7-4.7-14.5-2"/>
	<path id="trace_x5F_n_2_" class="st3" d="M-587.9,722.8c-8.9,6.4-21.2,16.9-32,33c-15.8,23.5-20.1,46.6-21.5,59"/>
	<path id="trace_x5F_p" class="st2" d="M-713.3,970c-10.1,6.6-24.1,17.6-36.4,34.3c-18,24.4-22.9,48.4-24.5,61.3"/>
	<path id="trace_x5F_n_1_" class="st4" d="M-739,868.8c36.8-50.2,50.4-96.5,54.9-132.3c0.3-2.6,0.6-5.2,0.9-7.8"/>
	<path id="trace_x5F_n" class="st4" d="M-696.5,871.8c24.2-42.6,33.2-81.8,36.1-112.1c0.2-2.2,0.4-4.4,0.6-6.6"/>
	<path id="led_x5F_sticker" class="st5" d="M-902.5,932.2c0,0,30.2,9.7,30.2,0.9c-0.1-7.6-9.1-23.4-14.4-26.7
		C-892.6,903.3-902.5,932.2-902.5,932.2z"/>
	<circle id="terminal_x5F_p" class="st6" cx="-773.7" cy="1074.8" r="14"/>
	<circle id="terminal_x5F_n" cx="-585" cy="719.4" r="14"/>
</g>
</svg>
