<?xml version="1.0" encoding="utf-8"?>
<!-- Generator: Adobe Illustrator 19.1.0, SVG Export Plug-In . SVG Version: 6.00 Build 0)  -->
<svg version="1.1" id="Layer_1" xmlns="http://www.w3.org/2000/svg" xmlns:xlink="http://www.w3.org/1999/xlink" x="0px" y="0px"
	 viewBox="0 0 141.7 141.7" style="enable-background:new 0 0 141.7 141.7;" xml:space="preserve">
<style type="text/css">
	.st0{fill:none;stroke:#ADB3BE;stroke-width:4.6148;stroke-miterlimit:10;}
</style>
<g id="Layer_1_2_">
	<path id="_x2F_primitives_x2F_large_x5F_heart.svg_2_" class="st0" d="M50.7,76c0,0,23.2-30.9,18.2-41.8c-2.8-6.1-8.7-6.6-9.5-6.5
		c-7.4,1-12.6,11.4-5.5,16.8c9.7,7.4,18.8-5,13.6-14.1C57.2,12.3,29.6,13.8,19,30.2C7.2,48.3,18.4,72,29.9,87.4
		c7.2,9.7,14.5,19.1,23,27.7c5.2,5.3,12.5,16.2,20.3,11.4c7.6-4.7,14.3-12.8,20.6-19c6.1-6,11.6-12.4,16.8-19.2
		c11.3-14.9,24.4-33.7,14.9-52.9c-8.3-16.9-32.7-23.4-46.2-8.7c-3.7,4-6.2,8.8-3.8,14.3c2.3,5.2,7.9,8.2,13.3,5.7
		c10.2-4.8,4.5-19-4.8-18.6c-0.7,0-8.1,0.8-9.4,7.2C72.3,47,83.3,76,83.3,76"/>
</g>
</svg>
