<?xml version="1.0" encoding="utf-8"?>
<!-- Generator: Adobe Illustrator 19.2.1, SVG Export Plug-In . SVG Version: 6.00 Build 0)  -->
<svg version="1.1" id="ELD:_Sun_and_Moon" xmlns="http://www.w3.org/2000/svg" xmlns:xlink="http://www.w3.org/1999/xlink" x="0px"
	 y="0px" viewBox="0 0 359 362" style="enable-background:new 0 0 359 362;" xml:space="preserve">
<style type="text/css">
	.st0{fill:#0C00FF;}
	.st1{fill:#3B20A8;}
	.st2{fill:#AA22A3;}
	.st3{display:none;}
</style>
<path id="BASE:_base_1_" d="M184.6,348.9c-92.6,0-168-75.4-168-168S92,13,184.6,13s168,75.4,168,168S277.3,348.9,184.6,348.9z"/>
<circle id="DIF:_all" cx="184.6" cy="181" r="153.8"/>
<path id="BI:_Breakin_1_" class="st0" d="M39.8,316.6v-3.8v-2.6v-7.8v-2.6v-7.8v-10.3h-9.5v10.3v7.8v2.6v7.8v2.6v3.8v3.8h9.5V316.6z
	"/>
<path id="DDS:_DIFF_20_" class="st1" d="M212,39.3c-1.2,3-3.9,9.6-10.3,14.5c-3.1,2.4-5.5,3.1-9.7,4.5c-0.9,0.3-1.9,0.5-2.9,0.9
	c-0.8-0.7-1.5-1.3-2.2-2c-3.4-2.9-5.2-4.5-7.1-7.9c-2-3.7-3.2-8-3.6-12.5c2.5-0.1,5.1-0.2,7.6-0.2C193.4,36.5,202.9,37.5,212,39.3z"
	/>
<path id="DDS:_DIFF_19_" class="st1" d="M249.6,52.4c-0.7,0.8-1.3,1.6-1.8,2.5c-2.4,2.6-10.4,12-12.8,26.1c-0.3,1.6-0.4,3.1-0.5,4.4
	c-8.7-1.3-10.9-0.8-12.2-0.4c-4.6,1.1-8.7,3.5-12.4,7.3c0.4-3.9,0-7.7-1.2-11c-0.5-1.3-1.4-3.9-9.2-12c0.8-0.7,1.4-1.3,2.1-2
	c10.6-10.5,13.5-23.4,13.9-26c0.1-0.4,0.3-0.8,0.4-1.2C227.8,42.8,239.1,47,249.6,52.4z"/>
<path id="DDS:_DIFF_18_" class="st1" d="M285.4,78.5c-0.2,0.4-0.4,0.8-0.7,1.3c-0.9,1.7-2.1,3.3-3.3,4.7c-1.2,0.9-3.3,2.4-6.2,3.7
	c-2.8,1.4-6.4,2.6-10.5,2.9c-3.9,0.4-6.3-0.4-10.5-1.5c-1.3-0.4-2.9-0.8-4.8-1.3c-0.5-1.9-1.2-3.5-1.5-4.8
	c-1.4-4.2-2.1-6.5-2.1-10.4c0.3-8.3,4.3-14.4,5.9-17c0.7-1,1-1.5,1.1-2C264.8,60.7,275.8,68.9,285.4,78.5z"/>
<path id="DDS:_DIFF_17_" class="st1" d="M310,111.1c-2.1,0.3-4.3,0.7-6.4,1.4c-4.2,0.7-17,5.1-26.6,16.3c-1.4,1.7-2.6,3.4-3.7,4.7
	l-0.1,0.2c-5-4.2-6.9-4.8-7.9-5.2c-2.5-0.9-5.1-1.3-7.9-1.3c-3.5,0-7.3,0.7-11.1,2.1c0,0,0,0,0,0c4.3-4.3,6.9-8.9,7.9-14
	c0.3-1.3,0.7-3.6-1.1-12.2c1.2-0.2,2.7-0.4,4.4-0.7c16.4-3.5,26.9-15,27.7-16.7c0-0.1,0.1-0.2,0.1-0.4c1-1.2,1.9-2.6,2.6-4
	c0.1-0.1,0.1-0.2,0.2-0.3C296.5,90.1,304,100.2,310,111.1z"/>
<path id="DDS:_DIFF_16_" class="st1" d="M326,157.7c-0.1,0-0.1,0.1-0.2,0.1c-2.5,1.2-5.3,2.2-8,2.8c-0.4-0.2-0.7-0.3-1.2-0.3h-1.2
	c-3.1,0.1-10.3,0.5-17.7-3.4c-3.5-1.9-5.1-3.7-8-7c-1.2-1.3-2.7-3-4.6-5.1c0.8-2.9,1.2-5.3,1.7-7.1c1-4.4,1.5-6.7,3.7-10.1
	c4.6-7,11.1-10.2,13.8-11.5c0.4-0.2,0.8-0.4,1.1-0.5c1.7-0.5,3.5-0.9,5.3-1.2c0.4,0,0.8-0.1,1.2-0.1
	C318.6,127.7,323.5,142.3,326,157.7z"/>
<path id="DDS:_DIFF_15_" class="st1" d="M327.8,180.5c0,4.5-0.2,8.9-0.6,13.3c-0.3-0.1-0.6-0.3-1-0.4c-2.3-1-4.7-1.8-7.2-2.4
	c-5.4-2.1-17.9-3.9-30.7,0.4c-2.1,0.7-3.9,1.5-5.5,2.2c-0.7,0.3-1.4,0.6-2.1,0.9c-1.4-3.9-2.3-5.2-2.9-5.9c-3.5-4.6-9.1-7.9-16-9.5
	c0-1,0-2-0.1-3c5.9-1.4,10.6-4.2,14.1-7.9c0.8-0.9,2.1-2.3,4.3-8.1c1.5,0.7,3.3,1.5,5.4,2.3c12.8,4.8,24.5,3,28.5,2.2v0.1h0.4
	c4.3-0.4,8.4-1.6,12.2-3.4C327.4,167.7,327.8,174.1,327.8,180.5z"/>
<path id="DDS:_DIFF_14_" class="st1" d="M326.8,197.4c-2,17-7,33.2-14.4,47.9c-1.1-0.1-2.1-0.3-3.1-0.6c-2.2-0.5-4.5-1.2-6.7-2.2
	h-0.1c-2.6-1.6-8.8-5.2-12.9-12.4c-2-3.5-2.3-5.9-3-10.3c-0.4-2.3-0.8-5.1-1.5-8.7c3.1-2.9,5.3-5.2,7-7c3-3.2,4.7-5,8.3-6.8
	c7.4-3.7,14.7-3,17.8-2.8c0.6,0,1.1,0.1,1.3,0.1c1.8,0.5,3.6,1.2,5.3,1.9C325.5,196.7,326.1,197.1,326.8,197.4z"/>
<path id="DDS:_DIFF_13_" class="st1" d="M294.2,273c-12.1,14.5-27.1,26.5-44,35.3c-0.8-0.9-1.6-1.8-2.3-2.8
	c-0.1-0.2-0.3-0.5-0.4-0.9c-1.3-2.8-4.6-9.3-4.1-17.5c0.3-3.9,1.2-6.2,3-10.3c1.2-2.5,2.5-5.6,4.2-10.3c5.6-1.2,9.4-2.2,12.1-2.9
	c4.3-1.2,6.6-1.9,10.5-1.5c8.2,0.7,14.2,4.9,16.7,6.8c0.6,0.4,1,0.7,1.3,0.9c0.8,0.8,1.4,1.5,2.1,2.2
	C293.7,272.3,294,272.6,294.2,273z"/>
<path id="DDS:_DIFF_11_" class="st1" d="M310.9,248.4c-4.1,7.7-8.9,15-14.3,21.7c-0.1-0.2-0.3-0.3-0.4-0.5c-1.2-1.3-2.6-2.8-4-4.1
	c-1.9-1.9-11.2-11.3-26.1-14.5c-2.2-0.4-4.2-0.7-5.9-1c-1.6-0.2-3-0.4-4.4-0.7c0.3-1.9,0.2-2.8,0.1-3.5c-0.5-5.8-3.3-11.5-8.2-16.6
	c1.1-1.7,2.1-3.5,3.1-5.2c5.9,1.9,11.5,2,16.4,0.5c0.9-0.3,2.2-0.7,5.3-2.9c0.3,0.4,0.5,0.8,0.8,1.2c0.9,1.4,2,3.1,3.3,5
	c10,13.4,23.9,17.9,26.3,18.3c2,0.8,4,1.4,6,1.9C309.5,248.1,310.2,248.3,310.9,248.4z"/>
<path id="DDS:_DIFF_12_" class="st1" d="M247.2,309.9c-3.2,1.6-6.4,3-9.7,4.3c-2.5-4.4-10-15.9-22.4-23.3c-2.1-1.1-3.9-2-5.6-2.8
	c-2.1-1.1-3.7-1.8-5.3-3c1.3-1.5,1.9-2.4,2.1-3c2.7-5.1,3.4-11.4,2-18.4c2.8-1.3,5.6-2.8,8.3-4.4c4.1,4.7,8.9,7.7,13.9,9
	c0.5,0.1,1.2,0.3,2.6,0.4v3.4c0,1.7-0.1,3.7,0.1,6c1.1,15.6,9.5,27,11.9,29.3C245.9,308.2,246.5,309,247.2,309.9z"/>
<path id="DDS:_DIFF_10_" class="st1" d="M233.5,315.7c-15.5,5.7-32.2,8.8-49.7,8.8c-5.3,0-10.5-0.3-15.6-0.8
	c0.5-3.2,1.8-8.6,5.5-13.6c2.3-3.2,4.4-4.6,8-7c0.9-0.6,1.9-1.2,3-2.1c2.3,0.5,5.2,1.1,8.6,1.4c7.9,1,12.8,1.1,16.4,1.1
	c4.3,0,6.7,0,10.4,1.7C226.4,307.9,231,312.8,233.5,315.7z"/>
<path id="DDS:_DIFF_9_" class="st2" d="M255.2,184.5c-0.7,11.9-3.9,23.7-9.4,34.3l-1.2,2.3l-0.1,0.1c-0.3,0.5-0.6,1.1-0.9,1.6
	c-7.2,12.4-17.6,22.8-29.9,30.1l-0.4-0.1c-0.4-0.1-0.7-0.1-1.1-0.2c-0.3,0-0.6-0.1-1-0.2c-0.4-0.1-0.7-0.1-1-0.2
	c-0.3-0.1-0.6-0.1-1-0.2c-0.4-0.1-0.6-0.1-1-0.2c-0.3-0.1-0.6-0.2-1-0.2c-0.4-0.1-0.6-0.2-1-0.3c-0.3-0.1-0.6-0.2-1-0.3
	c-0.4-0.1-0.6-0.2-1-0.3c-0.3-0.1-0.6-0.2-0.9-0.3h-0.1c-0.3-0.1-0.6-0.2-0.9-0.3c-0.3-0.1-0.5-0.2-0.8-0.3h-0.1
	c-0.3-0.1-0.6-0.2-0.9-0.3c-0.3-0.1-0.6-0.2-1-0.3h-0.1c-0.3-0.1-0.5-0.2-0.8-0.3c-0.3-0.1-0.6-0.2-1-0.4c-0.3-0.1-0.6-0.2-0.9-0.3
	c-0.3-0.1-0.5-0.2-0.8-0.3l-0.2-0.1c-0.3-0.1-0.5-0.2-0.8-0.3c-0.3-0.1-0.5-0.2-0.9-0.3l-0.3-0.1c-0.3-0.1-0.4-0.2-0.7-0.3
	c-0.3-0.1-0.4-0.2-0.7-0.3l-0.4-0.2c-0.2-0.1-0.4-0.2-0.6-0.3c-0.3-0.1-0.5-0.2-0.8-0.4l-0.4-0.1c-0.2-0.1-0.4-0.2-0.6-0.3
	c-0.3-0.1-0.5-0.2-0.8-0.4l-0.4-0.1c-0.2-0.1-0.4-0.2-0.6-0.3c-0.3-0.1-0.6-0.3-0.9-0.4l-0.2-0.1c-0.2-0.1-0.4-0.2-0.6-0.3
	c-0.3-0.1-0.5-0.3-0.8-0.4l-0.4-0.2c-0.2-0.1-0.4-0.2-0.5-0.3c-0.2-0.1-0.4-0.3-0.7-0.4l-0.4-0.2c-0.2-0.1-0.4-0.2-0.5-0.3
	c-0.2-0.1-0.4-0.3-0.7-0.4l-0.4-0.2c-0.2-0.1-0.4-0.2-0.6-0.4c-0.3-0.1-0.4-0.3-0.7-0.4l-0.4-0.2c-0.2-0.1-0.4-0.2-0.5-0.3
	c-0.2-0.1-0.4-0.3-0.6-0.4l-0.4-0.3c-0.2-0.1-0.4-0.2-0.5-0.3c-0.3-0.1-0.4-0.3-0.7-0.4l-0.4-0.2c-0.2-0.1-0.4-0.2-0.5-0.4
	c-0.2-0.1-0.4-0.3-0.7-0.4l-0.4-0.3c-0.2-0.1-0.4-0.2-0.5-0.4c-0.2-0.1-0.4-0.3-0.6-0.4l-0.4-0.3c-0.2-0.1-0.4-0.2-0.5-0.4
	c-0.2-0.1-0.4-0.3-0.6-0.4l-0.4-0.3c-0.2-0.1-0.3-0.2-0.4-0.4c-0.2-0.1-0.4-0.3-0.6-0.4l-0.4-0.3c-0.2-0.1-0.3-0.2-0.4-0.4
	c-0.2-0.1-0.4-0.3-0.5-0.4l-0.4-0.4c-0.1-0.1-0.3-0.2-0.4-0.4c-0.2-0.1-0.4-0.3-0.5-0.4l-0.4-0.4c-0.1-0.1-0.3-0.2-0.4-0.4
	c-0.2-0.1-0.4-0.3-0.5-0.4l-0.4-0.4c-0.1-0.1-0.3-0.2-0.4-0.4c-0.2-0.2-0.4-0.4-0.5-0.4l-0.4-0.4c-0.1-0.1-0.3-0.2-0.4-0.4
	c-0.2-0.2-0.4-0.4-0.6-0.5l-0.4-0.4c-0.1-0.1-0.2-0.2-0.4-0.3c-0.3-0.2-0.4-0.4-0.7-0.7l-1.9-1.9c-13.7-13.8-21.3-31.2-21.3-49.1
	c0-17,6.6-33.1,19-46.7c0.4-0.4,0.8-0.8,1.2-1.2c0.1-0.1,0.2-0.2,0.2-0.2l1-1c0.1-0.1,0.2-0.2,0.3-0.3l0.4-0.4
	c0.2-0.2,0.4-0.4,0.5-0.5c0.1-0.1,0.3-0.2,0.4-0.4l0.4-0.4c0.2-0.2,0.4-0.3,0.5-0.4c0.1-0.1,0.3-0.2,0.4-0.4l0.4-0.4
	c0.2-0.1,0.3-0.3,0.4-0.4c0.1-0.1,0.3-0.3,0.4-0.4l0.4-0.4c0.2-0.1,0.3-0.3,0.4-0.4c0.1-0.1,0.3-0.3,0.4-0.4l0.4-0.4
	c0.2-0.1,0.3-0.3,0.4-0.4c0.2-0.1,0.3-0.3,0.4-0.4l0.4-0.3c0.2-0.1,0.3-0.3,0.4-0.4c0.2-0.1,0.4-0.3,0.5-0.4l0.4-0.3
	c0.2-0.1,0.4-0.3,0.4-0.4c0.2-0.1,0.4-0.3,0.5-0.4l0.4-0.3c0.2-0.1,0.4-0.3,0.5-0.4c0.2-0.1,0.4-0.3,0.5-0.4l0.4-0.3
	c0.2-0.1,0.4-0.3,0.5-0.4c0.2-0.1,0.4-0.3,0.5-0.4l0.4-0.3c0.2-0.1,0.4-0.2,0.4-0.4c0.2-0.1,0.4-0.3,0.5-0.4l0.4-0.3
	c0.2-0.1,0.4-0.2,0.4-0.4c0.2-0.1,0.4-0.3,0.6-0.4l0.3-0.2c0.2-0.1,0.4-0.2,0.5-0.4c0.2-0.1,0.4-0.3,0.6-0.4l0.4-0.2
	c0.2-0.1,0.4-0.2,0.5-0.3c0.2-0.1,0.4-0.3,0.7-0.4l0.3-0.2c0.2-0.1,0.4-0.2,0.5-0.3s0.4-0.2,0.6-0.4l0.4-0.2
	c0.2-0.1,0.4-0.2,0.6-0.4c0.2-0.1,0.4-0.2,0.6-0.4l0.4-0.2c0.2-0.1,0.4-0.2,0.6-0.3c0.2-0.1,0.4-0.3,0.7-0.4l0.2-0.1
	c0.2-0.1,0.4-0.2,0.7-0.4c0.2-0.1,0.4-0.2,0.7-0.4l0.3-0.2c0.2-0.1,0.4-0.2,0.6-0.3c0.3-0.1,0.5-0.3,0.7-0.4l0.3-0.1
	c0.2-0.1,0.4-0.2,0.6-0.3c0.3-0.1,0.5-0.2,0.8-0.4l0.2-0.1c0.2-0.1,0.4-0.2,0.7-0.3c0.3-0.1,0.5-0.2,0.8-0.4l0.2-0.1
	c0.2-0.1,0.4-0.2,0.7-0.3c0.3-0.1,0.5-0.2,0.8-0.4h0.1c0.3-0.1,0.5-0.2,0.8-0.3c0.3-0.1,0.5-0.2,0.8-0.3h0.2
	c0.3-0.1,0.4-0.2,0.7-0.3c0.3-0.1,0.5-0.2,0.9-0.4c0.3-0.1,0.5-0.2,0.9-0.3c0.3-0.1,0.5-0.2,0.9-0.3c0.3-0.1,0.5-0.2,0.9-0.3
	c0.3-0.1,0.6-0.2,0.9-0.3c0.3-0.1,0.5-0.2,0.9-0.3c0.3-0.1,0.6-0.2,0.9-0.3c0.3-0.1,0.6-0.2,0.9-0.3c0.3-0.1,0.6-0.2,0.9-0.3
	c0.3-0.1,0.6-0.2,0.9-0.3c0.3-0.1,0.6-0.2,0.9-0.3h0.2c1.4,0,2.1-0.1,2.4-0.3c13.3,6.3,24.7,16.1,33.2,28.2c0,0.4,0.2,0.8,1.3,2.1
	l0.1,0.1c8,12.3,12.8,26.6,13.7,41.3c-0.1,0.3-0.2,0.7-0.1,1.5c0,0.3,0,0.7,0.2,1v2.9c0,1.1,0,2.3-0.1,3.7L255.2,184.5z"/>
<path id="DDS:_DIFF_8_" class="st2" d="M206.8,255.7c-11.4,5.4-24.1,8.3-36.7,8.3c-47,0-85.2-38.3-85.2-85.2s38.3-85.3,85.3-85.3
	c9.9,0,19.5,1.7,28.6,4.9l-0.4,1c-0.4,0.1-0.9,0.3-1.2,0.4l-0.4,0.2c-0.5,0.2-1.2,0.4-1.7,0.6l-0.6,0.2c-0.4,0.1-0.8,0.3-1.2,0.4
	c-0.2,0-0.4,0.1-0.4,0.2l-0.3,0.1c-0.3,0.1-0.6,0.3-1,0.4c-0.2,0.1-0.4,0.2-0.6,0.3h-0.1c-0.3,0.1-0.6,0.3-1,0.4
	c-0.3,0.1-0.5,0.2-0.8,0.3c-0.3,0.1-0.6,0.3-0.9,0.4c-0.3,0.1-0.5,0.2-0.8,0.4c-0.3,0.1-0.6,0.3-0.9,0.4c-0.3,0.1-0.5,0.2-0.7,0.4
	c-0.3,0.1-0.6,0.3-1,0.4l-0.2,0.1c-0.2,0.1-0.4,0.2-0.5,0.3c-0.3,0.1-0.6,0.3-0.9,0.4l-0.3,0.2c-0.1,0.1-0.3,0.1-0.4,0.2
	c-0.4,0.2-0.8,0.4-1.2,0.6l-0.4,0.2c-0.5,0.3-1.1,0.5-1.5,0.9l-0.6,0.4c-0.3,0.2-0.6,0.4-1,0.5c-0.2,0.1-0.3,0.2-0.4,0.3l-0.2,0.1
	c-0.3,0.2-0.6,0.4-0.9,0.5c-0.2,0.1-0.4,0.2-0.5,0.4l-0.1,0.1c-0.3,0.2-0.5,0.4-0.9,0.5c-0.2,0.1-0.4,0.3-0.7,0.4
	c-0.3,0.2-0.5,0.4-0.8,0.5c-0.2,0.1-0.4,0.3-0.7,0.4l-0.8,0.5c-0.2,0.1-0.4,0.3-0.6,0.4c-0.3,0.2-0.5,0.4-0.9,0.6l-0.2,0.1
	c-0.1,0.1-0.3,0.2-0.4,0.3c-0.3,0.2-0.6,0.4-0.9,0.6l-0.2,0.1c-0.1,0.1-0.2,0.2-0.4,0.3c-0.4,0.3-0.8,0.6-1.2,0.9l-0.2,0.2
	c-0.4,0.4-0.9,0.7-1.3,1.1c-0.1,0.1-0.2,0.2-0.3,0.3l-0.2,0.1c-0.3,0.3-0.6,0.4-0.9,0.7c-0.1,0.1-0.3,0.2-0.4,0.3l-0.1,0.1
	c-0.3,0.2-0.5,0.4-0.8,0.7c-0.2,0.1-0.3,0.3-0.4,0.4l-0.1,0.1c-0.3,0.2-0.5,0.4-0.8,0.6c-0.2,0.2-0.4,0.4-0.5,0.4
	c-0.3,0.2-0.4,0.4-0.7,0.7c-0.2,0.2-0.4,0.4-0.5,0.5c-0.3,0.2-0.4,0.4-0.7,0.7c-0.2,0.1-0.3,0.3-0.4,0.4l-1.2,1.2
	c-0.3,0.3-0.5,0.5-0.8,0.8l-0.4,0.4c-0.4,0.4-0.8,0.8-1.2,1.2c-13.4,14.5-20.4,31.9-20.4,50.1c0,19.2,8.1,37.9,22.8,52.7
	c0.4,0.4,0.9,0.9,1.3,1.2l0.4,0.4c0.3,0.3,0.6,0.5,0.9,0.9c0.1,0.1,0.3,0.2,0.4,0.4l0.2,0.1c0.3,0.3,0.5,0.5,0.8,0.8
	c0.2,0.1,0.4,0.3,0.4,0.4l0.1,0.1c0.3,0.3,0.5,0.4,0.8,0.7c0.2,0.2,0.4,0.3,0.5,0.4c0.3,0.2,0.5,0.4,0.8,0.7
	c0.2,0.2,0.4,0.4,0.6,0.5c0.3,0.2,0.5,0.4,0.8,0.6c0.2,0.2,0.4,0.4,0.6,0.5c0.3,0.2,0.5,0.4,0.9,0.6l0.1,0.1
	c0.2,0.1,0.4,0.3,0.5,0.4c0.3,0.2,0.6,0.4,0.9,0.6l0.2,0.1c0.2,0.1,0.3,0.2,0.4,0.4c0.4,0.2,0.6,0.4,1,0.7l0.2,0.1
	c0.1,0.1,0.2,0.2,0.4,0.3c0.4,0.3,0.9,0.6,1.2,0.9l0.3,0.2c0.5,0.4,1.1,0.7,1.6,1.1c0.1,0.1,0.2,0.1,0.4,0.2l0.2,0.1
	c0.4,0.2,0.7,0.4,1.1,0.6c0.2,0.1,0.3,0.2,0.4,0.3l0.2,0.1c0.3,0.2,0.6,0.4,1,0.5c0.2,0.1,0.4,0.3,0.6,0.4h0.1
	c0.3,0.2,0.6,0.4,1,0.5c0.3,0.1,0.5,0.3,0.8,0.4c0.3,0.2,0.6,0.4,1,0.5c0.3,0.1,0.5,0.3,0.8,0.4c0.3,0.2,0.6,0.4,1,0.4
	c0.3,0.1,0.5,0.3,0.8,0.4c0.3,0.2,0.6,0.3,1,0.4h0.1c0.2,0.1,0.4,0.2,0.6,0.3c0.3,0.1,0.6,0.3,1,0.4l0.3,0.1
	c0.2,0.1,0.4,0.2,0.5,0.3c0.4,0.2,0.7,0.3,1.1,0.4l0.2,0.1c0.2,0.1,0.3,0.1,0.4,0.2c0.4,0.2,0.9,0.4,1.2,0.5l0.5,0.2
	c0.6,0.3,1.2,0.4,1.8,0.7l0.7,0.3c0.4,0.1,0.7,0.3,1.2,0.4c0.2,0,0.4,0.1,0.5,0.2l0.3,0.1c0.4,0.1,0.7,0.3,1.1,0.4
	c0.2,0.1,0.4,0.1,0.5,0.2l0.2,0.1c0.4,0.1,0.7,0.3,1.1,0.4c0.3,0.1,0.5,0.2,0.8,0.3c0.4,0.1,0.7,0.2,1.1,0.4
	c0.3,0.1,0.5,0.2,0.8,0.3c0.4,0.1,0.7,0.2,1.1,0.4c0.3,0.1,0.5,0.2,0.8,0.3c0.4,0.1,0.7,0.2,1.2,0.3c0.3,0.1,0.5,0.1,0.8,0.2
	c0.4,0.1,0.8,0.2,1.2,0.3l0.3,0.1c0.2,0,0.4,0.1,0.5,0.1C206.2,255.7,206.5,255.7,206.8,255.7z"/>
<path id="DDS:_DIFF_7_" class="st2" d="M175.7,64c-10.4,4.6-12.3,6.5-13.3,7.5c-4.3,4.5-6.8,10.9-7.2,18.6
	c-21.6,3.6-40.7,14.7-54.4,30.6c-5.2-1.2-12.7-2.2-20.9-0.7c-6.9,1.2-11.2,3.7-14.9,5.9c-3.7,2.1-6.6,3.7-10.9,3.5
	c-1.6-0.1-3.1-0.4-4.6-1c19.5-50,66.1-86.5,121.8-91.2c-0.6,5.4-0.7,14.6,3.2,24.3C174.9,62.2,175.3,63.1,175.7,64z"/>
<path id="DDS:_DIFF_6_" class="st2" d="M78.7,180.4c0,20.8,7,40,18.7,55.4l-0.6,0.7c0,0-0.1,0.1-0.2,0.2l-0.1,0.1
	c0,0-0.1,0.1-0.2,0.2c0,0-0.1,0.1-0.2,0.2l-0.1,0.1l-0.1,0.1c0,0-0.1,0.1-0.2,0.2l-0.2,0.1l-0.1,0.1c-0.1,0-0.1,0.1-0.2,0.2
	l-0.2,0.1l-0.1,0.1c-0.1,0-0.2,0.1-0.3,0.2l-0.2,0.1l-0.1,0.1c-0.1,0-0.2,0.1-0.3,0.2l-0.2,0.1c0,0-0.1,0-0.1,0.1
	c-0.1,0.1-0.2,0.1-0.4,0.2l-0.2,0.1c0,0-0.1,0-0.1,0.1c-0.1,0.1-0.3,0.1-0.4,0.2l-0.1,0.1h-0.1c-0.2,0.1-0.4,0.2-0.6,0.3l-0.2,0.1
	c-0.3,0.1-0.5,0.2-0.8,0.3c-3.8,1.4-6.6,1-10.7,0.3c-3.4-0.5-7.5-1.2-13.7-1.2H54.5c-0.3,0-0.4,0-0.7,0.1h-0.4c-0.4,0-0.7,0.1-1,0.1
	h-0.2c-8-17.9-12.5-37.8-12.5-58.7c0-17.6,3.2-34.5,9-50.1c1.8,0.7,3.6,1.1,5.4,1.1c4.8,1.2,8.3-0.7,12.2-2.9
	c3.6-2.1,7.6-4.4,13.9-5.5c5.8-1.1,12-1,18.3,0.3C86.1,139.1,78.7,158.9,78.7,180.4z"/>
<path id="DDS:_DIFF_5_" class="st2" d="M170.6,295.9c-0.2,0.4-0.4,0.6-0.6,1c-0.1,0.1-0.2,0.3-0.3,0.4l-0.2,0.3
	c-0.1,0.2-0.3,0.4-0.4,0.7c-0.2,0.4-0.4,0.8-0.6,1.2c-0.1,0.1-0.1,0.3-0.2,0.4l-0.1,0.1c-0.1,0.2-0.2,0.4-0.3,0.6
	c-0.1,0.3-0.3,0.5-0.4,0.8l-0.1,0.3c-2.2,4.9-3.7,10.2-4.3,15.7l-0.1,0.6c0.3,1.7,0.4,3.5,0.5,5c-48.4-6.8-89.1-37.6-109.6-80.1h2.7
	l9.3-0.1c1.4,0,2.8,0,4.1,0.1c3.8,0.2,6.6,0.7,9.1,1.1c0.4,0.1,0.9,0.2,1.3,0.2l0.5,0.1c0.2,0,0.4,0,0.5,0.1H82c0.2,0,0.4,0,0.5,0.1
	h2.9c0,0,0.1,0,0.2,0h2.6c0.1,0,0.2,0,0.4-0.1h0.2c0.1,0,0.1,0,0.2,0c0.1,0,0.3-0.1,0.4-0.1h0.2c0,0,0.1,0,0.2,0
	c0.2,0,0.4-0.1,0.5-0.2h0.2c0.3-0.1,0.5-0.2,0.8-0.3c0.3-0.1,0.6-0.3,0.9-0.4c0.1,0,0.1,0,0.2-0.1l0.2-0.1c0.2-0.1,0.4-0.1,0.4-0.2
	c0.1,0,0.2-0.1,0.3-0.1l0.2-0.1c0.1-0.1,0.3-0.1,0.4-0.2c0.1,0,0.2-0.1,0.3-0.1l0.1-0.1c0.1-0.1,0.3-0.1,0.4-0.2
	c0.1,0,0.2-0.1,0.3-0.2l0.1-0.1c0.1-0.1,0.2-0.1,0.4-0.2c0.1-0.1,0.2-0.1,0.3-0.2c0.1-0.1,0.3-0.2,0.4-0.3c0.1-0.1,0.2-0.1,0.3-0.2
	c0.1-0.1,0.2-0.2,0.4-0.3c0.1-0.1,0.2-0.2,0.3-0.2c0.1-0.1,0.2-0.2,0.3-0.3c0.1-0.1,0.2-0.2,0.3-0.2c0.1-0.1,0.2-0.2,0.3-0.3
	c0.1-0.1,0.2-0.2,0.3-0.3c0.1-0.1,0.2-0.2,0.3-0.3c0.1-0.1,0.2-0.2,0.2-0.3c0.1-0.1,0.2-0.2,0.3-0.3c0.1-0.1,0.1-0.1,0.2-0.2
	c0.1-0.1,0.2-0.2,0.3-0.3l0.2-0.3c0.1-0.1,0.1-0.1,0.2-0.2c14.3,17.5,35,29.6,58.5,32.8C157.9,277.3,160,287.9,170.6,295.9z"/>
<path id="DDS:_DIFF_4_" class="st2" d="M237.5,314.2c-1.3,0.5-2.7,1.1-4.1,1.6c-2.5-3-7-7.8-13.3-10.5c-3.7-1.7-6.2-1.7-10.4-1.7
	c-3.6,0-8.5-0.1-16.4-1.1c-3.4-0.4-6.2-0.9-8.6-1.4c-1.2,0.8-2.1,1.4-3,2.1c-3.7,2.4-5.7,3.7-8,7c-3.7,5-5,10.4-5.5,13.6
	c-1.5-0.2-3-0.3-4.5-0.6c-0.1-1.5-0.2-3.3-0.5-5l0.1-0.6c0.6-5.5,2.1-10.8,4.3-15.7l0.1-0.3c0.1-0.3,0.3-0.5,0.4-0.8
	c0.1-0.2,0.2-0.4,0.3-0.6l0.1-0.1c0.1-0.2,0.1-0.4,0.2-0.4c0.2-0.4,0.4-0.8,0.6-1.2c0.1-0.3,0.3-0.5,0.4-0.7l0.2-0.3
	c0.1-0.2,0.2-0.4,0.3-0.4c0.3-0.4,0.4-0.6,0.6-1c-10.6-8-12.6-18.5-12.7-24.7c1.3,0.2,2.6,0.3,4,0.4c2.8,0.3,5.6,0.4,8.4,0.4
	c0.6,0,1.2,0,1.9,0c1.2,0,2.5-0.1,3.7-0.2c6.4-0.4,12.6-1.4,18.5-3c1-0.3,2-0.6,3-0.9c2.8-0.9,5.6-1.9,8.3-3
	c0.9-0.4,1.9-0.8,2.8-1.2c1.3,7,0.6,13.3-2,18.4c-0.3,0.6-0.8,1.5-2.1,3c1.5,1.2,3.1,2,5.3,3c1.7,0.8,3.6,1.7,5.6,2.8
	C227.5,298.2,235,309.7,237.5,314.2z"/>
<path id="DDS:_DIFF_3_" class="st2" d="M296.6,270.1c-0.8,1-1.5,1.9-2.3,2.8c-0.3-0.3-0.6-0.6-0.8-0.9c-0.6-0.7-1.2-1.4-2.1-2.2
	c-0.4-0.2-0.7-0.4-1.3-0.9c-2.5-1.9-8.5-6.1-16.7-6.8c-3.9-0.4-6.2,0.4-10.5,1.5c-2.8,0.7-6.5,1.8-12.1,2.9c-1.7,4.6-3,7.8-4.2,10.3
	c-1.8,4.1-2.8,6.3-3,10.3c-0.5,8.2,2.8,14.7,4.1,17.5c0.2,0.4,0.4,0.7,0.4,0.9c0.7,1,1.5,1.9,2.3,2.8c-1,0.5-2,1-3.1,1.5
	c-0.7-0.8-1.4-1.7-2-2.5c-2.3-2.2-10.8-13.7-11.9-29.3c-0.2-2.3-0.1-4.3-0.1-6v-3.4c-1.3-0.1-2.1-0.3-2.6-0.4
	c-5.1-1.3-9.8-4.3-13.9-9c0.9-0.5,1.7-1,2.5-1.6c0.9-0.6,1.8-1.1,2.6-1.7c1-0.7,2-1.4,3-2.2c6.7-5,12.7-11,17.8-17.6
	c0.8-1.1,1.6-2.1,2.4-3.2c0.3-0.4,0.5-0.7,0.7-1.1c0.6-0.9,1.2-1.8,1.7-2.7c4.9,5.1,7.7,10.8,8.2,16.6c0.1,0.7,0.2,1.6-0.1,3.5
	c1.3,0.4,2.8,0.5,4.4,0.7c1.7,0.3,3.7,0.5,5.9,1c15,3.2,24.3,12.7,26.1,14.5c1.4,1.3,2.8,2.8,4,4.1
	C296.3,269.8,296.4,270,296.6,270.1z"/>
<path id="DDS:_DIFF_2_" class="st2" d="M327.2,193.9c-0.1,1.2-0.2,2.4-0.4,3.5c-0.7-0.4-1.4-0.7-2.1-1c-1.7-0.7-3.5-1.3-5.3-1.9
	c-0.3,0-0.7-0.1-1.3-0.1c-3-0.3-10.3-0.9-17.8,2.8c-3.6,1.8-5.3,3.6-8.3,6.8c-1.7,1.9-3.8,4.1-7,7c0.7,3.7,1.2,6.4,1.5,8.7
	c0.7,4.4,1.1,6.8,3,10.3c4.1,7.2,10.3,10.8,12.9,12.4h0.1c2.2,1,4.5,1.7,6.7,2.2c1,0.3,2,0.5,3.1,0.6c-0.5,1-1.1,2.1-1.6,3.1
	c-0.7-0.1-1.3-0.2-2-0.4c-2-0.4-4-1.1-6-1.9c-2.4-0.4-16.3-4.9-26.3-18.3c-1.3-1.9-2.4-3.6-3.3-5c-0.3-0.4-0.5-0.8-0.8-1.2
	c-3,2.1-4.4,2.6-5.3,2.9c-4.9,1.6-10.5,1.4-16.4-0.5c0.5-0.9,1-1.8,1.4-2.7c1-1.9,1.9-3.9,2.7-5.9c0.5-1.1,0.9-2.2,1.3-3.4
	c2.4-6.5,4.1-13.4,5-20.6c0.2-1.3,0.3-2.6,0.4-3.8c0.1-1.8,0.2-3.6,0.3-5.4c0-0.6,0-1.2,0-1.8c0-0.4,0-0.8,0-1.2
	c7,1.6,12.5,4.9,16,9.5c0.6,0.7,1.5,2,2.9,5.9c0.6-0.3,1.3-0.6,2.1-0.9c1.6-0.7,3.4-1.5,5.5-2.2c12.8-4.4,25.2-2.5,30.7-0.4
	c2.5,0.6,4.9,1.4,7.2,2.4C326.6,193.6,326.9,193.7,327.2,193.9z"/>
<path id="DDS:_DIFF_1_" class="st2" d="M326.5,161.4c-3.9,1.8-8,3-12.2,3.4h-0.4v-0.1c-3.9,0.8-15.7,2.6-28.5-2.2
	c-2.1-0.8-3.8-1.6-5.4-2.3c-2.2,5.8-3.5,7.2-4.3,8.1c-3.4,3.8-8.2,6.5-14.1,7.9c0-1.1-0.1-2.2-0.2-3.2c-0.2-3.1-0.7-6.2-1.2-9.2
	c-0.2-1.2-0.5-2.4-0.7-3.6c-1.4-6.1-3.3-11.9-5.9-17.5v0c-0.6-1.3-1.2-2.7-1.9-4c-1.2-2.3-2.5-4.6-3.9-6.8c-0.5-0.9-1.1-1.7-1.7-2.6
	c3.8-1.4,7.7-2.1,11.1-2.1c2.9,0,5.4,0.4,7.9,1.3c1.1,0.4,2.9,1,7.9,5.2l0.1-0.2c1.1-1.3,2.2-3,3.7-4.7
	c9.5-11.2,22.4-15.6,26.6-16.3c2.1-0.7,4.3-1.2,6.4-1.4c0.6,1.1,1.2,2.1,1.7,3.2c-0.4,0-0.8,0.1-1.2,0.1c-1.8,0.3-3.6,0.6-5.3,1.2
	c-0.3,0.2-0.6,0.4-1.1,0.5c-2.8,1.3-9.3,4.6-13.8,11.5c-2.1,3.4-2.7,5.7-3.7,10.1c-0.4,1.9-0.9,4.2-1.7,7.1c2,2.1,3.5,3.7,4.6,5.1
	c2.9,3.3,4.6,5.1,8,7c7.3,3.9,14.5,3.5,17.7,3.4h1.2c0.5,0,0.9,0.1,1.2,0.3c2.8-0.5,5.5-1.5,8-2.8c0.1,0,0.1-0.1,0.2-0.1
	C326.2,158.9,326.4,160.2,326.5,161.4z"/>
<path id="DDS:_DIFF" class="st2" d="M288,81.1c-0.1,0.1-0.1,0.2-0.2,0.3c-0.7,1.4-1.6,2.8-2.6,4c0,0.2-0.1,0.3-0.1,0.4
	c-0.7,1.7-11.2,13.2-27.7,16.7c-1.7,0.4-3.1,0.5-4.4,0.7c1.8,8.7,1.3,10.9,1.1,12.2c-1,5.1-3.6,9.7-7.9,14c-0.6-0.9-1.2-1.7-1.8-2.6
	c-2.3-3.2-4.8-6.2-7.5-9c-0.9-0.9-1.7-1.8-2.6-2.7c-3.8-3.8-8-7.2-12.4-10.2c-1.2-0.8-2.4-1.6-3.6-2.3c-2.9-1.8-6-3.5-9.1-4.9
	c-1-0.5-2.1-1-3.1-1.4c-4.2-1.8-8.7-3.3-13.2-4.5c-1.2-0.3-2.4-0.6-3.7-0.8c-4.6-1-9.2-1.6-14-1.8c-1.5-0.1-2.9-0.1-4.4-0.1
	c-0.2,0-0.4,0-0.5,0c-4.1,0-8,0.3-11.9,0.8c-1,0.1-2,0.3-3.1,0.5c0.4-7.7,2.9-14.1,7.2-18.6c1-1,2.9-2.9,13.3-7.5
	c-0.4-0.9-0.8-1.8-1.2-2.6c-3.8-9.8-3.7-19-3.2-24.3c1.6-0.1,3.2-0.2,4.8-0.3c0.3,4.6,1.5,8.8,3.6,12.5c2,3.5,3.7,5.1,7.1,7.9
	c0.7,0.6,1.4,1.2,2.2,2c1-0.4,2-0.6,2.9-0.9c4.2-1.3,6.6-2.1,9.7-4.5c6.4-5,9.1-11.6,10.3-14.5c1.3,0.3,2.6,0.5,4,0.8
	c-0.1,0.4-0.2,0.8-0.4,1.2c-0.4,2.6-3.3,15.4-13.9,26c-0.7,0.6-1.3,1.2-2.1,2c7.8,8.1,8.7,10.7,9.2,12c1.2,3.3,1.6,7,1.2,11
	c3.7-3.8,7.9-6.2,12.4-7.3c1.3-0.4,3.6-0.9,12.2,0.4c0.1-1.2,0.3-2.8,0.5-4.4c2.3-14.1,10.3-23.6,12.8-26.1c0.5-0.8,1.1-1.7,1.8-2.5
	c1.1,0.6,2.1,1.1,3.2,1.7c0,0.6-0.4,1-1.1,2c-1.6,2.6-5.6,8.7-5.9,17c-0.1,3.9,0.6,6.2,2.1,10.4c0.4,1.3,1,2.9,1.5,4.8
	c1.9,0.5,3.5,1,4.8,1.3c4.2,1.2,6.6,1.9,10.5,1.5c4.1-0.4,7.7-1.6,10.5-2.9c2.8-1.4,4.9-2.9,6.2-3.7c1.2-1.4,2.4-3,3.3-4.7
	c0.3-0.4,0.5-0.8,0.7-1.3C286.3,79.4,287.1,80.2,288,81.1z"/>
<path id="ART:_Sun_and_Moon" class="st3" d="M334.3,157l-0.4-2.8c-2-11.3-5.2-22.4-9.7-33c-1.1-2.5-2.3-5.2-3.6-7.8l-1.3-2.7
	c-6.9-13.5-16-25.9-26.8-36.8l-2.1-2.1c-9.1-8.8-19-16.4-29.8-22.6l-2.8-1.5c-4.5-2.4-9.1-4.7-13.8-6.7c-8.3-3.5-16.9-6.2-25.6-8.2
	l-2.7-0.6c-9.9-2-20.1-3-30.3-3c-2.3,0-4.8,0-7.2,0.2c-0.2-0.1-0.4-0.1-0.4-0.1c0,0-1.6-0.1-2.3,0.3c-16.9,1.1-33.3,4.9-48.8,11.5
	c-18,7.6-34.1,18.4-48,32.3c-13.8,13.8-24.7,29.9-32.3,48c-7.9,18.6-11.8,38.4-11.8,58.7s4,40.1,11.8,58.7c7.6,18,18.4,34.1,32.3,48
	c13.8,13.8,29.9,24.7,48,32.3c18.6,7.9,38.4,11.8,58.7,11.8s40.1-4,58.7-11.8c18-7.6,34.1-18.4,48-32.3c3.1-3.1,6.1-6.3,9-9.8l1.7-2
	c6.7-8.3,12.5-17.3,17.3-26.7l1.2-2.6c1.1-2.2,2.1-4.5,3-6.8c5.3-12.5,8.8-25.6,10.6-39.1l0.4-2.8c0.6-5.6,1-11.2,1-16.7
	C336,172.2,335.5,164.5,334.3,157z M166.1,324.3c-32-4.2-60.9-18.4-83.8-41.4c-11.8-11.8-21.5-25.5-28.7-40.4c0.1,0,0.1,0,0.2,0
	s0.3,0,0.4-0.1s0.3,0,0.4-0.1c0.1,0,0.3,0,0.4,0c0.2,0,0.3,0,0.4,0h0.4c0.2,0,0.4,0,0.5,0c0.1,0,0.3,0,0.4,0c0.2,0,0.4,0,0.5,0h0.4
	c0.2,0,0.4,0,0.5,0h0.4c0.2,0,0.4,0,0.6,0l9.3-0.1c1.4,0,2.8,0,4.1,0.1c3.8,0.2,6.6,0.7,9.1,1.1c0.4,0.1,0.9,0.2,1.3,0.2l0.5,0.1
	c0.2,0,0.4,0,0.5,0.1h0.3c0.2,0,0.4,0,0.5,0.1h0.3c0.1,0,0.3,0,0.4,0H86c0.1,0,0.3,0,0.4,0h0.3c0.1,0,0.3,0,0.4,0h0.4
	c0.1,0,0.3,0,0.4,0l0,0c0,0,0.1,0,0.2,0h0.2c0.1,0,0.2,0,0.3,0c0.1,0,0.2,0,0.3,0H89c0.1,0,0.2,0,0.3,0c0.1,0,0.2,0,0.3,0h0.2
	c0.1,0,0.2,0,0.3,0c0.1,0,0.2,0,0.3,0h0.2c0.1,0,0.2,0,0.3,0c0.1,0,0.2,0,0.4-0.1h0.2c0.1,0,0.1,0,0.2,0s0.3-0.1,0.4-0.1h0.2
	c0,0,0.1,0,0.2,0c0.2,0,0.4-0.1,0.5-0.2h0.1h0.1c0.3-0.1,0.5-0.2,0.8-0.3c0.3-0.1,0.6-0.3,0.9-0.4c0.1,0,0.1,0,0.2-0.1l0.2-0.1
	c0.2-0.1,0.4-0.1,0.4-0.2c0.1,0,0.2-0.1,0.3-0.1l0.2-0.1c0.1-0.1,0.3-0.1,0.4-0.2c0.1,0,0.2-0.1,0.3-0.1l0.1-0.1
	c0.1-0.1,0.3-0.1,0.4-0.2c0.1,0,0.2-0.1,0.3-0.2l0.1-0.1c0.1-0.1,0.2-0.1,0.4-0.2c0.1-0.1,0.2-0.1,0.3-0.2c0.1-0.1,0.3-0.2,0.4-0.3
	c0.1-0.1,0.2-0.1,0.3-0.2c0.1-0.1,0.2-0.2,0.4-0.3c0.1-0.1,0.2-0.2,0.3-0.2c0.1-0.1,0.2-0.2,0.3-0.3c0.1-0.1,0.2-0.2,0.3-0.2
	c0.1-0.1,0.2-0.2,0.3-0.3c0.1-0.1,0.2-0.2,0.3-0.3c0.1-0.1,0.2-0.2,0.3-0.3c0.1-0.1,0.2-0.2,0.2-0.3c0.1-0.1,0.2-0.2,0.3-0.3
	c0.1-0.1,0.1-0.1,0.2-0.2s0.2-0.2,0.3-0.3l0.2-0.3c0.1-0.1,0.2-0.2,0.3-0.3l0,0c14.8,17.9,35.4,29.4,58.3,32.2
	c0,6.1,1.8,17,12.7,25.3c-0.2,0.4-0.4,0.6-0.6,1c-0.1,0.1-0.2,0.3-0.3,0.4l-0.2,0.3c-0.1,0.2-0.3,0.4-0.4,0.7
	c-0.2,0.4-0.4,0.8-0.6,1.2c-0.1,0.1-0.1,0.3-0.2,0.4l-0.1,0.1c-0.1,0.2-0.2,0.4-0.3,0.6c-0.1,0.3-0.3,0.5-0.4,0.8l-0.1,0.3
	c-2.2,4.9-3.6,10.1-4.3,15.7l-0.1,0.6C165.9,319.8,166,322.6,166.1,324.3z M243.2,294.6c-2.1-4.5-4.2-10.5-4.6-17.4
	c-0.1-2.1-0.1-4-0.1-5.7c0-1.2,0-2.3,0-3.5c2.6-0.2,6-0.6,10.1-1.3c0.2,0,0.4-0.1,0.7-0.1c-1.3,3.6-2.5,6.2-3.5,8.3
	c-1.9,4.2-3,6.8-3.3,11.3C242.4,288.9,242.6,291.7,243.2,294.6z M247.1,84.3c0.3,0.9,0.6,1.9,1,3c-2.5-0.5-5.2-1.2-8-1.6l-0.5-0.1
	c0.1-1.3,0.3-2.8,0.5-4.4c1.2-6.9,3.7-12.6,6.3-16.9c-0.9,2.8-1.3,5.6-1.4,8.4C244.8,77.2,245.7,79.9,247.1,84.3z M301.1,193.9
	c-4,2-6,4-9.2,7.4c-1.4,1.5-3.2,3.4-5.6,5.6c-0.4-1.3-0.6-2.8-1.1-4.2c-0.5-2.2-1.2-4.3-1.7-6c0.8-0.3,1.5-0.6,2.3-1
	c1.5-0.7,3.3-1.4,5.3-2.1c6.6-2.2,12.9-2.6,17.9-2.4C306.3,191.8,303.6,192.7,301.1,193.9z M284.3,153.3c0.6-2,1.2-3.7,1.8-5.6
	c1.3,1.4,2.4,2.7,3.4,3.7c3,3.5,4.9,5.5,8.9,7.7c2.5,1.3,5.2,2.3,8,2.9c-5,0-11.3-0.5-17.7-3c-2-0.8-3.7-1.6-5.3-2.3h-0.1
	C283.4,155.6,283.8,154.5,284.3,153.3z M289.8,125.6c-2.4,3.7-3,6.5-4.1,11c-0.4,1.4-0.7,3.2-1.2,5.3c-1.4-1.4-2.9-2.8-4.5-4.4
	c-0.9-0.8-1.7-1.5-2.4-2.2l0.3-0.4c1-1.3,2-2.9,3.5-4.5c4.5-5.3,9.7-8.9,14.1-11.2C293.2,121.1,291.3,123.2,289.8,125.6z
	 M279.3,158.2c-2.1,5.4-3.2,6.7-3.8,7.4c-3.1,3.5-7.6,5.9-13.1,7.1c-0.2-2.8-0.5-5.7-1-8.4c3.6-4.3,7.4-6.8,11.4-7.2
	C275.2,156.9,277.1,157.3,279.3,158.2z M275.6,195.1c-4.5-0.7-9.7-5.3-13.2-9.3c0.1-1.4,0.2-2.9,0.2-4.4c6.5,1.4,11.7,4.4,15,8.5
	c0.4,0.6,1.2,1.6,2.4,5C278.4,195.2,277.1,195.2,275.6,195.1z M255,215.4c5.4-1.8,10.1-1.8,13.7,0c1.6,0.8,2.8,1.8,4,3.2
	c-2.7,1.9-3.7,2.2-4.4,2.4c-4.6,1.4-10,1.2-15.6-0.8C253.5,218.6,254.3,217,255,215.4z M256.4,211.8c2.8-7.1,4.6-14.5,5.5-22.2
	c2.9,3,8,7.5,13.1,8.4c2,0.3,3.8,0.2,5.8-0.3c0.5,1.7,1.1,3.6,1.6,5.8c0.5,2,1,3.9,1.4,5.8c-1.2,1.1-2.4,2.2-3.7,3.3
	c-1.9,1.6-3.6,3-5.1,4.2c-1.5-1.9-3.1-3.2-5.1-4.2c-2.2-1.1-4.7-1.6-7.5-1.6C260.6,211,258.6,211.3,256.4,211.8z M268.4,139.6
	c-4.3,1.7-9.6,1.1-15.8-1.9c-1.1-2-2.2-4-3.4-6c6.2-2.3,12.1-2.6,17.1-0.8c0.9,0.3,2.5,0.9,7.1,4.8
	C272.1,137.5,270.7,138.7,268.4,139.6z M260.7,160.6c-1.3-6.5-3.5-12.8-6.1-18.8c5.7,2.1,10.7,2.3,15,0.5c2.9-1.2,4.7-2.9,6.1-4.7
	c0.7,0.6,1.4,1.3,2.2,2c2,1.9,3.9,3.6,5.7,5.5c-0.6,2.3-1.3,4.6-2.2,7.1c-0.4,1.1-0.7,2.1-1.1,3.1c-2.5-1.1-4.9-1.7-8-1.2
	C268.3,154.7,264.4,156.9,260.7,160.6z M248.2,263.7c-4.2,0.7-7.5,1.2-10,1.2c-0.4-1.6-0.9-3-1.8-4.5c-2.3-3.6-6.1-6.4-11.4-8.1
	c7.4-5.3,14-11.7,19.5-19c0.8,4.6,2.8,11.8,6.9,15.2c1,0.8,2,1.5,3.1,2c-0.5,2.3-1.4,5.4-2.6,9.1c-0.4,1.2-0.9,2.5-1.2,3.6
	C249.8,263.4,249,263.5,248.2,263.7L248.2,263.7z M181.9,65.4c3-1.2,5.8-2.3,8.6-3.2c2.2,2,4.4,4.1,6.7,6.4
	c-3.1,2.6-5.5,4.6-6.8,8.7c-1.2,4-0.9,8.6,1.2,13.6c-4.7-1.1-9.6-1.7-14.5-2c4.4-4,6.9-8.3,7.5-12.8C185.1,72,183.7,69,181.9,65.4z
	 M225.1,87.6c1-0.2,3-0.7,11.3,0.5c-0.3,2.9-0.6,5.3-2.5,7.7c-2.8,3.6-7.6,5.8-14.2,6.5c-1.2-0.7-2.3-1.3-3.5-2l0.4-0.1l-5.5-2.5
	C215,92.2,219.9,88.7,225.1,87.6z M257.3,183.9c-0.7,11.8-3.9,23.7-9.3,34.2l0,0l-1.2,2.3l-0.1,0.1c-0.3,0.5-0.6,1.1-0.9,1.6
	c-7.2,12.4-17.5,22.7-29.8,30l-0.4-0.1c-0.4-0.1-0.7-0.1-1.1-0.2c-0.3,0-0.6-0.1-1-0.2c-0.4-0.1-0.7-0.1-1-0.2
	c-0.3-0.1-0.6-0.1-1-0.2s-0.6-0.1-1-0.2c-0.3-0.1-0.6-0.2-1-0.2c-0.4-0.1-0.6-0.2-1-0.3c-0.3-0.1-0.6-0.2-1-0.3
	c-0.4-0.1-0.6-0.2-1-0.3c-0.3-0.1-0.6-0.2-0.9-0.3h-0.1c-0.3-0.1-0.6-0.2-0.9-0.3c-0.3-0.1-0.5-0.2-0.8-0.3h-0.1
	c-0.3-0.1-0.6-0.2-0.9-0.3c-0.3-0.1-0.6-0.2-1-0.3H202c-0.3-0.1-0.5-0.2-0.8-0.3c-0.3-0.1-0.6-0.2-1-0.4c-0.3-0.1-0.6-0.2-0.9-0.3
	c-0.3-0.1-0.5-0.2-0.8-0.3l-0.2-0.1c-0.3-0.1-0.5-0.2-0.8-0.3c-0.3-0.1-0.5-0.2-0.9-0.3l-0.3-0.1c-0.3-0.1-0.4-0.2-0.7-0.3
	c-0.3-0.1-0.4-0.2-0.7-0.3l-0.4-0.2c-0.2-0.1-0.4-0.2-0.6-0.3c-0.3-0.1-0.5-0.2-0.8-0.4l-0.4-0.1c-0.2-0.1-0.4-0.2-0.6-0.3
	c-0.3-0.1-0.5-0.2-0.8-0.4l-0.4-0.1c-0.2-0.1-0.4-0.2-0.6-0.3c-0.3-0.1-0.6-0.3-0.9-0.4l-0.2-0.1c-0.2-0.1-0.4-0.2-0.6-0.3
	c-0.3-0.1-0.5-0.3-0.8-0.4l-0.4-0.2c-0.2-0.1-0.4-0.2-0.5-0.3c-0.2-0.1-0.4-0.3-0.7-0.4l-0.4-0.2c-0.2-0.1-0.4-0.2-0.5-0.3
	c-0.2-0.1-0.4-0.3-0.7-0.4l-0.4-0.2c-0.2-0.1-0.4-0.2-0.6-0.4c-0.3-0.1-0.4-0.3-0.7-0.4l-0.4-0.2c-0.2-0.1-0.4-0.2-0.5-0.3
	c-0.2-0.1-0.4-0.3-0.6-0.4l-0.4-0.3c-0.2-0.1-0.4-0.2-0.5-0.3c-0.3-0.1-0.4-0.3-0.7-0.4l-0.4-0.2c-0.2-0.1-0.4-0.2-0.5-0.4
	c-0.2-0.1-0.4-0.3-0.7-0.4l-0.4-0.3c-0.2-0.1-0.4-0.2-0.5-0.4c-0.2-0.1-0.4-0.3-0.6-0.4l-0.4-0.3c-0.2-0.1-0.4-0.2-0.5-0.4
	c-0.2-0.1-0.4-0.3-0.6-0.4l-0.4-0.3c-0.2-0.1-0.3-0.2-0.4-0.4c-0.2-0.1-0.4-0.3-0.6-0.4l-0.4-0.3c-0.2-0.1-0.3-0.2-0.4-0.4
	c-0.2-0.1-0.4-0.3-0.5-0.4l-0.4-0.4c-0.1-0.1-0.3-0.2-0.4-0.4c-0.2-0.1-0.4-0.3-0.5-0.4l-0.4-0.4c-0.1-0.1-0.3-0.2-0.4-0.4
	c-0.2-0.1-0.4-0.3-0.5-0.4l-0.4-0.4c-0.1-0.1-0.3-0.2-0.4-0.4c-0.2-0.2-0.4-0.4-0.5-0.4l-0.4-0.4c-0.1-0.1-0.3-0.2-0.4-0.4
	c-0.2-0.2-0.4-0.4-0.6-0.5l-0.4-0.4c-0.1-0.1-0.2-0.2-0.4-0.3c-0.3-0.2-0.4-0.4-0.7-0.7l-0.4-0.4c-0.1-0.1-0.2-0.2-0.3-0.3
	c-0.4-0.4-0.9-0.9-1.2-1.2c-13.7-13.8-21.3-31.1-21.3-48.9c0-16.9,6.6-33,19-46.5c0.4-0.4,0.8-0.8,1.2-1.2c0.1-0.1,0.2-0.2,0.2-0.2
	l0.3-0.3c0.2-0.2,0.4-0.4,0.7-0.7c0.1-0.1,0.2-0.2,0.3-0.3l0.4-0.4c0.2-0.2,0.4-0.4,0.5-0.5c0.1-0.1,0.3-0.2,0.4-0.4l0.4-0.4
	c0.2-0.2,0.4-0.3,0.5-0.4c0.1-0.1,0.3-0.2,0.4-0.4l0.4-0.4c0.2-0.1,0.3-0.3,0.4-0.4c0.1-0.1,0.3-0.3,0.4-0.4l0.4-0.4
	c0.2-0.1,0.3-0.3,0.4-0.4c0.1-0.1,0.3-0.3,0.4-0.4l0.4-0.4c0.2-0.1,0.3-0.3,0.4-0.4s0.3-0.3,0.4-0.4l0.4-0.3
	c0.2-0.1,0.3-0.3,0.4-0.4c0.2-0.1,0.4-0.3,0.5-0.4l0.4-0.3c0.2-0.1,0.4-0.3,0.4-0.4c0.2-0.1,0.4-0.3,0.5-0.4l0.4-0.3
	c0.2-0.1,0.4-0.3,0.5-0.4c0.2-0.1,0.4-0.3,0.5-0.4l0.4-0.3c0.2-0.1,0.4-0.3,0.5-0.4s0.4-0.3,0.5-0.4l0.4-0.3
	c0.2-0.1,0.4-0.2,0.4-0.4c0.2-0.1,0.4-0.3,0.5-0.4l0.4-0.3c0.2-0.1,0.4-0.2,0.4-0.4c0.2-0.1,0.4-0.3,0.6-0.4l0.3-0.2
	c0.2-0.1,0.4-0.2,0.5-0.4c0.2-0.1,0.4-0.3,0.6-0.4l0.4-0.2c0.2-0.1,0.4-0.2,0.5-0.3c0.2-0.1,0.4-0.3,0.7-0.4l0.3-0.2
	c0.2-0.1,0.4-0.2,0.5-0.3c0.2-0.1,0.4-0.2,0.6-0.4l0.4-0.2c0.2-0.1,0.4-0.2,0.6-0.4c0.2-0.1,0.4-0.2,0.6-0.4l0.4-0.2
	c0.2-0.1,0.4-0.2,0.6-0.3c0.2-0.1,0.4-0.3,0.7-0.4l0.2-0.1c0.2-0.1,0.4-0.2,0.7-0.4c0.2-0.1,0.4-0.2,0.7-0.4l0.3-0.2
	c0.2-0.1,0.4-0.2,0.6-0.3c0.3-0.1,0.5-0.3,0.7-0.4l0.3-0.1c0.2-0.1,0.4-0.2,0.6-0.3c0.3-0.1,0.5-0.2,0.8-0.4l0.2-0.1
	c0.2-0.1,0.4-0.2,0.7-0.3c0.3-0.1,0.5-0.2,0.8-0.4l0.2-0.1c0.2-0.1,0.4-0.2,0.7-0.3c0.3-0.1,0.5-0.2,0.8-0.4h0.1
	c0.3-0.1,0.5-0.2,0.8-0.3c0.3-0.1,0.5-0.2,0.8-0.3h0.2c0.3-0.1,0.4-0.2,0.7-0.3c0.3-0.1,0.5-0.2,0.9-0.4c0.3-0.1,0.5-0.2,0.9-0.3
	c0.3-0.1,0.5-0.2,0.9-0.3c0.3-0.1,0.5-0.2,0.9-0.3c0.3-0.1,0.6-0.2,0.9-0.3c0.3-0.1,0.5-0.2,0.9-0.3c0.3-0.1,0.6-0.2,0.9-0.3
	c0.3-0.1,0.6-0.2,0.9-0.3c0.3-0.1,0.6-0.2,0.9-0.3c0.3-0.1,0.6-0.2,0.9-0.3c0.3-0.1,0.6-0.2,0.9-0.3h0.2c1.4,0,2-0.1,2.4-0.3
	c13.3,6.3,24.7,16.1,33.1,28.1c0,0.4,0.2,0.8,1.3,2l0.1,0.1c8,12.3,12.7,26.5,13.7,41.2c-0.1,0.3-0.2,0.7-0.1,1.5c0,0.3,0,0.7,0.2,1
	c0,1,0,2,0,2.8c0,1.3,0,2.8-0.1,4.5l-0.2,0.1L257.3,183.9z M205.8,250.2L205.8,250.2L205.8,250.2L205.8,250.2z M200.6,99
	c-0.4,0.1-0.9,0.3-1.2,0.4l-0.4,0.2c-0.5,0.2-1.2,0.4-1.7,0.6l-0.6,0.2c-0.4,0.1-0.8,0.3-1.2,0.4c-0.2,0-0.4,0.1-0.4,0.2l-0.3,0.1
	c-0.3,0.1-0.6,0.3-1,0.4c-0.2,0.1-0.4,0.2-0.6,0.3h-0.1c-0.3,0.1-0.6,0.3-1,0.4c-0.3,0.1-0.5,0.2-0.8,0.3c-0.3,0.1-0.6,0.3-0.9,0.4
	c-0.3,0.1-0.5,0.2-0.8,0.4c-0.3,0.1-0.6,0.3-0.9,0.4c-0.3,0.1-0.5,0.2-0.7,0.4c-0.3,0.1-0.6,0.3-1,0.4l-0.2,0.1
	c-0.2,0.1-0.4,0.2-0.5,0.3c-0.3,0.1-0.6,0.3-0.9,0.4l-0.3,0.2c-0.1,0.1-0.3,0.1-0.4,0.2c-0.4,0.2-0.8,0.4-1.2,0.6l-0.4,0.2
	c-0.5,0.3-1.1,0.5-1.5,0.9l-0.6,0.4c-0.3,0.2-0.6,0.4-1,0.5c-0.2,0.1-0.3,0.2-0.4,0.3l-0.2,0.1c-0.3,0.2-0.6,0.4-0.9,0.5
	c-0.2,0.1-0.4,0.2-0.5,0.4l-0.1,0.1c-0.3,0.2-0.5,0.4-0.9,0.5c-0.2,0.1-0.4,0.3-0.7,0.4c-0.3,0.2-0.5,0.4-0.8,0.5
	c-0.2,0.1-0.4,0.3-0.7,0.4c-0.3,0.2-0.5,0.4-0.8,0.5l0,0c-0.2,0.1-0.4,0.3-0.6,0.4c-0.3,0.2-0.5,0.4-0.9,0.6l-0.2,0.1
	c-0.1,0.1-0.3,0.2-0.4,0.3c-0.3,0.2-0.6,0.4-0.9,0.6l-0.2,0.1c-0.1,0.1-0.2,0.2-0.4,0.3c-0.4,0.3-0.8,0.6-1.2,0.9l-0.2,0.2
	c-0.4,0.4-0.9,0.7-1.3,1.1c-0.1,0.1-0.2,0.2-0.3,0.3l-0.2,0.1c-0.3,0.3-0.6,0.4-0.9,0.7c-0.1,0.1-0.3,0.2-0.4,0.3l-0.1,0.1
	c-0.3,0.2-0.5,0.4-0.8,0.7c-0.2,0.1-0.3,0.3-0.4,0.4l-0.1,0.1c-0.3,0.2-0.5,0.4-0.8,0.6c-0.2,0.2-0.4,0.4-0.5,0.4
	c-0.3,0.2-0.4,0.4-0.7,0.7c-0.2,0.2-0.4,0.4-0.5,0.5c-0.3,0.2-0.4,0.4-0.7,0.7l0,0c-0.2,0.1-0.3,0.3-0.4,0.4
	c-0.3,0.3-0.4,0.4-0.7,0.7l-0.4,0.4c-0.3,0.3-0.5,0.5-0.8,0.8l-0.4,0.4c-0.4,0.4-0.8,0.8-1.2,1.2C144,140.5,137,157.8,137,176
	c0,19.1,8.1,37.8,22.8,52.6c0.4,0.4,0.9,0.9,1.3,1.2l0.4,0.4c0.3,0.3,0.6,0.5,0.9,0.9c0.1,0.1,0.3,0.2,0.4,0.4l0.2,0.1
	c0.3,0.3,0.5,0.5,0.8,0.8c0.2,0.1,0.4,0.3,0.4,0.4l0.1,0.1c0.3,0.3,0.5,0.4,0.8,0.7c0.2,0.2,0.4,0.3,0.5,0.4l0,0
	c0.3,0.2,0.5,0.4,0.8,0.7c0.2,0.2,0.4,0.4,0.6,0.5c0.3,0.2,0.5,0.4,0.8,0.6c0.2,0.2,0.4,0.4,0.6,0.5c0.3,0.2,0.5,0.4,0.9,0.6
	l0.1,0.1c0.2,0.1,0.4,0.3,0.5,0.4c0.3,0.2,0.6,0.4,0.9,0.6l0.2,0.1c0.2,0.1,0.3,0.2,0.4,0.4c0.4,0.2,0.6,0.4,1,0.7l0.2,0.1
	c0.1,0.1,0.2,0.2,0.4,0.3c0.4,0.3,0.9,0.6,1.2,0.9l0.3,0.2c0.5,0.4,1.1,0.7,1.6,1.1c0.1,0.1,0.2,0.1,0.4,0.2l0.2,0.1
	c0.4,0.2,0.7,0.4,1.1,0.6c0.2,0.1,0.3,0.2,0.4,0.3l0.2,0.1c0.3,0.2,0.6,0.4,1,0.5c0.2,0.1,0.4,0.3,0.6,0.4h0.1
	c0.3,0.2,0.6,0.4,1,0.5c0.3,0.1,0.5,0.3,0.8,0.4c0.3,0.2,0.6,0.4,1,0.5c0.3,0.1,0.5,0.3,0.8,0.4c0.3,0.2,0.6,0.4,1,0.4
	c0.3,0.1,0.5,0.3,0.8,0.4c0.3,0.2,0.6,0.3,1,0.4h0.1c0.2,0.1,0.4,0.2,0.6,0.3c0.3,0.1,0.6,0.3,1,0.4l0.3,0.1
	c0.2,0.1,0.4,0.2,0.5,0.3c0.4,0.2,0.7,0.3,1.1,0.4l0.2,0.1c0.2,0.1,0.3,0.1,0.4,0.2c0.4,0.2,0.9,0.4,1.2,0.5l0.5,0.2
	c0.6,0.3,1.2,0.4,1.8,0.7l0.7,0.3c0.4,0.1,0.7,0.3,1.2,0.4c0.2,0,0.4,0.1,0.5,0.2l0.3,0.1c0.4,0.1,0.7,0.3,1.1,0.4
	c0.2,0.1,0.4,0.1,0.5,0.2l0.2,0.1c0.4,0.1,0.7,0.3,1.1,0.4c0.3,0.1,0.5,0.2,0.8,0.3c0.4,0.1,0.7,0.2,1.1,0.4
	c0.3,0.1,0.5,0.2,0.8,0.3c0.4,0.1,0.7,0.2,1.1,0.4c0.3,0.1,0.5,0.2,0.8,0.3c0.4,0.1,0.7,0.2,1.2,0.3c0.3,0.1,0.5,0.1,0.8,0.2
	c0.4,0.1,0.8,0.2,1.2,0.3l0.3,0.1c0.2,0,0.4,0.1,0.5,0.1c0.3,0.1,0.6,0.2,0.9,0.2c-11.4,5.4-24,8.3-36.6,8.3c-46.9,0-85-38.2-85-85
	s38.2-85.1,85.1-85.1c9.9,0,19.5,1.7,28.6,4.9L200.6,99z M239,118.3c0.6-5.6,2.6-9.7,5.6-12.3c2.3-2,4.6-2.4,7.6-2.8
	c1.7,8.2,1.2,10.2,1.1,11.2c-0.9,4.5-3.3,8.7-7.2,12.5C243.9,124,241.6,121,239,118.3z M251.5,100.3c-3.1,0.4-6,1.1-8.9,3.5
	c-3.2,2.7-5.3,6.7-6.3,11.7c-4-4-8.4-7.7-13-10.9c5.8-1.2,10.1-3.6,12.8-7.1c2.3-2.9,2.8-5.9,3.1-9h0.3c3.5,0.6,6.6,1.2,9.5,2
	c0.9,2.9,1.7,6.1,2.4,9.4L251.5,100.3z M254.9,247.5c-0.6-0.4-1.2-0.7-1.7-1.2c-3.5-2.9-5.5-10.3-6.2-16.2c4.7,4.7,7.6,10.1,8,15.4
	C255,245.8,255,246.4,254.9,247.5z M222,254.6c5.7,1.4,9.6,3.9,11.8,7.5c0.6,1,1,1.9,1.2,2.9c-0.7,0-1.2-0.2-1.4-0.3
	c-4.8-1.2-9.4-4.4-13.3-9.2L222,254.6z M258.8,99.1c-1.6,0.4-3,0.5-4.4,0.7l-0.1-0.5c-0.6-2.8-1.2-5.4-2-7.9c1.2,0.3,2.2,0.6,3,0.9
	c4.4,1.2,7.1,2,11.6,1.6c2.8-0.2,5.6-0.9,8.3-1.9C271.3,94.8,265.7,97.7,258.8,99.1z M208.2,96.3c-4.2-1.8-8.5-3.3-12.8-4.4
	c-2.5-5.1-3.2-9.7-2-13.6c1.1-3.3,3.1-5,5.9-7.4l0.1-0.1c7.3,7.7,8.2,10.1,8.5,11.1C209.5,86.1,209.6,91,208.2,96.3z M181.7,75.9
	c-0.5,4.6-3.6,9-9.1,13h-0.2c-3.9,0-7.9,0.3-11.8,0.8c0.4-6.9,2.6-12.5,6.3-16.4c0.8-0.8,2.5-2.6,12.3-6.8l0.1,0.1
	C180.9,70,182,72.4,181.7,75.9z M175.5,291.2l-0.1,0.2c-9.2-7-11.3-16-11.4-22.2V269l0,0c2.8,0.3,5.6,0.4,8.4,0.4h0.4
	c4.4,4.4,6.5,8.9,6.4,13.2C179.1,285.8,177.6,288.1,175.5,291.2z M178,292.9L178,292.9c2.3-3.4,4-6.1,4.1-10.3
	c0.1-4.4-1.8-9-5.4-13.3c6.8-0.4,13.3-1.4,19.8-3.2c-0.1,6.8,1.3,12.4,4.4,16.6c0.4,0.6,0.9,1.2,1.3,1.8c-1.7,1.6-3.9,3.5-6.6,5.7
	c-3.2,2.6-6.2,4.8-9.2,6.9c-2.6-0.7-3.8-1.2-4.6-1.7l-0.3-0.1c-1.2-0.6-2.5-1.3-3.6-2.1L178,292.9z M199.6,265.1
	c2.7-0.9,5.3-1.8,7.9-2.9c1.5,6.8,1.1,12.9-1.5,17.7c-0.3,0.4-0.6,1.2-1.7,2.3c-0.4-0.4-0.6-0.8-1-1.2
	C200.6,276.9,199.4,271.7,199.6,265.1z M275.7,258.4c-4.5-0.4-7.1,0.4-11.6,1.6c-2.5,0.7-5.7,1.6-10.1,2.5c0.2-0.6,0.4-1.3,0.7-2
	c1.2-3.6,2-6.6,2.6-9c1.4,0.4,2.9,0.5,4.5,0.7c1.7,0.2,3.6,0.4,5.7,0.9c6.8,1.4,12.4,4.4,16.6,7.1
	C281.3,259.2,278.5,258.7,275.7,258.4z M282.1,214.9c0.9-0.7,1.7-1.4,2.5-2.2c0.5,2.8,0.9,5,1.2,6.9l0,0c0.7,4.5,1.2,7.3,3.4,11.2
	c1.3,2.4,3.1,4.7,5.1,6.8c-4.2-2.7-9.2-6.6-13.3-12.1c-1.2-1.7-2.3-3.4-3.2-4.7c-0.3-0.4-0.6-1-0.9-1.4
	C278.4,218,280.1,216.6,282.1,214.9z M199.6,66.7c-2-2-3.8-3.8-5.7-5.5c0.4-0.1,0.8-0.3,1.2-0.4c4.4-1.3,7-2.2,10.6-4.9
	c2.2-1.7,4.2-3.7,6-6.1c-2,4.5-5.2,10.1-10.1,15C201,65.4,200.3,66,199.6,66.7z M88.3,243.1L88.3,243.1L88.3,243.1L88.3,243.1z
	 M172.7,302.8L172.7,302.8c0.1-0.2,0.1-0.3,0.2-0.4c0.1-0.3,0.2-0.4,0.3-0.7c0.1-0.2,0.2-0.4,0.3-0.6c0.1-0.2,0.2-0.4,0.3-0.6
	c0.1-0.3,0.3-0.5,0.4-0.8l0.1-0.2c0-0.1,0.1-0.2,0.2-0.4c0.2-0.4,0.4-0.9,0.7-1.2c0.1-0.3,0.3-0.5,0.4-0.8l0.1-0.2
	c0.1-0.2,0.2-0.4,0.4-0.5l0.1-0.2c0.1-0.1,0.2-0.3,0.3-0.4c1.2,0.8,2.6,1.6,4,2.3l0.3,0.1c0.6,0.3,1.4,0.7,2.8,1.2
	c-0.3,0.2-0.5,0.4-0.8,0.5c-3.8,2.5-6.1,4-8.9,7.7c-1.6,2.2-3,4.7-4,7.4C170,311.3,170.9,307.1,172.7,302.8z M223.6,301.7
	c-4.4-1.9-7-1.9-11.6-2c-3.5,0-8.3-0.1-16.1-1.1c-2-0.3-3.9-0.5-5.5-0.8c2.3-1.7,4.6-3.5,7-5.4c2.8-2.3,5.2-4.3,6.9-6
	c1.9,1.4,3.8,2.4,6.1,3.5c1.6,0.8,3.4,1.6,5.3,2.8c6.5,3.8,11.6,9,15.2,13.3C228.7,304.3,226.2,302.8,223.6,301.7z M327.7,157.2
	c-2.5,1.2-5.3,2.2-8,2.8c-0.4-0.2-0.7-0.3-1.2-0.3c-0.3,0-0.7,0-1.2,0c-3.1,0.1-10.3,0.5-17.6-3.4c-3.5-1.9-5.1-3.6-8-6.9
	c-1.2-1.3-2.7-3-4.6-5.1c0.8-2.9,1.2-5.3,1.7-7.1c1-4.4,1.5-6.7,3.6-10.1c4.5-6.9,11-10.1,13.8-11.5c0.4-0.2,0.8-0.4,1.1-0.5
	c1.7-0.5,3.5-0.9,5.3-1.2c0.9-0.1,1.8-0.2,2.8-0.3c6.9,13.4,11.5,27.8,13.9,42.7C328.5,156.9,328.1,157.1,327.7,157.2z M312,110.7
	c-2.1,0.3-4.3,0.7-6.4,1.4c-4.2,0.7-17,5.1-26.5,16.3c-1.4,1.7-2.6,3.4-3.6,4.7l-0.1,0.2c-5-4.2-6.9-4.8-7.9-5.2
	c-2.5-0.9-5.1-1.3-7.9-1.3c-3.5,0-7.3,0.7-11.1,2.1c4.3-4.3,6.9-8.9,7.9-14c0.3-1.3,0.7-3.6-1.1-12.2c1.2-0.2,2.7-0.4,4.4-0.7
	c16.4-3.5,26.9-15,27.6-16.6c0-0.1,0.1-0.2,0.1-0.4c1-1.2,1.9-2.6,2.6-4c0.3-0.5,0.6-1.2,0.9-1.7c9,9.3,16.6,19.8,22.7,31.1
	C312.9,110.6,312.4,110.6,312,110.7z M286.8,79.5c-0.9,1.7-2,3.3-3.3,4.7l0,0c-2.5,1.8-8.4,6-16.6,6.7c-3.9,0.4-6.3-0.4-10.5-1.5
	c-1.3-0.4-2.9-0.8-4.8-1.3c-0.5-1.9-1.2-3.5-1.5-4.8c-1.4-4.2-2.1-6.5-2-10.4c0.3-8.3,4.3-14.3,5.9-16.9c0.7-1.1,1.1-1.5,1.1-2.1
	c0.4-0.4,0.8-0.8,1.2-1.2c11.7,6.5,22.4,14.7,32,24.1C287.7,77.8,287.3,78.6,286.8,79.5z M249.9,54.6c-2.4,2.6-10.4,12-12.7,26.1
	c-0.3,1.6-0.4,3.1-0.5,4.4c-8.6-1.3-10.9-0.8-12.2-0.4c-4.5,1.1-8.6,3.5-12.4,7.3c0.4-3.9,0-7.7-1.2-10.9c-0.5-1.3-1.4-3.9-9.2-12
	c0.8-0.7,1.4-1.3,2.1-2c10.6-10.5,13.4-23.3,13.9-25.9c0.4-1,0.6-2,0.9-3c12,2.8,23.6,7,34.4,12.8C251.8,52,250.7,53.3,249.9,54.6z
	 M214.2,38.9c-1.2,2.8-3.8,9.6-10.3,14.7c-3.1,2.4-5.5,3.1-9.7,4.4c-0.9,0.3-1.9,0.5-2.8,0.9c-0.8-0.7-1.5-1.3-2.2-2
	c-3.4-2.8-5.2-4.4-7.1-7.9c-2.3-4.3-3.6-9.2-3.6-14.5c2.3-0.1,4.6-0.2,6.9-0.2c10,0,19.9,1.1,29.6,3
	C214.7,37.6,214.5,38.2,214.2,38.9z M188,60c-2.4,0.8-4.8,1.8-7.4,2.8c-0.4-0.9-0.8-1.7-1.1-2.5c-2.5-6.5-3.3-12.7-3.3-17.7
	c0.7,2.8,1.7,5.5,3,7.9c2.2,3.9,4.3,5.8,7.7,8.8C187.4,59.4,187.7,59.7,188,60z M164.8,71.2c-4.4,4.5-6.9,11-7.2,18.9
	c-20.7,3.5-39.8,14.2-53.6,30.3c-5.2-1.2-12.9-2.4-21.5-0.9c-6.9,1.2-11.1,3.7-14.9,5.9c-3.6,2.1-6.6,3.7-10.9,3.5
	c-2.5-0.1-4.7-0.9-7-2.2C57,107.9,68,91.1,82.4,76.7c12.4-12.4,26.6-22.3,42.4-29.5c15.5-7.1,32-11.4,49.2-12.6
	c-0.7,4.6-1.6,15.2,2.8,26.6c0.4,0.8,0.7,1.7,1.2,2.6C167.6,68.2,165.7,70.2,164.8,71.2z M69,128.1c3.6-2,7.6-4.4,13.9-5.5
	c6-1.2,12.4-1,18.8,0.4C89,139,82.1,158.8,82.1,179.1c0,20,6.5,39,18.7,54.9l-1.5,1.8c0,0-0.1,0.1-0.2,0.2l-0.1,0.1
	c0,0-0.1,0.1-0.2,0.2c0,0-0.1,0.1-0.2,0.2l-0.1,0.1l-0.1,0.1c0,0-0.1,0.1-0.2,0.2l-0.2,0.1L98,237c-0.1,0-0.1,0.1-0.2,0.2l-0.2,0.1
	l-0.1,0.1c-0.1,0-0.2,0.1-0.3,0.2l-0.2,0.1l-0.1,0.1c-0.1,0-0.2,0.1-0.3,0.2l-0.2,0.1c0,0-0.1,0-0.1,0.1c-0.1,0.1-0.2,0.1-0.4,0.2
	l-0.2,0.1c0,0-0.1,0-0.1,0.1c-0.1,0.1-0.3,0.1-0.4,0.2l-0.1,0.1h-0.1c-0.2,0.1-0.4,0.2-0.6,0.3l-0.2,0.1c-0.3,0.1-0.5,0.2-0.8,0.3
	c-3.8,1.4-6.6,1-10.7,0.3c-3.4-0.5-7.5-1.2-13.7-1.2h-1.4h-6.1c-0.3,0-0.4,0-0.7,0h-0.5c-0.2,0-0.4,0-0.7,0h-0.5c-0.2,0-0.4,0-0.5,0
	h-0.5c-0.2,0-0.4,0-0.7,0h-0.4c-0.3,0-0.4,0-0.7,0.1H56c-0.4,0-0.7,0.1-1,0.1h-0.3c-0.2,0-0.4,0.1-0.7,0.1c-0.1,0-0.2,0-0.3,0h-0.1
	c-0.2,0-0.4,0.1-0.5,0.1c-0.1,0-0.2,0-0.3,0.1h-0.1c-1.6-3.6-3.1-7.2-4.4-10.8c-2.4-7.8-4.4-15-5.9-21.7c-1.7-9-2.6-18.2-2.6-27.3
	c0-17.3,3-34.2,8.9-50.2c2.5,1.4,5.3,2.2,7.9,2.3C61.6,132.3,65.1,130.4,69,128.1z M176,309.2c2.3-3.2,4.4-4.5,8-6.9
	c0.9-0.6,1.9-1.2,3-2c2.3,0.5,5.2,1.1,8.5,1.4c7.9,1,12.8,1.1,16.4,1.1c4.3,0,6.7,0,10.4,1.7c7.3,3.1,12.3,9.2,14.3,11.7
	c-16.4,6.1-33.6,9.3-51.4,9.3c-5,0-10.1-0.3-15-0.8C170.5,322.1,171.4,315.3,176,309.2z M211.8,287.3c-2.1-1.1-3.7-1.8-5.3-3
	c1.3-1.5,1.9-2.4,2.1-3c2.9-5.6,3.5-12.6,1.6-20.4c2.2-1.1,4.5-2.2,6.7-3.5l0,0l0.7-0.4c4.4,5.6,9.6,9.2,15.2,10.6
	c0.5,0.1,1.2,0.3,2.6,0.4c0,1.1,0,2.2,0,3.4c0,1.7-0.1,3.6,0.1,6c1.1,15.6,9.5,27,11.8,29.2c0.9,1.2,1.9,2.5,3,3.6
	c-3.4,1.7-6.7,3.2-10,4.5c-1.4-2.8-9.2-16.3-23.1-24.6C215.3,289,213.4,288.1,211.8,287.3z M245.6,286.3c0.3-3.9,1.2-6.1,3-10.2
	c1.2-2.5,2.5-5.6,4.2-10.2c5.6-1.2,9.3-2.2,12.1-2.9c4.3-1.2,6.6-1.9,10.5-1.5c8.2,0.7,14.2,4.9,16.6,6.8c0.6,0.4,1,0.7,1.3,0.9
	c0.8,0.8,1.4,1.5,2,2.2c0.5,0.5,1.1,1.2,1.7,1.9c-2.8,3.5-5.8,6.7-8.9,9.8c-10.3,10.3-22,19-34.7,25.7c-1.2-1.2-2.3-2.6-3.4-4
	c-0.1-0.2-0.3-0.5-0.4-0.9C248.3,301,245,294.5,245.6,286.3z M268.1,250.2c-2.2-0.4-4.2-0.7-5.9-1c-1.6-0.2-3-0.4-4.4-0.7
	c0.3-1.9,0.2-2.8,0.1-3.5c-0.5-6.2-3.7-12.4-9.3-17.7c0.6-1,1.2-1.9,1.7-2.7c0.4-0.5,0.7-1.2,1.1-1.9c6.4,2.3,12.5,2.7,17.9,1
	c0.9-0.3,2.2-0.7,5.3-2.8c0.3,0.4,0.5,0.8,0.8,1.2c0.9,1.4,2,3.1,3.3,5c10,13.3,23.9,17.9,26.3,18.2c2,0.8,4,1.4,6,1.9
	c1.2,0.3,2.3,0.4,3.5,0.6c-4.2,7.9-9.2,15.5-14.8,22.5c-0.4-0.5-1-1.1-1.3-1.5c-1.2-1.3-2.6-2.8-4-4.1
	C292.3,262.9,283,253.5,268.1,250.2z M291.7,229.3c-2-3.5-2.3-5.9-3-10.2c-0.4-2.3-0.8-5.1-1.5-8.7c3.1-2.9,5.3-5.2,6.9-7
	c3-3.2,4.7-5,8.3-6.8c7.4-3.6,14.7-3,17.7-2.8c0.6,0,1.1,0.1,1.3,0.1c1.8,0.5,3.6,1.2,5.3,1.9c1.1,0.4,2,1,3.1,1.5
	c-2,16.6-6.7,32.5-14.1,47.3c-1.5-0.1-2.9-0.4-4.4-0.7c-2.2-0.5-4.4-1.2-6.7-2.2h-0.1C302,240.1,295.8,236.5,291.7,229.3z
	 M290.3,190.9c-2.1,0.7-3.9,1.5-5.5,2.2c-0.7,0.3-1.4,0.6-2,0.9c-1.4-3.9-2.3-5.2-2.9-5.9c-3.7-4.9-9.7-8.3-17.3-9.8
	c0-0.8,0-1.6,0-2.4c6.4-1.3,11.6-4.2,15.2-8.2c0.8-0.9,2-2.3,4.3-8.1c1.5,0.7,3.3,1.5,5.3,2.3c12.7,4.8,24.5,3,28.4,2.2v0.1h0.4
	c4.5-0.4,8.9-1.8,13-3.7c0.1,0,0.3-0.1,0.4-0.2c0.9,6.6,1.3,13.2,1.3,19.7c0,4.6-0.2,9.2-0.6,13.8c-0.7-0.4-1.4-0.7-2.1-1
	c-2.3-1-4.7-1.8-7.2-2.4C315.5,188.4,303.1,186.5,290.3,190.9z"/>
</svg>
