<?xml version="1.0" encoding="utf-8"?>
<!-- Generator: Adobe Illustrator 18.1.1, SVG Export Plug-In . SVG Version: 6.00 Build 0)  -->
<svg version="1.1" id="Layer_1" xmlns="http://www.w3.org/2000/svg" xmlns:xlink="http://www.w3.org/1999/xlink" x="0px" y="0px"
	 viewBox="0 0 149.7 62.1" enable-background="new 0 0 149.7 62.1" xml:space="preserve">
	 <g>
	<path fill="#EC008C" d="M596.5,503.7c-3.3-9-9.4-25.8-18-48.2c-0.8-2-1.6-4.5-2.5-6.9c-0.8-2.5-2-4.5-2.9-6.9
		c-2-4.9-4.1-9.8-6.1-15.1c-4.5-10.6-9-22.1-14.7-33.9c-2.9-5.7-5.7-11.9-9-17.6l-0.8-1.2l-0.8-0.8c-0.4-0.8-0.8-1.6-1.2-2
		c-0.8-1.2-1.6-2.5-2.9-3.7c-2-2.5-4.5-4.5-6.9-6.9c-10.2-9-23.7-15.9-38-22.5c-29-12.7-63-22.1-98.9-29.8c-4.5-0.8-9-2-13.5-2.9
		l-1.6-0.4l-1.6-0.4l-3.7-0.8c-2.5-0.4-4.9-0.8-6.9-1.2c-9.4-2-18.8-2.9-28.2-4.5c-19.2-1.6-38.8-2.9-58.5-2.5s-39.7,2.5-59.3,6.5
		s-38.8,10.6-56.4,19.6l-6.5,3.7c-2,1.2-4.1,2.5-6.1,3.7l-1.2,0.8l-1.2,0.8l-2.5,2c-1.6,1.6-3.7,2.9-5.3,4.5
		c-6.9,6.5-14.3,14.3-20.8,22.5c-13.5,15.9-26.6,33.1-38.8,50.7c-13.1,17.2-25.8,34.3-37.2,52.3c-2.9,4.5-5.7,9-8.2,13.1
		c-1.2,2-2.5,4.1-3.3,6.1c-0.4,0.8-0.8,2-1.2,2.5v0.4c0,0,0,0.4,0,0c0,0,0,0,0-0.4c0,0,0-0.4,0-0.8s0-1.2,0-1.6c0-0.4,0-1.2-0.4-2.9
		c0.8,0.8-3.3-6.1-2.5-4.9c0,0,0.8,0.8-1.2-1.6c-1.2-1.2-4.1-2.9-4.5-2.9c-0.4-0.4-1.2-0.4-2-0.4c-0.4,0-0.8,0-0.8,0
		c-0.8,0-0.8,0-0.8,0c-0.4,0,0.4,0,1.2,0c1.6-0.4,4.1-0.8,6.5-1.2c4.9-1.2,10.2-2.5,15.5-4.1c20.8-5.7,42.5-10.6,64.2-13.5
		s43.3-4.1,65-2.9c21.3,1.2,42.5,5.3,62.1,11.4c9.8,3.3,19.2,6.9,28.6,11.4l1.6,0.8h0.4c0.4,0-0.4-0.4,0,0l0.8,0.4l3.3,1.2
		c2,0.8,4.5,2,6.5,2.9c4.5,2,8.6,3.7,13.1,5.7c4.1,1.2,8.2,2.9,12.7,4.1c2,0.8,4.1,1.2,6.1,2c2,0.8,4.1,1.2,6.1,2
		c4.1,1.2,8.6,2,12.7,3.3c4.1,1.2,8.6,2.5,12.7,2.9c4.1,0.8,8.6,1.6,12.7,2.5s8.2,1.6,12.3,2c8.2,1.2,16.4,2.5,24.5,3.3
		c31.9,3.3,61.7,3.7,88.3,3.3s49.5-1.6,68.7-2c19.2-0.8,34.3-1.2,44.6-0.8C591.6,503.7,594.4,503.7,596.5,503.7z M603.8,515.2
		c0,0-1.2,0-3.7,0c-2.5,0-6.1-0.4-11.4,0c-9.8,0-24.9,0.8-43.7,2.5c-19.2,1.6-42.1,3.3-69.1,4.5c-26.6,1.2-57.2,2-90.3-0.4
		c-8.2-0.4-16.8-1.6-25.3-2.5c-4.5-0.4-8.6-1.2-13.1-1.6c-4.5-0.8-9-1.2-13.1-2c-4.5-0.4-9-1.6-13.5-2.9c-4.5-0.8-9-2-13.5-2.9
		c-2.5-0.4-4.5-1.2-6.9-1.6c-2.5-0.8-4.5-1.2-6.9-2c-4.5-1.2-9.4-2.9-13.9-4.1c-4.5-1.6-8.6-3.3-13.1-5.3c-2-0.8-4.5-1.6-6.5-2.5
		l-3.3-1.2l-0.8-0.4l-1.2-0.4l-1.6-0.8c-8.2-3.7-17.2-6.9-26.2-9.4c-18-5.3-36.8-7.8-56.4-8.6c-19.6-0.4-39.2,1.2-59.3,4.5
		s-40.1,8.6-60.1,14.7c-5.3,1.6-10.2,3.3-15.9,4.5c-2.9,0.8-5.7,1.6-9,2c-1.6,0.4-3.7,0.8-6.9,0.8c-0.8,0-1.6,0-2.9-0.4
		c-0.8,0-1.2,0-2-0.4c-0.8-0.4-2-0.4-2.9-0.8c-0.4,0-3.7-2-5.3-3.3c-2.5-2.5-1.6-2-2-2c0.4,0.8-3.7-6.1-2.9-5.7
		c-0.8-2-0.8-3.3-0.8-4.1s0-2,0-2.5v-1.6c0-1.2,0.4-1.6,0.4-2.5s0.4-1.2,0.4-2l0.4-1.6c0.8-2,1.2-3.3,2-4.9c1.2-2.9,2.9-5.7,4.1-8.2
		c3.3-5.3,6.1-10.2,9-15.1c11.4-19.2,23.7-37.6,36.8-55.6c13.5-17.6,27.4-34.7,42.5-51.5c7.8-8.2,15.5-16.4,24.1-24.1
		c2-2,4.5-4.1,6.9-5.7c1.2-0.8,2.9-2,4.1-2.9l1.6-1.2l2.5-1.2c2.5-1.6,5.3-3.3,7.8-4.5l7.8-4.1c42.1-20,87.1-25.3,129.2-24.9
		c21.3,0.4,41.7,2.5,61.7,5.3c9.8,1.6,20,3.3,29.4,5.3c2.5,0.4,4.5,0.8,6.9,1.6l3.7,0.8l2,0.4l1.6,0.4c4.5,1.2,9.4,2.5,13.9,3.7
		c36.8,9.4,71.1,20,101.8,34.7c15.1,7.4,29.4,15.5,41.7,26.6c2.9,2.9,5.7,5.7,8.6,9c1.2,1.6,2.5,3.3,3.7,4.9
		c0.8,0.8,0.8,1.6,1.6,2.5l0.8,1.2l0.8,1.2c3.7,6.5,6.5,13.1,9,19.2c5.3,12.7,9.4,24.1,13.5,35.2c2,5.3,4.1,10.6,5.7,15.5
		c0.8,2.5,1.6,4.9,2.9,7.4c0.8,2.5,1.6,4.9,2.5,6.9l21.7,64.2H603.8z"/>
</g>
</svg>
