<?xml version="1.0" encoding="utf-8"?>
<!-- Generator: Adobe Illustrator 19.1.0, SVG Export Plug-In . SVG Version: 6.00 Build 0)  -->
<svg version="1.1" id="Layer_1" xmlns="http://www.w3.org/2000/svg" xmlns:xlink="http://www.w3.org/1999/xlink" x="0px" y="0px"
	 viewBox="-1315.9 803.3 31.8 36.3" style="enable-background:new -1315.9 803.3 31.8 36.3;" xml:space="preserve">
<style type="text/css">
	.st0{fill:#FFFFFF;}
</style>
<path class="st0" d="M-1285.6,826.1h-1.5v-9.9c0-7.1-5.8-12.9-12.9-12.9c-7.1,0-12.9,5.8-12.9,12.9v9.9h-1.5c-0.8,0-1.5,0.7-1.5,1.5
	v5.4c0,0.8,0.7,1.5,1.5,1.5h5.3v3.6c0,0.8,0.7,1.5,1.5,1.5c0.8,0,1.5-0.7,1.5-1.5v-3.6h12.2v3.6c0,0.8,0.7,1.5,1.5,1.5
	s1.5-0.7,1.5-1.5v-3.6h5.3c0.8,0,1.5-0.7,1.5-1.5v-5.4C-1284.1,826.8-1284.8,826.1-1285.6,826.1z M-1309.9,816.2
	c0-5.4,4.4-9.9,9.9-9.9c5.4,0,9.9,4.4,9.9,9.9v9.9h-8.4v-5.6c1.8-0.6,3.1-2.3,3.1-4.3c0-2.5-2.1-4.6-4.6-4.6s-4.6,2.1-4.6,4.6
	c0,2,1.3,3.7,3.1,4.3v5.6h-8.4V816.2z M-1300,817.8c-0.9,0-1.6-0.7-1.6-1.6c0-0.9,0.7-1.6,1.6-1.6c0.9,0,1.6,0.7,1.6,1.6
	C-1298.4,817.1-1299.1,817.8-1300,817.8z M-1287.1,831.6h-25.7v-2.5h25.7V831.6L-1287.1,831.6z"/>
</svg>
