<?xml version="1.0" encoding="utf-8"?>
<!-- Generator: Adobe Illustrator 19.1.0, SVG Export Plug-In . SVG Version: 6.00 Build 0)  -->
<svg version="1.1" id="Layer_1" xmlns="http://www.w3.org/2000/svg" xmlns:xlink="http://www.w3.org/1999/xlink" x="0px" y="0px"
	 viewBox="-623.9 395.3 31.7 36.3" style="enable-background:new -623.9 395.3 31.7 36.3;" xml:space="preserve">
<style type="text/css">
	.st0{fill:#FFFFFF;}
</style>
<path class="st0" d="M-593.6,418h-1.5v-9.9c0-7.1-5.8-12.9-12.9-12.9c-7.1,0-12.9,5.8-12.9,12.9v9.9h-1.5c-0.8,0-1.5,0.7-1.5,1.5
	v5.4c0,0.8,0.7,1.5,1.5,1.5h5.3v3.6c0,0.8,0.7,1.5,1.5,1.5s1.5-0.7,1.5-1.5v-3.6h12.2v3.6c0,0.8,0.7,1.5,1.5,1.5s1.5-0.7,1.5-1.5
	v-3.6h5.3c0.8,0,1.5-0.7,1.5-1.5v-5.4C-592.1,418.7-592.8,418-593.6,418z M-617.9,408.1c0-5.4,4.4-9.9,9.9-9.9
	c5.4,0,9.9,4.4,9.9,9.9v9.9h-8.4v-5.6c1.8-0.6,3.1-2.3,3.1-4.3c0-2.5-2.1-4.6-4.6-4.6c-2.5,0-4.6,2.1-4.6,4.6c0,2,1.3,3.7,3.1,4.3
	v5.6h-8.4V408.1z M-608,409.7c-0.9,0-1.6-0.7-1.6-1.6c0-0.9,0.7-1.6,1.6-1.6c0.9,0,1.6,0.7,1.6,1.6
	C-606.4,409-607.1,409.7-608,409.7z M-595.1,423.5h-25.7V421h25.7L-595.1,423.5L-595.1,423.5z"/>
</svg>
